<?xml version="1.0" standalone="no"?>
<!DOCTYPE svg PUBLIC "-//W3C//DTD SVG 1.1//EN" "http://www.w3.org/Graphics/SVG/1.1/DTD/svg11.dtd" >
<svg xmlns="http://www.w3.org/2000/svg" xmlns:xlink="http://www.w3.org/1999/xlink" version="1.1">
<metadata>
Created by FontForge 20201107 at Mon Mar 27 11:46:49 2023
 By 
Copyright 2022 The Noto Project Authors (https://github.com/notofonts/tamil)
</metadata>
<defs>
<font id="NotoSansTamil-Medium" horiz-adv-x="572" >
  <font-face 
    font-family="Noto Sans Tamil Medium"
    font-weight="500"
    font-stretch="normal"
    units-per-em="1000"
    panose-1="0 0 0 0 0 0 0 0 0 0"
    ascent="800"
    descent="-200"
    x-height="539"
    cap-height="714"
    bbox="-594 -321 2262 998"
    underline-thickness="50"
    underline-position="-125"
    unicode-range="U+000D-1133C"
  />
<missing-glyph horiz-adv-x="600" 
d="M94 0v714h411v-714h-411zM145 51h309v612h-309v-612z" />
    <glyph glyph-name=".notdef" horiz-adv-x="600" 
d="M94 0v714h411v-714h-411zM145 51h309v612h-309v-612z" />
    <glyph glyph-name=".null" horiz-adv-x="0" 
 />
    <glyph glyph-name="nonmarkingreturn" horiz-adv-x="333" 
 />
    <glyph glyph-name="NULL" horiz-adv-x="0" 
 />
    <glyph glyph-name="CR" unicode="&#xd;" horiz-adv-x="260" 
 />
    <glyph glyph-name="space" unicode=" " horiz-adv-x="260" 
 />
    <glyph glyph-name="exclam.tamil" unicode="!" horiz-adv-x="280" 
d="M102 212l-25 502h126l-25 -502h-76zM140 -12q-31 0 -50 17.5t-19 54.5q0 36 18.5 54.5t50.5 18.5q30 0 49 -18.5t19 -54.5t-19 -54t-49 -18z" />
    <glyph glyph-name="quotedbl.tamil" unicode="&#x22;" horiz-adv-x="442" 
d="M93 542l-24 258h119l-23 -258h-72zM277 542l-23 258h118l-23 -258h-72z" />
    <glyph glyph-name="numbersign.tamil" unicode="#" horiz-adv-x="652" 
d="M112 0l39 206h-124v77h139l28 146h-131v77h145l39 208h83l-40 -208h129l39 208h82l-39 -208h124v-77h-139l-28 -146h132v-77h-147l-39 -206h-82l39 206h-128l-39 -206h-82zM247 283h129l28 146h-128z" />
    <glyph glyph-name="dollar" unicode="$" 
d="M253 46q-58 2 -109.5 11t-86.5 25v98q36 -17 90.5 -30.5t105.5 -14.5v187q-69 21 -112.5 46t-64 59.5t-20.5 81.5q0 49 24.5 84.5t69 56.5t103.5 25v84h65v-83q54 -1 99 -11.5t85 -27.5l-33 -86q-34 14 -73.5 23.5t-77.5 12.5v-184q62 -20 107.5 -42t70.5 -54.5t25 -85.5
q0 -71 -52.5 -116t-150.5 -55v-108h-65v104zM318 139q52 6 75.5 25.5t23.5 50.5q0 21 -9.5 36t-31 26t-58.5 22v-160zM253 585q-31 -2 -51.5 -11.5t-31 -24.5t-10.5 -35q0 -22 9 -38.5t29 -28t55 -21.5v159z" />
    <glyph glyph-name="percent.tamil" unicode="%" horiz-adv-x="852" 
d="M183 0l396 714h89l-396 -714h-89zM196 276q-73 0 -112.5 58.5t-39.5 166.5q0 110 37.5 167t114.5 57q76 0 116 -58.5t40 -165.5q0 -110 -38.5 -167.5t-117.5 -57.5zM196 350q35 0 52 37.5t17 113.5q0 74 -17 111.5t-52 37.5q-33 0 -49 -37.5t-16 -111.5q0 -75 16 -113
t49 -38zM652 -11q-73 0 -113 58.5t-40 166.5q0 110 37.5 166.5t115.5 56.5q75 0 115.5 -58t40.5 -165q0 -110 -39 -167.5t-117 -57.5zM652 63q35 0 51.5 37t16.5 114q0 74 -16.5 111t-51.5 37q-34 0 -49.5 -37t-15.5 -111q0 -76 15.5 -113.5t49.5 -37.5z" />
    <glyph glyph-name="ampersand" unicode="&#x26;" horiz-adv-x="737" 
d="M306 725q55 0 95.5 -18.5t63 -52.5t22.5 -84q0 -64 -41 -109t-102 -81l177 -171q24 32 40 71.5t27 84.5h108q-15 -62 -40.5 -119.5t-65.5 -103.5l146 -142h-138l-78 75q-31 -25 -66 -44t-76.5 -30t-93.5 -11q-72 0 -125 23.5t-81.5 68t-28.5 106.5q0 51 17.5 88t51 65.5
t78.5 54.5q-22 25 -40.5 51.5t-30 55.5t-11.5 63q0 50 23.5 85.5t67 54.5t101.5 19zM259 331q-31 -19 -52.5 -38.5t-34 -43t-12.5 -55.5q0 -51 35.5 -81.5t93.5 -30.5q55 0 95.5 17t69.5 42zM303 640q-37 0 -62 -19t-25 -57q0 -33 17 -61.5t48 -61.5q54 31 79 59.5t25 65.5
q0 34 -23 54t-59 20z" />
    <glyph glyph-name="quotesingle.tamil" unicode="'" horiz-adv-x="257" 
d="M93 542l-24 258h119l-23 -258h-72z" />
    <glyph glyph-name="parenleft.tamil" unicode="(" horiz-adv-x="329" 
d="M57 283q0 94 16.5 187t49.5 177.5t82 152.5h94q-45 -72 -76.5 -157t-47.5 -177t-16 -184t15 -184.5t46.5 -179t78.5 -162.5h-94q-49 71 -82 157t-49.5 180t-16.5 190z" />
    <glyph glyph-name="parenright.tamil" unicode=")" horiz-adv-x="329" 
d="M272 273q0 -93 -16.5 -186.5t-49 -177.5t-82.5 -153h-93q45 73 76 157.5t47.5 176.5t16.5 184q0 93 -15.5 184.5t-46.5 178.5t-79 163h94q50 -71 83 -157t49 -180t16 -190z" />
    <glyph glyph-name="asterisk.tamil" unicode="*" horiz-adv-x="552" 
d="M329 800l-20 -188l189 53l14 -103l-180 -13l118 -155l-94 -50l-81 171l-78 -171l-96 50l117 155l-179 13l15 103l188 -53l-21 188h108z" />
    <glyph glyph-name="plus.tamil" unicode="+" 
d="M245 111v201h-196v81h196v202h82v-202h196v-81h-196v-201h-82z" />
    <glyph glyph-name="comma.tamil" unicode="," horiz-adv-x="262" 
d="M189 116l7 -11q-9 -35 -23 -75.5t-30 -81t-33 -77.5h-79q10 40 19 83.5t17 85.5t13 76h109z" />
    <glyph glyph-name="hyphen.tamil" unicode="-" horiz-adv-x="322" 
d="M37 256v94h248v-94h-248z" />
    <glyph glyph-name="period.tamil" unicode="." horiz-adv-x="273" 
d="M137 -12q-29 0 -49 17t-20 55q0 40 20 56.5t49 16.5q28 0 48 -16t20 -57q0 -38 -20 -55t-48 -17z" />
    <glyph glyph-name="slash.tamil" unicode="/" horiz-adv-x="403" 
d="M20 -244l266 1044h97l-266 -1044h-97z" />
    <glyph glyph-name="zero.tamil" unicode="0" 
d="M286 -11q-80 0 -133.5 42.5t-80 124.5t-26.5 201q0 122 25 204t78 123t137 41q79 0 133 -42.5t81 -124t27 -201.5q0 -91 -14.5 -160t-44 -115t-75 -69.5t-107.5 -23.5zM286 77q43 0 70 23.5t41 63t18.5 89.5t4.5 104q0 53 -5 102.5t-19 90t-40.5 63.5t-69.5 23
q-45 0 -71.5 -23t-40 -63t-18 -90t-4.5 -103q0 -59 5.5 -110t19.5 -89t40.5 -59.5t68.5 -21.5z" />
    <glyph glyph-name="one.tamil" unicode="1" 
d="M373 0h-105v474q0 36 1 70t2 58q-6 -6 -18 -17.5t-24 -21.5l-94 -77l-54 68l204 160h88v-714z" />
    <glyph glyph-name="two.tamil" unicode="2" 
d="M46 0v82l185 187q54 54 89 95t53.5 78.5t18.5 81.5q0 36 -14 60.5t-40 37.5t-61 13q-49 0 -87 -18t-81 -52l-58 70q34 28 69 48t75 31t85 11q65 0 114.5 -23t77 -65.5t27.5 -103.5q0 -57 -23.5 -106t-65.5 -97t-98 -102l-132 -129v-5h346v-94h-480z" />
    <glyph glyph-name="three.tamil" unicode="3" 
d="M243 -11q-59 0 -109 10t-91 29v95q46 -22 97.5 -34.5t98.5 -12.5q87 0 128.5 33.5t41.5 98.5q0 38 -20 64.5t-62 39.5t-109 13h-65v87h66q59 0 97.5 15t57 43t18.5 65q0 47 -31.5 74.5t-91.5 27.5q-52 0 -91 -15.5t-80 -42.5l-51 73q47 34 102.5 53.5t122.5 19.5
q65 0 116 -19t81 -58t30 -99q0 -46 -18 -81.5t-51.5 -58.5t-80.5 -33v-4q84 -10 128 -53.5t44 -114.5q0 -73 -35 -120.5t-98 -71t-145 -23.5z" />
    <glyph glyph-name="four.tamil" unicode="4" 
d="M352 0v158h-332v84l329 475h106v-469h99v-90h-99v-158h-103zM120 248h232v194q0 21 0.5 48t1.5 55.5t3 54.5h-4q-8 -20 -18.5 -39t-24.5 -39z" />
    <glyph glyph-name="five.tamil" unicode="5" 
d="M247 -11q-58 0 -106.5 10t-81.5 29v96q40 -21 91.5 -33.5t95.5 -12.5q53 0 89.5 16t56 48t19.5 78q0 67 -42 101t-127 34q-27 0 -57 -4t-61 -11l-48 29l26 345h367v-94h-274l-16 -187q26 5 51 7.5t52 2.5q68 0 121.5 -24t84.5 -71t31 -117q0 -79 -33 -133t-94 -81.5
t-145 -27.5z" />
    <glyph glyph-name="six.tamil" unicode="6" 
d="M297 -11q-62 0 -108.5 23.5t-77.5 66t-47 100t-16 125.5q0 78 12 143t37 116.5t65 87t95 54.5t128 19q24 0 48 -2t42 -6v-89q-18 6 -40 9t-46 3q-81 0 -132 -30.5t-76.5 -90.5t-29.5 -150h6q17 27 41 45.5t55 28.5t69 10q65 0 111 -27t70.5 -76.5t24.5 -116.5
q0 -73 -27 -128t-79 -85t-125 -30zM295 76q61 0 95 40t34 115q0 65 -31.5 101.5t-94.5 36.5q-42 0 -74 -17.5t-50.5 -45.5t-18.5 -58q0 -32 9.5 -62.5t27.5 -55.5t44 -39.5t59 -14.5z" />
    <glyph glyph-name="seven.tamil" unicode="7" 
d="M129 0l286 620h-376v94h489v-76l-284 -638h-115z" />
    <glyph glyph-name="eight.tamil" unicode="8" 
d="M288 -11q-71 0 -125.5 20.5t-85.5 63t-31 108.5q0 43 17 78.5t49.5 64t77.5 49.5q-39 24 -66.5 50.5t-41.5 59t-14 71.5q0 59 30.5 96.5t81 55.5t106.5 18q58 0 107.5 -18t80 -55.5t30.5 -97.5q0 -38 -15 -69.5t-44.5 -57.5t-74.5 -48q43 -22 78 -48.5t56.5 -61.5
t21.5 -84q0 -63 -32 -107t-85.5 -66t-120.5 -22zM286 71q60 0 99 28.5t39 85.5q0 30 -14.5 54t-44.5 44.5t-74 38.5l-18 7q-42 -18 -70 -40t-41.5 -47.5t-13.5 -58.5q0 -50 35.5 -81t102.5 -31zM289 420q38 16 62.5 34.5t37.5 41.5t13 52q0 48 -34.5 71t-82.5 23
q-52 0 -83 -25.5t-31 -68.5q0 -34 15.5 -57t42 -39t60.5 -32z" />
    <glyph glyph-name="nine.tamil" unicode="9" 
d="M186 -11q-18 0 -46 2.5t-45 6.5v88q20 -6 42 -9t45 -3q61 0 105 17t72.5 51t43 84.5t17.5 117.5h-6q-17 -25 -40.5 -44t-54.5 -29t-72 -10q-64 0 -109.5 27t-70 76.5t-24.5 115.5q0 74 28 129t80.5 85t124.5 30q60 0 106.5 -23.5t78 -66t47 -99t15.5 -122.5
q0 -78 -11.5 -144.5t-37 -118.5t-65 -88t-95 -54.5t-128.5 -18.5zM273 345q42 0 74 17.5t50.5 45t18.5 58.5t-9 61.5t-27 55t-44 39t-59 14.5q-61 0 -95 -39.5t-34 -114.5q0 -66 31.5 -101.5t93.5 -35.5z" />
    <glyph glyph-name="colon.tamil" unicode=":" horiz-adv-x="273" 
d="M137 -12q-29 0 -49 17t-20 55q0 40 20 56.5t49 16.5q28 0 48 -16t20 -57q0 -38 -20 -55t-48 -17zM137 407q-29 0 -49 17t-20 55q0 41 20 57t49 16q28 0 48 -16t20 -57q0 -38 -20 -55t-48 -17z" />
    <glyph glyph-name="semicolon.tamil" unicode=";" horiz-adv-x="274" 
d="M189 116l7 -11q-9 -35 -23 -75.5t-30 -81t-33 -77.5h-79q10 40 19 83.5t17 85.5t13 76h109zM137 407q-29 0 -49 17t-20 55q0 41 20 57t49 16q28 0 48 -16t20 -57q0 -38 -20 -55t-48 -17z" />
    <glyph glyph-name="less.tamil" unicode="&#x3c;" 
d="M523 111l-475 209v56l475 237v-89l-364 -172l364 -152v-89z" />
    <glyph glyph-name="equal.tamil" unicode="=" 
d="M53 211v81h466v-81h-466zM53 412v81h466v-81h-466z" />
    <glyph glyph-name="greater.tamil" unicode="&#x3e;" 
d="M48 111v89l364 152l-364 172v89l475 -237v-56z" />
    <glyph glyph-name="question.tamil" unicode="?" horiz-adv-x="452" 
d="M224 725q94 0 146.5 -49t52.5 -133q0 -42 -11.5 -73t-34.5 -58t-60 -59q-30 -27 -47 -46t-23.5 -37t-6.5 -43v-15h-86v24q0 35 8 62t26.5 51.5t51.5 51.5q31 26 48.5 46t25 41.5t7.5 51.5q0 43 -27.5 68.5t-76.5 25.5q-39 0 -74 -11t-70 -29l-35 82q42 21 88 35t98 14z
M202 -12q-28 0 -48.5 17t-20.5 55q0 40 20.5 56.5t48.5 16.5t48.5 -16.5t20.5 -56.5q0 -38 -20.5 -55t-48.5 -17z" />
    <glyph glyph-name="at" unicode="@" horiz-adv-x="898" 
d="M843 357q0 -46 -11 -90t-33 -80t-54.5 -57.5t-77.5 -21.5q-43 0 -70 24t-34 56h-6q-19 -34 -53.5 -57t-85.5 -23q-80 0 -123.5 51.5t-43.5 136.5q0 66 27 117t76 80t116 29q45 0 90 -7.5t70 -17.5l-10 -203q-1 -16 -1 -24.5v-11.5q0 -48 16.5 -64t37.5 -16
q29 0 48.5 24.5t30 65.5t10.5 90q0 91 -36.5 153.5t-100 95.5t-144.5 33q-83 0 -147 -26t-107.5 -74t-66 -113t-22.5 -143q0 -95 34.5 -162t100.5 -101.5t162 -34.5q60 0 117.5 13.5t103.5 30.5v-76q-45 -18 -100 -30t-120 -12q-120 0 -205 44t-130 126.5t-45 198.5
q0 93 29 172t84.5 137.5t134 91t177.5 32.5q79 0 145 -24.5t114.5 -71t75.5 -112.5t27 -149zM339 294q0 -61 25 -88.5t66 -27.5q55 0 78 40.5t27 104.5l6 120q-12 4 -30.5 6.5t-38.5 2.5q-48 0 -77.5 -23t-42.5 -59t-13 -76z" />
    <glyph glyph-name="A" unicode="A" horiz-adv-x="654" 
d="M540 0l-76 206h-276l-76 -206h-112l271 717h112l270 -717h-113zM362 501q-3 11 -10.5 33.5t-14.5 46t-11 38.5q-5 -20 -11.5 -43.5t-12.5 -43t-10 -31.5l-72 -201h214z" />
    <glyph glyph-name="B" unicode="B" horiz-adv-x="656" 
d="M304 714q137 0 207 -39.5t70 -138.5q0 -42 -15 -74.5t-43.5 -54t-70.5 -28.5v-5q43 -7 77 -25.5t54 -53.5t20 -91q0 -65 -30.5 -110.5t-87 -69.5t-134.5 -24h-256v714h209zM322 416q84 0 115.5 27t31.5 80q0 54 -38 77t-121 23h-107v-207h119zM203 328v-238h131
q87 0 121 34t34 90q0 34 -15 60t-50.5 40t-96.5 14h-124z" />
    <glyph glyph-name="C" unicode="C" horiz-adv-x="633" 
d="M400 631q-53 0 -95 -18.5t-71.5 -54.5t-45 -87t-15.5 -115q0 -84 25 -145.5t75 -94.5t126 -33q46 0 88.5 8.5t86.5 22.5v-93q-42 -16 -86 -23.5t-102 -7.5q-109 0 -181.5 45t-108.5 128t-36 194q0 81 22.5 148.5t65.5 116.5t106.5 75.5t146.5 26.5q54 0 106 -11.5
t94 -32.5l-40 -90q-35 16 -75.5 28.5t-85.5 12.5z" />
    <glyph glyph-name="D" unicode="D" horiz-adv-x="733" 
d="M673 364q0 -120 -45 -201t-129.5 -122t-203.5 -41h-200v714h221q109 0 189 -40t124 -117.5t44 -192.5zM560 361q0 90 -29 148t-85.5 86t-136.5 28h-106v-532h87q135 0 202.5 68t67.5 202z" />
    <glyph glyph-name="E" unicode="E" horiz-adv-x="557" 
d="M497 0h-402v714h402v-92h-294v-204h276v-91h-276v-234h294v-93z" />
    <glyph glyph-name="F" unicode="F" horiz-adv-x="528" 
d="M202 0h-107v714h402v-92h-295v-233h276v-92h-276v-297z" />
    <glyph glyph-name="G" unicode="G" horiz-adv-x="727" 
d="M393 384h258v-356q-57 -19 -116.5 -28.5t-135.5 -9.5q-109 0 -184.5 44t-115 126t-39.5 197q0 112 44 194t126.5 127.5t200.5 45.5q59 0 113 -11.5t100 -31.5l-39 -90q-37 17 -82.5 28.5t-95.5 11.5q-79 0 -136.5 -33.5t-88 -95t-30.5 -146.5q0 -80 25 -142t79 -97
t141 -35q42 0 72 4.5t55 10.5v194h-151v93z" />
    <glyph glyph-name="H" unicode="H" horiz-adv-x="748" 
d="M652 0h-108v326h-341v-326h-108v714h108v-296h341v296h108v-714z" />
    <glyph glyph-name="I" unicode="I" horiz-adv-x="354" 
d="M315 0h-277v62l85 25v539l-85 26v62h277v-62l-84 -26v-539l84 -25v-62z" />
    <glyph glyph-name="J" unicode="J" horiz-adv-x="290" 
d="M1 -196q-25 0 -44 3.5t-34 9.5v90q16 -4 34 -7t38 -3q25 0 47.5 10t35.5 36t13 73v698h108v-693q0 -75 -24.5 -123.5t-69 -71t-104.5 -22.5z" />
    <glyph glyph-name="K" unicode="K" horiz-adv-x="632" 
d="M632 0h-125l-234 329l-70 -58v-271h-108v714h108v-345q26 31 52 61l52 60l193 224h124l-273 -312z" />
    <glyph glyph-name="L" unicode="L" horiz-adv-x="536" 
d="M95 0v714h108v-621h305v-93h-413z" />
    <glyph glyph-name="M" unicode="M" horiz-adv-x="918" 
d="M406 0l-216 607h-4q1 -20 3 -54t3 -73t1 -77v-403h-98v714h154l205 -573h4l211 573h154v-714h-105v409q0 35 1.5 72.5t3 70.5t2.5 54h-4l-222 -606h-93z" />
    <glyph glyph-name="N" unicode="N" horiz-adv-x="776" 
d="M681 0h-131l-361 577h-4q2 -26 3.5 -58t3 -67t1.5 -72v-380h-98v714h130l360 -574h3q-1 21 -2 53t-2.5 68.5t-2.5 68.5v384h100v-714z" />
    <glyph glyph-name="O" unicode="O" horiz-adv-x="785" 
d="M725 358q0 -83 -20.5 -150.5t-62 -116.5t-104 -75t-145.5 -26q-85 0 -147.5 26.5t-104 75t-61.5 116.5t-20 151q0 110 36 192t110.5 128t187.5 46q110 0 183.5 -45.5t110.5 -128t37 -193.5zM174 358q0 -86 23 -147.5t72 -95t124 -33.5q76 0 124 33.5t71 95t23 147.5
q0 129 -51.5 201.5t-165.5 72.5q-76 0 -125 -33t-72 -94t-23 -147z" />
    <glyph glyph-name="P" unicode="P" horiz-adv-x="612" 
d="M295 714q140 0 204 -56.5t64 -157.5q0 -45 -14.5 -86t-47.5 -73.5t-87.5 -51t-133.5 -18.5h-77v-271h-108v714h200zM287 623h-84v-261h65q61 0 102 13.5t61.5 43t20.5 77.5q0 64 -39.5 95.5t-125.5 31.5z" />
    <glyph glyph-name="Q" unicode="Q" horiz-adv-x="785" 
d="M725 358q0 -85 -22 -154.5t-66 -118.5t-110 -73l171 -182h-148l-136 161q-5 0 -10.5 -0.5t-10.5 -0.5q-85 0 -147.5 26.5t-104 75t-61.5 116.5t-20 151q0 110 36 192t110.5 128t187.5 46q110 0 183.5 -45.5t110.5 -128t37 -193.5zM174 358q0 -86 23 -147.5t72 -95
t124 -33.5q76 0 124 33.5t71 95t23 147.5q0 129 -51.5 201.5t-165.5 72.5q-76 0 -125 -33t-72 -94t-23 -147z" />
    <glyph glyph-name="R" unicode="R" horiz-adv-x="633" 
d="M295 714q92 0 151 -23t88 -68.5t29 -114.5q0 -55 -20.5 -92.5t-52.5 -61t-67 -37.5l200 -317h-124l-172 289h-124v-289h-108v714h200zM288 622h-85v-243h90q83 0 121 31.5t38 93.5q0 43 -17.5 68.5t-54 37.5t-92.5 12z" />
    <glyph glyph-name="S" unicode="S" horiz-adv-x="550" 
d="M505 193q0 -64 -31 -109t-89 -69.5t-138 -24.5q-39 0 -75 4.5t-67 12.5t-55 20v102q40 -18 94 -32.5t110 -14.5q48 0 80 13t48 36t16 54q0 33 -16.5 55.5t-51 42t-92.5 41.5q-40 15 -72.5 33.5t-57 43.5t-37.5 58t-13 77q0 59 29.5 101t81.5 64.5t121 22.5
q58 0 107.5 -11.5t94.5 -31.5l-34 -89q-41 17 -83 28t-88 11q-40 0 -67 -12t-40.5 -33t-13.5 -49q0 -33 15 -55t48 -40.5t87 -40.5q60 -23 102.5 -50t64.5 -64.5t22 -93.5z" />
    <glyph glyph-name="T" unicode="T" horiz-adv-x="563" 
d="M335 0h-108v621h-214v93h536v-93h-214v-621z" />
    <glyph glyph-name="U" unicode="U" horiz-adv-x="738" 
d="M649 252q0 -74 -30.5 -133.5t-93.5 -94t-159 -34.5q-136 0 -206.5 72.5t-70.5 191.5v460h108v-455q0 -88 43 -132.5t131 -44.5q60 0 98 22t55.5 61.5t17.5 94.5v454h107v-462z" />
    <glyph glyph-name="V" unicode="V" horiz-adv-x="615" 
d="M615 714l-252 -714h-112l-251 714h111l153 -448q9 -24 17 -51.5t15 -54.5t11 -51q5 24 11.5 51t15 55t16.5 52l153 447h112z" />
    <glyph glyph-name="W" unicode="W" horiz-adv-x="941" 
d="M932 714l-188 -714h-115l-126 441q-6 18 -11.5 40t-10.5 43.5t-8.5 38.5t-5.5 26q-1 -9 -4 -26t-8 -38.5t-10 -44t-11 -42.5l-124 -438h-115l-187 714h111l105 -422q5 -22 10 -45t9.5 -46t8 -44.5t6.5 -39.5q3 19 6.5 41t8.5 45.5t10.5 46.5t11.5 42l119 422h108
l123 -424q6 -20 11.5 -43t10.5 -46.5t8.5 -45t6.5 -38.5q3 25 8.5 54.5t12.5 61t14 59.5l105 422h110z" />
    <glyph glyph-name="X" unicode="X" horiz-adv-x="610" 
d="M607 0h-123l-182 298l-184 -298h-115l237 371l-222 343h120l168 -273l169 273h115l-222 -344z" />
    <glyph glyph-name="Y" unicode="Y" horiz-adv-x="583" 
d="M292 380l175 334h116l-238 -437v-277h-107v273l-238 441h117z" />
    <glyph glyph-name="Z" unicode="Z" horiz-adv-x="574" 
d="M539 0h-505v77l366 544h-355v93h485v-77l-366 -544h375v-93z" />
    <glyph glyph-name="bracketleft.tamil" unicode="[" horiz-adv-x="325" 
d="M76 -244v1044h210v-78h-111v-888h111v-78h-210z" />
    <glyph glyph-name="backslash.tamil" unicode="\" horiz-adv-x="403" 
d="M286 -244l-266 1044h97l266 -1044h-97z" />
    <glyph glyph-name="bracketright.tamil" unicode="]" horiz-adv-x="328" 
d="M39 -244v78h111v888h-111v78h209v-1044h-209z" />
    <glyph glyph-name="asciicircum.tamil" unicode="^" horiz-adv-x="588" 
d="M37 264l227 455h56l231 -455h-90l-168 346l-167 -346h-89z" />
    <glyph glyph-name="underscore.tamil" unicode="_" horiz-adv-x="434" 
d="M-2 -155v65h438v-65h-438z" />
    <glyph glyph-name="grave" unicode="`" horiz-adv-x="305" 
d="M163 766q12 -22 30 -49.5t37.5 -53.5t34.5 -45v-12h-71q-17 14 -39.5 33.5t-45 41t-41 41.5t-28.5 34v10h123z" />
    <glyph glyph-name="a" unicode="a" horiz-adv-x="574" 
d="M292 549q102 0 152 -44.5t50 -139.5v-365h-75l-21 75h-4q-23 -29 -47.5 -48t-56 -28t-76.5 -9q-48 0 -86.5 17.5t-60.5 54t-22 91.5q0 82 62.5 125t190.5 47l92 3v30q0 60 -27 84t-76 24q-42 0 -80 -12t-72 -29l-34 77q38 20 87.5 33.5t103.5 13.5zM317 257
q-92 -4 -127.5 -30.5t-35.5 -74.5q0 -42 25.5 -61t64.5 -19q63 0 104 35t41 105v47z" />
    <glyph glyph-name="b" unicode="b" horiz-adv-x="620" 
d="M189 577q0 -33 -1.5 -62.5t-3.5 -46.5h5q23 34 62 57t101 23q97 0 156.5 -70t59.5 -208q0 -93 -27 -155t-76 -93.5t-114 -31.5q-63 0 -101 22.5t-61 53.5h-8l-20 -66h-78v760h106v-183zM327 462q-52 0 -82 -20t-43 -61t-13 -104v-8q0 -93 30 -142.5t110 -49.5q64 0 97 50
t33 144q0 95 -33 143t-99 48z" />
    <glyph glyph-name="c" unicode="c" horiz-adv-x="490" 
d="M300 -10q-74 0 -130 29t-87 90.5t-31 156.5q0 100 33.5 162t91 91.5t131.5 29.5q45 0 84.5 -9.5t65.5 -21.5l-32 -86q-28 11 -59.5 19t-59.5 8q-50 0 -82.5 -21.5t-48 -64t-15.5 -106.5q0 -61 16 -103t47.5 -63.5t78.5 -21.5q45 0 79 10t64 26v-92q-29 -17 -63 -25
t-83 -8z" />
    <glyph glyph-name="d" unicode="d" horiz-adv-x="620" 
d="M268 -10q-97 0 -156.5 70t-59.5 208q0 139 60 210t158 71q41 0 71.5 -10.5t53 -28.5t38.5 -40h6q-2 14 -5 40.5t-3 47.5v202h106v-760h-83l-18 72h-5q-15 -23 -37.5 -41.5t-53.5 -29.5t-72 -11zM293 77q78 0 110 43.5t32 130.5v16q0 95 -30.5 145t-112.5 50
q-65 0 -98 -52.5t-33 -143.5t33 -140t99 -49z" />
    <glyph glyph-name="e" unicode="e" 
d="M295 549q71 0 122 -29.5t78.5 -84.5t27.5 -130v-58h-362q2 -83 43.5 -127t116.5 -44q52 0 92.5 9.5t83.5 28.5v-88q-40 -18 -81.5 -27t-98.5 -9q-78 0 -138 31t-93.5 92.5t-33.5 151.5q0 91 30.5 154t85 96.5t127.5 33.5zM295 467q-57 0 -91.5 -37t-40.5 -105h254
q0 42 -13 74t-40 50t-69 18z" />
    <glyph glyph-name="f" unicode="f" horiz-adv-x="357" 
d="M346 458h-133v-458h-106v458h-91v50l91 33v34q0 69 21.5 110.5t61.5 60.5t97 19q35 0 64 -6t49 -13l-27 -81q-16 5 -37 9.5t-44 4.5q-40 0 -59.5 -26t-19.5 -79v-35h133v-81z" />
    <glyph glyph-name="g" unicode="g" horiz-adv-x="620" 
d="M269 549q52 0 94 -20t71 -61h5l12 71h86v-546q0 -76 -27 -128t-82.5 -78.5t-139.5 -26.5q-58 0 -107 8t-90 25v93q42 -21 93.5 -31.5t109.5 -10.5q66 0 102 37.5t36 105.5v18q0 13 1 34.5t2 31.5h-4q-28 -42 -68.5 -61.5t-93.5 -19.5q-102 0 -159.5 73.5t-57.5 204.5
q0 130 58 205.5t159 75.5zM291 461q-42 0 -71 -22.5t-44 -65.5t-15 -106q0 -94 33.5 -143t98.5 -49q38 0 64.5 10t44 31t26 53.5t8.5 78.5v20q0 69 -15.5 111.5t-47.5 62t-82 19.5z" />
    <glyph glyph-name="h" unicode="h" horiz-adv-x="630" 
d="M189 557q0 -25 -2 -50t-4 -41h7q17 28 42.5 46t57 27t64.5 9q64 0 107.5 -20.5t66 -64t22.5 -112.5v-351h-105v336q0 63 -26.5 94.5t-84.5 31.5q-55 0 -86.5 -22t-45 -64.5t-13.5 -104.5v-271h-106v760h106v-203z" />
    <glyph glyph-name="i" unicode="i" horiz-adv-x="272" 
d="M189 539v-539h-106v539h106zM137 744q24 0 42 -14t18 -47q0 -32 -18 -46.5t-42 -14.5q-26 0 -43.5 14.5t-17.5 46.5q0 33 17.5 47t43.5 14z" />
    <glyph glyph-name="j" unicode="j" horiz-adv-x="272" 
d="M26 -240q-25 0 -46.5 3.5t-37.5 8.5v85q16 -4 32 -7t36 -3q31 0 52 17.5t21 66.5v608h106v-613q0 -50 -17 -87.5t-52.5 -58t-93.5 -20.5zM76 683q0 33 17.5 47t43.5 14q24 0 42 -14t18 -47q0 -32 -18 -46.5t-42 -14.5q-26 0 -43.5 14.5t-17.5 46.5z" />
    <glyph glyph-name="k" unicode="k" horiz-adv-x="559" 
d="M188 380q0 -21 -1.5 -48t-3.5 -50h3q8 10 19.5 24.5t23.5 29.5t22 26l165 177h123l-217 -231l231 -308h-125l-178 241l-62 -52v-189h-105v760h105v-380z" />
    <glyph glyph-name="l" unicode="l" horiz-adv-x="272" 
d="M189 0h-106v760h106v-760z" />
    <glyph glyph-name="m" unicode="m" horiz-adv-x="949" 
d="M687 549q91 0 137 -47t46 -151v-351h-106v337q0 62 -24.5 93.5t-76.5 31.5q-72 0 -103 -44.5t-31 -128.5v-289h-105v337q0 41 -11.5 69t-33.5 42t-57 14q-50 0 -79 -22t-41.5 -64.5t-12.5 -103.5v-272h-106v539h84l15 -72h6q17 28 41.5 46t54.5 27t62 9q61 0 103 -21.5
t61 -65.5h8q26 45 72 66t97 21z" />
    <glyph glyph-name="n" unicode="n" horiz-adv-x="630" 
d="M356 549q94 0 144 -47t50 -151v-351h-105v336q0 63 -26.5 94.5t-84.5 31.5q-82 0 -113.5 -49t-31.5 -141v-272h-106v539h84l15 -72h6q18 28 44 46t58 27t66 9z" />
    <glyph glyph-name="o" unicode="o" horiz-adv-x="609" 
d="M558 270q0 -67 -18 -119t-51 -88t-80 -54.5t-106 -18.5q-54 0 -100 18.5t-79.5 54.5t-52.5 88t-19 120q0 89 30.5 151t88 94.5t135.5 32.5q74 0 130.5 -32.5t89 -94.5t32.5 -152zM161 270q0 -60 15 -103.5t47 -66.5t82 -23t82 23t47 66.5t15 103.5q0 62 -15.5 104
t-47 64.5t-82.5 22.5q-75 0 -109 -50t-34 -141z" />
    <glyph glyph-name="p" unicode="p" horiz-adv-x="620" 
d="M352 549q97 0 156.5 -70t59.5 -209q0 -91 -27 -154t-76 -94.5t-114 -31.5q-41 0 -72 10.5t-52.5 28t-37.5 37.5h-7q3 -18 5 -42.5t2 -43.5v-220h-106v779h86l15 -72h5q16 22 38 41t53 30t72 11zM327 462q-50 0 -80 -19.5t-43.5 -58t-14.5 -97.5v-16q0 -62 13 -105.5
t43.5 -66t83.5 -22.5q45 0 73.5 24.5t42.5 68.5t14 102q0 88 -32 139t-100 51z" />
    <glyph glyph-name="q" unicode="q" horiz-adv-x="620" 
d="M431 -11q0 19 1.5 42t4.5 41h-6q-23 -34 -62.5 -58t-102.5 -24q-95 0 -154.5 70t-59.5 209q0 92 27.5 154.5t76.5 94t113 31.5q63 0 102 -24t63 -58h4l13 72h86v-779h-106v229zM294 76q51 0 81.5 19t44.5 57.5t15 96.5v18q0 96 -31 145.5t-112 49.5q-66 0 -98.5 -52.5
t-32.5 -143.5t32.5 -140.5t100.5 -49.5z" />
    <glyph glyph-name="r" unicode="r" horiz-adv-x="425" 
d="M349 549q14 0 31 -1.5t28 -3.5l-11 -99q-11 3 -26 5t-28 2q-30 0 -57.5 -11.5t-49.5 -33t-34.5 -52.5t-12.5 -71v-284h-106v539h84l14 -96h4q17 29 41 53t55 38.5t68 14.5z" />
    <glyph glyph-name="s" unicode="s" horiz-adv-x="484" 
d="M441 152q0 -53 -26 -89t-75 -54.5t-118 -18.5q-57 0 -97.5 8.5t-74.5 24.5v93q36 -17 83 -30.5t92 -13.5q60 0 86.5 19t26.5 51q0 18 -10 32.5t-37.5 30t-80.5 35.5q-51 21 -87 41.5t-55 49t-19 73.5q0 70 56.5 107.5t149.5 37.5q49 0 92.5 -9.5t84.5 -28.5l-35 -81
q-35 15 -72 25.5t-75 10.5q-48 0 -73 -15t-25 -42q0 -19 11.5 -33t40.5 -28t79 -34q50 -19 85.5 -39t54 -49t18.5 -74z" />
    <glyph glyph-name="t" unicode="t" horiz-adv-x="383" 
d="M277 76q21 0 43 4t38 9v-80q-17 -8 -46 -13.5t-58 -5.5q-44 0 -80.5 15t-58.5 52t-22 103v298h-75v48l79 40l37 114h65v-121h154v-81h-154v-296q0 -44 21.5 -65t56.5 -21z" />
    <glyph glyph-name="u" unicode="u" horiz-adv-x="630" 
d="M547 539v-539h-85l-15 71h-5q-17 -28 -44 -46t-59 -26.5t-66 -8.5q-63 0 -106.5 20.5t-66 64t-22.5 111.5v353h107v-337q0 -63 26.5 -94t82.5 -31t88 22t45.5 64.5t13.5 102.5v273h106z" />
    <glyph glyph-name="v" unicode="v" horiz-adv-x="526" 
d="M204 0l-204 539h112l112 -315q7 -20 14.5 -45t13.5 -48t8 -40h4q3 17 9.5 40.5t14.5 48t14 44.5l112 315h112l-205 -539h-117z" />
    <glyph glyph-name="w" unicode="w" horiz-adv-x="807" 
d="M447 270q-5 20 -11.5 44t-12.5 48.5t-11 45.5t-8 33h-4q-2 -12 -6.5 -33t-10.5 -45.5l-12 -49t-13 -44.5l-80 -268h-118l-149 539h108l70 -273q8 -28 14.5 -59t12 -59.5t7.5 -47.5h4q2 13 6 32.5t8.5 41t9 41.5t9.5 33l86 291h116l84 -291q6 -20 13 -47.5t12.5 -54
t7.5 -45.5h4q2 17 7 44.5t12.5 59.5t14.5 61l72 273h107l-151 -539h-121z" />
    <glyph glyph-name="x" unicode="x" horiz-adv-x="543" 
d="M206 275l-183 264h121l128 -194l128 194h120l-183 -264l192 -275h-120l-137 206l-138 -206h-120z" />
    <glyph glyph-name="y" unicode="y" horiz-adv-x="527" 
d="M1 539h114l112 -306q9 -23 16 -45t12.5 -43.5t8.5 -42.5h4q5 26 16 61.5t23 70.5l106 305h114l-231 -612q-19 -52 -47 -89.5t-66.5 -57.5t-90.5 -20q-25 0 -43 2.5t-31 5.5v84q11 -2 26.5 -4t32.5 -2q31 0 53.5 12t38 34t26.5 50l22 58z" />
    <glyph glyph-name="z" unicode="z" horiz-adv-x="475" 
d="M439 0h-404v67l278 390h-261v82h379v-75l-272 -382h280v-82z" />
    <glyph glyph-name="braceleft.tamil" unicode="{" horiz-adv-x="374" 
d="M336 -244q-61 1 -101.5 19.5t-61 56.5t-20.5 95v202q0 58 -32.5 81.5t-92.5 23.5v88q61 0 93 24t32 81v202q0 58 20.5 95t61 56t101.5 20v-84q-40 -1 -61 -19.5t-21 -72.5v-205q0 -58 -29.5 -92.5t-85.5 -44.5v-6q56 -11 85.5 -45.5t29.5 -92.5v-206q0 -36 9 -56
t28 -27.5t45 -8.5v-84z" />
    <glyph glyph-name="bar.tamil" unicode="|" horiz-adv-x="551" 
d="M234 -244v1044h83v-1044h-83z" />
    <glyph glyph-name="braceright.tamil" unicode="}" horiz-adv-x="374" 
d="M39 800q60 -1 101 -20t61.5 -56t20.5 -95v-202q0 -57 31.5 -81t91.5 -24v-88q-60 0 -91.5 -23.5t-31.5 -80.5v-203q0 -57 -20.5 -95t-61.5 -56.5t-101 -19.5v84q40 2 60.5 20.5t20.5 71.5v206q0 59 29.5 93t85.5 45v6q-56 10 -85.5 44.5t-29.5 92.5v205q0 35 -9 55
t-27 28.5t-45 8.5v84z" />
    <glyph glyph-name="asciitilde.tamil" unicode="~" 
d="M269 314q-37 16 -59.5 21.5t-44.5 5.5q-30 0 -61 -17t-56 -42v88q25 26 55.5 39.5t65.5 13.5q29 0 58 -6t72 -24q40 -17 63 -23t49 -6q30 0 58 17t54 42v-89q-25 -25 -54.5 -38.5t-66.5 -13.5q-29 0 -58 6.5t-75 25.5z" />
    <glyph glyph-name="uni00A0.tamil" unicode="&#xa0;" horiz-adv-x="260" 
 />
    <glyph glyph-name="exclamdown" unicode="&#xa1;" horiz-adv-x="274" 
d="M98 320h76l25 -501h-126zM205 474q0 -40 -20 -56t-48 -16t-48.5 16t-20.5 55t20.5 56t47.5 17q29 0 49 -17t20 -55z" />
    <glyph glyph-name="cent" unicode="&#xa2;" 
d="M356 645q40 -1 75 -10t61 -21l-32 -86q-28 12 -60.5 20t-60.5 8q-49 0 -81.5 -21t-48.5 -64t-16 -108t16.5 -106.5t48.5 -61t79 -19.5q44 0 77 8.5t66 23.5v-91q-28 -14 -57.5 -21.5t-67.5 -9.5v-96h-73v99q-60 9 -104.5 39.5t-68.5 88t-24 145.5q0 92 24.5 150t69 89
t103.5 40v83h74v-79z" />
    <glyph glyph-name="sterling" unicode="&#xa3;" 
d="M336 723q55 0 100.5 -11.5t80.5 -28.5l-35 -83q-31 14 -67 25t-74 11q-49 0 -77 -26t-28 -87v-125h197v-79h-197v-94q0 -38 -10 -64t-26 -41.5t-34 -25.5h374v-94h-506v88q29 8 50.5 24t33.5 43t12 69v95h-93v79h93v132q0 64 26 106.5t73 64.5t107 22z" />
    <glyph glyph-name="yen" unicode="&#xa5;" 
d="M285 381l164 333h110l-197 -372h116v-71h-142v-77h142v-71h-142v-123h-102v123h-142v71h142v77h-142v71h113l-194 372h111z" />
    <glyph glyph-name="section" unicode="&#xa7;" horiz-adv-x="505" 
d="M65 394q0 48 22.5 78t52.5 46q-35 20 -54 48t-19 67q0 61 52 96.5t145 35.5q54 0 94.5 -10t78.5 -26l-31 -75q-34 15 -68 25.5t-79 10.5q-54 0 -76.5 -14.5t-22.5 -40.5q0 -18 11.5 -32t38.5 -27.5t73 -31.5q51 -19 86.5 -41.5t55 -51.5t19.5 -69q0 -50 -21 -81.5
t-50 -49.5q34 -19 52 -45t18 -64q0 -70 -57.5 -109t-159.5 -39q-54 0 -95 8.5t-74 25.5v83q23 -11 51.5 -21t60 -16t60.5 -6q68 0 94 20t26 47q0 18 -9 31.5t-35 28t-77 34.5t-88 41t-56 50.5t-19 73.5zM150 404q0 -23 13 -41.5t42.5 -35.5t78.5 -36l17 -6q21 13 39 33
t18 51q0 24 -12.5 43t-43.5 36.5t-89 36.5q-24 -7 -43.5 -28.5t-19.5 -52.5z" />
    <glyph glyph-name="dieresis" unicode="&#xa8;" horiz-adv-x="588" 
d="M145 682q0 29 16 41.5t37 12.5q22 0 38 -12.5t16 -40.5t-16 -41.5t-38 -13.5q-21 0 -37 13.5t-16 40.5zM336 682q0 29 15.5 41.5t37.5 12.5q21 0 37 -12.5t16 -40.5t-16 -41.5t-37 -13.5q-22 0 -37.5 13.5t-15.5 40.5z" />
    <glyph glyph-name="copyright" unicode="&#xa9;" horiz-adv-x="832" 
d="M431 132q-100 0 -149.5 61.5t-49.5 163.5q0 66 23.5 116.5t68.5 79.5t111 29q31 0 63 -8t60 -22l-29 -63q-25 13 -48.5 19.5t-44.5 6.5q-59 0 -91.5 -42t-32.5 -116q0 -76 28.5 -117.5t94.5 -41.5q23 0 51.5 6.5t53.5 16.5v-65q-24 -10 -49 -17t-60 -7zM416 -10
q-80 0 -147 27t-116.5 76.5t-76.5 116.5t-27 147q0 79 27 146t77 116.5t117 77t146 27.5q76 0 142.5 -27t117 -76.5t79 -116.5t28.5 -147t-27 -147t-76.5 -116.5t-116.5 -76.5t-147 -27zM416 46q63 0 118.5 23t98 65t66 98.5t23.5 124.5q0 64 -23 120.5t-64 99.5t-96.5 67
t-122.5 24t-123 -23t-97.5 -64.5t-64 -98.5t-22.5 -125q0 -65 22.5 -121.5t63.5 -99t97.5 -66.5t123.5 -24z" />
    <glyph glyph-name="ordfeminine" unicode="&#xaa;" horiz-adv-x="365" 
d="M184 722q67 0 100 -29.5t33 -89.5v-219h-52l-13 46q-20 -23 -49 -37.5t-66 -14.5q-32 0 -56.5 11.5t-38 34t-13.5 56.5q0 36 18 58.5t54.5 34.5t89.5 14l54 2v18q0 30 -19.5 43t-49.5 13q-26 0 -51.5 -7.5t-50.5 -19.5l-25 54q28 14 62.5 23t72.5 9zM197 538
q-55 -2 -74 -17.5t-19 -39.5t13.5 -34.5t35.5 -10.5q47 0 69.5 22.5t22.5 60.5v21z" />
    <glyph glyph-name="guillemotleft" unicode="&#xab;" horiz-adv-x="540" 
d="M40 273l172 207l76 -42l-139 -171l139 -171l-76 -43l-172 207v13zM252 273l174 207l75 -42l-139 -171l139 -171l-75 -43l-174 207v13z" />
    <glyph glyph-name="uni00AD.tamil" unicode="&#xad;" horiz-adv-x="322" 
d="M37 256v94h248v-94h-248z" />
    <glyph glyph-name="registered" unicode="&#xae;" horiz-adv-x="832" 
d="M278 138v438h129q82 0 120 -32.5t38 -97.5q0 -47 -24 -74.5t-54 -39.5l116 -194h-87l-99 172h-62v-172h-77zM405 373q39 0 60.5 20t21.5 51q0 35 -19.5 51t-63.5 16h-49v-138h50zM416 -10q-80 0 -147 27t-116.5 76.5t-76.5 116.5t-27 147q0 79 27 146t77 116.5t117 77
t146 27.5q76 0 142.5 -27t117 -76.5t79 -116.5t28.5 -147t-27 -147t-76.5 -116.5t-116.5 -76.5t-147 -27zM416 46q63 0 118.5 23t98 65t66 98.5t23.5 124.5q0 64 -23 120.5t-64 99.5t-96.5 67t-122.5 24t-123 -23t-97.5 -64.5t-64 -98.5t-22.5 -125q0 -65 22.5 -121.5
t63.5 -99t97.5 -66.5t123.5 -24z" />
    <glyph glyph-name="overscore" unicode="&#xaf;" horiz-adv-x="500" 
d="M503 760h-506v75h506v-75z" />
    <glyph glyph-name="degree" unicode="&#xb0;" horiz-adv-x="428" 
d="M214 408q-49 0 -85.5 20t-57.5 55.5t-21 82.5q0 46 20.5 82t57 56t86.5 20q48 0 85 -20t57.5 -55.5t20.5 -82.5t-20.5 -82.5t-57.5 -55.5t-85 -20zM215 477q43 0 65.5 24.5t22.5 64.5q0 41 -23 65.5t-65 24.5q-44 0 -67 -24.5t-23 -65.5q0 -40 23 -64.5t67 -24.5z" />
    <glyph glyph-name="uni00B2" unicode="&#xb2;" horiz-adv-x="323" 
d="M16 369v62l113 111q37 36 57 59t27.5 41.5t7.5 38.5q0 28 -16.5 42.5t-43.5 14.5t-50.5 -11t-49.5 -32l-42 54q29 26 65 41.5t82 15.5q65 0 102 -31.5t37 -87.5q0 -32 -12.5 -59t-37.5 -55t-63 -64l-72 -67h188v-73h-292z" />
    <glyph glyph-name="uni00B3" unicode="&#xb3;" horiz-adv-x="331" 
d="M148 361q-37 0 -69.5 7t-63.5 23v72q33 -17 66.5 -26.5t64.5 -9.5q47 0 68.5 18t21.5 50q0 31 -24.5 47.5t-74.5 16.5h-57v61h54q49 0 70 18.5t21 46.5t-18 41.5t-46 13.5t-53.5 -10t-50.5 -27l-40 53q30 23 65.5 36.5t83.5 13.5q68 0 105 -31t37 -80q0 -37 -20 -62
t-57 -38v-3q44 -10 66.5 -36.5t22.5 -64.5q0 -58 -41 -94t-131 -36z" />
    <glyph glyph-name="acute" unicode="&#xb4;" horiz-adv-x="305" 
d="M265 756q-11 -14 -29.5 -34t-41 -41.5t-44.5 -41t-40 -33.5h-70v12q15 19 34 45t37 53.5t30 49.5h124v-10z" />
    <glyph glyph-name="paragraph" unicode="&#xb6;" horiz-adv-x="655" 
d="M555 -127h-64v819h-96v-819h-64v400q-15 -4 -34 -6.5t-37 -2.5q-62 0 -108 23t-71.5 77t-25.5 145q0 96 27.5 150.5t77.5 77.5t115 23h280v-887z" />
    <glyph glyph-name="periodcentered" unicode="&#xb7;" horiz-adv-x="273" 
d="M68 353q0 39 20 55t48 16q29 0 49 -16t20 -55t-20 -56t-49 -17q-28 0 -48 17t-20 56z" />
    <glyph glyph-name="cedilla" unicode="&#xb8;" horiz-adv-x="219" 
d="M210 -134q0 -50 -36 -78t-113 -28q-17 0 -32 2t-24 4v63q10 -2 26.5 -4t31.5 -2q29 0 45.5 8.5t16.5 31.5t-24 36t-64 18l42 83h68l-22 -46q23 -6 42.5 -17t31 -28t11.5 -43z" />
    <glyph glyph-name="ordmasculine" unicode="&#xba;" horiz-adv-x="380" 
d="M349 551q0 -83 -43.5 -128t-116.5 -45q-69 0 -113.5 44.5t-44.5 128.5q0 83 43 127t117 44q47 0 82.5 -20t55.5 -58t20 -93zM104 551q0 -56 20.5 -84t65.5 -28t65 28t20 84t-20 83t-65 27t-65.5 -27t-20.5 -83z" />
    <glyph glyph-name="guillemotright" unicode="&#xbb;" horiz-adv-x="540" 
d="M500 260l-173 -207l-75 43l139 171l-139 171l75 42l173 -207v-13zM287 260l-172 -207l-76 43l139 171l-139 171l76 42l172 -207v-13z" />
    <glyph glyph-name="questiondown" unicode="&#xbf;" horiz-adv-x="447" 
d="M308 291q0 -36 -8 -63.5t-27 -51.5t-52 -51q-36 -29 -57 -49.5t-29.5 -40.5t-8.5 -48q0 -43 29 -66t82 -23q48 0 87 13t75 30l38 -80q-43 -23 -94 -38t-113 -15q-98 0 -151.5 48t-53.5 128q0 43 14 74.5t40.5 57.5t63.5 56q32 27 49 45.5t22.5 37.5t5.5 45v20h88v-29z
M329 473q0 -39 -20 -55t-50 -16q-27 0 -47.5 16t-20.5 55t20.5 56t47.5 17q30 0 50 -17t20 -56z" />
    <glyph glyph-name="Agrave" unicode="&#xc0;" horiz-adv-x="654" 
d="M540 0l-76 206h-276l-76 -206h-112l271 717h112l270 -717h-113zM362 501q-3 11 -10.5 33.5t-14.5 46t-11 38.5q-5 -20 -11.5 -43.5t-12.5 -43t-10 -31.5l-72 -201h214zM304 941q12 -22 30 -49.5t37.5 -53.5t34.5 -45v-12h-71q-17 14 -39.5 33.5t-45 41t-41 41.5t-28.5 34
v10h123z" />
    <glyph glyph-name="Aacute" unicode="&#xc1;" horiz-adv-x="654" 
d="M540 0l-76 206h-276l-76 -206h-112l271 717h112l270 -717h-113zM362 501q-3 11 -10.5 33.5t-14.5 46t-11 38.5q-5 -20 -11.5 -43.5t-12.5 -43t-10 -31.5l-72 -201h214zM493 931q-11 -14 -29.5 -34t-41 -41.5t-44.5 -41t-40 -33.5h-70v12q15 19 34 45t37 53.5t30 49.5h124
v-10z" />
    <glyph glyph-name="Acircumflex" unicode="&#xc2;" horiz-adv-x="654" 
d="M540 0l-76 206h-276l-76 -206h-112l271 717h112l270 -717h-113zM362 501q-3 11 -10.5 33.5t-14.5 46t-11 38.5q-5 -20 -11.5 -43.5t-12.5 -43t-10 -31.5l-72 -201h214zM382 941q13 -22 35.5 -49.5t47 -54t42.5 -44.5v-12h-73q-26 16 -54.5 39t-55.5 50
q-27 -27 -54.5 -49.5t-53.5 -39.5h-72v12q19 19 42.5 45t45.5 53.5t36 49.5h114z" />
    <glyph glyph-name="Atilde" unicode="&#xc3;" horiz-adv-x="654" 
d="M540 0l-76 206h-276l-76 -206h-112l271 717h112l270 -717h-113zM362 501q-3 11 -10.5 33.5t-14.5 46t-11 38.5q-5 -20 -11.5 -43.5t-12.5 -43t-10 -31.5l-72 -201h214zM137 781q3 32 12.5 57t24.5 42t35 26t45 9q21 0 41.5 -8t39 -19t36.5 -19.5t34 -8.5q21 0 34 14
t19 42h57q-6 -63 -37 -98.5t-79 -35.5q-21 0 -40.5 8t-39 19.5t-37 19.5t-34.5 8q-22 0 -34.5 -14t-19.5 -42h-57z" />
    <glyph glyph-name="Adieresis" unicode="&#xc4;" horiz-adv-x="654" 
d="M540 0l-76 206h-276l-76 -206h-112l271 717h112l270 -717h-113zM362 501q-3 11 -10.5 33.5t-14.5 46t-11 38.5q-5 -20 -11.5 -43.5t-12.5 -43t-10 -31.5l-72 -201h214zM178 857q0 29 16 41.5t37 12.5q22 0 38 -12.5t16 -40.5t-16 -41.5t-38 -13.5q-21 0 -37 13.5
t-16 40.5zM369 857q0 29 15.5 41.5t37.5 12.5q21 0 37 -12.5t16 -40.5t-16 -41.5t-37 -13.5q-22 0 -37.5 13.5t-15.5 40.5z" />
    <glyph glyph-name="Aring" unicode="&#xc5;" horiz-adv-x="654" 
d="M540 0l-76 206h-276l-76 -206h-112l271 717h112l270 -717h-113zM362 501q-3 11 -10.5 33.5t-14.5 46t-11 38.5q-5 -20 -11.5 -43.5t-12.5 -43t-10 -31.5l-72 -201h214zM325 662q-51 0 -82 28.5t-31 80.5q0 51 31 79.5t82 28.5q48 0 81 -28.5t33 -78.5q0 -53 -32.5 -81.5
t-81.5 -28.5zM325 717q23 0 38 14.5t15 39.5q0 24 -15.5 38.5t-37.5 14.5q-23 0 -38.5 -14.5t-15.5 -38.5q0 -25 14 -39.5t40 -14.5z" />
    <glyph glyph-name="AE" unicode="&#xc6;" horiz-adv-x="902" 
d="M842 0h-388v206h-247l-97 -206h-111l334 714h509v-92h-280v-204h262v-91h-262v-234h280v-93zM248 300h206v320h-59z" />
    <glyph glyph-name="Ccedilla" unicode="&#xc7;" horiz-adv-x="633" 
d="M400 631q-53 0 -95 -18.5t-71.5 -54.5t-45 -87t-15.5 -115q0 -84 25 -145.5t75 -94.5t126 -33q46 0 88.5 8.5t86.5 22.5v-93q-42 -16 -86 -23.5t-102 -7.5q-109 0 -181.5 45t-108.5 128t-36 194q0 81 22.5 148.5t65.5 116.5t106.5 75.5t146.5 26.5q54 0 106 -11.5
t94 -32.5l-40 -90q-35 16 -75.5 28.5t-85.5 12.5zM477 -134q0 -50 -36 -78t-113 -28q-17 0 -32 2t-24 4v63q10 -2 26.5 -4t31.5 -2q29 0 45.5 8.5t16.5 31.5t-24 36t-64 18l42 83h68l-22 -46q23 -6 42.5 -17t31 -28t11.5 -43z" />
    <glyph glyph-name="Egrave" unicode="&#xc8;" horiz-adv-x="557" 
d="M497 0h-402v714h402v-92h-294v-204h276v-91h-276v-234h294v-93zM282 941q12 -22 30 -49.5t37.5 -53.5t34.5 -45v-12h-71q-17 14 -39.5 33.5t-45 41t-41 41.5t-28.5 34v10h123z" />
    <glyph glyph-name="Eacute" unicode="&#xc9;" horiz-adv-x="557" 
d="M497 0h-402v714h402v-92h-294v-204h276v-91h-276v-234h294v-93zM471 931q-11 -14 -29.5 -34t-41 -41.5t-44.5 -41t-40 -33.5h-70v12q15 19 34 45t37 53.5t30 49.5h124v-10z" />
    <glyph glyph-name="Ecircumflex" unicode="&#xca;" horiz-adv-x="557" 
d="M497 0h-402v714h402v-92h-294v-204h276v-91h-276v-234h294v-93zM360 941q13 -22 35.5 -49.5t47 -54t42.5 -44.5v-12h-73q-26 16 -54.5 39t-55.5 50q-27 -27 -54.5 -49.5t-53.5 -39.5h-72v12q19 19 42.5 45t45.5 53.5t36 49.5h114z" />
    <glyph glyph-name="Edieresis" unicode="&#xcb;" horiz-adv-x="557" 
d="M497 0h-402v714h402v-92h-294v-204h276v-91h-276v-234h294v-93zM155 857q0 29 16 41.5t37 12.5q22 0 38 -12.5t16 -40.5t-16 -41.5t-38 -13.5q-21 0 -37 13.5t-16 40.5zM346 857q0 29 15.5 41.5t37.5 12.5q21 0 37 -12.5t16 -40.5t-16 -41.5t-37 -13.5q-22 0 -37.5 13.5
t-15.5 40.5z" />
    <glyph glyph-name="Igrave" unicode="&#xcc;" horiz-adv-x="354" 
d="M315 0h-277v62l85 25v539l-85 26v62h277v-62l-84 -26v-539l84 -25v-62zM155 941q12 -22 30 -49.5t37.5 -53.5t34.5 -45v-12h-71q-17 14 -39.5 33.5t-45 41t-41 41.5t-28.5 34v10h123z" />
    <glyph glyph-name="Iacute" unicode="&#xcd;" horiz-adv-x="354" 
d="M315 0h-277v62l85 25v539l-85 26v62h277v-62l-84 -26v-539l84 -25v-62zM344 931q-11 -14 -29.5 -34t-41 -41.5t-44.5 -41t-40 -33.5h-70v12q15 19 34 45t37 53.5t30 49.5h124v-10z" />
    <glyph glyph-name="Icircumflex" unicode="&#xce;" horiz-adv-x="354" 
d="M315 0h-277v62l85 25v539l-85 26v62h277v-62l-84 -26v-539l84 -25v-62zM234 941q13 -22 35.5 -49.5t47 -54t42.5 -44.5v-12h-73q-26 16 -54.5 39t-55.5 50q-27 -27 -54.5 -49.5t-53.5 -39.5h-72v12q19 19 42.5 45t45.5 53.5t36 49.5h114z" />
    <glyph glyph-name="Idieresis" unicode="&#xcf;" horiz-adv-x="354" 
d="M315 0h-277v62l85 25v539l-85 26v62h277v-62l-84 -26v-539l84 -25v-62zM29 857q0 29 16 41.5t37 12.5q22 0 38 -12.5t16 -40.5t-16 -41.5t-38 -13.5q-21 0 -37 13.5t-16 40.5zM220 857q0 29 15.5 41.5t37.5 12.5q21 0 37 -12.5t16 -40.5t-16 -41.5t-37 -13.5
q-22 0 -37.5 13.5t-15.5 40.5z" />
    <glyph glyph-name="Eth" unicode="&#xd0;" horiz-adv-x="733" 
d="M316 714q109 0 189 -40t124 -117.5t44 -192.5q0 -120 -45 -201t-129.5 -122t-204.5 -41h-194v307h-72v92h72v315h216zM309 623h-101v-224h160v-92h-160v-216h82q136 0 203 68t67 202q0 90 -30 148t-85.5 86t-135.5 28z" />
    <glyph glyph-name="Ntilde" unicode="&#xd1;" horiz-adv-x="776" 
d="M681 0h-131l-361 577h-4q2 -26 3.5 -58t3 -67t1.5 -72v-380h-98v714h130l360 -574h3q-1 21 -2 53t-2.5 68.5t-2.5 68.5v384h100v-714zM199 781q3 32 12.5 57t24.5 42t35 26t45 9q21 0 41.5 -8t39 -19t36.5 -19.5t34 -8.5q21 0 34 14t19 42h57q-6 -63 -37 -98.5t-79 -35.5
q-21 0 -40.5 8t-39 19.5t-37 19.5t-34.5 8q-22 0 -34.5 -14t-19.5 -42h-57z" />
    <glyph glyph-name="Ograve" unicode="&#xd2;" horiz-adv-x="785" 
d="M725 358q0 -83 -20.5 -150.5t-62 -116.5t-104 -75t-145.5 -26q-85 0 -147.5 26.5t-104 75t-61.5 116.5t-20 151q0 110 36 192t110.5 128t187.5 46q110 0 183.5 -45.5t110.5 -128t37 -193.5zM174 358q0 -86 23 -147.5t72 -95t124 -33.5q76 0 124 33.5t71 95t23 147.5
q0 129 -51.5 201.5t-165.5 72.5q-76 0 -125 -33t-72 -94t-23 -147zM371 941q12 -22 30 -49.5t37.5 -53.5t34.5 -45v-12h-71q-17 14 -39.5 33.5t-45 41t-41 41.5t-28.5 34v10h123z" />
    <glyph glyph-name="Oacute" unicode="&#xd3;" horiz-adv-x="785" 
d="M725 358q0 -83 -20.5 -150.5t-62 -116.5t-104 -75t-145.5 -26q-85 0 -147.5 26.5t-104 75t-61.5 116.5t-20 151q0 110 36 192t110.5 128t187.5 46q110 0 183.5 -45.5t110.5 -128t37 -193.5zM174 358q0 -86 23 -147.5t72 -95t124 -33.5q76 0 124 33.5t71 95t23 147.5
q0 129 -51.5 201.5t-165.5 72.5q-76 0 -125 -33t-72 -94t-23 -147zM560 931q-11 -14 -29.5 -34t-41 -41.5t-44.5 -41t-40 -33.5h-70v12q15 19 34 45t37 53.5t30 49.5h124v-10z" />
    <glyph glyph-name="Ocircumflex" unicode="&#xd4;" horiz-adv-x="785" 
d="M725 358q0 -83 -20.5 -150.5t-62 -116.5t-104 -75t-145.5 -26q-85 0 -147.5 26.5t-104 75t-61.5 116.5t-20 151q0 110 36 192t110.5 128t187.5 46q110 0 183.5 -45.5t110.5 -128t37 -193.5zM174 358q0 -86 23 -147.5t72 -95t124 -33.5q76 0 124 33.5t71 95t23 147.5
q0 129 -51.5 201.5t-165.5 72.5q-76 0 -125 -33t-72 -94t-23 -147zM449 941q13 -22 35.5 -49.5t47 -54t42.5 -44.5v-12h-73q-26 16 -54.5 39t-55.5 50q-27 -27 -54.5 -49.5t-53.5 -39.5h-72v12q19 19 42.5 45t45.5 53.5t36 49.5h114z" />
    <glyph glyph-name="Otilde" unicode="&#xd5;" horiz-adv-x="785" 
d="M725 358q0 -83 -20.5 -150.5t-62 -116.5t-104 -75t-145.5 -26q-85 0 -147.5 26.5t-104 75t-61.5 116.5t-20 151q0 110 36 192t110.5 128t187.5 46q110 0 183.5 -45.5t110.5 -128t37 -193.5zM174 358q0 -86 23 -147.5t72 -95t124 -33.5q76 0 124 33.5t71 95t23 147.5
q0 129 -51.5 201.5t-165.5 72.5q-76 0 -125 -33t-72 -94t-23 -147zM204 781q3 32 12.5 57t24.5 42t35 26t45 9q21 0 41.5 -8t39 -19t36.5 -19.5t34 -8.5q21 0 34 14t19 42h57q-6 -63 -37 -98.5t-79 -35.5q-21 0 -40.5 8t-39 19.5t-37 19.5t-34.5 8q-22 0 -34.5 -14
t-19.5 -42h-57z" />
    <glyph glyph-name="Odieresis" unicode="&#xd6;" horiz-adv-x="785" 
d="M725 358q0 -83 -20.5 -150.5t-62 -116.5t-104 -75t-145.5 -26q-85 0 -147.5 26.5t-104 75t-61.5 116.5t-20 151q0 110 36 192t110.5 128t187.5 46q110 0 183.5 -45.5t110.5 -128t37 -193.5zM174 358q0 -86 23 -147.5t72 -95t124 -33.5q76 0 124 33.5t71 95t23 147.5
q0 129 -51.5 201.5t-165.5 72.5q-76 0 -125 -33t-72 -94t-23 -147zM245 857q0 29 16 41.5t37 12.5q22 0 38 -12.5t16 -40.5t-16 -41.5t-38 -13.5q-21 0 -37 13.5t-16 40.5zM436 857q0 29 15.5 41.5t37.5 12.5q21 0 37 -12.5t16 -40.5t-16 -41.5t-37 -13.5q-22 0 -37.5 13.5
t-15.5 40.5z" />
    <glyph glyph-name="multiply.tamil" unicode="&#xd7;" 
d="M450 574l57 -57l-164 -165l163 -163l-57 -57l-164 164l-161 -164l-59 58l164 162l-165 164l59 58l162 -164z" />
    <glyph glyph-name="Oslash" unicode="&#xd8;" horiz-adv-x="785" 
d="M725 358q0 -83 -20.5 -150.5t-62 -116.5t-104 -75t-145.5 -26q-54 0 -98.5 11t-80.5 32l-47 -68l-66 44l50 72q-46 49 -68.5 119.5t-22.5 158.5q0 110 36 192t110.5 128t187.5 46q51 0 95 -11t80 -31l45 65l66 -44l-49 -69q47 -48 70.5 -118.5t23.5 -158.5zM611 358
q0 117 -43 185l-297 -428q23 -15 54 -24t68 -9q76 0 124 33.5t71 95t23 147.5zM174 358q0 -56 10 -102.5t31 -81.5l298 427q-23 15 -53 23t-66 8q-76 0 -125 -33t-72 -94t-23 -147z" />
    <glyph glyph-name="Ugrave" unicode="&#xd9;" horiz-adv-x="738" 
d="M649 252q0 -74 -30.5 -133.5t-93.5 -94t-159 -34.5q-136 0 -206.5 72.5t-70.5 191.5v460h108v-455q0 -88 43 -132.5t131 -44.5q60 0 98 22t55.5 61.5t17.5 94.5v454h107v-462zM347 941q12 -22 30 -49.5t37.5 -53.5t34.5 -45v-12h-71q-17 14 -39.5 33.5t-45 41t-41 41.5
t-28.5 34v10h123z" />
    <glyph glyph-name="Uacute" unicode="&#xda;" horiz-adv-x="738" 
d="M649 252q0 -74 -30.5 -133.5t-93.5 -94t-159 -34.5q-136 0 -206.5 72.5t-70.5 191.5v460h108v-455q0 -88 43 -132.5t131 -44.5q60 0 98 22t55.5 61.5t17.5 94.5v454h107v-462zM536 931q-11 -14 -29.5 -34t-41 -41.5t-44.5 -41t-40 -33.5h-70v12q15 19 34 45t37 53.5
t30 49.5h124v-10z" />
    <glyph glyph-name="Ucircumflex" unicode="&#xdb;" horiz-adv-x="738" 
d="M649 252q0 -74 -30.5 -133.5t-93.5 -94t-159 -34.5q-136 0 -206.5 72.5t-70.5 191.5v460h108v-455q0 -88 43 -132.5t131 -44.5q60 0 98 22t55.5 61.5t17.5 94.5v454h107v-462zM426 941q13 -22 35.5 -49.5t47 -54t42.5 -44.5v-12h-73q-26 16 -54.5 39t-55.5 50
q-27 -27 -54.5 -49.5t-53.5 -39.5h-72v12q19 19 42.5 45t45.5 53.5t36 49.5h114z" />
    <glyph glyph-name="Udieresis" unicode="&#xdc;" horiz-adv-x="738" 
d="M649 252q0 -74 -30.5 -133.5t-93.5 -94t-159 -34.5q-136 0 -206.5 72.5t-70.5 191.5v460h108v-455q0 -88 43 -132.5t131 -44.5q60 0 98 22t55.5 61.5t17.5 94.5v454h107v-462zM221 857q0 29 16 41.5t37 12.5q22 0 38 -12.5t16 -40.5t-16 -41.5t-38 -13.5q-21 0 -37 13.5
t-16 40.5zM412 857q0 29 15.5 41.5t37.5 12.5q21 0 37 -12.5t16 -40.5t-16 -41.5t-37 -13.5q-22 0 -37.5 13.5t-15.5 40.5z" />
    <glyph glyph-name="Yacute" unicode="&#xdd;" horiz-adv-x="583" 
d="M292 380l175 334h116l-238 -437v-277h-107v273l-238 441h117zM458 931q-11 -14 -29.5 -34t-41 -41.5t-44.5 -41t-40 -33.5h-70v12q15 19 34 45t37 53.5t30 49.5h124v-10z" />
    <glyph glyph-name="Thorn" unicode="&#xde;" horiz-adv-x="612" 
d="M563 380q0 -45 -14 -86t-46.5 -73t-86.5 -51t-134 -19h-79v-151h-108v714h108v-120h93q141 0 204 -57t63 -157zM268 241q63 0 103.5 13.5t60.5 44t20 78.5q0 64 -40 95t-128 31h-81v-262h65z" />
    <glyph glyph-name="germandbls" unicode="&#xdf;" horiz-adv-x="655" 
d="M548 614q0 -35 -14 -61t-35 -45.5t-42 -35.5t-35 -30.5t-14 -30.5q0 -13 7.5 -24t27.5 -25.5t57 -39.5q35 -22 60 -46t39 -52.5t14 -68.5q0 -57 -24.5 -93.5t-68.5 -54t-105 -17.5q-47 0 -83 8.5t-63 24.5v91q17 -10 40 -20t49.5 -16t51.5 -6q50 0 73.5 20.5t23.5 57.5
q0 22 -8 39t-28.5 34t-57.5 40q-41 26 -65 47t-34 43t-10 48q0 31 13.5 53t34 38l41 32t34 34t13.5 45q0 38 -34.5 57t-87.5 19q-35 0 -64.5 -9.5t-47 -32t-17.5 -63.5v-574h-106v576q0 68 31 109.5t84 60.5t120 19q68 0 120 -17t81 -50.5t29 -83.5z" />
    <glyph glyph-name="agrave" unicode="&#xe0;" horiz-adv-x="574" 
d="M292 549q102 0 152 -44.5t50 -139.5v-365h-75l-21 75h-4q-23 -29 -47.5 -48t-56 -28t-76.5 -9q-48 0 -86.5 17.5t-60.5 54t-22 91.5q0 82 62.5 125t190.5 47l92 3v30q0 60 -27 84t-76 24q-42 0 -80 -12t-72 -29l-34 77q38 20 87.5 33.5t103.5 13.5zM317 257
q-92 -4 -127.5 -30.5t-35.5 -74.5q0 -42 25.5 -61t64.5 -19q63 0 104 35t41 105v47zM265 766q12 -22 30 -49.5t37.5 -53.5t34.5 -45v-12h-71q-17 14 -39.5 33.5t-45 41t-41 41.5t-28.5 34v10h123z" />
    <glyph glyph-name="aacute" unicode="&#xe1;" horiz-adv-x="574" 
d="M292 549q102 0 152 -44.5t50 -139.5v-365h-75l-21 75h-4q-23 -29 -47.5 -48t-56 -28t-76.5 -9q-48 0 -86.5 17.5t-60.5 54t-22 91.5q0 82 62.5 125t190.5 47l92 3v30q0 60 -27 84t-76 24q-42 0 -80 -12t-72 -29l-34 77q38 20 87.5 33.5t103.5 13.5zM317 257
q-92 -4 -127.5 -30.5t-35.5 -74.5q0 -42 25.5 -61t64.5 -19q63 0 104 35t41 105v47zM454 756q-11 -14 -29.5 -34t-41 -41.5t-44.5 -41t-40 -33.5h-70v12q15 19 34 45t37 53.5t30 49.5h124v-10z" />
    <glyph glyph-name="acircumflex" unicode="&#xe2;" horiz-adv-x="574" 
d="M292 549q102 0 152 -44.5t50 -139.5v-365h-75l-21 75h-4q-23 -29 -47.5 -48t-56 -28t-76.5 -9q-48 0 -86.5 17.5t-60.5 54t-22 91.5q0 82 62.5 125t190.5 47l92 3v30q0 60 -27 84t-76 24q-42 0 -80 -12t-72 -29l-34 77q38 20 87.5 33.5t103.5 13.5zM317 257
q-92 -4 -127.5 -30.5t-35.5 -74.5q0 -42 25.5 -61t64.5 -19q63 0 104 35t41 105v47zM344 766q13 -22 35.5 -49.5t47 -54t42.5 -44.5v-12h-73q-26 16 -54.5 39t-55.5 50q-27 -27 -54.5 -49.5t-53.5 -39.5h-72v12q19 19 42.5 45t45.5 53.5t36 49.5h114z" />
    <glyph glyph-name="atilde" unicode="&#xe3;" horiz-adv-x="574" 
d="M292 549q102 0 152 -44.5t50 -139.5v-365h-75l-21 75h-4q-23 -29 -47.5 -48t-56 -28t-76.5 -9q-48 0 -86.5 17.5t-60.5 54t-22 91.5q0 82 62.5 125t190.5 47l92 3v30q0 60 -27 84t-76 24q-42 0 -80 -12t-72 -29l-34 77q38 20 87.5 33.5t103.5 13.5zM317 257
q-92 -4 -127.5 -30.5t-35.5 -74.5q0 -42 25.5 -61t64.5 -19q63 0 104 35t41 105v47zM99 606q3 32 12.5 57t24.5 42t35 26t45 9q21 0 41.5 -8t39 -19t36.5 -19.5t34 -8.5q21 0 34 14t19 42h57q-6 -63 -37 -98.5t-79 -35.5q-21 0 -40.5 8t-39 19.5t-37 19.5t-34.5 8
q-22 0 -34.5 -14t-19.5 -42h-57z" />
    <glyph glyph-name="adieresis" unicode="&#xe4;" horiz-adv-x="574" 
d="M292 549q102 0 152 -44.5t50 -139.5v-365h-75l-21 75h-4q-23 -29 -47.5 -48t-56 -28t-76.5 -9q-48 0 -86.5 17.5t-60.5 54t-22 91.5q0 82 62.5 125t190.5 47l92 3v30q0 60 -27 84t-76 24q-42 0 -80 -12t-72 -29l-34 77q38 20 87.5 33.5t103.5 13.5zM317 257
q-92 -4 -127.5 -30.5t-35.5 -74.5q0 -42 25.5 -61t64.5 -19q63 0 104 35t41 105v47zM139 682q0 29 16 41.5t37 12.5q22 0 38 -12.5t16 -40.5t-16 -41.5t-38 -13.5q-21 0 -37 13.5t-16 40.5zM330 682q0 29 15.5 41.5t37.5 12.5q21 0 37 -12.5t16 -40.5t-16 -41.5t-37 -13.5
q-22 0 -37.5 13.5t-15.5 40.5z" />
    <glyph glyph-name="aring" unicode="&#xe5;" horiz-adv-x="574" 
d="M292 549q102 0 152 -44.5t50 -139.5v-365h-75l-21 75h-4q-23 -29 -47.5 -48t-56 -28t-76.5 -9q-48 0 -86.5 17.5t-60.5 54t-22 91.5q0 82 62.5 125t190.5 47l92 3v30q0 60 -27 84t-76 24q-42 0 -80 -12t-72 -29l-34 77q38 20 87.5 33.5t103.5 13.5zM317 257
q-92 -4 -127.5 -30.5t-35.5 -74.5q0 -42 25.5 -61t64.5 -19q63 0 104 35t41 105v47zM286 606q-51 0 -82 28.5t-31 80.5q0 51 31 79.5t82 28.5q48 0 81 -28.5t33 -78.5q0 -53 -32.5 -81.5t-81.5 -28.5zM286 661q23 0 38 14.5t15 39.5q0 24 -15.5 38.5t-37.5 14.5
q-23 0 -38.5 -14.5t-15.5 -38.5q0 -25 14 -39.5t40 -14.5z" />
    <glyph glyph-name="ae" unicode="&#xe6;" horiz-adv-x="880" 
d="M614 549q66 0 115 -29.5t75.5 -84t26.5 -128.5v-60h-346q2 -86 40.5 -128.5t108.5 -42.5q50 0 90.5 9.5t80.5 28.5v-88q-40 -18 -80.5 -27t-94.5 -9q-45 0 -84 12t-69.5 36.5t-52.5 60.5q-24 -34 -52.5 -58.5t-65.5 -37.5t-90 -13q-48 0 -86.5 17.5t-61.5 54t-23 91.5
t26.5 92.5t80.5 57.5t134 22l91 3v36q0 56 -27.5 79t-75.5 23q-39 0 -77 -11.5t-72 -28.5l-33 76q37 21 88 34t102 13q60 0 101 -19.5t64 -60.5q28 38 70 59t97 21zM307 257q-86 -4 -119.5 -30.5t-33.5 -74.5q0 -42 23.5 -61t62.5 -19q38 0 69 15.5t49 46.5t18 78v47z
M613 467q-56 0 -88.5 -36t-37.5 -106h237q0 42 -12 74t-36.5 50t-62.5 18z" />
    <glyph glyph-name="ccedilla" unicode="&#xe7;" horiz-adv-x="490" 
d="M300 -10q-74 0 -130 29t-87 90.5t-31 156.5q0 100 33.5 162t91 91.5t131.5 29.5q45 0 84.5 -9.5t65.5 -21.5l-32 -86q-28 11 -59.5 19t-59.5 8q-50 0 -82.5 -21.5t-48 -64t-15.5 -106.5q0 -61 16 -103t47.5 -63.5t78.5 -21.5q45 0 79 10t64 26v-92q-29 -17 -63 -25
t-83 -8zM390 -134q0 -50 -36 -78t-113 -28q-17 0 -32 2t-24 4v63q10 -2 26.5 -4t31.5 -2q29 0 45.5 8.5t16.5 31.5t-24 36t-64 18l42 83h68l-22 -46q23 -6 42.5 -17t31 -28t11.5 -43z" />
    <glyph glyph-name="egrave" unicode="&#xe8;" 
d="M295 549q71 0 122 -29.5t78.5 -84.5t27.5 -130v-58h-362q2 -83 43.5 -127t116.5 -44q52 0 92.5 9.5t83.5 28.5v-88q-40 -18 -81.5 -27t-98.5 -9q-78 0 -138 31t-93.5 92.5t-33.5 151.5q0 91 30.5 154t85 96.5t127.5 33.5zM295 467q-57 0 -91.5 -37t-40.5 -105h254
q0 42 -13 74t-40 50t-69 18zM266 766q12 -22 30 -49.5t37.5 -53.5t34.5 -45v-12h-71q-17 14 -39.5 33.5t-45 41t-41 41.5t-28.5 34v10h123z" />
    <glyph glyph-name="eacute" unicode="&#xe9;" 
d="M295 549q71 0 122 -29.5t78.5 -84.5t27.5 -130v-58h-362q2 -83 43.5 -127t116.5 -44q52 0 92.5 9.5t83.5 28.5v-88q-40 -18 -81.5 -27t-98.5 -9q-78 0 -138 31t-93.5 92.5t-33.5 151.5q0 91 30.5 154t85 96.5t127.5 33.5zM295 467q-57 0 -91.5 -37t-40.5 -105h254
q0 42 -13 74t-40 50t-69 18zM455 756q-11 -14 -29.5 -34t-41 -41.5t-44.5 -41t-40 -33.5h-70v12q15 19 34 45t37 53.5t30 49.5h124v-10z" />
    <glyph glyph-name="ecircumflex" unicode="&#xea;" 
d="M295 549q71 0 122 -29.5t78.5 -84.5t27.5 -130v-58h-362q2 -83 43.5 -127t116.5 -44q52 0 92.5 9.5t83.5 28.5v-88q-40 -18 -81.5 -27t-98.5 -9q-78 0 -138 31t-93.5 92.5t-33.5 151.5q0 91 30.5 154t85 96.5t127.5 33.5zM295 467q-57 0 -91.5 -37t-40.5 -105h254
q0 42 -13 74t-40 50t-69 18zM345 766q13 -22 35.5 -49.5t47 -54t42.5 -44.5v-12h-73q-26 16 -54.5 39t-55.5 50q-27 -27 -54.5 -49.5t-53.5 -39.5h-72v12q19 19 42.5 45t45.5 53.5t36 49.5h114z" />
    <glyph glyph-name="edieresis" unicode="&#xeb;" 
d="M295 549q71 0 122 -29.5t78.5 -84.5t27.5 -130v-58h-362q2 -83 43.5 -127t116.5 -44q52 0 92.5 9.5t83.5 28.5v-88q-40 -18 -81.5 -27t-98.5 -9q-78 0 -138 31t-93.5 92.5t-33.5 151.5q0 91 30.5 154t85 96.5t127.5 33.5zM295 467q-57 0 -91.5 -37t-40.5 -105h254
q0 42 -13 74t-40 50t-69 18zM140 682q0 29 16 41.5t37 12.5q22 0 38 -12.5t16 -40.5t-16 -41.5t-38 -13.5q-21 0 -37 13.5t-16 40.5zM331 682q0 29 15.5 41.5t37.5 12.5q21 0 37 -12.5t16 -40.5t-16 -41.5t-37 -13.5q-22 0 -37.5 13.5t-15.5 40.5z" />
    <glyph glyph-name="igrave" unicode="&#xec;" horiz-adv-x="272" 
d="M189 0h-106v539h106v-539zM114 766q12 -22 30 -49.5t37.5 -53.5t34.5 -45v-12h-71q-17 14 -39.5 33.5t-45 41t-41 41.5t-28.5 34v10h123z" />
    <glyph glyph-name="iacute" unicode="&#xed;" horiz-adv-x="272" 
d="M189 0h-106v539h106v-539zM303 756q-11 -14 -29.5 -34t-41 -41.5t-44.5 -41t-40 -33.5h-70v12q15 19 34 45t37 53.5t30 49.5h124v-10z" />
    <glyph glyph-name="icircumflex" unicode="&#xee;" horiz-adv-x="272" 
d="M189 0h-106v539h106v-539zM192 766q13 -22 35.5 -49.5t47 -54t42.5 -44.5v-12h-73q-26 16 -54.5 39t-55.5 50q-27 -27 -54.5 -49.5t-53.5 -39.5h-72v12q19 19 42.5 45t45.5 53.5t36 49.5h114z" />
    <glyph glyph-name="idieresis" unicode="&#xef;" horiz-adv-x="272" 
d="M189 0h-106v539h106v-539zM-12 682q0 29 16 41.5t37 12.5q22 0 38 -12.5t16 -40.5t-16 -41.5t-38 -13.5q-21 0 -37 13.5t-16 40.5zM179 682q0 29 15.5 41.5t37.5 12.5q21 0 37 -12.5t16 -40.5t-16 -41.5t-37 -13.5q-22 0 -37.5 13.5t-15.5 40.5z" />
    <glyph glyph-name="eth" unicode="&#xf0;" horiz-adv-x="609" 
d="M218 765q33 -15 65.5 -33t60.5 -38l114 67l41 -60l-94 -55q47 -43 81 -98.5t53 -123t19 -148.5q0 -94 -31 -158t-88 -96t-136 -32q-73 0 -129.5 29.5t-89 84.5t-32.5 131t29.5 130t82 83t123.5 29q35 0 63 -6t50 -18t37 -31l4 2q-16 52 -46.5 95.5t-69.5 78.5l-124 -73
l-42 61l105 61q-20 13 -41.5 26t-43.5 24zM305 394q-51 0 -83 -18.5t-47 -54.5t-15 -89q0 -46 15 -82t47 -56.5t83 -20.5q76 0 110.5 46t34.5 135q0 28 -8.5 53.5t-26.5 45t-45 30.5t-65 11z" />
    <glyph glyph-name="ntilde" unicode="&#xf1;" horiz-adv-x="630" 
d="M356 549q94 0 144 -47t50 -151v-351h-105v336q0 63 -26.5 94.5t-84.5 31.5q-82 0 -113.5 -49t-31.5 -141v-272h-106v539h84l15 -72h6q18 28 44 46t58 27t66 9zM126 606q3 32 12.5 57t24.5 42t35 26t45 9q21 0 41.5 -8t39 -19t36.5 -19.5t34 -8.5q21 0 34 14t19 42h57
q-6 -63 -37 -98.5t-79 -35.5q-21 0 -40.5 8t-39 19.5t-37 19.5t-34.5 8q-22 0 -34.5 -14t-19.5 -42h-57z" />
    <glyph glyph-name="ograve" unicode="&#xf2;" horiz-adv-x="609" 
d="M558 270q0 -67 -18 -119t-51 -88t-80 -54.5t-106 -18.5q-54 0 -100 18.5t-79.5 54.5t-52.5 88t-19 120q0 89 30.5 151t88 94.5t135.5 32.5q74 0 130.5 -32.5t89 -94.5t32.5 -152zM161 270q0 -60 15 -103.5t47 -66.5t82 -23t82 23t47 66.5t15 103.5q0 62 -15.5 104
t-47 64.5t-82.5 22.5q-75 0 -109 -50t-34 -141zM283 766q12 -22 30 -49.5t37.5 -53.5t34.5 -45v-12h-71q-17 14 -39.5 33.5t-45 41t-41 41.5t-28.5 34v10h123z" />
    <glyph glyph-name="oacute" unicode="&#xf3;" horiz-adv-x="609" 
d="M558 270q0 -67 -18 -119t-51 -88t-80 -54.5t-106 -18.5q-54 0 -100 18.5t-79.5 54.5t-52.5 88t-19 120q0 89 30.5 151t88 94.5t135.5 32.5q74 0 130.5 -32.5t89 -94.5t32.5 -152zM161 270q0 -60 15 -103.5t47 -66.5t82 -23t82 23t47 66.5t15 103.5q0 62 -15.5 104
t-47 64.5t-82.5 22.5q-75 0 -109 -50t-34 -141zM472 756q-11 -14 -29.5 -34t-41 -41.5t-44.5 -41t-40 -33.5h-70v12q15 19 34 45t37 53.5t30 49.5h124v-10z" />
    <glyph glyph-name="ocircumflex" unicode="&#xf4;" horiz-adv-x="609" 
d="M558 270q0 -67 -18 -119t-51 -88t-80 -54.5t-106 -18.5q-54 0 -100 18.5t-79.5 54.5t-52.5 88t-19 120q0 89 30.5 151t88 94.5t135.5 32.5q74 0 130.5 -32.5t89 -94.5t32.5 -152zM161 270q0 -60 15 -103.5t47 -66.5t82 -23t82 23t47 66.5t15 103.5q0 62 -15.5 104
t-47 64.5t-82.5 22.5q-75 0 -109 -50t-34 -141zM361 766q13 -22 35.5 -49.5t47 -54t42.5 -44.5v-12h-73q-26 16 -54.5 39t-55.5 50q-27 -27 -54.5 -49.5t-53.5 -39.5h-72v12q19 19 42.5 45t45.5 53.5t36 49.5h114z" />
    <glyph glyph-name="otilde" unicode="&#xf5;" horiz-adv-x="609" 
d="M558 270q0 -67 -18 -119t-51 -88t-80 -54.5t-106 -18.5q-54 0 -100 18.5t-79.5 54.5t-52.5 88t-19 120q0 89 30.5 151t88 94.5t135.5 32.5q74 0 130.5 -32.5t89 -94.5t32.5 -152zM161 270q0 -60 15 -103.5t47 -66.5t82 -23t82 23t47 66.5t15 103.5q0 62 -15.5 104
t-47 64.5t-82.5 22.5q-75 0 -109 -50t-34 -141zM116 606q3 32 12.5 57t24.5 42t35 26t45 9q21 0 41.5 -8t39 -19t36.5 -19.5t34 -8.5q21 0 34 14t19 42h57q-6 -63 -37 -98.5t-79 -35.5q-21 0 -40.5 8t-39 19.5t-37 19.5t-34.5 8q-22 0 -34.5 -14t-19.5 -42h-57z" />
    <glyph glyph-name="odieresis" unicode="&#xf6;" horiz-adv-x="609" 
d="M558 270q0 -67 -18 -119t-51 -88t-80 -54.5t-106 -18.5q-54 0 -100 18.5t-79.5 54.5t-52.5 88t-19 120q0 89 30.5 151t88 94.5t135.5 32.5q74 0 130.5 -32.5t89 -94.5t32.5 -152zM161 270q0 -60 15 -103.5t47 -66.5t82 -23t82 23t47 66.5t15 103.5q0 62 -15.5 104
t-47 64.5t-82.5 22.5q-75 0 -109 -50t-34 -141zM157 682q0 29 16 41.5t37 12.5q22 0 38 -12.5t16 -40.5t-16 -41.5t-38 -13.5q-21 0 -37 13.5t-16 40.5zM348 682q0 29 15.5 41.5t37.5 12.5q21 0 37 -12.5t16 -40.5t-16 -41.5t-37 -13.5q-22 0 -37.5 13.5t-15.5 40.5z" />
    <glyph glyph-name="divide.tamil" unicode="&#xf7;" 
d="M49 312v81h474v-81h-474zM286 117q-28 0 -44.5 16.5t-16.5 48.5q0 33 16.5 48.5t44.5 15.5q26 0 42.5 -15.5t16.5 -48.5q0 -32 -17 -48.5t-42 -16.5zM286 458q-27 0 -44 16.5t-17 48.5q0 33 16.5 48.5t44.5 15.5q26 0 42.5 -15.5t16.5 -48.5q-1 -33 -17.5 -49t-41.5 -16z
" />
    <glyph glyph-name="oslash" unicode="&#xf8;" horiz-adv-x="609" 
d="M558 270q0 -89 -31 -152t-88 -95.5t-136 -32.5q-35 0 -66 8t-59 22l-37 -54l-63 42l41 59q-32 36 -49.5 87t-17.5 116q0 134 68 206.5t186 72.5q36 0 68 -8.5t60 -24.5l36 51l63 -42l-40 -56q30 -36 47.5 -86t17.5 -113zM161 270q0 -33 4.5 -62t15.5 -52l200 285
q-14 9 -34 14.5t-43 5.5q-75 0 -109 -50t-34 -141zM449 270q0 32 -5 59t-13 49l-200 -283q15 -9 34 -13.5t40 -4.5q50 0 82 23t47 66.5t15 103.5z" />
    <glyph glyph-name="ugrave" unicode="&#xf9;" horiz-adv-x="630" 
d="M547 539v-539h-85l-15 71h-5q-17 -28 -44 -46t-59 -26.5t-66 -8.5q-63 0 -106.5 20.5t-66 64t-22.5 111.5v353h107v-337q0 -63 26.5 -94t82.5 -31t88 22t45.5 64.5t13.5 102.5v273h106zM293 766q12 -22 30 -49.5t37.5 -53.5t34.5 -45v-12h-71q-17 14 -39.5 33.5t-45 41
t-41 41.5t-28.5 34v10h123z" />
    <glyph glyph-name="uacute" unicode="&#xfa;" horiz-adv-x="630" 
d="M547 539v-539h-85l-15 71h-5q-17 -28 -44 -46t-59 -26.5t-66 -8.5q-63 0 -106.5 20.5t-66 64t-22.5 111.5v353h107v-337q0 -63 26.5 -94t82.5 -31t88 22t45.5 64.5t13.5 102.5v273h106zM482 756q-11 -14 -29.5 -34t-41 -41.5t-44.5 -41t-40 -33.5h-70v12q15 19 34 45
t37 53.5t30 49.5h124v-10z" />
    <glyph glyph-name="ucircumflex" unicode="&#xfb;" horiz-adv-x="630" 
d="M547 539v-539h-85l-15 71h-5q-17 -28 -44 -46t-59 -26.5t-66 -8.5q-63 0 -106.5 20.5t-66 64t-22.5 111.5v353h107v-337q0 -63 26.5 -94t82.5 -31t88 22t45.5 64.5t13.5 102.5v273h106zM371 766q13 -22 35.5 -49.5t47 -54t42.5 -44.5v-12h-73q-26 16 -54.5 39t-55.5 50
q-27 -27 -54.5 -49.5t-53.5 -39.5h-72v12q19 19 42.5 45t45.5 53.5t36 49.5h114z" />
    <glyph glyph-name="udieresis" unicode="&#xfc;" horiz-adv-x="630" 
d="M547 539v-539h-85l-15 71h-5q-17 -28 -44 -46t-59 -26.5t-66 -8.5q-63 0 -106.5 20.5t-66 64t-22.5 111.5v353h107v-337q0 -63 26.5 -94t82.5 -31t88 22t45.5 64.5t13.5 102.5v273h106zM166 682q0 29 16 41.5t37 12.5q22 0 38 -12.5t16 -40.5t-16 -41.5t-38 -13.5
q-21 0 -37 13.5t-16 40.5zM357 682q0 29 15.5 41.5t37.5 12.5q21 0 37 -12.5t16 -40.5t-16 -41.5t-37 -13.5q-22 0 -37.5 13.5t-15.5 40.5z" />
    <glyph glyph-name="yacute" unicode="&#xfd;" horiz-adv-x="527" 
d="M1 539h114l112 -306q9 -23 16 -45t12.5 -43.5t8.5 -42.5h4q5 26 16 61.5t23 70.5l106 305h114l-231 -612q-19 -52 -47 -89.5t-66.5 -57.5t-90.5 -20q-25 0 -43 2.5t-31 5.5v84q11 -2 26.5 -4t32.5 -2q31 0 53.5 12t38 34t26.5 50l22 58zM431 756q-11 -14 -29.5 -34
t-41 -41.5t-44.5 -41t-40 -33.5h-70v12q15 19 34 45t37 53.5t30 49.5h124v-10z" />
    <glyph glyph-name="thorn" unicode="&#xfe;" horiz-adv-x="620" 
d="M568 270q0 -91 -27 -154t-75.5 -94.5t-113.5 -31.5q-41 0 -72 10t-53 27.5t-38 37.5h-6q1 -8 2.5 -23.5t2.5 -31.5t1 -27v-223h-106v1000h106v-214q0 -17 -1.5 -41t-2.5 -38h5q15 23 37 41.5t53 29.5t72 11q97 0 156.5 -70.5t59.5 -208.5zM459 272q0 95 -32 142.5
t-99 47.5q-75 0 -106 -43t-33 -130v-18q0 -93 30 -143.5t110 -50.5q45 0 73.5 22.5t42.5 66.5t14 106z" />
    <glyph glyph-name="ydieresis" unicode="&#xff;" horiz-adv-x="527" 
d="M1 539h114l112 -306q9 -23 16 -45t12.5 -43.5t8.5 -42.5h4q5 26 16 61.5t23 70.5l106 305h114l-231 -612q-19 -52 -47 -89.5t-66.5 -57.5t-90.5 -20q-25 0 -43 2.5t-31 5.5v84q11 -2 26.5 -4t32.5 -2q31 0 53.5 12t38 34t26.5 50l22 58zM115 682q0 29 16 41.5t37 12.5
q22 0 38 -12.5t16 -40.5t-16 -41.5t-38 -13.5q-21 0 -37 13.5t-16 40.5zM306 682q0 29 15.5 41.5t37.5 12.5q21 0 37 -12.5t16 -40.5t-16 -41.5t-37 -13.5q-22 0 -37.5 13.5t-15.5 40.5z" />
    <glyph glyph-name="Amacron" unicode="&#x100;" horiz-adv-x="654" 
d="M540 0l-76 206h-276l-76 -206h-112l271 717h112l270 -717h-113zM362 501q-3 11 -10.5 33.5t-14.5 46t-11 38.5q-5 -20 -11.5 -43.5t-12.5 -43t-10 -31.5l-72 -201h214zM479 861v-80h-307v80h307z" />
    <glyph glyph-name="amacron" unicode="&#x101;" horiz-adv-x="574" 
d="M292 549q102 0 152 -44.5t50 -139.5v-365h-75l-21 75h-4q-23 -29 -47.5 -48t-56 -28t-76.5 -9q-48 0 -86.5 17.5t-60.5 54t-22 91.5q0 82 62.5 125t190.5 47l92 3v30q0 60 -27 84t-76 24q-42 0 -80 -12t-72 -29l-34 77q38 20 87.5 33.5t103.5 13.5zM317 257
q-92 -4 -127.5 -30.5t-35.5 -74.5q0 -42 25.5 -61t64.5 -19q63 0 104 35t41 105v47zM440 686v-80h-307v80h307z" />
    <glyph glyph-name="Abreve" unicode="&#x102;" horiz-adv-x="654" 
d="M540 0l-76 206h-276l-76 -206h-112l271 717h112l270 -717h-113zM362 501q-3 11 -10.5 33.5t-14.5 46t-11 38.5q-5 -20 -11.5 -43.5t-12.5 -43t-10 -31.5l-72 -201h214zM492 924q-3 -42 -24.5 -74.5t-58 -50.5t-86.5 -18q-78 0 -119 39t-45 104h63q3 -27 16 -40.5
t35 -17.5t52 -4q25 0 47 4.5t37.5 18t18.5 39.5h64z" />
    <glyph glyph-name="abreve" unicode="&#x103;" horiz-adv-x="574" 
d="M292 549q102 0 152 -44.5t50 -139.5v-365h-75l-21 75h-4q-23 -29 -47.5 -48t-56 -28t-76.5 -9q-48 0 -86.5 17.5t-60.5 54t-22 91.5q0 82 62.5 125t190.5 47l92 3v30q0 60 -27 84t-76 24q-42 0 -80 -12t-72 -29l-34 77q38 20 87.5 33.5t103.5 13.5zM317 257
q-92 -4 -127.5 -30.5t-35.5 -74.5q0 -42 25.5 -61t64.5 -19q63 0 104 35t41 105v47zM454 749q-3 -42 -24.5 -74.5t-58 -50.5t-86.5 -18q-78 0 -119 39t-45 104h63q3 -27 16 -40.5t35 -17.5t52 -4q25 0 47 4.5t37.5 18t18.5 39.5h64z" />
    <glyph glyph-name="Aogonek" unicode="&#x104;" horiz-adv-x="654" 
d="M540 0l-76 206h-276l-76 -206h-112l271 717h112l270 -717h-113zM362 501q-3 11 -10.5 33.5t-14.5 46t-11 38.5q-5 -20 -11.5 -43.5t-12.5 -43t-10 -31.5l-72 -201h214zM554 -115q0 -21 12 -32t31 -11q17 0 29.5 2.5t21.5 4.5v-65q-15 -4 -30 -7t-36 -3q-54 0 -81.5 27
t-27.5 72q0 29 14.5 56t37 49.5t45.5 37.5l53 -16q-34 -32 -51.5 -58.5t-17.5 -56.5z" />
    <glyph glyph-name="aogonek" unicode="&#x105;" horiz-adv-x="574" 
d="M292 549q102 0 152 -44.5t50 -139.5v-365h-75l-21 75h-4q-23 -29 -47.5 -48t-56 -28t-76.5 -9q-48 0 -86.5 17.5t-60.5 54t-22 91.5q0 82 62.5 125t190.5 47l92 3v30q0 60 -27 84t-76 24q-42 0 -80 -12t-72 -29l-34 77q38 20 87.5 33.5t103.5 13.5zM317 257
q-92 -4 -127.5 -30.5t-35.5 -74.5q0 -42 25.5 -61t64.5 -19q63 0 104 35t41 105v47zM422 -115q0 -21 12 -32t31 -11q17 0 29.5 2.5t21.5 4.5v-65q-15 -4 -30 -7t-36 -3q-54 0 -81.5 27t-27.5 72q0 29 14.5 56t37 49.5t45.5 37.5l53 -16q-34 -32 -51.5 -58.5t-17.5 -56.5z
" />
    <glyph glyph-name="Cacute" unicode="&#x106;" horiz-adv-x="633" 
d="M400 631q-53 0 -95 -18.5t-71.5 -54.5t-45 -87t-15.5 -115q0 -84 25 -145.5t75 -94.5t126 -33q46 0 88.5 8.5t86.5 22.5v-93q-42 -16 -86 -23.5t-102 -7.5q-109 0 -181.5 45t-108.5 128t-36 194q0 81 22.5 148.5t65.5 116.5t106.5 75.5t146.5 26.5q54 0 106 -11.5
t94 -32.5l-40 -90q-35 16 -75.5 28.5t-85.5 12.5zM546 931q-11 -14 -29.5 -34t-41 -41.5t-44.5 -41t-40 -33.5h-70v12q15 19 34 45t37 53.5t30 49.5h124v-10z" />
    <glyph glyph-name="cacute" unicode="&#x107;" horiz-adv-x="490" 
d="M300 -10q-74 0 -130 29t-87 90.5t-31 156.5q0 100 33.5 162t91 91.5t131.5 29.5q45 0 84.5 -9.5t65.5 -21.5l-32 -86q-28 11 -59.5 19t-59.5 8q-50 0 -82.5 -21.5t-48 -64t-15.5 -106.5q0 -61 16 -103t47.5 -63.5t78.5 -21.5q45 0 79 10t64 26v-92q-29 -17 -63 -25
t-83 -8zM452 756q-11 -14 -29.5 -34t-41 -41.5t-44.5 -41t-40 -33.5h-70v12q15 19 34 45t37 53.5t30 49.5h124v-10z" />
    <glyph glyph-name="Cdotaccent" unicode="&#x10a;" horiz-adv-x="633" 
d="M400 631q-53 0 -95 -18.5t-71.5 -54.5t-45 -87t-15.5 -115q0 -84 25 -145.5t75 -94.5t126 -33q46 0 88.5 8.5t86.5 22.5v-93q-42 -16 -86 -23.5t-102 -7.5q-109 0 -181.5 45t-108.5 128t-36 194q0 81 22.5 148.5t65.5 116.5t106.5 75.5t146.5 26.5q54 0 106 -11.5
t94 -32.5l-40 -90q-35 16 -75.5 28.5t-85.5 12.5zM380 919q23 0 41 -14t18 -47q0 -32 -18 -46.5t-41 -14.5q-26 0 -43.5 14.5t-17.5 46.5q0 33 17.5 47t43.5 14z" />
    <glyph glyph-name="cdotaccent" unicode="&#x10b;" horiz-adv-x="490" 
d="M300 -10q-74 0 -130 29t-87 90.5t-31 156.5q0 100 33.5 162t91 91.5t131.5 29.5q45 0 84.5 -9.5t65.5 -21.5l-32 -86q-28 11 -59.5 19t-59.5 8q-50 0 -82.5 -21.5t-48 -64t-15.5 -106.5q0 -61 16 -103t47.5 -63.5t78.5 -21.5q45 0 79 10t64 26v-92q-29 -17 -63 -25
t-83 -8zM286 744q23 0 41 -14t18 -47q0 -32 -18 -46.5t-41 -14.5q-26 0 -43.5 14.5t-17.5 46.5q0 33 17.5 47t43.5 14z" />
    <glyph glyph-name="Ccaron" unicode="&#x10c;" horiz-adv-x="633" 
d="M400 631q-53 0 -95 -18.5t-71.5 -54.5t-45 -87t-15.5 -115q0 -84 25 -145.5t75 -94.5t126 -33q46 0 88.5 8.5t86.5 22.5v-93q-42 -16 -86 -23.5t-102 -7.5q-109 0 -181.5 45t-108.5 128t-36 194q0 81 22.5 148.5t65.5 116.5t106.5 75.5t146.5 26.5q54 0 106 -11.5
t94 -32.5l-40 -90q-35 16 -75.5 28.5t-85.5 12.5zM321 781q-14 23 -36 49.5t-46 52.5t-42 45v13h72q26 -17 54.5 -40t53.5 -50q27 27 55.5 50t54.5 40h73v-13q-18 -19 -42.5 -45t-47 -52.5t-35.5 -49.5h-114z" />
    <glyph glyph-name="ccaron" unicode="&#x10d;" horiz-adv-x="490" 
d="M300 -10q-74 0 -130 29t-87 90.5t-31 156.5q0 100 33.5 162t91 91.5t131.5 29.5q45 0 84.5 -9.5t65.5 -21.5l-32 -86q-28 11 -59.5 19t-59.5 8q-50 0 -82.5 -21.5t-48 -64t-15.5 -106.5q0 -61 16 -103t47.5 -63.5t78.5 -21.5q45 0 79 10t64 26v-92q-29 -17 -63 -25
t-83 -8zM227 606q-14 23 -36 49.5t-46 52.5t-42 45v13h72q26 -17 54.5 -40t53.5 -50q27 27 55.5 50t54.5 40h73v-13q-18 -19 -42.5 -45t-47 -52.5t-35.5 -49.5h-114z" />
    <glyph glyph-name="Dcaron" unicode="&#x10e;" horiz-adv-x="733" 
d="M673 364q0 -120 -45 -201t-129.5 -122t-203.5 -41h-200v714h221q109 0 189 -40t124 -117.5t44 -192.5zM560 361q0 90 -29 148t-85.5 86t-136.5 28h-106v-532h87q135 0 202.5 68t67.5 202zM306 781q-14 23 -36 49.5t-46 52.5t-42 45v13h72q26 -17 54.5 -40t53.5 -50
q27 27 55.5 50t54.5 40h73v-13q-18 -19 -42.5 -45t-47 -52.5t-35.5 -49.5h-114z" />
    <glyph glyph-name="dcaron" unicode="&#x10f;" horiz-adv-x="620" 
d="M268 -10q-97 0 -156.5 70t-59.5 208q0 139 60 210t158 71q41 0 71.5 -10.5t53 -28.5t38.5 -40h6q-2 14 -5 40.5t-3 47.5v202h106v-760h-83l-18 72h-5q-15 -23 -37.5 -41.5t-53.5 -29.5t-72 -11zM293 77q78 0 110 43.5t32 130.5v16q0 95 -30.5 145t-112.5 50
q-65 0 -98 -52.5t-33 -143.5t33 -140t99 -49zM709 751q-6 -19 -18 -45.5t-27 -54.5t-30 -51h-60v12q5 15 10 33.5t9.5 39t8 40t5.5 35.5h102v-9z" />
    <glyph glyph-name="Dcroat" unicode="&#x110;" horiz-adv-x="733" 
d="M316 714q109 0 189 -40t124 -117.5t44 -192.5q0 -120 -45 -201t-129.5 -122t-204.5 -41h-194v307h-72v92h72v315h216zM309 623h-101v-224h160v-92h-160v-216h82q136 0 203 68t67 202q0 90 -30 148t-85.5 86t-135.5 28z" />
    <glyph glyph-name="dcroat" unicode="&#x111;" horiz-adv-x="626" 
d="M268 -10q-97 0 -156.5 69t-59.5 204q0 138 60 206.5t157 68.5q41 0 72 -10.5t53.5 -28.5t38.5 -40h6q-3 15 -5.5 43t-2.5 46v51h-195v75h195v86h106v-86h76v-75h-76v-599h-84l-18 72h-4q-16 -23 -38.5 -41.5t-53 -29.5t-71.5 -11zM294 77q77 0 109 42t32 127v16
q0 93 -30.5 141t-112.5 48q-65 0 -98 -50t-33 -140q0 -89 33 -136.5t100 -47.5z" />
    <glyph glyph-name="Emacron" unicode="&#x112;" horiz-adv-x="557" 
d="M497 0h-402v714h402v-92h-294v-204h276v-91h-276v-234h294v-93zM457 861v-80h-307v80h307z" />
    <glyph glyph-name="emacron" unicode="&#x113;" 
d="M295 549q71 0 122 -29.5t78.5 -84.5t27.5 -130v-58h-362q2 -83 43.5 -127t116.5 -44q52 0 92.5 9.5t83.5 28.5v-88q-40 -18 -81.5 -27t-98.5 -9q-78 0 -138 31t-93.5 92.5t-33.5 151.5q0 91 30.5 154t85 96.5t127.5 33.5zM295 467q-57 0 -91.5 -37t-40.5 -105h254
q0 42 -13 74t-40 50t-69 18zM441 686v-80h-307v80h307z" />
    <glyph glyph-name="Edotaccent" unicode="&#x116;" horiz-adv-x="557" 
d="M497 0h-402v714h402v-92h-294v-204h276v-91h-276v-234h294v-93zM305 919q23 0 41 -14t18 -47q0 -32 -18 -46.5t-41 -14.5q-26 0 -43.5 14.5t-17.5 46.5q0 33 17.5 47t43.5 14z" />
    <glyph glyph-name="edotaccent" unicode="&#x117;" 
d="M295 549q71 0 122 -29.5t78.5 -84.5t27.5 -130v-58h-362q2 -83 43.5 -127t116.5 -44q52 0 92.5 9.5t83.5 28.5v-88q-40 -18 -81.5 -27t-98.5 -9q-78 0 -138 31t-93.5 92.5t-33.5 151.5q0 91 30.5 154t85 96.5t127.5 33.5zM295 467q-57 0 -91.5 -37t-40.5 -105h254
q0 42 -13 74t-40 50t-69 18zM289 744q23 0 41 -14t18 -47q0 -32 -18 -46.5t-41 -14.5q-26 0 -43.5 14.5t-17.5 46.5q0 33 17.5 47t43.5 14z" />
    <glyph glyph-name="Eogonek" unicode="&#x118;" horiz-adv-x="557" 
d="M497 0h-402v714h402v-92h-294v-204h276v-91h-276v-234h294v-93zM400 -115q0 -21 12 -32t31 -11q17 0 29.5 2.5t21.5 4.5v-65q-15 -4 -30 -7t-36 -3q-54 0 -81.5 27t-27.5 72q0 29 14.5 56t37 49.5t45.5 37.5l53 -16q-34 -32 -51.5 -58.5t-17.5 -56.5z" />
    <glyph glyph-name="eogonek" unicode="&#x119;" 
d="M396 -115q0 -21 11.5 -32t31.5 -11q17 0 29.5 2.5t21.5 4.5v-65q-15 -4 -30 -7t-36 -3q-54 0 -81.5 27t-27.5 72q0 29 14.5 56t37 49.5t45.5 37.5l85 10q-40 -33 -62 -57t-30.5 -44t-8.5 -40zM295 549q71 0 122 -29.5t78.5 -84.5t27.5 -130v-58h-362q2 -83 43.5 -127
t116.5 -44q52 0 92.5 9.5t83.5 28.5v-88q-40 -18 -81.5 -27t-98.5 -9q-78 0 -138 31t-93.5 92.5t-33.5 151.5q0 91 30.5 154t85 96.5t127.5 33.5zM295 467q-57 0 -91.5 -37t-40.5 -105h254q0 42 -13 74t-40 50t-69 18z" />
    <glyph glyph-name="Ecaron" unicode="&#x11a;" horiz-adv-x="557" 
d="M497 0h-402v714h402v-92h-294v-204h276v-91h-276v-234h294v-93zM246 781q-14 23 -36 49.5t-46 52.5t-42 45v13h72q26 -17 54.5 -40t53.5 -50q27 27 55.5 50t54.5 40h73v-13q-18 -19 -42.5 -45t-47 -52.5t-35.5 -49.5h-114z" />
    <glyph glyph-name="ecaron" unicode="&#x11b;" 
d="M295 549q71 0 122 -29.5t78.5 -84.5t27.5 -130v-58h-362q2 -83 43.5 -127t116.5 -44q52 0 92.5 9.5t83.5 28.5v-88q-40 -18 -81.5 -27t-98.5 -9q-78 0 -138 31t-93.5 92.5t-33.5 151.5q0 91 30.5 154t85 96.5t127.5 33.5zM295 467q-57 0 -91.5 -37t-40.5 -105h254
q0 42 -13 74t-40 50t-69 18zM231 606q-14 23 -36 49.5t-46 52.5t-42 45v13h72q26 -17 54.5 -40t53.5 -50q27 27 55.5 50t54.5 40h73v-13q-18 -19 -42.5 -45t-47 -52.5t-35.5 -49.5h-114z" />
    <glyph glyph-name="Gbreve" unicode="&#x11e;" horiz-adv-x="727" 
d="M393 384h258v-356q-57 -19 -116.5 -28.5t-135.5 -9.5q-109 0 -184.5 44t-115 126t-39.5 197q0 112 44 194t126.5 127.5t200.5 45.5q59 0 113 -11.5t100 -31.5l-39 -90q-37 17 -82.5 28.5t-95.5 11.5q-79 0 -136.5 -33.5t-88 -95t-30.5 -146.5q0 -80 25 -142t79 -97
t141 -35q42 0 72 4.5t55 10.5v194h-151v93zM570 924q-3 -42 -24.5 -74.5t-58 -50.5t-86.5 -18q-78 0 -119 39t-45 104h63q3 -27 16 -40.5t35 -17.5t52 -4q25 0 47 4.5t37.5 18t18.5 39.5h64z" />
    <glyph glyph-name="gbreve" unicode="&#x11f;" horiz-adv-x="620" 
d="M269 549q52 0 94 -20t71 -61h5l12 71h86v-546q0 -76 -27 -128t-82.5 -78.5t-139.5 -26.5q-58 0 -107 8t-90 25v93q42 -21 93.5 -31.5t109.5 -10.5q66 0 102 37.5t36 105.5v18q0 13 1 34.5t2 31.5h-4q-28 -42 -68.5 -61.5t-93.5 -19.5q-102 0 -159.5 73.5t-57.5 204.5
q0 130 58 205.5t159 75.5zM291 461q-42 0 -71 -22.5t-44 -65.5t-15 -106q0 -94 33.5 -143t98.5 -49q38 0 64.5 10t44 31t26 53.5t8.5 78.5v20q0 69 -15.5 111.5t-47.5 62t-82 19.5zM468 749q-3 -42 -24.5 -74.5t-58 -50.5t-86.5 -18q-78 0 -119 39t-45 104h63
q3 -27 16 -40.5t35 -17.5t52 -4q25 0 47 4.5t37.5 18t18.5 39.5h64z" />
    <glyph glyph-name="Gdotaccent" unicode="&#x120;" horiz-adv-x="727" 
d="M393 384h258v-356q-57 -19 -116.5 -28.5t-135.5 -9.5q-109 0 -184.5 44t-115 126t-39.5 197q0 112 44 194t126.5 127.5t200.5 45.5q59 0 113 -11.5t100 -31.5l-39 -90q-37 17 -82.5 28.5t-95.5 11.5q-79 0 -136.5 -33.5t-88 -95t-30.5 -146.5q0 -80 25 -142t79 -97
t141 -35q42 0 72 4.5t55 10.5v194h-151v93zM405 919q23 0 41 -14t18 -47q0 -32 -18 -46.5t-41 -14.5q-26 0 -43.5 14.5t-17.5 46.5q0 33 17.5 47t43.5 14z" />
    <glyph glyph-name="gdotaccent" unicode="&#x121;" horiz-adv-x="620" 
d="M269 549q52 0 94 -20t71 -61h5l12 71h86v-546q0 -76 -27 -128t-82.5 -78.5t-139.5 -26.5q-58 0 -107 8t-90 25v93q42 -21 93.5 -31.5t109.5 -10.5q66 0 102 37.5t36 105.5v18q0 13 1 34.5t2 31.5h-4q-28 -42 -68.5 -61.5t-93.5 -19.5q-102 0 -159.5 73.5t-57.5 204.5
q0 130 58 205.5t159 75.5zM291 461q-42 0 -71 -22.5t-44 -65.5t-15 -106q0 -94 33.5 -143t98.5 -49q38 0 64.5 10t44 31t26 53.5t8.5 78.5v20q0 69 -15.5 111.5t-47.5 62t-82 19.5zM303 744q23 0 41 -14t18 -47q0 -32 -18 -46.5t-41 -14.5q-26 0 -43.5 14.5t-17.5 46.5
q0 33 17.5 47t43.5 14z" />
    <glyph glyph-name="uni0122" unicode="&#x122;" horiz-adv-x="727" 
d="M393 384h258v-356q-57 -19 -116.5 -28.5t-135.5 -9.5q-109 0 -184.5 44t-115 126t-39.5 197q0 112 44 194t126.5 127.5t200.5 45.5q59 0 113 -11.5t100 -31.5l-39 -90q-37 17 -82.5 28.5t-95.5 11.5q-79 0 -136.5 -33.5t-88 -95t-30.5 -146.5q0 -80 25 -142t79 -97
t141 -35q42 0 72 4.5t55 10.5v194h-151v93zM468 -70q-6 -19 -18.5 -46t-28.5 -54.5t-33 -50.5h-60v12q8 18 15.5 44.5t14 54.5t8.5 49h102v-9z" />
    <glyph glyph-name="uni0123" unicode="&#x123;" horiz-adv-x="620" 
d="M269 549q52 0 94 -20t71 -61h5l12 71h86v-546q0 -76 -27 -128t-82.5 -78.5t-139.5 -26.5q-58 0 -107 8t-90 25v93q42 -21 93.5 -31.5t109.5 -10.5q66 0 102 37.5t36 105.5v18q0 13 1 34.5t2 31.5h-4q-28 -42 -68.5 -61.5t-93.5 -19.5q-102 0 -159.5 73.5t-57.5 204.5
q0 130 58 205.5t159 75.5zM291 461q-42 0 -71 -22.5t-44 -65.5t-15 -106q0 -94 33.5 -143t98.5 -49q38 0 64.5 10t44 31t26 53.5t8.5 78.5v20q0 69 -15.5 111.5t-47.5 62t-82 19.5zM372 754q-7 -18 -15 -44.5t-14 -54t-9 -49.5h-102v9q6 19 18 45.5t28 54.5t34 51h60v-12z
" />
    <glyph glyph-name="Hbar" unicode="&#x126;" horiz-adv-x="748" 
d="M95 0v523h-95v79h95v112h108v-112h341v112h108v-112h95v-79h-95v-523h-108v326h-341v-326h-108zM203 418h341v105h-341v-105z" />
    <glyph glyph-name="hbar" unicode="&#x127;" horiz-adv-x="630" 
d="M189 760v-87h195v-75h-195v-64q0 -25 -2 -49.5t-4 -40.5h7q18 28 43 46t56.5 27t65.5 9q64 0 107 -20.5t65.5 -64.5t22.5 -113v-328h-105v313q0 63 -26.5 94.5t-84.5 31.5q-55 0 -86.5 -22t-45 -64t-13.5 -104v-249h-106v598h-76v75h76v87h106z" />
    <glyph glyph-name="Imacron" unicode="&#x12a;" horiz-adv-x="354" 
d="M315 0h-277v62l85 25v539l-85 26v62h277v-62l-84 -26v-539l84 -25v-62zM330 861v-80h-307v80h307z" />
    <glyph glyph-name="imacron" unicode="&#x12b;" horiz-adv-x="272" 
d="M189 0h-106v539h106v-539zM289 686v-80h-307v80h307z" />
    <glyph glyph-name="Iogonek" unicode="&#x12e;" horiz-adv-x="354" 
d="M315 0h-277v62l85 25v539l-85 26v62h277v-62l-84 -26v-539l84 -25v-62zM219 -115q0 -21 12 -32t31 -11q17 0 29.5 2.5t21.5 4.5v-65q-15 -4 -30 -7t-36 -3q-54 0 -81.5 27t-27.5 72q0 29 14.5 56t37 49.5t45.5 37.5l53 -16q-34 -32 -51.5 -58.5t-17.5 -56.5z" />
    <glyph glyph-name="iogonek" unicode="&#x12f;" horiz-adv-x="272" 
d="M189 539v-539h-106v539h106zM137 744q24 0 42 -14t18 -47q0 -32 -18 -46.5t-42 -14.5q-26 0 -43.5 14.5t-17.5 46.5q0 33 17.5 47t43.5 14zM113 -115q0 -21 12 -32t31 -11q17 0 29.5 2.5t21.5 4.5v-65q-15 -4 -30 -7t-36 -3q-54 0 -81.5 27t-27.5 72q0 29 14.5 56
t37 49.5t45.5 37.5l53 -16q-34 -32 -51.5 -58.5t-17.5 -56.5z" />
    <glyph glyph-name="Idotaccent" unicode="&#x130;" horiz-adv-x="354" 
d="M315 0h-277v62l85 25v539l-85 26v62h277v-62l-84 -26v-539l84 -25v-62zM179 919q23 0 41 -14t18 -47q0 -32 -18 -46.5t-41 -14.5q-26 0 -43.5 14.5t-17.5 46.5q0 33 17.5 47t43.5 14z" />
    <glyph glyph-name="dotlessi" unicode="&#x131;" horiz-adv-x="272" 
d="M189 0h-106v539h106v-539z" />
    <glyph glyph-name="IJ" unicode="&#x132;" horiz-adv-x="644" 
d="M315 0h-277v62l85 25v539l-85 26v62h277v-62l-84 -26v-539l84 -25v-62zM355 -196q-25 0 -44 3.5t-34 9.5v90q16 -4 34 -7t38 -3q25 0 47.5 10t35.5 36t13 73v698h108v-693q0 -75 -24.5 -123.5t-69 -71t-104.5 -22.5z" />
    <glyph glyph-name="ij" unicode="&#x133;" horiz-adv-x="544" 
d="M189 539v-539h-106v539h106zM137 744q24 0 42 -14t18 -47q0 -32 -18 -46.5t-42 -14.5q-26 0 -43.5 14.5t-17.5 46.5q0 33 17.5 47t43.5 14zM298 -240q-25 0 -46.5 3.5t-37.5 8.5v85q16 -4 32 -7t36 -3q31 0 52 17.5t21 66.5v608h106v-613q0 -50 -17 -87.5t-52.5 -58
t-93.5 -20.5zM348 683q0 33 17.5 47t43.5 14q24 0 42 -14t18 -47q0 -32 -18 -46.5t-42 -14.5q-26 0 -43.5 14.5t-17.5 46.5z" />
    <glyph glyph-name="uni0136" unicode="&#x136;" horiz-adv-x="632" 
d="M632 0h-125l-234 329l-70 -58v-271h-108v714h108v-345q26 31 52 61l52 60l193 224h124l-273 -312zM405 -70q-6 -19 -18.5 -46t-28.5 -54.5t-33 -50.5h-60v12q8 18 15.5 44.5t14 54.5t8.5 49h102v-9z" />
    <glyph glyph-name="uni0137" unicode="&#x137;" horiz-adv-x="559" 
d="M188 380q0 -21 -1.5 -48t-3.5 -50h3q8 10 19.5 24.5t23.5 29.5t22 26l165 177h123l-217 -231l231 -308h-125l-178 241l-62 -52v-189h-105v760h105v-380zM350 -70q-6 -19 -18.5 -46t-28.5 -54.5t-33 -50.5h-60v12q8 18 15.5 44.5t14 54.5t8.5 49h102v-9z" />
    <glyph glyph-name="Lacute" unicode="&#x139;" horiz-adv-x="536" 
d="M95 0v714h108v-621h305v-93h-413zM314 931q-11 -14 -29.5 -34t-41 -41.5t-44.5 -41t-40 -33.5h-70v12q15 19 34 45t37 53.5t30 49.5h124v-10z" />
    <glyph glyph-name="lacute" unicode="&#x13a;" horiz-adv-x="272" 
d="M189 0h-106v760h106v-760zM303 977q-11 -14 -29.5 -34t-41 -41.5t-44.5 -41t-40 -33.5h-70v12q15 19 34 45t37 53.5t30 49.5h124v-10z" />
    <glyph glyph-name="uni013B" unicode="&#x13b;" horiz-adv-x="536" 
d="M95 0v714h108v-621h305v-93h-413zM372 -70q-6 -19 -18.5 -46t-28.5 -54.5t-33 -50.5h-60v12q8 18 15.5 44.5t14 54.5t8.5 49h102v-9z" />
    <glyph glyph-name="uni013C" unicode="&#x13c;" horiz-adv-x="272" 
d="M189 0h-106v760h106v-760zM206 -70q-6 -19 -18.5 -46t-28.5 -54.5t-33 -50.5h-60v12q8 18 15.5 44.5t14 54.5t8.5 49h102v-9z" />
    <glyph glyph-name="Lcaron" unicode="&#x13d;" horiz-adv-x="536" 
d="M95 0v714h108v-621h305v-93h-413zM517 705q-6 -19 -18 -45.5t-27 -54.5t-30 -51h-60v12q5 15 10 33.5t9.5 39t8 40t5.5 35.5h102v-9z" />
    <glyph glyph-name="lcaron" unicode="&#x13e;" horiz-adv-x="272" 
d="M189 0h-106v760h106v-760zM363 751q-6 -19 -18 -45.5t-27 -54.5t-30 -51h-60v12q5 15 10 33.5t9.5 39t8 40t5.5 35.5h102v-9z" />
    <glyph glyph-name="Lslash" unicode="&#x141;" horiz-adv-x="536" 
d="M95 0v245l-45 -26l-41 71l86 51v373h108v-308l117 69l42 -72l-159 -94v-216h305v-93h-413z" />
    <glyph glyph-name="lslash" unicode="&#x142;" horiz-adv-x="272" 
d="M78 0v270l-46 -29l-42 70l88 56v393h106v-326l55 37l43 -70l-98 -64v-337h-106z" />
    <glyph glyph-name="Nacute" unicode="&#x143;" horiz-adv-x="776" 
d="M681 0h-131l-361 577h-4q2 -26 3.5 -58t3 -67t1.5 -72v-380h-98v714h130l360 -574h3q-1 21 -2 53t-2.5 68.5t-2.5 68.5v384h100v-714zM555 931q-11 -14 -29.5 -34t-41 -41.5t-44.5 -41t-40 -33.5h-70v12q15 19 34 45t37 53.5t30 49.5h124v-10z" />
    <glyph glyph-name="nacute" unicode="&#x144;" horiz-adv-x="630" 
d="M356 549q94 0 144 -47t50 -151v-351h-105v336q0 63 -26.5 94.5t-84.5 31.5q-82 0 -113.5 -49t-31.5 -141v-272h-106v539h84l15 -72h6q18 28 44 46t58 27t66 9zM482 756q-11 -14 -29.5 -34t-41 -41.5t-44.5 -41t-40 -33.5h-70v12q15 19 34 45t37 53.5t30 49.5h124v-10z
" />
    <glyph glyph-name="uni0145" unicode="&#x145;" horiz-adv-x="776" 
d="M681 0h-131l-361 577h-4q2 -26 3.5 -58t3 -67t1.5 -72v-380h-98v714h130l360 -574h3q-1 21 -2 53t-2.5 68.5t-2.5 68.5v384h100v-714zM458 -70q-6 -19 -18.5 -46t-28.5 -54.5t-33 -50.5h-60v12q8 18 15.5 44.5t14 54.5t8.5 49h102v-9z" />
    <glyph glyph-name="uni0146" unicode="&#x146;" horiz-adv-x="630" 
d="M356 549q94 0 144 -47t50 -151v-351h-105v336q0 63 -26.5 94.5t-84.5 31.5q-82 0 -113.5 -49t-31.5 -141v-272h-106v539h84l15 -72h6q18 28 44 46t58 27t66 9zM385 -70q-6 -19 -18.5 -46t-28.5 -54.5t-33 -50.5h-60v12q8 18 15.5 44.5t14 54.5t8.5 49h102v-9z" />
    <glyph glyph-name="Ncaron" unicode="&#x147;" horiz-adv-x="776" 
d="M681 0h-131l-361 577h-4q2 -26 3.5 -58t3 -67t1.5 -72v-380h-98v714h130l360 -574h3q-1 21 -2 53t-2.5 68.5t-2.5 68.5v384h100v-714zM330 781q-14 23 -36 49.5t-46 52.5t-42 45v13h72q26 -17 54.5 -40t53.5 -50q27 27 55.5 50t54.5 40h73v-13q-18 -19 -42.5 -45
t-47 -52.5t-35.5 -49.5h-114z" />
    <glyph glyph-name="ncaron" unicode="&#x148;" horiz-adv-x="630" 
d="M356 549q94 0 144 -47t50 -151v-351h-105v336q0 63 -26.5 94.5t-84.5 31.5q-82 0 -113.5 -49t-31.5 -141v-272h-106v539h84l15 -72h6q18 28 44 46t58 27t66 9zM257 606q-14 23 -36 49.5t-46 52.5t-42 45v13h72q26 -17 54.5 -40t53.5 -50q27 27 55.5 50t54.5 40h73v-13
q-18 -19 -42.5 -45t-47 -52.5t-35.5 -49.5h-114z" />
    <glyph glyph-name="Eng" unicode="&#x14a;" horiz-adv-x="776" 
d="M481 -196q-27 0 -47 3.5t-35 9.5v88q17 -4 36 -7t42 -3q29 0 52.5 9.5t38 33t15.5 63.5l-394 576h-4q2 -21 3.5 -57t3 -75t1.5 -73v-372h-98v714h130l360 -533h3q-1 24 -3 57.5t-3 71t-1 70.5v334h100v-710q0 -68 -25 -112.5t-69.5 -66t-105.5 -21.5z" />
    <glyph glyph-name="eng" unicode="&#x14b;" horiz-adv-x="630" 
d="M397 -240q-23 0 -42.5 3.5t-33.5 8.5v85q14 -4 28 -7t31 -3q28 0 46.5 17.5t18.5 66.5v409q0 61 -27 91.5t-83 30.5q-55 0 -87 -22t-45.5 -64t-13.5 -103v-273h-106v539h84l15 -72h7q18 28 43.5 46t57.5 27t66 9q64 0 107.5 -20.5t65.5 -64t22 -112.5v-426
q0 -50 -16 -87.5t-50 -58t-88 -20.5z" />
    <glyph glyph-name="Omacron" unicode="&#x14c;" horiz-adv-x="785" 
d="M725 358q0 -83 -20.5 -150.5t-62 -116.5t-104 -75t-145.5 -26q-85 0 -147.5 26.5t-104 75t-61.5 116.5t-20 151q0 110 36 192t110.5 128t187.5 46q110 0 183.5 -45.5t110.5 -128t37 -193.5zM174 358q0 -86 23 -147.5t72 -95t124 -33.5q76 0 124 33.5t71 95t23 147.5
q0 129 -51.5 201.5t-165.5 72.5q-76 0 -125 -33t-72 -94t-23 -147zM546 861v-80h-307v80h307z" />
    <glyph glyph-name="omacron" unicode="&#x14d;" horiz-adv-x="609" 
d="M558 270q0 -67 -18 -119t-51 -88t-80 -54.5t-106 -18.5q-54 0 -100 18.5t-79.5 54.5t-52.5 88t-19 120q0 89 30.5 151t88 94.5t135.5 32.5q74 0 130.5 -32.5t89 -94.5t32.5 -152zM161 270q0 -60 15 -103.5t47 -66.5t82 -23t82 23t47 66.5t15 103.5q0 62 -15.5 104
t-47 64.5t-82.5 22.5q-75 0 -109 -50t-34 -141zM458 686v-80h-307v80h307z" />
    <glyph glyph-name="Ohungarumlaut" unicode="&#x150;" horiz-adv-x="785" 
d="M725 358q0 -83 -20.5 -150.5t-62 -116.5t-104 -75t-145.5 -26q-85 0 -147.5 26.5t-104 75t-61.5 116.5t-20 151q0 110 36 192t110.5 128t187.5 46q110 0 183.5 -45.5t110.5 -128t37 -193.5zM174 358q0 -86 23 -147.5t72 -95t124 -33.5q76 0 124 33.5t71 95t23 147.5
q0 129 -51.5 201.5t-165.5 72.5q-76 0 -125 -33t-72 -94t-23 -147zM584 931q-8 -13 -24.5 -33t-37.5 -42t-42 -41.5t-38 -33.5h-59v12q14 19 30.5 45t32.5 53.5t27 49.5h111v-10zM402 931q-8 -13 -24 -33t-37 -42t-42 -41.5t-38 -33.5h-59v12q14 19 30.5 45t32 53.5
t26.5 49.5h111v-10z" />
    <glyph glyph-name="ohungarumlaut" unicode="&#x151;" horiz-adv-x="609" 
d="M558 270q0 -67 -18 -119t-51 -88t-80 -54.5t-106 -18.5q-54 0 -100 18.5t-79.5 54.5t-52.5 88t-19 120q0 89 30.5 151t88 94.5t135.5 32.5q74 0 130.5 -32.5t89 -94.5t32.5 -152zM161 270q0 -60 15 -103.5t47 -66.5t82 -23t82 23t47 66.5t15 103.5q0 62 -15.5 104
t-47 64.5t-82.5 22.5q-75 0 -109 -50t-34 -141zM496 756q-8 -13 -24.5 -33t-37.5 -42t-42 -41.5t-38 -33.5h-59v12q14 19 30.5 45t32.5 53.5t27 49.5h111v-10zM314 756q-8 -13 -24 -33t-37 -42t-42 -41.5t-38 -33.5h-59v12q14 19 30.5 45t32 53.5t26.5 49.5h111v-10z" />
    <glyph glyph-name="OE" unicode="&#x152;" horiz-adv-x="941" 
d="M384 725q26 0 52 -3t48 -8h398v-92h-284v-204h265v-91h-265v-234h284v-93h-394q-22 -4 -48.5 -7t-52.5 -3q-110 0 -183 46t-108.5 129t-35.5 194t35.5 193t107.5 127.5t181 45.5zM390 632q-56 0 -97.5 -18.5t-67.5 -54.5t-39.5 -86.5t-13.5 -114.5q0 -86 23.5 -147.5
t71.5 -95t122 -33.5q28 0 55 5t47 13v515q-20 9 -46.5 13t-54.5 4z" />
    <glyph glyph-name="oe" unicode="&#x153;" horiz-adv-x="955" 
d="M679 548q71 0 121.5 -29.5t78 -84t27.5 -129.5v-58h-358q2 -87 42 -129t114 -42q53 0 93.5 9.5t82.5 28.5v-88q-41 -18 -81.5 -27t-97.5 -9q-66 0 -118 25t-86 76q-32 -50 -82.5 -75.5t-114.5 -25.5q-72 0 -128 32.5t-88.5 95.5t-32.5 152t30 151t86.5 94.5t134.5 32.5
q61 0 110.5 -25t80.5 -75q21 33 49 55.5t62.5 33.5t74.5 11zM299 461q-73 0 -105.5 -47.5t-32.5 -143.5q0 -63 14.5 -106t45.5 -65t80 -22q48 0 78.5 21.5t45.5 64t15 105.5q0 65 -15 107.5t-46 64t-80 21.5zM679 466q-56 0 -89.5 -35.5t-39.5 -105.5h249q0 42 -12.5 74
t-39 49.5t-68.5 17.5z" />
    <glyph glyph-name="Racute" unicode="&#x154;" horiz-adv-x="633" 
d="M295 714q92 0 151 -23t88 -68.5t29 -114.5q0 -55 -20.5 -92.5t-52.5 -61t-67 -37.5l200 -317h-124l-172 289h-124v-289h-108v714h200zM288 622h-85v-243h90q83 0 121 31.5t38 93.5q0 43 -17.5 68.5t-54 37.5t-92.5 12zM486 931q-11 -14 -29.5 -34t-41 -41.5t-44.5 -41
t-40 -33.5h-70v12q15 19 34 45t37 53.5t30 49.5h124v-10z" />
    <glyph glyph-name="racute" unicode="&#x155;" horiz-adv-x="425" 
d="M349 549q14 0 31 -1.5t28 -3.5l-11 -99q-11 3 -26 5t-28 2q-30 0 -57.5 -11.5t-49.5 -33t-34.5 -52.5t-12.5 -71v-284h-106v539h84l14 -96h4q17 29 41 53t55 38.5t68 14.5zM411 756q-11 -14 -29.5 -34t-41 -41.5t-44.5 -41t-40 -33.5h-70v12q15 19 34 45t37 53.5t30 49.5
h124v-10z" />
    <glyph glyph-name="uni0156" unicode="&#x156;" horiz-adv-x="633" 
d="M295 714q92 0 151 -23t88 -68.5t29 -114.5q0 -55 -20.5 -92.5t-52.5 -61t-67 -37.5l200 -317h-124l-172 289h-124v-289h-108v714h200zM288 622h-85v-243h90q83 0 121 31.5t38 93.5q0 43 -17.5 68.5t-54 37.5t-92.5 12zM407 -70q-6 -19 -18.5 -46t-28.5 -54.5t-33 -50.5
h-60v12q8 18 15.5 44.5t14 54.5t8.5 49h102v-9z" />
    <glyph glyph-name="uni0157" unicode="&#x157;" horiz-adv-x="425" 
d="M349 549q14 0 31 -1.5t28 -3.5l-11 -99q-11 3 -26 5t-28 2q-30 0 -57.5 -11.5t-49.5 -33t-34.5 -52.5t-12.5 -71v-284h-106v539h84l14 -96h4q17 29 41 53t55 38.5t68 14.5zM205 -70q-6 -19 -18.5 -46t-28.5 -54.5t-33 -50.5h-60v12q8 18 15.5 44.5t14 54.5t8.5 49h102v-9
z" />
    <glyph glyph-name="Rcaron" unicode="&#x158;" horiz-adv-x="633" 
d="M295 714q92 0 151 -23t88 -68.5t29 -114.5q0 -55 -20.5 -92.5t-52.5 -61t-67 -37.5l200 -317h-124l-172 289h-124v-289h-108v714h200zM288 622h-85v-243h90q83 0 121 31.5t38 93.5q0 43 -17.5 68.5t-54 37.5t-92.5 12zM261 781q-14 23 -36 49.5t-46 52.5t-42 45v13h72
q26 -17 54.5 -40t53.5 -50q27 27 55.5 50t54.5 40h73v-13q-18 -19 -42.5 -45t-47 -52.5t-35.5 -49.5h-114z" />
    <glyph glyph-name="rcaron" unicode="&#x159;" horiz-adv-x="425" 
d="M349 549q14 0 31 -1.5t28 -3.5l-11 -99q-11 3 -26 5t-28 2q-30 0 -57.5 -11.5t-49.5 -33t-34.5 -52.5t-12.5 -71v-284h-106v539h84l14 -96h4q17 29 41 53t55 38.5t68 14.5zM186 606q-14 23 -36 49.5t-46 52.5t-42 45v13h72q26 -17 54.5 -40t53.5 -50q27 27 55.5 50
t54.5 40h73v-13q-18 -19 -42.5 -45t-47 -52.5t-35.5 -49.5h-114z" />
    <glyph glyph-name="Sacute" unicode="&#x15a;" horiz-adv-x="550" 
d="M505 193q0 -64 -31 -109t-89 -69.5t-138 -24.5q-39 0 -75 4.5t-67 12.5t-55 20v102q40 -18 94 -32.5t110 -14.5q48 0 80 13t48 36t16 54q0 33 -16.5 55.5t-51 42t-92.5 41.5q-40 15 -72.5 33.5t-57 43.5t-37.5 58t-13 77q0 59 29.5 101t81.5 64.5t121 22.5
q58 0 107.5 -11.5t94.5 -31.5l-34 -89q-41 17 -83 28t-88 11q-40 0 -67 -12t-40.5 -33t-13.5 -49q0 -33 15 -55t48 -40.5t87 -40.5q60 -23 102.5 -50t64.5 -64.5t22 -93.5zM451 931q-11 -14 -29.5 -34t-41 -41.5t-44.5 -41t-40 -33.5h-70v12q15 19 34 45t37 53.5t30 49.5
h124v-10z" />
    <glyph glyph-name="sacute" unicode="&#x15b;" horiz-adv-x="484" 
d="M441 152q0 -53 -26 -89t-75 -54.5t-118 -18.5q-57 0 -97.5 8.5t-74.5 24.5v93q36 -17 83 -30.5t92 -13.5q60 0 86.5 19t26.5 51q0 18 -10 32.5t-37.5 30t-80.5 35.5q-51 21 -87 41.5t-55 49t-19 73.5q0 70 56.5 107.5t149.5 37.5q49 0 92.5 -9.5t84.5 -28.5l-35 -81
q-35 15 -72 25.5t-75 10.5q-48 0 -73 -15t-25 -42q0 -19 11.5 -33t40.5 -28t79 -34q50 -19 85.5 -39t54 -49t18.5 -74zM409 756q-11 -14 -29.5 -34t-41 -41.5t-44.5 -41t-40 -33.5h-70v12q15 19 34 45t37 53.5t30 49.5h124v-10z" />
    <glyph glyph-name="Scedilla" unicode="&#x15e;" horiz-adv-x="550" 
d="M505 193q0 -64 -31 -109t-89 -69.5t-138 -24.5q-39 0 -75 4.5t-67 12.5t-55 20v102q40 -18 94 -32.5t110 -14.5q48 0 80 13t48 36t16 54q0 33 -16.5 55.5t-51 42t-92.5 41.5q-40 15 -72.5 33.5t-57 43.5t-37.5 58t-13 77q0 59 29.5 101t81.5 64.5t121 22.5
q58 0 107.5 -11.5t94.5 -31.5l-34 -89q-41 17 -83 28t-88 11q-40 0 -67 -12t-40.5 -33t-13.5 -49q0 -33 15 -55t48 -40.5t87 -40.5q60 -23 102.5 -50t64.5 -64.5t22 -93.5zM363 -134q0 -50 -36 -78t-113 -28q-17 0 -32 2t-24 4v63q10 -2 26.5 -4t31.5 -2q29 0 45.5 8.5
t16.5 31.5t-24 36t-64 18l42 83h68l-22 -46q23 -6 42.5 -17t31 -28t11.5 -43z" />
    <glyph glyph-name="scedilla" unicode="&#x15f;" horiz-adv-x="484" 
d="M441 152q0 -53 -26 -89t-75 -54.5t-118 -18.5q-57 0 -97.5 8.5t-74.5 24.5v93q36 -17 83 -30.5t92 -13.5q60 0 86.5 19t26.5 51q0 18 -10 32.5t-37.5 30t-80.5 35.5q-51 21 -87 41.5t-55 49t-19 73.5q0 70 56.5 107.5t149.5 37.5q49 0 92.5 -9.5t84.5 -28.5l-35 -81
q-35 15 -72 25.5t-75 10.5q-48 0 -73 -15t-25 -42q0 -19 11.5 -33t40.5 -28t79 -34q50 -19 85.5 -39t54 -49t18.5 -74zM346 -134q0 -50 -36 -78t-113 -28q-17 0 -32 2t-24 4v63q10 -2 26.5 -4t31.5 -2q29 0 45.5 8.5t16.5 31.5t-24 36t-64 18l42 83h68l-22 -46
q23 -6 42.5 -17t31 -28t11.5 -43z" />
    <glyph glyph-name="Scaron" unicode="&#x160;" horiz-adv-x="550" 
d="M505 193q0 -64 -31 -109t-89 -69.5t-138 -24.5q-39 0 -75 4.5t-67 12.5t-55 20v102q40 -18 94 -32.5t110 -14.5q48 0 80 13t48 36t16 54q0 33 -16.5 55.5t-51 42t-92.5 41.5q-40 15 -72.5 33.5t-57 43.5t-37.5 58t-13 77q0 59 29.5 101t81.5 64.5t121 22.5
q58 0 107.5 -11.5t94.5 -31.5l-34 -89q-41 17 -83 28t-88 11q-40 0 -67 -12t-40.5 -33t-13.5 -49q0 -33 15 -55t48 -40.5t87 -40.5q60 -23 102.5 -50t64.5 -64.5t22 -93.5zM227 781q-14 23 -36 49.5t-46 52.5t-42 45v13h72q26 -17 54.5 -40t53.5 -50q27 27 55.5 50t54.5 40
h73v-13q-18 -19 -42.5 -45t-47 -52.5t-35.5 -49.5h-114z" />
    <glyph glyph-name="scaron" unicode="&#x161;" horiz-adv-x="484" 
d="M441 152q0 -53 -26 -89t-75 -54.5t-118 -18.5q-57 0 -97.5 8.5t-74.5 24.5v93q36 -17 83 -30.5t92 -13.5q60 0 86.5 19t26.5 51q0 18 -10 32.5t-37.5 30t-80.5 35.5q-51 21 -87 41.5t-55 49t-19 73.5q0 70 56.5 107.5t149.5 37.5q49 0 92.5 -9.5t84.5 -28.5l-35 -81
q-35 15 -72 25.5t-75 10.5q-48 0 -73 -15t-25 -42q0 -19 11.5 -33t40.5 -28t79 -34q50 -19 85.5 -39t54 -49t18.5 -74zM185 606q-14 23 -36 49.5t-46 52.5t-42 45v13h72q26 -17 54.5 -40t53.5 -50q27 27 55.5 50t54.5 40h73v-13q-18 -19 -42.5 -45t-47 -52.5t-35.5 -49.5
h-114z" />
    <glyph glyph-name="Tcaron" unicode="&#x164;" horiz-adv-x="563" 
d="M335 0h-108v621h-214v93h536v-93h-214v-621zM224 781q-14 23 -36 49.5t-46 52.5t-42 45v13h72q26 -17 54.5 -40t53.5 -50q27 27 55.5 50t54.5 40h73v-13q-18 -19 -42.5 -45t-47 -52.5t-35.5 -49.5h-114z" />
    <glyph glyph-name="tcaron" unicode="&#x165;" horiz-adv-x="383" 
d="M277 76q21 0 43 4t38 9v-80q-17 -8 -46 -13.5t-58 -5.5q-44 0 -80.5 15t-58.5 52t-22 103v298h-75v48l79 40l37 114h65v-121h154v-81h-154v-296q0 -44 21.5 -65t56.5 -21zM500 751q-6 -19 -18 -45.5t-27 -54.5t-30 -51h-60v12q5 15 10 33.5t9.5 39t8 40t5.5 35.5h102v-9z
" />
    <glyph glyph-name="Umacron" unicode="&#x16a;" horiz-adv-x="738" 
d="M649 252q0 -74 -30.5 -133.5t-93.5 -94t-159 -34.5q-136 0 -206.5 72.5t-70.5 191.5v460h108v-455q0 -88 43 -132.5t131 -44.5q60 0 98 22t55.5 61.5t17.5 94.5v454h107v-462zM523 861v-80h-307v80h307z" />
    <glyph glyph-name="umacron" unicode="&#x16b;" horiz-adv-x="630" 
d="M547 539v-539h-85l-15 71h-5q-17 -28 -44 -46t-59 -26.5t-66 -8.5q-63 0 -106.5 20.5t-66 64t-22.5 111.5v353h107v-337q0 -63 26.5 -94t82.5 -31t88 22t45.5 64.5t13.5 102.5v273h106zM468 686v-80h-307v80h307z" />
    <glyph glyph-name="Ubreve" unicode="&#x16c;" horiz-adv-x="738" 
d="M649 252q0 -74 -30.5 -133.5t-93.5 -94t-159 -34.5q-136 0 -206.5 72.5t-70.5 191.5v460h108v-455q0 -88 43 -132.5t131 -44.5q60 0 98 22t55.5 61.5t17.5 94.5v454h107v-462zM536 924q-3 -42 -24.5 -74.5t-58 -50.5t-86.5 -18q-78 0 -119 39t-45 104h63q3 -27 16 -40.5
t35 -17.5t52 -4q25 0 47 4.5t37.5 18t18.5 39.5h64z" />
    <glyph glyph-name="ubreve" unicode="&#x16d;" horiz-adv-x="630" 
d="M547 539v-539h-85l-15 71h-5q-17 -28 -44 -46t-59 -26.5t-66 -8.5q-63 0 -106.5 20.5t-66 64t-22.5 111.5v353h107v-337q0 -63 26.5 -94t82.5 -31t88 22t45.5 64.5t13.5 102.5v273h106zM481 749q-3 -42 -24.5 -74.5t-58 -50.5t-86.5 -18q-78 0 -119 39t-45 104h63
q3 -27 16 -40.5t35 -17.5t52 -4q25 0 47 4.5t37.5 18t18.5 39.5h64z" />
    <glyph glyph-name="Uring" unicode="&#x16e;" horiz-adv-x="738" 
d="M649 252q0 -74 -30.5 -133.5t-93.5 -94t-159 -34.5q-136 0 -206.5 72.5t-70.5 191.5v460h108v-455q0 -88 43 -132.5t131 -44.5q60 0 98 22t55.5 61.5t17.5 94.5v454h107v-462zM369 781q-51 0 -82 28.5t-31 80.5q0 51 31 79.5t82 28.5q48 0 81 -28.5t33 -78.5
q0 -53 -32.5 -81.5t-81.5 -28.5zM369 836q23 0 38 14.5t15 39.5q0 24 -15.5 38.5t-37.5 14.5q-23 0 -38.5 -14.5t-15.5 -38.5q0 -25 14 -39.5t40 -14.5z" />
    <glyph glyph-name="uring" unicode="&#x16f;" horiz-adv-x="630" 
d="M547 539v-539h-85l-15 71h-5q-17 -28 -44 -46t-59 -26.5t-66 -8.5q-63 0 -106.5 20.5t-66 64t-22.5 111.5v353h107v-337q0 -63 26.5 -94t82.5 -31t88 22t45.5 64.5t13.5 102.5v273h106zM314 606q-51 0 -82 28.5t-31 80.5q0 51 31 79.5t82 28.5q48 0 81 -28.5t33 -78.5
q0 -53 -32.5 -81.5t-81.5 -28.5zM314 661q23 0 38 14.5t15 39.5q0 24 -15.5 38.5t-37.5 14.5q-23 0 -38.5 -14.5t-15.5 -38.5q0 -25 14 -39.5t40 -14.5z" />
    <glyph glyph-name="Uhungarumlaut" unicode="&#x170;" horiz-adv-x="738" 
d="M649 252q0 -74 -30.5 -133.5t-93.5 -94t-159 -34.5q-136 0 -206.5 72.5t-70.5 191.5v460h108v-455q0 -88 43 -132.5t131 -44.5q60 0 98 22t55.5 61.5t17.5 94.5v454h107v-462zM560 931q-8 -13 -24.5 -33t-37.5 -42t-42 -41.5t-38 -33.5h-59v12q14 19 30.5 45t32.5 53.5
t27 49.5h111v-10zM378 931q-8 -13 -24 -33t-37 -42t-42 -41.5t-38 -33.5h-59v12q14 19 30.5 45t32 53.5t26.5 49.5h111v-10z" />
    <glyph glyph-name="uhungarumlaut" unicode="&#x171;" horiz-adv-x="630" 
d="M547 539v-539h-85l-15 71h-5q-17 -28 -44 -46t-59 -26.5t-66 -8.5q-63 0 -106.5 20.5t-66 64t-22.5 111.5v353h107v-337q0 -63 26.5 -94t82.5 -31t88 22t45.5 64.5t13.5 102.5v273h106zM506 756q-8 -13 -24.5 -33t-37.5 -42t-42 -41.5t-38 -33.5h-59v12q14 19 30.5 45
t32.5 53.5t27 49.5h111v-10zM324 756q-8 -13 -24 -33t-37 -42t-42 -41.5t-38 -33.5h-59v12q14 19 30.5 45t32 53.5t26.5 49.5h111v-10z" />
    <glyph glyph-name="Uogonek" unicode="&#x172;" horiz-adv-x="738" 
d="M472 -105q0 -28 12 -40.5t31 -12.5q17 0 29.5 2.5t20.5 4.5v-65q-14 -4 -29.5 -7t-36.5 -3q-54 0 -81.5 28t-27.5 80q0 32 16 63t39.5 56t46.5 40l72 12q-31 -34 -52 -61t-30.5 -50.5t-9.5 -46.5zM649 252q0 -74 -30.5 -133.5t-93.5 -94t-159 -34.5q-136 0 -206.5 72.5
t-70.5 191.5v460h108v-455q0 -88 43 -132.5t131 -44.5q60 0 98 22t55.5 61.5t17.5 94.5v454h107v-462z" />
    <glyph glyph-name="uogonek" unicode="&#x173;" horiz-adv-x="630" 
d="M547 539v-539h-85l-15 71h-5q-17 -28 -44 -46t-59 -26.5t-66 -8.5q-63 0 -106.5 20.5t-66 64t-22.5 111.5v353h107v-337q0 -63 26.5 -94t82.5 -31t88 22t45.5 64.5t13.5 102.5v273h106zM456 -115q0 -21 12 -32t31 -11q17 0 29.5 2.5t21.5 4.5v-65q-15 -4 -30 -7t-36 -3
q-54 0 -81.5 27t-27.5 72q0 29 14.5 56t37 49.5t45.5 37.5l53 -16q-34 -32 -51.5 -58.5t-17.5 -56.5z" />
    <glyph glyph-name="Wcircumflex" unicode="&#x174;" horiz-adv-x="941" 
d="M932 714l-188 -714h-115l-126 441q-6 18 -11.5 40t-10.5 43.5t-8.5 38.5t-5.5 26q-1 -9 -4 -26t-8 -38.5t-10 -44t-11 -42.5l-124 -438h-115l-187 714h111l105 -422q5 -22 10 -45t9.5 -46t8 -44.5t6.5 -39.5q3 19 6.5 41t8.5 45.5t10.5 46.5t11.5 42l119 422h108
l123 -424q6 -20 11.5 -43t10.5 -46.5t8.5 -45t6.5 -38.5q3 25 8.5 54.5t12.5 61t14 59.5l105 422h110zM527 941q13 -22 35.5 -49.5t47 -54t42.5 -44.5v-12h-73q-26 16 -54.5 39t-55.5 50q-27 -27 -54.5 -49.5t-53.5 -39.5h-72v12q19 19 42.5 45t45.5 53.5t36 49.5h114z" />
    <glyph glyph-name="wcircumflex" unicode="&#x175;" horiz-adv-x="807" 
d="M447 270q-5 20 -11.5 44t-12.5 48.5t-11 45.5t-8 33h-4q-2 -12 -6.5 -33t-10.5 -45.5l-12 -49t-13 -44.5l-80 -268h-118l-149 539h108l70 -273q8 -28 14.5 -59t12 -59.5t7.5 -47.5h4q2 13 6 32.5t8.5 41t9 41.5t9.5 33l86 291h116l84 -291q6 -20 13 -47.5t12.5 -54
t7.5 -45.5h4q2 17 7 44.5t12.5 59.5t14.5 61l72 273h107l-151 -539h-121zM460 766q13 -22 35.5 -49.5t47 -54t42.5 -44.5v-12h-73q-26 16 -54.5 39t-55.5 50q-27 -27 -54.5 -49.5t-53.5 -39.5h-72v12q19 19 42.5 45t45.5 53.5t36 49.5h114z" />
    <glyph glyph-name="Ycircumflex" unicode="&#x176;" horiz-adv-x="583" 
d="M292 380l175 334h116l-238 -437v-277h-107v273l-238 441h117zM348 941q13 -22 35.5 -49.5t47 -54t42.5 -44.5v-12h-73q-26 16 -54.5 39t-55.5 50q-27 -27 -54.5 -49.5t-53.5 -39.5h-72v12q19 19 42.5 45t45.5 53.5t36 49.5h114z" />
    <glyph glyph-name="ycircumflex" unicode="&#x177;" horiz-adv-x="527" 
d="M1 539h114l112 -306q9 -23 16 -45t12.5 -43.5t8.5 -42.5h4q5 26 16 61.5t23 70.5l106 305h114l-231 -612q-19 -52 -47 -89.5t-66.5 -57.5t-90.5 -20q-25 0 -43 2.5t-31 5.5v84q11 -2 26.5 -4t32.5 -2q31 0 53.5 12t38 34t26.5 50l22 58zM320 766q13 -22 35.5 -49.5
t47 -54t42.5 -44.5v-12h-73q-26 16 -54.5 39t-55.5 50q-27 -27 -54.5 -49.5t-53.5 -39.5h-72v12q19 19 42.5 45t45.5 53.5t36 49.5h114z" />
    <glyph glyph-name="Ydieresis" unicode="&#x178;" horiz-adv-x="583" 
d="M292 380l175 334h116l-238 -437v-277h-107v273l-238 441h117zM143 857q0 29 16 41.5t37 12.5q22 0 38 -12.5t16 -40.5t-16 -41.5t-38 -13.5q-21 0 -37 13.5t-16 40.5zM334 857q0 29 15.5 41.5t37.5 12.5q21 0 37 -12.5t16 -40.5t-16 -41.5t-37 -13.5q-22 0 -37.5 13.5
t-15.5 40.5z" />
    <glyph glyph-name="Zacute" unicode="&#x179;" horiz-adv-x="574" 
d="M539 0h-505v77l366 544h-355v93h485v-77l-366 -544h375v-93zM458 931q-11 -14 -29.5 -34t-41 -41.5t-44.5 -41t-40 -33.5h-70v12q15 19 34 45t37 53.5t30 49.5h124v-10z" />
    <glyph glyph-name="zacute" unicode="&#x17a;" horiz-adv-x="475" 
d="M439 0h-404v67l278 390h-261v82h379v-75l-272 -382h280v-82zM404 756q-11 -14 -29.5 -34t-41 -41.5t-44.5 -41t-40 -33.5h-70v12q15 19 34 45t37 53.5t30 49.5h124v-10z" />
    <glyph glyph-name="Zdotaccent" unicode="&#x17b;" horiz-adv-x="574" 
d="M539 0h-505v77l366 544h-355v93h485v-77l-366 -544h375v-93zM293 919q23 0 41 -14t18 -47q0 -32 -18 -46.5t-41 -14.5q-26 0 -43.5 14.5t-17.5 46.5q0 33 17.5 47t43.5 14z" />
    <glyph glyph-name="zdotaccent" unicode="&#x17c;" horiz-adv-x="475" 
d="M439 0h-404v67l278 390h-261v82h379v-75l-272 -382h280v-82zM239 744q23 0 41 -14t18 -47q0 -32 -18 -46.5t-41 -14.5q-26 0 -43.5 14.5t-17.5 46.5q0 33 17.5 47t43.5 14z" />
    <glyph glyph-name="Zcaron" unicode="&#x17d;" horiz-adv-x="574" 
d="M539 0h-505v77l366 544h-355v93h485v-77l-366 -544h375v-93zM234 781q-14 23 -36 49.5t-46 52.5t-42 45v13h72q26 -17 54.5 -40t53.5 -50q27 27 55.5 50t54.5 40h73v-13q-18 -19 -42.5 -45t-47 -52.5t-35.5 -49.5h-114z" />
    <glyph glyph-name="zcaron" unicode="&#x17e;" horiz-adv-x="475" 
d="M439 0h-404v67l278 390h-261v82h379v-75l-272 -382h280v-82zM180 606q-14 23 -36 49.5t-46 52.5t-42 45v13h72q26 -17 54.5 -40t53.5 -50q27 27 55.5 50t54.5 40h73v-13q-18 -19 -42.5 -45t-47 -52.5t-35.5 -49.5h-114z" />
    <glyph glyph-name="uni0218" unicode="&#x218;" horiz-adv-x="550" 
d="M505 193q0 -64 -31 -109t-89 -69.5t-138 -24.5q-39 0 -75 4.5t-67 12.5t-55 20v102q40 -18 94 -32.5t110 -14.5q48 0 80 13t48 36t16 54q0 33 -16.5 55.5t-51 42t-92.5 41.5q-40 15 -72.5 33.5t-57 43.5t-37.5 58t-13 77q0 59 29.5 101t81.5 64.5t121 22.5
q58 0 107.5 -11.5t94.5 -31.5l-34 -89q-41 17 -83 28t-88 11q-40 0 -67 -12t-40.5 -33t-13.5 -49q0 -33 15 -55t48 -40.5t87 -40.5q60 -23 102.5 -50t64.5 -64.5t22 -93.5zM330 -70q-6 -19 -18.5 -46t-28.5 -54.5t-33 -50.5h-60v12q8 18 15.5 44.5t14 54.5t8.5 49h102v-9z
" />
    <glyph glyph-name="uni0219" unicode="&#x219;" horiz-adv-x="484" 
d="M441 152q0 -53 -26 -89t-75 -54.5t-118 -18.5q-57 0 -97.5 8.5t-74.5 24.5v93q36 -17 83 -30.5t92 -13.5q60 0 86.5 19t26.5 51q0 18 -10 32.5t-37.5 30t-80.5 35.5q-51 21 -87 41.5t-55 49t-19 73.5q0 70 56.5 107.5t149.5 37.5q49 0 92.5 -9.5t84.5 -28.5l-35 -81
q-35 15 -72 25.5t-75 10.5q-48 0 -73 -15t-25 -42q0 -19 11.5 -33t40.5 -28t79 -34q50 -19 85.5 -39t54 -49t18.5 -74zM313 -70q-6 -19 -18.5 -46t-28.5 -54.5t-33 -50.5h-60v12q8 18 15.5 44.5t14 54.5t8.5 49h102v-9z" />
    <glyph glyph-name="uni021A" unicode="&#x21a;" horiz-adv-x="563" 
d="M335 0h-108v621h-214v93h536v-93h-214v-621zM352 -70q-6 -19 -18.5 -46t-28.5 -54.5t-33 -50.5h-60v12q8 18 15.5 44.5t14 54.5t8.5 49h102v-9z" />
    <glyph glyph-name="uni021B" unicode="&#x21b;" horiz-adv-x="383" 
d="M277 76q21 0 43 4t38 9v-80q-17 -8 -46 -13.5t-58 -5.5q-44 0 -80.5 15t-58.5 52t-22 103v298h-75v48l79 40l37 114h65v-121h154v-81h-154v-296q0 -44 21.5 -65t56.5 -21zM292 -70q-6 -19 -18.5 -46t-28.5 -54.5t-33 -50.5h-60v12q8 18 15.5 44.5t14 54.5t8.5 49h102v-9z
" />
    <glyph glyph-name="uni0237" unicode="&#x237;" horiz-adv-x="272" 
d="M26 -240q-25 0 -46.5 3.5t-37.5 8.5v85q16 -4 32 -7t36 -3q31 0 52 17.5t21 66.5v608h106v-613q0 -50 -17 -87.5t-52.5 -58t-93.5 -20.5z" />
    <glyph glyph-name="circumflex" unicode="&#x2c6;" horiz-adv-x="443" 
d="M278 766q13 -22 35.5 -49.5t47 -54t42.5 -44.5v-12h-73q-26 16 -54.5 39t-55.5 50q-27 -27 -54.5 -49.5t-53.5 -39.5h-72v12q19 19 42.5 45t45.5 53.5t36 49.5h114z" />
    <glyph glyph-name="caron" unicode="&#x2c7;" horiz-adv-x="443" 
d="M164 606q-14 23 -36 49.5t-46 52.5t-42 45v13h72q26 -17 54.5 -40t53.5 -50q27 27 55.5 50t54.5 40h73v-13q-18 -19 -42.5 -45t-47 -52.5t-35.5 -49.5h-114z" />
    <glyph glyph-name="macronmod" unicode="&#x2c9;" horiz-adv-x="387" 
d="M347 686v-80h-307v80h307z" />
    <glyph glyph-name="breve" unicode="&#x2d8;" horiz-adv-x="413" 
d="M373 749q-3 -42 -24.5 -74.5t-58 -50.5t-86.5 -18q-78 0 -119 39t-45 104h63q3 -27 16 -40.5t35 -17.5t52 -4q25 0 47 4.5t37.5 18t18.5 39.5h64z" />
    <glyph glyph-name="dotaccent" unicode="&#x2d9;" horiz-adv-x="200" 
d="M101 744q23 0 41 -14t18 -47q0 -32 -18 -46.5t-41 -14.5q-26 0 -43.5 14.5t-17.5 46.5q0 33 17.5 47t43.5 14z" />
    <glyph glyph-name="ring" unicode="&#x2da;" horiz-adv-x="307" 
d="M153 606q-51 0 -82 28.5t-31 80.5q0 51 31 79.5t82 28.5q48 0 81 -28.5t33 -78.5q0 -53 -32.5 -81.5t-81.5 -28.5zM153 661q23 0 38 14.5t15 39.5q0 24 -15.5 38.5t-37.5 14.5q-23 0 -38.5 -14.5t-15.5 -38.5q0 -25 14 -39.5t40 -14.5z" />
    <glyph glyph-name="ogonek" unicode="&#x2db;" horiz-adv-x="255" 
d="M121 -115q0 -21 12 -32t31 -11q17 0 29.5 2.5t21.5 4.5v-65q-15 -4 -30 -7t-36 -3q-54 0 -81.5 27t-27.5 72q0 29 14.5 56t37 49.5t45.5 37.5l53 -16q-34 -32 -51.5 -58.5t-17.5 -56.5z" />
    <glyph glyph-name="tilde" unicode="&#x2dc;" horiz-adv-x="458" 
d="M40 606q3 32 12.5 57t24.5 42t35 26t45 9q21 0 41.5 -8t39 -19t36.5 -19.5t34 -8.5q21 0 34 14t19 42h57q-6 -63 -37 -98.5t-79 -35.5q-21 0 -40.5 8t-39 19.5t-37 19.5t-34.5 8q-22 0 -34.5 -14t-19.5 -42h-57z" />
    <glyph glyph-name="hungarumlaut" unicode="&#x2dd;" horiz-adv-x="462" 
d="M422 756q-8 -13 -24.5 -33t-37.5 -42t-42 -41.5t-38 -33.5h-59v12q14 19 30.5 45t32.5 53.5t27 49.5h111v-10zM240 756q-8 -13 -24 -33t-37 -42t-42 -41.5t-38 -33.5h-59v12q14 19 30.5 45t32 53.5t26.5 49.5h111v-10z" />
    <glyph glyph-name="gravecomb" unicode="&#x300;" horiz-adv-x="0" 
d="M-381 766q12 -22 30 -49.5t37.5 -53.5t34.5 -45v-12h-71q-17 14 -39.5 33.5t-45 41t-41 41.5t-28.5 34v10h123z" />
    <glyph glyph-name="acutecomb" unicode="&#x301;" horiz-adv-x="0" 
d="M-101 756q-11 -14 -29.5 -34t-41 -41.5t-44.5 -41t-40 -33.5h-70v12q15 19 34 45t37 53.5t30 49.5h124v-10z" />
    <glyph glyph-name="uni0302" unicode="&#x302;" horiz-adv-x="0" 
d="M58 766q13 -22 35.5 -49.5t47 -54t42.5 -44.5v-12h-73q-26 16 -54.5 39t-55.5 50q-27 -27 -54.5 -49.5t-53.5 -39.5h-72v12q19 19 42.5 45t45.5 53.5t36 49.5h114z" />
    <glyph glyph-name="tildecomb" unicode="&#x303;" horiz-adv-x="0" 
d="M-498 606q3 32 12.5 57t24.5 42t35 26t45 9q21 0 41.5 -8t39 -19t36.5 -19.5t34 -8.5q21 0 34 14t19 42h57q-6 -63 -37 -98.5t-79 -35.5q-21 0 -40.5 8t-39 19.5t-37 19.5t-34.5 8q-22 0 -34.5 -14t-19.5 -42h-57z" />
    <glyph glyph-name="uni0304" unicode="&#x304;" horiz-adv-x="0" 
d="M154 686v-80h-307v80h307z" />
    <glyph glyph-name="uni0306" unicode="&#x306;" horiz-adv-x="0" 
d="M168 749q-3 -42 -24.5 -74.5t-58 -50.5t-86.5 -18q-78 0 -119 39t-45 104h63q3 -27 16 -40.5t35 -17.5t52 -4q25 0 47 4.5t37.5 18t18.5 39.5h64z" />
    <glyph glyph-name="uni0307" unicode="&#x307;" horiz-adv-x="0" 
d="M1 744q23 0 41 -14t18 -47q0 -32 -18 -46.5t-41 -14.5q-26 0 -43.5 14.5t-17.5 46.5q0 33 17.5 47t43.5 14z" />
    <glyph glyph-name="uni0308" unicode="&#x308;" horiz-adv-x="0" 
d="M-149 682q0 29 16 41.5t37 12.5q22 0 38 -12.5t16 -40.5t-16 -41.5t-38 -13.5q-21 0 -37 13.5t-16 40.5zM42 682q0 29 15.5 41.5t37.5 12.5q21 0 37 -12.5t16 -40.5t-16 -41.5t-37 -13.5q-22 0 -37.5 13.5t-15.5 40.5z" />
    <glyph glyph-name="uni030A" unicode="&#x30a;" horiz-adv-x="0" 
d="M2 606q-51 0 -82 28.5t-31 80.5q0 51 31 79.5t82 28.5q48 0 81 -28.5t33 -78.5q0 -53 -32.5 -81.5t-81.5 -28.5zM2 661q23 0 38 14.5t15 39.5q0 24 -15.5 38.5t-37.5 14.5q-23 0 -38.5 -14.5t-15.5 -38.5q0 -25 14 -39.5t40 -14.5z" />
    <glyph glyph-name="uni030B" unicode="&#x30b;" horiz-adv-x="0" 
d="M249 756q-8 -13 -24.5 -33t-37.5 -42t-42 -41.5t-38 -33.5h-59v12q14 19 30.5 45t32.5 53.5t27 49.5h111v-10zM67 756q-8 -13 -24 -33t-37 -42t-42 -41.5t-38 -33.5h-59v12q14 19 30.5 45t32 53.5t26.5 49.5h111v-10z" />
    <glyph glyph-name="uni030C" unicode="&#x30c;" horiz-adv-x="0" 
d="M-57 606q-14 23 -36 49.5t-46 52.5t-42 45v13h72q26 -17 54.5 -40t53.5 -50q27 27 55.5 50t54.5 40h73v-13q-18 -19 -42.5 -45t-47 -52.5t-35.5 -49.5h-114z" />
    <glyph glyph-name="uni0312" unicode="&#x312;" horiz-adv-x="0" 
d="M-84 480q9 35 23 76t30.5 82t32.5 76h77q-9 -38 -18.5 -82t-17.5 -86t-13 -77h-108z" />
    <glyph glyph-name="uni0326" unicode="&#x326;" horiz-adv-x="0" 
d="M70 -70q-6 -19 -18.5 -46t-28.5 -54.5t-33 -50.5h-60v12q8 18 15.5 44.5t14 54.5t8.5 49h102v-9z" />
    <glyph glyph-name="uni0327" unicode="&#x327;" horiz-adv-x="0" 
d="M104 -134q0 -50 -36 -78t-113 -28q-17 0 -32 2t-24 4v63q10 -2 26.5 -4t31.5 -2q29 0 45.5 8.5t16.5 31.5t-24 36t-64 18l42 83h68l-22 -46q23 -6 42.5 -17t31 -28t11.5 -43z" />
    <glyph glyph-name="uni0328" unicode="&#x328;" horiz-adv-x="0" 
d="M-6 -115q0 -21 12 -32t31 -11q17 0 29.5 2.5t21.5 4.5v-65q-15 -4 -30 -7t-36 -3q-54 0 -81.5 27t-27.5 72q0 29 14.5 56t37 49.5t45.5 37.5l53 -16q-34 -32 -51.5 -58.5t-17.5 -56.5z" />
    <glyph glyph-name="uni0951" unicode="&#x951;" horiz-adv-x="0" 
d="M-318 870h80v-212h-80v212z" />
    <glyph glyph-name="uni0952" unicode="&#x952;" horiz-adv-x="0" 
d="M-57 -182h-442v77h442v-77z" />
    <glyph glyph-name="uni0964.tamil" unicode="&#x964;" horiz-adv-x="361" 
d="M171 -49v652h105v-652h-105z" />
    <glyph glyph-name="uni0965.tamil" unicode="&#x965;" horiz-adv-x="603" 
d="M413 -49v652h104v-652h-104zM171 -49v652h105v-652h-105z" />
    <glyph glyph-name="anusvaratamil" unicode="&#xb82;" horiz-adv-x="360" 
d="M53 720q0 54 35.5 89.5t91.5 35.5t91.5 -35.5t35.5 -89.5q0 -55 -35.5 -89.5t-91.5 -34.5t-91.5 34.5t-35.5 89.5zM122 720q0 -26 16 -43t42 -17t42 17t16 43t-16 43.5t-42 17.5t-42 -17.5t-16 -43.5z" />
    <glyph glyph-name="visargatamil" unicode="&#xb83;" horiz-adv-x="923" 
d="M231 -11q-57 0 -99.5 23t-65 65t-22.5 98q0 57 23.5 98t65.5 63.5t96 22.5q56 0 97 -22.5t64 -64t23 -97.5q0 -57 -23 -99t-64 -64.5t-95 -22.5zM230 69q36 0 61 26.5t25 79.5t-25.5 78.5t-61.5 25.5q-38 0 -62.5 -26.5t-24.5 -78.5q0 -53 25 -79t63 -26zM698 -11
q-58 0 -100 22.5t-65 64.5t-23 99t23.5 98t65.5 63.5t97 22.5t96 -22.5t64 -64t23 -97.5q0 -57 -22.5 -99t-64 -64.5t-94.5 -22.5zM696 69q37 0 61.5 26.5t24.5 79.5t-25.5 78.5t-61.5 25.5q-38 0 -62.5 -26.5t-24.5 -78.5q0 -53 25 -79t63 -26zM464 475q-57 0 -99.5 22.5
t-65 64.5t-22.5 99t23.5 98t65.5 63.5t96 22.5q56 0 97 -22.5t64 -64t23 -97.5q0 -57 -23 -99t-64 -64.5t-95 -22.5zM463 555q36 0 60.5 26.5t24.5 79.5t-25 78.5t-61 25.5q-38 0 -63 -26.5t-25 -78.5q0 -53 25.5 -79t63.5 -26z" />
    <glyph glyph-name="atamil" unicode="&#xb85;" horiz-adv-x="1150" 
d="M330 -129q-99 0 -166.5 24t-101.5 67t-34 99q0 26 11 50.5t35 41.5q14 9 30.5 15.5t42 9.5t65.5 3h755l2 -82h-746q-26 0 -41 -1t-23 -4t-15 -8q-14 -12 -14 -32q0 -46 51.5 -73t157.5 -27h16q101 0 172.5 23.5t118 64t69.5 91.5l4 22q8 23 11 47t3 47q0 57 -18.5 108
t-58.5 85.5t-103 44.5q-12 2 -24 2.5t-24 0.5q-30 0 -55.5 -9.5t-41 -30t-15.5 -53.5q0 -35 21 -58.5t59 -23.5q34 0 55.5 21.5t21.5 65.5q0 35 -12.5 63t-37.5 53l72 16q17 -15 32.5 -35.5t25.5 -46.5t10 -57q0 -35 -10.5 -63.5t-32 -50t-53.5 -33t-75 -11.5
q-47 0 -86 17.5t-62 52t-23 86.5q0 62 30 100.5t79 56.5t106 18q80 0 140.5 -26t101 -71.5t61 -102.5t20.5 -117q0 -26 -3 -50t-8 -47l-4 -26q-29 -83 -96 -140t-162.5 -87t-212.5 -30h-20zM960 -154v710h105v-710h-105z" />
    <glyph glyph-name="aatamil" unicode="&#xb86;" horiz-adv-x="1352" 
d="M330 -129q-99 0 -166.5 24t-101.5 67t-34 99q0 26 11 50.5t35 41.5q14 9 30.5 15.5t42 9.5t65.5 3h755l2 -82h-746q-26 0 -41 -1t-23 -4t-15 -8q-14 -12 -14 -32q0 -46 51.5 -73t157.5 -27h16q101 0 172.5 23.5t118 64t69.5 91.5l4 22q8 23 11 47t3 47q0 57 -18.5 108
t-58.5 85.5t-103 44.5q-12 2 -24 2.5t-24 0.5q-30 0 -55.5 -9.5t-41 -30t-15.5 -53.5q0 -35 21 -58.5t59 -23.5q34 0 55.5 21.5t21.5 65.5q0 35 -12.5 63t-37.5 53l72 16q17 -15 32.5 -35.5t25.5 -46.5t10 -57q0 -35 -10.5 -63.5t-32 -50t-53.5 -33t-75 -11.5
q-47 0 -86 17.5t-62 52t-23 86.5q0 62 30 100.5t79 56.5t106 18q80 0 140.5 -26t101 -71.5t61 -102.5t20.5 -117q0 -26 -3 -50t-8 -47l-4 -26q-29 -83 -96 -140t-162.5 -87t-212.5 -30h-20zM945 -321q-135 0 -209 44t-74 124q0 30 16 56.5t47.5 43.5t78.5 17q26 0 53.5 -5
t53.5 -15l-15 -74q-20 6 -40 10.5t-39 4.5q-30 0 -45.5 -10.5t-15.5 -31.5t18 -40t61 -30.5t118 -11.5h7q85 0 149.5 20.5t101 60t36.5 95.5q0 42 -24 65.5t-67 23.5q-32 0 -57 -9t-42 -22v79q21 12 50 21.5t71 9.5q43 0 82 -18t64 -55t25 -94q0 -77 -47 -135.5t-135.5 -91
t-211.5 -32.5h-10zM960 -124v680h105v-680h-105z" />
    <glyph glyph-name="itamil" unicode="&#xb87;" horiz-adv-x="1157" 
d="M264 -321q-70 0 -120 23t-75.5 65t-25.5 101q0 72 39 127.5t105 92.5q60 34 138 51t164 17q77 0 145 -13t122 -37q57 -26 98 -62.5t62 -81t21 -94.5q0 -88 -57.5 -138.5t-169.5 -50.5q-73 0 -142 20t-134 59q-54 28 -102.5 69.5t-89 92.5t-71.5 107q-48 84 -72 168
t-24 183q0 88 30.5 171.5t93 150t158.5 106t227 39.5q129 0 220 -34t152 -102q41 -46 66.5 -101t37.5 -125.5t12 -163.5v-319h-104v266q0 100 -11 174.5t-34.5 129.5t-62.5 95q-47 48 -114.5 71.5t-162.5 23.5q-84 0 -157.5 -25t-129 -74.5t-87 -122t-31.5 -167.5
q0 -60 8 -110t25.5 -95.5t43.5 -95.5q25 -52 65.5 -103t92.5 -94.5t113 -72.5q41 -21 84.5 -30t92.5 -9q73 0 103.5 32t30.5 82t-30.5 89t-79.5 63q-49 25 -111 36t-124 11q-88 0 -154.5 -16.5t-110.5 -43.5q-42 -27 -63 -62.5t-21 -75.5q0 -52 31 -83.5t101 -31.5
q43 0 82 6.5t77 25.5q62 26 114.5 71.5t91 103t56.5 117.5q13 40 19.5 81t6.5 84q0 66 -17.5 114.5t-48 78.5t-67.5 42l-41 2q-9 2 -18 2.5t-20 0.5q-33 0 -60 -9t-43.5 -29.5t-16.5 -52.5q0 -35 21 -58t59 -23q34 0 55.5 21t21.5 64q0 34 -13.5 62.5t-38.5 55.5l91 -12
q14 -13 25 -31t18.5 -39.5t7.5 -45.5q0 -43 -19.5 -78t-57.5 -55.5t-94 -20.5q-47 0 -85.5 19t-62 54.5t-23.5 84.5q0 59 30.5 96.5t83 56t116.5 18.5q99 0 165.5 -39.5t100.5 -110t34 -164.5q0 -50 -9.5 -107t-32.5 -112q-22 -60 -57.5 -113t-82 -96t-101.5 -73
q-66 -35 -135.5 -54.5t-142.5 -19.5z" />
    <glyph glyph-name="iitamil" unicode="&#xb88;" horiz-adv-x="747" 
d="M85 0v556h639v-82h-205v-474h-104v474h-225v-474h-105zM303 209q-29 0 -48.5 19t-19.5 49q0 29 19 48t49 19q29 0 48 -19t19 -48q0 -30 -19 -49t-48 -19zM631 209q-29 0 -48 19t-19 49q0 29 19 48t48 19q30 0 49 -19t19 -48q0 -30 -19.5 -49t-48.5 -19z" />
    <glyph glyph-name="utamil" unicode="&#xb89;" horiz-adv-x="1073" 
d="M305 568q110 0 180 -29t103 -78t33 -108q0 -58 -22.5 -96.5t-63 -62.5t-95.5 -36.5t-120 -18.5l-92 -9q-45 -4 -57 -10.5t-12 -17.5q0 -10 8 -15t27 -5h862v-82h-857q-53 0 -84 13.5t-44 36t-13 48.5q0 30 16 52.5t52 37.5t96 20l79 7q92 9 138.5 29t62 48.5t15.5 59.5
q0 42 -22.5 71.5t-64.5 46.5t-98 19h-26h-23.5h-17.5q-49 0 -83 -20.5t-34 -66.5q0 -35 21 -56t59 -21q35 0 56 21.5t21 62.5q0 31 -12.5 60t-37.5 53l75 12q18 -14 33 -34t24 -45.5t9 -58.5q0 -67 -43.5 -108t-128.5 -41q-48 0 -86.5 18t-61.5 52t-23 82q0 58 32 95.5
t88.5 55.5t131.5 18z" />
    <glyph glyph-name="uutamil" unicode="&#xb8a;" horiz-adv-x="1582" 
d="M305 568q110 0 180 -29t103 -78t33 -108q0 -58 -22.5 -96.5t-63 -62.5t-95.5 -36.5t-120 -18.5l-92 -9q-29 -2 -44 -6t-20 -9t-5 -13q0 -10 8 -15t27 -5h1342v-82h-1337q-53 0 -84 13.5t-44 36t-13 48.5q0 30 16 52.5t52 37.5t96 20l75 7q71 7 114.5 20t66.5 31.5
t31 40.5t8 45q0 42 -22.5 71.5t-64.5 46.5t-98 19h-26h-23.5h-17.5q-49 0 -83 -20.5t-34 -66.5q0 -35 22 -56t58 -21q34 0 55.5 21.5t21.5 62.5q0 31 -12.5 60t-37.5 53l75 12q18 -14 33 -34t24 -45.5t9 -58.5q0 -67 -44 -108t-128 -41q-45 0 -84 18t-63 52t-24 82
q0 58 32 95.5t88.5 55.5t131.5 18zM880 136q-46 0 -85 20t-62 62.5t-23 109.5q0 81 35.5 134.5t92 79.5t120.5 26q57 0 96.5 -13.5t72.5 -36.5l-16 -97q-26 30 -60.5 49.5t-88.5 19.5q-46 0 -81 -17t-56.5 -47.5t-27.5 -73.5l-2 -29q0 -42 10.5 -67.5t29.5 -36.5t43 -11
q19 0 32.5 7t21 20.5t7.5 32.5q0 30 -18.5 47t-48.5 17t-56.5 -19t-48.5 -50l-16 65q27 32 62.5 53.5t78.5 21.5q61 0 98 -34.5t37 -94.5q0 -64 -38.5 -101t-108.5 -37zM1103 147v325l14 27v57h419v-77h-115v-332h-96v332h-126v-332h-96z" />
    <glyph glyph-name="etamil" unicode="&#xb8e;" horiz-adv-x="824" 
d="M257 -12q-58 0 -104 26.5t-73 82t-27 141.5q0 81 28 141t78 98q33 28 75 45t99 25.5t135 8.5h49l1 -82h-76q-60 0 -100 -6.5t-66.5 -18.5t-46.5 -29q-39 -32 -60 -79.5t-21 -110.5q0 -59 14 -95.5t39 -52.5t57 -16q26 0 44 11t28 31.5t10 50.5q0 46 -24.5 70.5
t-63.5 24.5q-41 0 -75.5 -22t-62.5 -53l-17 74q32 35 77 58t99 23q74 0 120 -44.5t46 -121.5q0 -56 -21.5 -96.5t-62 -62t-98.5 -21.5zM540 0v474h-39l2 82h304v-82h-162v-474h-105z" />
    <glyph glyph-name="eetamil" unicode="&#xb8f;" horiz-adv-x="824" 
d="M422 -212l-68 63l186 176v447h-43l5 82h305v-82h-162v-474zM257 -12q-58 0 -104 26.5t-73 82t-27 141.5q0 81 28 141t78 98q33 28 75 45t99 25.5t135 8.5h49l1 -82h-76q-60 0 -100 -6.5t-66.5 -18.5t-46.5 -29q-39 -32 -60 -79.5t-21 -110.5q0 -58 14 -94t39 -53t57 -17
q26 0 43.5 11t28 31.5t10.5 50.5q0 46 -24.5 70.5t-63.5 24.5q-41 0 -75.5 -22t-62.5 -53l-17 74q32 35 77 58t99 23q74 0 120 -44.5t46 -121.5q0 -56 -21.5 -96.5t-62 -62t-98.5 -21.5z" />
    <glyph glyph-name="aitamil" unicode="&#xb90;" horiz-adv-x="1052" 
d="M339 -321q-94 0 -156.5 30t-93.5 82t-31 115q0 56 19 96t51 67q34 29 80 44t101 21t116 6h122q69 0 124 5t96.5 16.5t67.5 35.5q26 22 38.5 54.5t12.5 78.5q0 53 -18.5 87t-50.5 51t-71 17q-28 0 -50 -8.5t-38 -26.5q-18 -22 -26 -52t-8 -86v-105h-105v84q0 45 -9 81.5
t-30 63t-55 40.5t-86 14q-23 0 -38 -2t-30 -8l-34 -11q-32 -13 -50.5 -32t-26.5 -42t-8 -47q0 -39 19.5 -64.5t66.5 -25.5q37 0 59.5 21t22.5 57q0 32 -17 56.5t-48 38.5t-75 14l81 47q43 -5 78 -24t55.5 -51.5t20.5 -76.5q0 -73 -48 -116.5t-130 -43.5q-58 0 -98 22
t-60.5 59.5t-20.5 85.5q0 70 38 119.5t101.5 75.5t139.5 26q75 0 122.5 -18.5t75.5 -47.5t42 -59l-25 -11q17 44 44.5 74.5t66.5 46t88 15.5q80 0 133 -30.5t80.5 -83.5t27.5 -121q0 -72 -23 -121t-64 -80q-38 -30 -89.5 -46t-113 -22t-129.5 -6h-135q-60 0 -105 -4
t-76.5 -15t-53.5 -30q-20 -19 -29.5 -43.5t-9.5 -57.5q0 -50 24.5 -82.5t65.5 -48t91 -15.5q44 0 77 10t55 31q23 22 32.5 51t9.5 82v51h105v-34q0 -43 5 -73.5t17 -52.5q18 -34 48 -49.5t72 -15.5q34 0 61 14t43.5 43.5t16.5 78.5q0 28 -6.5 60.5t-16.5 54.5l102 33
q13 -33 19.5 -68.5t6.5 -80.5q0 -69 -27.5 -118t-77.5 -74.5t-118 -25.5q-65 0 -107 19.5t-66.5 49.5t-37.5 61l25 1q-19 -39 -52 -69t-81 -46t-111 -16z" />
    <glyph glyph-name="otamil" unicode="&#xb92;" horiz-adv-x="1027" 
d="M797 59q-47 0 -84.5 15.5t-59 47.5t-21.5 80q0 21 5.5 46.5t19.5 42.5l13 -3q-51 -27 -74.5 -67t-23.5 -85q0 -39 12 -67.5t35 -48.5q20 -18 45.5 -29.5t63 -17t92.5 -5.5h89v-82h-99q-53 0 -83 4.5t-55 10.5q-72 19 -114.5 53.5t-61.5 79t-19 93.5q0 51 20 95.5t59 80.5
t93 61l93 -42q-11 -24 -17.5 -47t-6.5 -50q0 -35 16 -60.5t63 -25.5q29 0 46 14.5t25 38.5t8 52q0 74 -44 128t-124 82t-188 28q-93 0 -167 -16t-125 -47t-75 -75l-8 -38q-1 -10 -2 -19.5t-1 -20.5q0 -42 12.5 -70t35.5 -42.5t53 -14.5q36 0 56.5 22t20.5 63q0 40 -22.5 62
t-60.5 22q-28 0 -55.5 -13.5t-50.5 -37.5l15 88q23 18 53 28.5t62 10.5q45 0 80 -18t54.5 -52.5t19.5 -84.5q0 -54 -21 -91.5t-60.5 -57t-93.5 -19.5q-52 0 -96 24.5t-70 70.5t-26 112q0 64 27 113.5t71 85.5q47 38 105 60.5t125 31.5t140 9q125 0 222 -30.5t162 -93.5
q39 -37 59 -86.5t20 -104.5q0 -34 -8.5 -68t-29.5 -63t-56 -46t-88 -17zM428 -321q-59 0 -107 19t-76.5 58t-28.5 100q0 40 14 83t44 81l88 -40q-22 -33 -32.5 -61t-10.5 -57q0 -38 15.5 -60t41.5 -31t57 -9q42 0 72 13.5t54 39.5t45 60q9 16 22 34t22 26l95 -29
q-10 -11 -21 -28.5t-18 -29.5q-26 -51 -63 -89.5t-88.5 -59t-124.5 -20.5z" />
    <glyph glyph-name="ootamil" unicode="&#xb93;" horiz-adv-x="1027" 
d="M797 59q-47 0 -84.5 15.5t-59 47.5t-21.5 80q0 21 5.5 46.5t19.5 42.5l13 -3q-51 -27 -74.5 -67t-23.5 -85q0 -39 12 -67.5t35 -48.5q20 -18 45.5 -29.5t63 -17t92.5 -5.5h89v-82h-99q-53 0 -83 4.5t-55 10.5q-72 19 -114.5 53.5t-61.5 79t-19 93.5q0 51 20 95.5t59 80.5
t93 61l93 -42q-11 -24 -17.5 -47t-6.5 -50q0 -35 16 -60.5t63 -25.5q29 0 46 14.5t25 38.5t8 52q0 74 -44 128t-124 82t-188 28q-93 0 -167 -16t-125 -47t-75 -75l-8 -38q-1 -10 -2 -19.5t-1 -20.5q0 -42 12.5 -70t35.5 -42.5t53 -14.5q36 0 56.5 22t20.5 63q0 40 -22.5 62
t-60.5 22q-28 0 -55.5 -13.5t-50.5 -37.5l15 88q23 18 53 28.5t62 10.5q45 0 80 -18t54.5 -52.5t19.5 -84.5q0 -54 -21 -91.5t-60.5 -57t-93.5 -19.5q-52 0 -96 24.5t-70 70.5t-26 112q0 64 27 113.5t71 85.5q47 38 105 60.5t125 31.5t140 9q125 0 222 -30.5t162 -93.5
q39 -37 59 -86.5t20 -104.5q0 -34 -8.5 -68t-29.5 -63t-56 -46t-88 -17zM324 0q60 0 97 -21t55 -54t18 -68q0 -34 -10.5 -61t-27.5 -48l-97 3q20 21 30 44t10 47q0 23 -8.5 41t-25 28t-44.5 10q-18 0 -34.5 -7t-27 -23.5t-10.5 -42.5q0 -28 12 -45.5t31 -27t41 -13.5t41 -4
l74 2q37 4 64.5 17t49.5 37.5t44 60.5q9 15 17.5 27.5t17.5 21.5l97 -23q-11 -12 -19 -26t-15 -27q-27 -53 -64.5 -91t-90.5 -58t-128 -20h-19q-61 0 -107 11.5t-78 35.5q-30 22 -47 52.5t-17 71.5q0 45 21 79t59.5 52.5t90.5 18.5z" />
    <glyph glyph-name="autamil" unicode="&#xb94;" horiz-adv-x="2124" 
d="M797 59q-47 0 -84.5 15.5t-59 47.5t-21.5 80q0 21 5.5 46.5t19.5 42.5l13 -3q-51 -27 -74.5 -67t-23.5 -85q0 -39 12 -67.5t35 -48.5q20 -18 45.5 -29.5t63 -17t92.5 -5.5h89v-82h-99q-53 0 -83 4.5t-55 10.5q-72 19 -114.5 53.5t-61.5 79t-19 93.5q0 51 20 95.5t59 80.5
t93 61l93 -42q-11 -24 -17.5 -47t-6.5 -50q0 -35 16 -60.5t63 -25.5q29 0 46 14.5t25 38.5t8 52q0 74 -44 128t-124 82t-188 28q-93 0 -167 -16t-125 -47t-75 -75l-8 -38q-1 -10 -2 -19.5t-1 -20.5q0 -42 12.5 -70t35.5 -42.5t53 -14.5q36 0 56.5 22t20.5 63q0 40 -22.5 62
t-60.5 22q-28 0 -55.5 -13.5t-50.5 -37.5l15 88q23 18 53 28.5t62 10.5q45 0 80 -18t54.5 -52.5t19.5 -84.5q0 -54 -21 -91.5t-60.5 -57t-93.5 -19.5q-52 0 -96 24.5t-70 70.5t-26 112q0 64 27 113.5t71 85.5q47 38 105 60.5t125 31.5t140 9q125 0 222 -30.5t162 -93.5
q39 -37 59 -86.5t20 -104.5q0 -34 -8.5 -68t-29.5 -63t-56 -46t-88 -17zM428 -321q-59 0 -107 19t-76.5 58t-28.5 100q0 40 14 83t44 81l88 -40q-22 -33 -32.5 -61t-10.5 -57q0 -38 15.5 -60t41.5 -31t57 -9q42 0 72 13.5t54 39.5t45 60q9 16 22 34t22 26l95 -29
q-10 -11 -21 -28.5t-18 -29.5q-26 -51 -63 -89.5t-88.5 -59t-124.5 -20.5zM1280 -12q-58 0 -104 27t-73 83t-27 145q0 81 25.5 142t70 101.5t101 61t117.5 20.5q47 0 84 -9t69 -25.5t61 -40.5l-27 -102q-34 43 -80 68t-110 25q-66 0 -114 -32t-75 -88.5t-27 -128.5
q0 -62 14 -99t39 -53.5t57 -16.5q25 0 43.5 11t28.5 31.5t10 50.5q0 46 -24.5 70.5t-63.5 24.5q-41 0 -75.5 -22t-62.5 -53l-17 74q32 35 77 58t99 23q74 0 120 -44.5t46 -121.5q0 -56 -21.5 -96.5t-62 -62t-98.5 -21.5zM1569 0v427l15 63v66h523v-82h-162v-474h-105v474
h-166v-474h-105z" />
    <glyph glyph-name="katamil" unicode="&#xb95;" horiz-adv-x="852" 
d="M271 -12q-65 0 -115.5 19.5t-79.5 57t-29 91.5t29.5 94t94 62t170.5 22h190q55 0 94 -5t68 -16t53 -29q27 -21 43 -54t16 -75q0 -78 -47.5 -121t-133.5 -43q-24 0 -52 3t-52 10l21 77q14 -4 32 -6.5t36 -2.5q46 0 69.5 21.5t23.5 66.5q0 31 -14.5 50t-38.5 28.5
t-54.5 12.5t-61.5 3h-202q-46 0 -80.5 -5t-58.5 -18q-21 -12 -31 -29.5t-10 -44.5q0 -43 36 -65t92 -22q43 0 73 13t47 46t17 91v254h-166v-172l-95 -16v270h551v-82h-187v-244q0 -68 -12 -106.5t-35 -65.5q-32 -38 -83.5 -54t-117.5 -16z" />
    <glyph glyph-name="ngatamil" unicode="&#xb99;" horiz-adv-x="1085" 
d="M85 0v556h557v-82h-185v-149q22 13 54 25t75 12q54 0 91 -20t55.5 -56t18.5 -83q0 -35 -9.5 -65.5t-24.5 -55.5h165v-82h-529v82h259q15 21 25 48.5t10 58.5q0 50 -23.5 70t-60.5 20q-29 0 -56.5 -11.5t-49.5 -28.5v-90h-104v325h-163v-474h-105zM777 0l-10 82h128v474
h104v-556h-222z" />
    <glyph glyph-name="catamil" unicode="&#xb9a;" horiz-adv-x="748" 
d="M271 -12q-65 0 -115.5 19.5t-79.5 57t-29 91.5t29.5 94t94 62t170.5 22h365v-80h-375q-46 0 -80.5 -5t-58.5 -18q-21 -12 -31 -29.5t-10 -44.5q0 -43 36 -65t92 -22q43 0 73 13t47 46t17 91v254h-166v-172l-95 -16v270h551v-82h-188v-244q0 -68 -12 -106.5t-34 -65.5
q-33 -38 -84 -54t-117 -16z" />
    <glyph glyph-name="jatamil" unicode="&#xb9c;" horiz-adv-x="1052" 
d="M337 568q75 0 122.5 -18.5t75.5 -47.5t42 -59l-25 -11q17 44 44.5 74.5t66.5 46t88 15.5q80 0 133 -30.5t80.5 -83.5t27.5 -121q0 -72 -23 -121t-64 -80q-38 -30 -89.5 -46t-113 -22t-129.5 -6h-135q-60 0 -105 -4t-76.5 -15t-53.5 -30q-20 -19 -29.5 -43.5t-9.5 -57.5
q0 -52 20.5 -84.5t52.5 -47t66 -14.5q43 0 75 12t59.5 35.5t57.5 54.5q45 49 85 79t86 45t110 15q41 0 77.5 -11t65 -33t44.5 -54t16 -75q0 -44 -20.5 -78.5t-59 -53.5t-90.5 -19q-47 0 -79.5 12.5t-53 33.5t-29.5 47t-9 51q0 44 22.5 78t54.5 61l81 -13
q-35 -26 -50.5 -54.5t-15.5 -57.5q0 -33 18.5 -56t60.5 -23q20 0 37 8t27.5 24.5t10.5 42.5q0 27 -10.5 44t-28 27t-39.5 14.5t-46 4.5q-18 0 -34 -2t-32 -7q-21 -7 -40.5 -20t-39 -32.5t-41.5 -44.5q-36 -42 -74.5 -73t-85.5 -48t-109 -17q-87 0 -141.5 31.5t-79.5 83.5
t-25 112q0 56 19 96t51 67q34 29 80 44t101 21t116 6h122q69 0 124 4.5t96.5 16.5t67.5 36q26 22 38.5 54.5t12.5 78.5q0 53 -18.5 87t-50 51t-71.5 17q-28 0 -50 -8.5t-38 -26.5q-18 -22 -26 -52t-8 -86v-105h-105v82q0 47 -9.5 84.5t-30 63.5t-55.5 39.5t-85 13.5
q-23 0 -38 -2t-30 -8l-34 -11q-32 -13 -50.5 -32t-26.5 -42t-8 -47q0 -39 19.5 -64.5t66.5 -25.5q37 0 59.5 21t22.5 57q0 32 -17 56.5t-48 38.5t-75 14l81 47q43 -5 78 -24t55.5 -51.5t20.5 -76.5q0 -73 -48 -116.5t-130 -43.5q-58 0 -98 22t-60.5 59.5t-20.5 85.5
q0 70 38 119.5t101.5 75.5t139.5 26z" />
    <glyph glyph-name="nyatamil" unicode="&#xb9e;" horiz-adv-x="1254" 
d="M1017 324q58 0 101 -28t66.5 -81t23.5 -129q0 -90 -30 -157.5t-82.5 -115.5t-121 -77.5t-147.5 -43t-162 -13.5h-35q-128 0 -222.5 25.5t-160.5 71t-106 105.5t-58.5 128.5t-18.5 139.5v20q0 71 19 141.5t49.5 134.5t64.5 115l87 -52q-38 -56 -64 -114t-39.5 -115.5
t-13.5 -114.5v-13q0 -83 26.5 -153t83 -122t146 -81t215.5 -29h21q96 0 177 19t140.5 57.5t92.5 99t33 143.5q0 51 -12 85.5t-36 52.5t-59 18q-28 0 -51.5 -10.5t-43.5 -25.5l1 84q20 13 49.5 24t66.5 11zM520 -12q-58 0 -104 26.5t-73 82t-27 141.5q0 81 28 141t77 98
q34 28 76 45t99 25.5t135 8.5h49l1 -82h-76q-60 0 -100 -6.5t-66.5 -18.5t-46.5 -29q-39 -32 -60 -79.5t-21 -110.5q0 -58 14 -94t39 -53t57 -17q25 0 43 11t28.5 31.5t10.5 50.5q0 46 -25 70.5t-64 24.5q-40 0 -74.5 -22t-62.5 -53l-17 74q32 35 77 58t98 23
q75 0 121 -44.5t46 -121.5q0 -56 -21.5 -96.5t-62 -62t-98.5 -21.5zM803 0v474h-40l3 82h304v-82h-162v-474h-105z" />
    <glyph glyph-name="ttatamil" unicode="&#xb9f;" horiz-adv-x="708" 
d="M85 0v556h105v-474h501v-82h-606z" />
    <glyph glyph-name="nnatamil" unicode="&#xba3;" horiz-adv-x="1703" 
d="M257 -12q-58 0 -104 27t-73 83t-27 144q0 99 45.5 172.5t129 113.5t196.5 40q52 0 97.5 -7.5t87 -23.5t82.5 -43l36 -30q61 -52 97 -120.5t36 -155.5q0 -65 -21 -109.5t-59.5 -67.5t-92.5 -23q-62 0 -101 26.5t-57.5 71t-18.5 100.5q0 54 12.5 102.5t37.5 91.5t62 80
l41 35q50 36 107.5 54.5t128.5 18.5q48 0 87.5 -7t74.5 -22.5t69 -40.5l39 -33q38 -35 65.5 -77.5t42.5 -92.5t15 -107q0 -65 -20.5 -109.5t-59.5 -67.5t-93 -23q-62 0 -101 26.5t-57 71t-18 100.5q0 52 12 99.5t38 91.5t66 84l43 33q32 20 67.5 33.5t85.5 21t127 7.5h304
v-82h-162v-474h-105v474h-59q-39 0 -69 -2.5t-55 -8t-48 -15.5t-47 -27q-32 -21 -54 -57t-33 -80t-11 -92q0 -66 20 -96t52 -30q30 0 46.5 17.5t23 45.5t6.5 57q0 52 -14.5 99t-39 83.5t-56.5 57.5q-43 34 -89 46.5t-92 12.5q-59 0 -105.5 -14.5t-87.5 -45.5
q-33 -27 -54.5 -64.5t-31.5 -80.5t-10 -88q0 -65 19.5 -95.5t53.5 -30.5q29 0 45 17.5t22.5 45.5t6.5 57q0 75 -30.5 136.5t-88.5 102.5q-47 33 -102.5 46t-119.5 13q-77 0 -133.5 -26.5t-89.5 -72t-43 -103.5q-1 -14 -2 -26.5t-1 -24.5q0 -60 14 -96.5t39 -52.5t57 -16
q26 0 44 11t28 31.5t10 50.5q0 46 -24.5 70.5t-63.5 24.5q-41 0 -75 -22t-63 -53l-17 74q32 35 77 58t99 23q74 0 120 -44.5t46 -121.5q0 -56 -21.5 -96.5t-62 -62t-98.5 -21.5z" />
    <glyph glyph-name="tatamil" unicode="&#xba4;" horiz-adv-x="851" 
d="M271 -12q-65 0 -115.5 19.5t-79.5 57t-29 91.5t29.5 94t94.5 62t170 22h152q91 0 161.5 -22.5t111 -74t40.5 -139.5q0 -68 -26 -114t-75 -80q-33 -23 -75.5 -37.5t-99 -20.5t-131.5 -6h-103q-48 0 -71.5 -6t-40.5 -17q-16 -11 -25 -30.5t-9 -52.5q0 -13 1 -25.5t2 -24.5
l-101 -5q-3 19 -4.5 40t-1.5 40q0 45 16.5 76t42.5 51q19 13 40 21t50 11.5t68 3.5h104q88 0 145 7.5t91.5 22.5t57.5 39q20 22 30.5 50.5t10.5 64.5q0 48 -19.5 77t-51.5 44.5t-70.5 21t-77.5 5.5h-152q-46 0 -80.5 -5t-58.5 -18q-21 -12 -31 -29.5t-10 -44.5q0 -43 36 -65
t92 -22q43 0 73 13t47 46t17 91v254h-166v-172l-95 -16v270h551v-82h-187v-244q0 -68 -12 -106.5t-35 -65.5q-32 -38 -83.5 -54t-117.5 -16z" />
    <glyph glyph-name="natamil" unicode="&#xba8;" horiz-adv-x="819" 
d="M581 362q54 0 97.5 -26t69 -77.5t25.5 -126.5q0 -89 -27 -142.5t-74 -86.5q-33 -23 -75 -37.5t-96.5 -20t-126.5 -5.5h-79q-48 0 -71.5 -6t-39.5 -17t-25 -30.5t-9 -52.5q0 -13 1 -25.5t2 -24.5l-101 -5q-3 19 -5 40t-2 40q0 45 16.5 76t43.5 51q18 13 39 21t50 11.5
t69 3.5h99q80 0 129.5 7t80.5 21.5t53 38.5q19 21 31.5 55.5t12.5 84.5t-13 83t-38 50t-62 17q-28 0 -54.5 -11.5t-46.5 -27.5l-3 84q26 15 57.5 26.5t71.5 11.5zM85 0v556h542v-82h-166v-474h-104v474h-167v-474h-105z" />
    <glyph glyph-name="nnnatamil" unicode="&#xba9;" horiz-adv-x="1271" 
d="M257 -12q-58 0 -104 27t-73 83t-27 144q0 99 45.5 172.5t129 113.5t196.5 40q52 0 97.5 -7.5t87 -23.5t82.5 -43l40 -34q58 -49 93.5 -117.5t35.5 -154.5q0 -65 -21 -109.5t-59.5 -67.5t-92.5 -23q-62 0 -101 26.5t-57.5 71t-18.5 100.5q0 54 13 102t38.5 90.5t61.5 79.5
l46 36q33 20 68 33.5t85.5 21t126.5 7.5h305v-82h-162v-474h-105v474h-59q-39 0 -69.5 -2.5t-56 -8.5t-48.5 -16t-45 -26q-33 -21 -54.5 -57.5t-32.5 -81t-11 -90.5q0 -66 19.5 -96t53.5 -30q29 0 45 17.5t22.5 45.5t6.5 57q0 74 -30.5 136t-88.5 103q-47 33 -102.5 46
t-119.5 13q-77 0 -133.5 -26.5t-89.5 -72t-43 -103.5q-1 -14 -2 -26.5t-1 -24.5q0 -60 14 -96.5t39 -52.5t57 -16q26 0 44 11t28 31.5t10 50.5q0 46 -24.5 70.5t-63.5 24.5q-41 0 -75 -22t-63 -53l-17 74q32 35 77 58t99 23q74 0 120 -44.5t46 -121.5q0 -56 -21.5 -96.5
t-62 -62t-98.5 -21.5z" />
    <glyph glyph-name="patamil" unicode="&#xbaa;" horiz-adv-x="794" 
d="M85 0v556h105v-474h413v474h105v-556h-623z" />
    <glyph glyph-name="matamil" unicode="&#xbae;" horiz-adv-x="881" 
d="M593 568q80 0 131 -38.5t75.5 -107.5t24.5 -158q0 -71 -16 -121.5t-50 -82.5q-25 -23 -56 -36t-73.5 -18.5t-104.5 -5.5h-439v556h105v-474h214v273q0 62 12 99t35 63q24 25 58.5 38t83.5 13zM594 486q-16 0 -31 -5t-25 -16q-15 -17 -22.5 -42.5t-7.5 -83.5v-257h44
q64 0 100 18t51 59t15 109q0 61 -12.5 110t-39.5 78.5t-72 29.5z" />
    <glyph glyph-name="yatamil" unicode="&#xbaf;" horiz-adv-x="985" 
d="M358 0v556h105v-474h332v474h104v-556h-541zM245 -11q-39 0 -67.5 12t-48.5 34q-12 15 -22 34.5t-16 51t-6 81.5v354h105v-336q0 -44 4 -77t22 -52q9 -9 22.5 -14.5t31.5 -5.5q29 0 53.5 15.5t45.5 47.5l-2 -94q-21 -20 -51 -35.5t-71 -15.5z" />
    <glyph glyph-name="ratamil" unicode="&#xbb0;" horiz-adv-x="656" 
d="M254 -212l-68 63l186 176v447h-182v-474h-105v556h554v-82h-162v-474z" />
    <glyph glyph-name="rratamil" unicode="&#xbb1;" horiz-adv-x="899" 
d="M592 568q80 0 135 -38.5t83.5 -111t28.5 -175.5q0 -122 -31 -200t-85 -122q-39 -32 -88 -49.5t-106.5 -24.5t-121.5 -7h-114q-48 0 -71.5 -6t-39.5 -17t-25 -30.5t-9 -52.5q0 -13 1 -25.5t2 -24.5l-101 -5q-3 19 -5 40t-2 40q0 45 16.5 76t43.5 51q18 13 39 21t50 11.5
t69 3.5h124q91 0 156.5 13.5t108 47.5t62.5 97.5t20 163.5q0 89 -19 142t-52.5 76.5t-76.5 23.5q-26 0 -48 -8t-38 -27q-19 -23 -26.5 -53t-7.5 -82v-316h-104v316q0 50 -4.5 83.5t-19.5 55.5q-10 14 -25 22.5t-37 8.5t-37 -8t-26 -22q-15 -21 -19 -55t-4 -81v-320h-105v338
q0 49 5.5 83t18 58.5t32.5 44.5q23 22 54 33t68 11q44 0 75.5 -13.5t55.5 -41.5t40 -71l-30 9q15 34 40 60.5t62 41.5t88 15z" />
    <glyph glyph-name="latamil" unicode="&#xbb2;" horiz-adv-x="1044" 
d="M257 -12q-58 0 -104 26.5t-73 83t-27 144.5q0 81 25.5 142t70 102t102.5 61.5t122 20.5q55 0 106 -13.5t90 -50.5q27 -26 43.5 -60t24 -81.5t9.5 -114.5q0 -32 3.5 -60t12.5 -50t25 -38q14 -14 33 -21t44 -7q33 0 58.5 15.5t41 52t15.5 101.5q0 61 -15.5 115t-42.5 101
t-63 87l92 59q63 -80 98.5 -167t35.5 -188q0 -84 -25.5 -142t-75.5 -88t-126 -30q-44 0 -81 12t-64 37q-33 30 -51.5 81.5t-20.5 126.5q-1 36 -5 72.5t-14.5 69t-33.5 54.5q-20 21 -48.5 32t-71.5 11q-69 0 -118 -32.5t-75 -89.5t-26 -131q0 -60 14 -96.5t39 -52.5t57 -16
q26 0 44 11t28 31.5t10 50.5q0 46 -24.5 70.5t-63.5 24.5q-41 0 -75.5 -22t-62.5 -53l-17 74q32 35 77 58t99 23q74 0 120 -44.5t46 -121.5q0 -56 -21.5 -96.5t-62 -62t-98.5 -21.5z" />
    <glyph glyph-name="llatamil" unicode="&#xbb3;" horiz-adv-x="1101" 
d="M257 -12q-58 0 -104 27t-73 83t-27 145q0 81 25.5 142t70 101.5t101 61t117.5 20.5q47 0 84 -9t69 -25.5t61 -40.5l-27 -102q-34 43 -80 68t-110 25q-66 0 -114 -32t-75 -88.5t-27 -128.5q0 -62 14 -99t39 -53.5t57 -16.5q25 0 43.5 11t28.5 31.5t10 50.5
q0 46 -24.5 70.5t-63.5 24.5q-41 0 -75.5 -22t-62.5 -53l-17 74q32 35 77 58t99 23q74 0 120 -44.5t46 -121.5q0 -56 -21.5 -96.5t-62 -62t-98.5 -21.5zM546 0v427l15 63v66h523v-82h-162v-474h-105v474h-166v-474h-105z" />
    <glyph glyph-name="lllatamil" unicode="&#xbb4;" horiz-adv-x="881" 
d="M593 568q80 0 131 -38.5t75.5 -107.5t24.5 -158q0 -71 -16 -121.5t-50 -82.5q-25 -23 -56 -36t-73.5 -18.5t-104.5 -5.5h-439v556h105v-474h214v273q0 62 12 99t35 63q24 25 58.5 38t83.5 13zM594 486q-16 0 -31 -5t-25 -16q-15 -17 -22.5 -42.5t-7.5 -83.5v-257h44
q64 0 100 18t51 59t15 109q0 61 -12.5 110t-39.5 78.5t-72 29.5zM222 -56q18 0 37.5 -1.5t36.5 -3.5l-8 -77q-10 2 -22.5 2.5t-28.5 0.5q-33 0 -54.5 -11t-21.5 -37q0 -24 17 -36.5t43.5 -17t53.5 -4.5h26q49 0 82.5 11.5t56 33t37.5 52.5q8 15 19 25.5t30.5 16t52.5 6.5
l80 -17q-43 -9 -62.5 -25t-29.5 -40q-23 -45 -56 -77.5t-83.5 -49t-128.5 -16.5h-28q-49 0 -93 11t-70 29q-20 14 -35 38.5t-15 59.5q0 59 44.5 93t119.5 34zM553 -171l-14 10q-38 8 -68 26.5t-47.5 51.5t-19.5 83l102 1q1 -28 10 -47.5t30 -30.5q14 -6 33.5 -9t50.5 -3h121
v-82h-198z" />
    <glyph glyph-name="vatamil" unicode="&#xbb5;" horiz-adv-x="1073" 
d="M257 -12q-58 0 -104 27t-73 83t-27 144q0 108 44 180.5t117.5 109t160.5 36.5q81 0 138.5 -22.5t93.5 -62.5t53 -91.5t17 -110.5t-13 -107.5t-32 -91.5h251v474h104v-556h-462l-4 68q22 35 36 85t14 115q0 69 -24.5 117.5t-69.5 73.5t-108 25q-69 0 -118.5 -33t-76 -89.5
t-26.5 -126.5q0 -62 14 -99t39 -53.5t57 -16.5q25 0 43 11t28.5 31.5t10.5 50.5q0 46 -24.5 70.5t-63.5 24.5q-41 0 -75.5 -22t-62.5 -53l-17 74q32 35 77 58t99 23q74 0 120 -44.5t46 -121.5q0 -56 -21.5 -96.5t-62 -62t-98.5 -21.5z" />
    <glyph glyph-name="shatamil" unicode="&#xbb6;" horiz-adv-x="1207" 
d="M310 -12q-57 0 -101.5 16.5t-74.5 48.5q-25 29 -38 71t-13 110v322h105v-313q0 -62 9 -93.5t28 -50.5q15 -15 36 -21.5t49 -6.5q29 0 50.5 7.5t36.5 24.5q18 20 26 51.5t8 89.5v312h692v-324q0 -63 -13 -107.5t-38 -73.5q-28 -30 -72 -46.5t-103 -16.5q-57 0 -102 16.5
t-74 48.5q-25 29 -38 71.5t-13 111.5v238h-134v-243q0 -65 -12.5 -107t-37.5 -71q-28 -32 -72 -48.5t-104 -16.5zM897 71q29 0 50.5 7.5t36.5 24.5q18 20 26.5 51.5t8.5 89.5v230h-244v-231q0 -62 9 -93.5t28 -50.5q15 -15 36 -21.5t49 -6.5z" />
    <glyph glyph-name="ssatamil" unicode="&#xbb7;" horiz-adv-x="1399" 
d="M945 568q48 0 80.5 -13.5t52.5 -36.5t28.5 -52t8.5 -59q0 -36 -5.5 -75t-18.5 -90l-11 -46l-122 -480l-96 26l72 278l11 48l43 167q13 52 19 92.5t6 75.5q0 40 -17 62t-50 22q-40 0 -63 -27.5t-23 -77.5q0 -41 20 -67.5t55.5 -39t83.5 -12.5h31q64 0 108 22.5t75 48.5h95
v-334h-536l12 82h429v74q0 20 1 44t2 43q-28 -22 -78.5 -41t-118.5 -19h-19q-60 0 -107.5 13t-81.5 38.5t-51.5 63.5t-17.5 87q0 50 21 91.5t62 66.5t100 25zM257 -12q-58 0 -104 27t-73 83t-27 144q0 108 44 180.5t117.5 109t160.5 36.5q81 0 138.5 -22.5t93.5 -62.5
t53 -91.5t17 -110.5t-13 -107.5t-32 -91.5h250l-8 -82h-349l-4 68q22 35 36 85t14 115q0 69 -24.5 117.5t-69.5 73.5t-108 25q-69 0 -118.5 -33t-76 -89.5t-26.5 -126.5q0 -62 14 -99t39 -53.5t57 -16.5q25 0 43 11t28.5 31.5t10.5 50.5q0 46 -24.5 70.5t-63.5 24.5
q-41 0 -75.5 -22t-62.5 -53l-17 74q32 35 77 58t99 23q74 0 120 -43.5t46 -122.5q0 -56 -21.5 -96.5t-62 -62t-98.5 -21.5z" />
    <glyph glyph-name="satamil" unicode="&#xbb8;" horiz-adv-x="1325" 
d="M257 -12q-58 0 -104 26.5t-73 83t-27 144.5q0 81 25.5 142t70 102t101.5 61.5t120 20.5q56 0 99.5 -14.5t78 -44.5t61.5 -75l-39 -2q14 38 37.5 69t57.5 49t80 18q44 0 75 -12t54 -36q27 -28 40 -72t13 -113v-83q0 -52 8 -90t33 -62q14 -14 33 -21t44 -7q33 0 59 15.5
t41 52t15 101.5q0 61 -15.5 115t-42.5 101t-63 87l91 59q64 -80 99.5 -167t35.5 -188q0 -84 -25 -142t-75 -88t-127 -30q-44 0 -80.5 12t-64.5 37q-21 20 -37.5 50t-25 71t-8.5 94v39q0 63 -4.5 98.5t-14.5 56.5t-26.5 30.5t-38.5 9.5q-21 0 -36.5 -8.5t-24.5 -21.5
q-14 -19 -20 -46.5t-6 -72.5v-337h-105v284q0 61 -14.5 98t-39.5 60q-26 23 -55.5 32.5t-69.5 9.5q-69 0 -118 -32.5t-75 -89.5t-26 -131q0 -60 14 -96.5t39 -52.5t57 -16q25 0 43 11t28.5 31.5t10.5 50.5q0 46 -24.5 70.5t-63.5 24.5q-41 0 -75.5 -22t-62.5 -53l-17 74
q32 35 77 58t99 23q74 0 120 -44.5t46 -121.5q0 -56 -21.5 -96.5t-62 -62t-98.5 -21.5z" />
    <glyph glyph-name="hatamil" unicode="&#xbb9;" horiz-adv-x="1666" 
d="M1359 568q79 0 134.5 -38.5t83.5 -111t28 -175.5q0 -122 -31 -200t-84 -122q-39 -32 -88.5 -49.5t-106.5 -24.5t-122 -7h-878q-48 0 -71.5 -6t-39.5 -17t-25 -30.5t-9 -52.5q0 -13 1 -25.5t2 -24.5l-101 -5q-3 19 -5 40t-2 40q0 45 16.5 76t43.5 51q18 13 39 21t50 11.5
t69 3.5h889q91 0 156.5 13.5t107.5 47.5t62.5 97.5t20.5 163.5q0 89 -19 142t-52.5 76.5t-76.5 23.5q-26 0 -48 -8t-38 -27q-19 -23 -26.5 -53t-7.5 -82v-316h-105v315q0 51 -4.5 84.5t-18.5 54.5q-9 15 -24.5 23.5t-37.5 8.5t-37.5 -8t-25.5 -22q-15 -21 -19 -54.5
t-4 -80.5v-321h-105v338q0 49 5.5 83t18 58.5t32.5 44.5q23 22 54 33t68 11q44 0 75.5 -13.5t55.5 -41.5t40 -71l-31 9q16 34 40.5 60.5t62 41.5t88.5 15zM257 -12q-58 0 -104 27t-73 83t-27 144q0 108 44 180.5t117.5 109t160.5 36.5q81 0 138.5 -22.5t93.5 -62.5t53 -91.5
t17 -110.5t-13 -107.5t-32 -91.5h250l17 -82h-374l-4 68q22 35 36 85t14 115q0 69 -24.5 117.5t-69.5 73.5t-108 25q-69 0 -118.5 -33t-76 -89.5t-26.5 -126.5q0 -62 14 -99t39 -53.5t57 -16.5q25 0 43 11t28.5 31.5t10.5 50.5q0 46 -24.5 70.5t-63.5 24.5q-41 0 -75.5 -22
t-62.5 -53l-17 74q32 35 77 58t99 23q74 0 120 -44.5t46 -121.5q0 -56 -21.5 -96.5t-62 -62t-98.5 -21.5z" />
    <glyph glyph-name="aavowelsigntamil" unicode="&#xbbe;" horiz-adv-x="656" 
d="M85 0v556h554v-82h-162v-474h-105v474h-182v-474h-105z" />
    <glyph glyph-name="ivowelsigntamil" unicode="&#xbbf;" horiz-adv-x="276" 
d="M-80 845q61 0 109.5 -19t82.5 -54q23 -23 40.5 -57.5t27.5 -90t10 -141.5v-483h-105v459q0 73 -6 122t-18 81t-31 53q-21 24 -49 35.5t-61 11.5q-43 0 -72 -16.5t-43 -44.5t-14 -64q0 -28 8 -60t25 -62h-108q-13 28 -20.5 59t-7.5 62q0 55 19.5 94.5t52 64.5t74.5 37.5
t86 12.5z" />
    <glyph glyph-name="iivowelsigntamil" unicode="&#xbc0;" horiz-adv-x="0" 
d="M-176 845q93 0 138.5 -36t45.5 -93q0 -63 -38.5 -94.5t-101.5 -31.5q-66 0 -101.5 31t-35.5 85q0 25 11.5 57t39.5 60l61 -24q-17 -20 -26.5 -40t-9.5 -42q0 -20 7.5 -33.5t21 -19.5t31.5 -6q28 0 42.5 15.5t14.5 38.5q0 33 -27 47t-68 14q-11 0 -24 -1t-27 -3
q-67 -10 -100 -49.5t-33 -95.5q0 -27 6.5 -48.5t17.5 -40.5l-94 -10q-10 22 -15.5 47t-5.5 53q0 43 16 82.5t48.5 70.5t83.5 49t122 18z" />
    <glyph glyph-name="uvowelsigntamil" unicode="&#xbc1;" horiz-adv-x="518" 
d="M298 214q-59 0 -98 18t-61.5 47t-32 64.5t-9.5 69.5q0 40 4.5 69t10.5 46l100 -11q-6 -20 -10 -43t-4 -57q0 -57 23.5 -89t73.5 -32q30 0 48.5 11t27 30t8.5 41q0 24 -8.5 41.5t-24.5 29.5q-16 13 -42 19t-82 6h-445v82h460q69 0 109.5 -10t68.5 -31q32 -23 48.5 -56.5
t16.5 -78.5q0 -37 -12.5 -67.5t-36 -52.5t-57.5 -34t-76 -12z" />
    <glyph glyph-name="uuvowelsigntamil" unicode="&#xbc2;" horiz-adv-x="861" 
d="M408 9q-67 0 -127.5 12t-111.5 33t-91 47l47 80q34 -24 75.5 -44t92.5 -32t111 -12q66 0 120.5 17.5t94.5 54.5t61 97.5t21 145.5q0 81 -27.5 143t-81.5 98t-135 36q-64 0 -111 -21.5t-77 -57t-42 -76.5l-3 -31q-3 -20 -5 -39.5t-2 -41.5q0 -63 25.5 -92.5t72.5 -29.5
q43 0 62.5 24.5t19.5 57.5q0 24 -8.5 41.5t-23.5 29.5q-16 13 -42.5 19t-81.5 6h-464v82h478q69 0 110 -10t69 -31q31 -23 48 -56.5t17 -78.5q0 -37 -12.5 -67.5t-36 -52.5t-57 -34t-75.5 -12q-73 0 -117.5 30t-64.5 78t-20 102q0 21 1.5 39t4.5 36l2 27q16 70 60 125
t114 87t162 32q85 0 149.5 -26.5t108 -75.5t66.5 -114.5t23 -143.5q0 -109 -30 -185.5t-83.5 -124t-126.5 -69.5t-159 -22z" />
    <glyph glyph-name="evowelsigntamil" unicode="&#xbc6;" horiz-adv-x="926" 
d="M403 -12q-77 0 -140.5 28.5t-110 81.5t-71.5 127.5t-25 165.5q0 110 36.5 194.5t98 142.5t139.5 87.5t162 29.5q78 0 135.5 -18.5t101.5 -54.5q39 -33 63.5 -77.5t36 -110.5t11.5 -164v-420h-104v372q0 79 -6 140.5t-22 108t-46 78.5q-29 31 -71.5 46t-101.5 15
q-53 0 -111.5 -20.5t-108 -65t-80 -116t-30.5 -174.5q0 -63 11.5 -113t33.5 -88t51 -63.5t64 -38.5l20 -2q19 -6 38 -8.5t39 -2.5q52 0 80 28.5t28 80.5q0 41 -22.5 69.5t-64.5 28.5q-39 0 -64 -25.5t-25 -73.5q0 -37 12.5 -69.5t35.5 -56.5l-77 -11q-23 23 -43 61t-20 93
q0 45 20 81.5t61 59t104 22.5q55 0 95 -21.5t62.5 -62t22.5 -94.5q0 -66 -28.5 -108t-77.5 -62t-112 -20z" />
    <glyph glyph-name="eevowelsigntamil" unicode="&#xbc7;" horiz-adv-x="739" 
d="M460 -12q-85 0 -159 27.5t-129.5 82t-87 134.5t-31.5 184t33 184t91.5 135t137 82.5t169.5 27.5q67 0 118.5 -19.5t81 -59.5t29.5 -103q0 -52 -22.5 -89.5t-62.5 -58t-95 -20.5q-54 0 -92.5 20.5t-58.5 56.5t-20 82q0 45 17.5 77.5t41.5 54.5l76 -13q-21 -22 -31.5 -50
t-10.5 -60q0 -45 22.5 -67t56.5 -22q39 0 59.5 25.5t20.5 63.5q0 33 -15 55.5t-43 34.5t-66 12q-10 0 -25.5 -0.5t-33.5 -3.5q-54 -7 -103.5 -31.5t-88 -67.5t-61 -103.5t-22.5 -141.5q0 -78 20.5 -138.5t56 -103.5t82 -68t99.5 -34q15 -4 31 -4.5t30 -0.5q39 0 67 12.5
t43.5 37t15.5 60.5q0 41 -20 69t-62 28q-36 0 -60 -25t-24 -74q0 -37 12.5 -69.5t34.5 -56.5l-80 -11q-25 26 -42.5 60.5t-17.5 88.5q0 47 20.5 84.5t60 59.5t97.5 22q55 0 95 -21.5t62 -61t22 -93.5q0 -65 -30.5 -107.5t-84 -62.5t-124.5 -20z" />
    <glyph glyph-name="aivowelsigntamil" unicode="&#xbc8;" horiz-adv-x="1197" 
d="M257 -12q-58 0 -104 27t-73 83t-27 144q0 99 45.5 172.5t129 113.5t196.5 40q52 0 97 -7.5t86.5 -23t81.5 -41.5l33 -27q65 -51 101.5 -123t36.5 -158q0 -65 -21 -109.5t-59.5 -67.5t-92.5 -23q-62 0 -101 26.5t-57.5 71t-18.5 100.5q0 59 14 108t38.5 91t57.5 77l36 32
q44 37 95.5 55.5t107.5 18.5q98 0 159.5 -39.5t90 -105t28.5 -142.5q0 -67 -13.5 -121t-34 -96.5t-42.5 -75.5l-87 49q30 44 50.5 100.5t20.5 137.5q0 65 -21.5 111.5t-62 72t-98.5 25.5q-44 0 -77 -11.5t-67 -39.5q-32 -30 -53 -67t-31 -81t-10 -95q0 -64 19.5 -94
t53.5 -30q29 0 45 18t22.5 45.5t6.5 56.5q0 75 -30.5 136.5t-88.5 102.5q-47 33 -102.5 46t-119.5 13q-77 0 -133.5 -26.5t-89.5 -72t-43 -103.5q-1 -14 -2 -26.5t-1 -24.5q0 -60 14 -96.5t39.5 -52.5t56.5 -16q26 0 44 11t28 31.5t10 50.5q0 46 -24.5 70.5t-63.5 24.5
q-41 0 -75 -22t-63 -53l-17 74q32 35 77 58t99 23q74 0 120 -44.5t46 -121.5q0 -56 -21.5 -96.5t-62 -62t-98.5 -21.5z" />
    <glyph glyph-name="ovowelsigntamil" unicode="&#xbca;" horiz-adv-x="1758" 
d="M403 -12q-77 0 -140.5 28.5t-110 81.5t-71.5 127.5t-25 165.5q0 110 36.5 194.5t98 142.5t139.5 87.5t162 29.5q78 0 135.5 -18.5t101.5 -54.5q39 -33 63.5 -77.5t36 -110.5t11.5 -164v-420h-104v372q0 79 -6 140.5t-22 108t-46 78.5q-29 31 -71.5 46t-101.5 15
q-53 0 -111.5 -20.5t-108 -65t-80 -116t-30.5 -174.5q0 -63 11.5 -113t33.5 -88t51 -63.5t64 -38.5l20 -2q19 -6 38 -8.5t39 -2.5q52 0 80 28.5t28 80.5q0 41 -22.5 69.5t-64.5 28.5q-39 0 -64 -25.5t-25 -73.5q0 -37 12.5 -69.5t35.5 -56.5l-77 -11q-23 23 -43 61t-20 93
q0 45 20 81.5t61 59t104 22.5q55 0 95 -21.5t62.5 -62t22.5 -94.5q0 -66 -28.5 -108t-77.5 -62t-112 -20zM1013 292q-31 0 -51 20t-20 52q0 31 20 51.5t51 20.5t51 -20.5t20 -51.5q0 -32 -20 -52t-51 -20zM1188 0v556h554v-82h-162v-474h-105v474h-182v-474h-105z" />
    <glyph glyph-name="oovowelsigntamil" unicode="&#xbcb;" horiz-adv-x="1558" 
d="M460 -12q-85 0 -159 27.5t-129.5 82t-87 134.5t-31.5 184t33 184t91.5 135t137 82.5t169.5 27.5q67 0 118.5 -19.5t81 -59.5t29.5 -103q0 -52 -22.5 -89.5t-62.5 -58t-95 -20.5q-54 0 -92.5 20.5t-58.5 56.5t-20 82q0 45 17.5 77.5t41.5 54.5l76 -13q-21 -22 -31.5 -50
t-10.5 -60q0 -45 22.5 -67t56.5 -22q39 0 59.5 25.5t20.5 63.5q0 33 -15 55.5t-43 34.5t-66 12q-10 0 -25.5 -0.5t-33.5 -3.5q-54 -7 -103.5 -31.5t-88 -67.5t-61 -103.5t-22.5 -141.5q0 -78 20.5 -138.5t56 -103.5t82 -68t99.5 -34q15 -4 31 -4.5t30 -0.5q39 0 67 12.5
t43.5 37t15.5 60.5q0 41 -20 69t-62 28q-36 0 -60 -25t-24 -74q0 -37 12.5 -69.5t34.5 -56.5l-80 -11q-25 26 -42.5 60.5t-17.5 88.5q0 47 20.5 84.5t60 59.5t97.5 22q55 0 95 -21.5t62 -61t22 -93.5q0 -65 -30.5 -107.5t-84 -62.5t-124.5 -20zM824 292q-31 0 -51 20t-20 52
q0 31 20 51.5t51 20.5t51 -20.5t20 -51.5q0 -32 -20 -52t-51 -20zM987 0v556h554v-82h-162v-474h-105v474h-182v-474h-105z" />
    <glyph glyph-name="auvowelsigntamil" unicode="&#xbcc;" horiz-adv-x="2217" 
d="M403 -12q-77 0 -140.5 28.5t-110 81.5t-71.5 127.5t-25 165.5q0 110 36.5 194.5t98 142.5t139.5 87.5t162 29.5q78 0 135.5 -18.5t101.5 -54.5q39 -33 63.5 -77.5t36 -110.5t11.5 -164v-420h-104v372q0 79 -6 140.5t-22 108t-46 78.5q-29 31 -71.5 46t-101.5 15
q-53 0 -111.5 -20.5t-108 -65t-80 -116t-30.5 -174.5q0 -63 11.5 -113t33.5 -88t51 -63.5t64 -38.5l20 -2q19 -6 38 -8.5t39 -2.5q52 0 80 28.5t28 80.5q0 41 -22.5 69.5t-64.5 28.5q-39 0 -64 -25.5t-25 -73.5q0 -37 12.5 -69.5t35.5 -56.5l-77 -11q-23 23 -43 61t-20 93
q0 45 20 81.5t61 59t104 22.5q55 0 95 -21.5t62.5 -62t22.5 -94.5q0 -66 -28.5 -108t-77.5 -62t-112 -20zM1014 292q-31 0 -51 20t-20 52q0 31 20 51.5t51 20.5t51 -20.5t20 -51.5q0 -32 -20 -52t-51 -20zM1373 -12q-58 0 -104 27t-73 83t-27 145q0 81 25.5 142t70 101.5
t101 61t117.5 20.5q47 0 84 -9t69 -25.5t61 -40.5l-27 -102q-34 43 -80 68t-110 25q-66 0 -114 -32t-75 -88.5t-27 -128.5q0 -62 14 -99t39 -53.5t57 -16.5q25 0 43.5 11t28.5 31.5t10 50.5q0 46 -24.5 70.5t-63.5 24.5q-41 0 -75.5 -22t-62.5 -53l-17 74q32 35 77 58t99 23
q74 0 120 -44.5t46 -121.5q0 -56 -21.5 -96.5t-62 -62t-98.5 -21.5zM1662 0v427l15 63v66h523v-82h-162v-474h-105v474h-166v-474h-105z" />
    <glyph glyph-name="viramatamil" unicode="&#xbcd;" horiz-adv-x="0" 
d="M-278 673q-31 0 -51 20t-20 52q0 31 20 51.5t51 20.5t51 -20.5t20 -51.5q0 -32 -20 -52t-51 -20z" />
    <glyph glyph-name="ohmsigntamil" unicode="&#xbd0;" horiz-adv-x="1180" 
d="M594 575q104 0 190 -13.5t154 -44t118 -80.5q35 -34 55.5 -77.5t20.5 -99.5q0 -33 -8.5 -67.5t-29.5 -63t-56 -46t-88 -17.5q-47 0 -84.5 15.5t-59 47.5t-21.5 80q0 21 5.5 46.5t19.5 42.5l13 -3q-51 -27 -75 -67t-24 -85q0 -39 12.5 -67.5t35.5 -48.5q19 -18 45 -29.5
t63 -17t92 -5.5h90v-82h-98q-57 0 -90.5 5t-59.5 13q-68 21 -108.5 55t-58.5 77.5t-18 91.5q0 50 20.5 94.5t59 81t92.5 60.5l94 -42q-12 -24 -18 -45.5t-6 -51.5q0 -34 16.5 -59.5t63.5 -25.5q28 0 45 14t25 38t8 52q0 75 -51 128t-146.5 81t-231.5 28q-126 0 -216 -17
t-145.5 -45t-81.5 -63q-7 -19 -11 -39.5t-4 -50.5q0 -38 13 -63t35 -37t48 -12t44 9.5t27.5 28.5t9.5 45q0 40 -22 62.5t-59 22.5q-29 0 -56 -14t-50 -38l8 81q22 20 53 33.5t72 13.5q44 0 78 -18t53 -52.5t19 -84.5q0 -54 -21.5 -91.5t-62 -57t-97.5 -19.5q-49 0 -91 23
t-68.5 67t-26.5 106q0 59 24.5 104.5t66.5 79.5q57 47 129 71t154.5 33t171.5 9zM89 -130q0 33 12.5 74.5t39.5 79.5l81 -40q-20 -31 -28 -58.5t-8 -51.5q0 -45 29.5 -70t81.5 -34.5t120 -9.5q79 0 133.5 8t92.5 27.5t67 54t56 88.5l105 -29l-15 -29q-34 -62 -73.5 -101.5
t-90.5 -61.5t-118 -30t-153 -8h-5q-161 0 -244 45t-83 146zM515 58q27 0 49.5 -10t37.5 -30q16 -19 23.5 -41.5t7.5 -48.5q0 -30 -9.5 -50.5t-24.5 -31.5q-16 -12 -37.5 -17.5t-60.5 -5.5h-218v223h67v-172h77v86q0 35 7 53t24 30q12 8 25.5 11.5t31.5 3.5zM517 6
q-12 0 -18 -7t-6 -21v-104h26q27 0 37 14t10 42q0 23 -6 40t-17 26.5t-26 9.5zM506 100q-21 0 -34.5 13.5t-13.5 34.5t13.5 34.5t34.5 13.5t34.5 -13.5t13.5 -34.5t-13.5 -34.5t-34.5 -13.5z" />
    <glyph glyph-name="aulengthmarktamil" unicode="&#xbd7;" horiz-adv-x="1101" 
d="M257 -12q-58 0 -104 27t-73 83t-27 145q0 81 25.5 142t70 101.5t101 61t117.5 20.5q47 0 84 -9t69 -25.5t61 -40.5l-27 -102q-34 43 -80 68t-110 25q-66 0 -114 -32t-75 -88.5t-27 -128.5q0 -62 14 -99t39 -53.5t57 -16.5q25 0 43.5 11t28.5 31.5t10 50.5
q0 46 -24.5 70.5t-63.5 24.5q-41 0 -75.5 -22t-62.5 -53l-17 74q32 35 77 58t99 23q74 0 120 -44.5t46 -121.5q0 -56 -21.5 -96.5t-62 -62t-98.5 -21.5zM546 0v427l15 63v66h523v-82h-162v-474h-105v474h-166v-474h-105z" />
    <glyph glyph-name="zerotamil" unicode="&#xbe6;" horiz-adv-x="657" 
d="M331 -12q-84 0 -146 36t-96 101.5t-34 154.5q0 88 35 152.5t96.5 100t142.5 35.5q91 0 151.5 -40t91 -105.5t30.5 -142.5q0 -88 -33.5 -153.5t-94.5 -102t-143 -36.5zM329 485q-53 0 -90.5 -25t-57 -71t-19.5 -110t19 -110.5t56.5 -72t90.5 -25.5t90 24.5t57 71t20 112.5
q0 64 -20 110t-57 71t-89 25z" />
    <glyph glyph-name="onetamil" unicode="&#xbe7;" horiz-adv-x="852" 
d="M271 -12q-65 0 -115.5 19.5t-79.5 57t-29 91.5t29.5 94t94 62t170.5 22h190q55 0 94 -5t68 -16t53 -29q27 -21 43 -54t16 -75q0 -78 -47.5 -121t-133.5 -43q-24 0 -52 3t-52 10l21 77q14 -4 32 -6.5t36 -2.5q46 0 69.5 21.5t23.5 66.5q0 31 -14.5 50t-38.5 28.5
t-54.5 12.5t-61.5 3h-202q-46 0 -80.5 -5t-58.5 -18q-21 -12 -31 -29.5t-10 -44.5q0 -43 36 -65t92 -22q43 0 73 13t47 46t17 91v254h-166v-172l-95 -16v270h551v-82h-187v-244q0 -68 -12 -106.5t-35 -65.5q-32 -38 -83.5 -54t-117.5 -16z" />
    <glyph glyph-name="twotamil" unicode="&#xbe8;" horiz-adv-x="1073" 
d="M330 568q76 0 130.5 -17t90.5 -46.5t53 -68.5t17 -83q0 -58 -22.5 -96.5t-63 -62t-95.5 -36.5t-120 -19l-92 -9q-45 -4 -57 -10.5t-12 -17.5q0 -10 8 -15t27 -5h862v-82h-857q-53 0 -84 13.5t-44 36t-13 48.5q0 30 16 52.5t52 37.5t96 20l79 7q92 9 138 29t61.5 48.5
t15.5 59.5q0 40 -22.5 69.5t-63 46.5t-96.5 17q-81 0 -122.5 -33t-41.5 -90q0 -35 16 -67.5t45 -59t68 -45.5l-87 -35q-45 26 -78 59t-50 71t-17 79q0 60 31 106.5t89.5 72t142.5 25.5z" />
    <glyph glyph-name="threetamil" unicode="&#xbe9;" horiz-adv-x="1017" 
d="M85 0v556h557v-82h-185v-149q22 13 54 25t75 12q54 0 91 -20t55.5 -56t18.5 -83q0 -35 -9.5 -65.5t-24.5 -55.5h283v-82h-647v82h259q15 21 25 48.5t10 58.5q0 50 -23.5 70t-60.5 20q-29 0 -56.5 -11.5t-49.5 -28.5v-90h-104v325h-163v-474h-105z" />
    <glyph glyph-name="fourtamil" unicode="&#xbea;" horiz-adv-x="974" 
d="M271 -12q-65 0 -115.5 19.5t-79.5 57t-29 91.5t29.5 94t94 62t170.5 22h394v-80h-404q-44 0 -79.5 -5t-59.5 -18q-21 -12 -31 -29.5t-10 -44.5q0 -43 36 -65t92 -22q43 0 73 13t47 46t17 91v254h-166v-172l-95 -16v270h531v-82h-168v-244q0 -68 -12 -106.5t-34 -65.5
q-33 -38 -84 -54t-117 -16zM701 254v80h93v222h105v-302h-198z" />
    <glyph glyph-name="fivetamil" unicode="&#xbeb;" horiz-adv-x="1091" 
d="M579 -321q-133 0 -230 42.5t-160 118t-93.5 176t-30.5 216.5v41q0 77 18.5 157.5t58 154.5t103.5 133t154 93t210 34q86 0 156 -15.5t131.5 -42t121.5 -60.5l-48 -84q-39 24 -79 45t-83.5 37t-94 25t-109.5 9q-91 0 -170 -30.5t-139 -92.5t-93.5 -156.5t-33.5 -222.5v-16
q0 -140 43.5 -247.5t134 -167.5t232.5 -60h10q105 0 184 35.5t122.5 106t43.5 176.5q0 52 -12.5 87t-36 52.5t-57.5 17.5q-26 0 -49 -9.5t-43 -23.5l-1 82q20 14 49 24t67 10q55 0 98 -28t67 -81.5t24 -128.5q0 -107 -37 -183.5t-101.5 -126.5t-146 -73.5t-171.5 -23.5h-9z
M367 0v556h543v-82h-166v-474h-105v474h-167v-474h-105z" />
    <glyph glyph-name="sixtamil" unicode="&#xbec;" horiz-adv-x="1044" 
d="M271 -12q-65 0 -115.5 19.5t-79.5 57t-29 91.5t29.5 94t94 62t170.5 22h681v-80h-691q-46 0 -80.5 -5t-58.5 -18q-21 -12 -31 -29.5t-10 -44.5q0 -43 36 -65t92 -22q43 0 73 13t47 46t17 91v254h-166v-172l-95 -16v270h551v-82h-188v-244q0 -68 -12 -106.5t-34 -65.5
q-33 -38 -84 -54t-117 -16zM630 0v275l96 -8v-267h-96zM839 0v275l97 -8v-267h-97z" />
    <glyph glyph-name="seventamil" unicode="&#xbed;" horiz-adv-x="824" 
d="M257 -12q-58 0 -104 26.5t-73 82t-27 141.5q0 81 28 141t78 98q33 28 75 45t99 25.5t135 8.5h49l1 -82h-76q-60 0 -100 -6.5t-66.5 -18.5t-46.5 -29q-39 -32 -60 -79.5t-21 -110.5q0 -59 14 -95.5t39 -52.5t57 -16q26 0 44 11t28 31.5t10 50.5q0 46 -24.5 70.5
t-63.5 24.5q-41 0 -75.5 -22t-62.5 -53l-17 74q32 35 77 58t99 23q74 0 120 -44.5t46 -121.5q0 -56 -21.5 -96.5t-62 -62t-98.5 -21.5zM540 0v474h-39l2 82h304v-82h-162v-474h-105z" />
    <glyph glyph-name="eighttamil" unicode="&#xbee;" horiz-adv-x="1150" 
d="M330 -129q-99 0 -166.5 24t-101.5 67t-34 99q0 26 11 50.5t35 41.5q14 9 30.5 15.5t42 9.5t65.5 3h767l4 -82h-760q-26 0 -41 -1t-23 -4t-15 -8q-14 -12 -14 -32q0 -46 51.5 -73t157.5 -27h16q101 0 173 23.5t118.5 64t69.5 91.5l3 23q8 23 11 46.5t3 47.5
q0 68 -24.5 121t-70 83.5t-107.5 30.5q-37 0 -66.5 -13.5t-47.5 -40.5t-18 -71q0 -43 18.5 -79.5t49.5 -66t66 -50.5l-65 -54q-46 31 -85 68.5t-63 83.5t-24 103q0 61 28 107t81 71t127 25q76 0 133 -25.5t95 -70t57 -101.5t19 -120q0 -27 -2.5 -50.5t-8.5 -46.5l-4 -26
q-28 -83 -95 -140t-163 -87t-214 -30h-19zM960 -154v710h105v-710h-105z" />
    <glyph glyph-name="ninetamil" unicode="&#xbef;" horiz-adv-x="1215" 
d="M271 -12q-65 0 -115.5 19.5t-79.5 57t-29 91.5t29.5 94t94 62t170.5 22h297l-3 -80h-304q-46 0 -80.5 -5t-58.5 -18q-21 -12 -31 -29.5t-10 -44.5q0 -43 36 -65t92 -22q43 0 73 13t47 46t17 91v254h-166v-172l-95 -16v270h551v-82h-188v-244q0 -68 -12 -106.5t-34 -65.5
q-33 -38 -84 -54t-117 -16zM803 -12q-46 0 -86 17t-64 54.5t-24 97.5q0 30 8.5 57.5t22.5 50.5l5 17q23 36 60.5 63t85.5 42t105 15q66 0 114 -16.5t78.5 -46.5t45 -69t14.5 -83q0 -57 -17.5 -104t-49.5 -95l-84 50q24 33 36.5 67.5t12.5 75.5q0 47 -20 78t-54 47t-80 16
q-47 0 -82.5 -10t-60.5 -32l-6 -12q-20 -20 -31.5 -48t-11.5 -68q0 -47 23 -66.5t57 -19.5q33 0 48 19.5t15 54.5q0 39 -19.5 64.5t-52 37.5t-72.5 12h-142l1 80h108q12 0 24.5 -1t24.5 -3l10 -5q44 -3 82 -15t67.5 -33.5t45.5 -54.5t16 -78q0 -70 -38 -113t-115 -43z" />
    <glyph glyph-name="tentamil" unicode="&#xbf0;" horiz-adv-x="905" 
d="M264 -12q-38 0 -69 11t-54 33q-20 21 -32.5 45.5t-18 58.5t-5.5 82v338h105v-320q0 -47 4 -80.5t19 -55.5q11 -13 26 -21.5t37 -8.5t37 8.5t25 23.5q15 22 19.5 55.5t4.5 83.5v315h104v-315q0 -51 7.5 -82t26.5 -54q16 -18 37.5 -26.5t43.5 -8.5q34 0 62 16.5t48.5 54
t31.5 98.5t11 150q0 110 -18 181.5t-49.5 113t-74 59t-90.5 17.5q-31 0 -61 -6t-57 -16t-52 -23l-29 81q32 15 65.5 26t69 17t73.5 6q42 0 84.5 -9t79.5 -32q50 -29 86.5 -81.5t57 -132.5t20.5 -196v-6q0 -97 -15.5 -171.5t-47 -125.5t-79 -77t-110.5 -26q-48 0 -84 16
t-61 43t-41 61l33 7q-17 -42 -40 -70.5t-55 -42.5t-75 -14z" />
    <glyph glyph-name="hundredtamil" unicode="&#xbf1;" horiz-adv-x="914" 
d="M358 0v556h539v-82h-162v-474h-105v474h-167v-474h-105zM245 568q41 0 71 -15.5t51 -36.5l2 -94q-21 32 -45.5 47.5t-53.5 15.5q-18 0 -31.5 -5t-22.5 -15q-18 -18 -22 -51t-4 -77v-337h-104l-1 354q0 51 6 82t16 51t22 34q20 23 48.5 35t67.5 12z" />
    <glyph glyph-name="thousandtamil" unicode="&#xbf2;" horiz-adv-x="1005" 
d="M848 180q43 0 76 -19t52 -52t19 -77q0 -46 -15 -78.5t-40 -55.5q-39 -34 -95.5 -46t-136.5 -12h-413q-48 0 -71.5 -6t-39.5 -17t-25 -30.5t-9 -52.5q0 -13 1 -25.5t2 -24.5l-101 -5q-3 19 -5 40t-2 40q0 45 16.5 76t43.5 51q18 13 39 21t50 11.5t69 3.5h436q73 0 108.5 8
t55.5 24q17 13 24 31t7 42q0 28 -17 52t-57 24q-24 0 -44 -8t-38 -20l-5 75q25 13 51 21.5t64 8.5zM271 -12q-65 0 -115.5 19.5t-79.5 57t-29 91.5t29.5 94t94 62t170.5 22h528v-80h-538q-46 0 -80.5 -5t-58.5 -18q-21 -12 -31 -29.5t-10 -44.5q0 -43 36 -65t92 -22
q43 0 73 13t47 46t17 91v254h-166v-172l-95 -16v270h551v-82h-188v-244q0 -68 -12 -106.5t-34 -65.5q-33 -38 -84 -54t-117 -16zM644 0v275l98 -8v-267h-98z" />
    <glyph glyph-name="daysigntamil" unicode="&#xbf3;" horiz-adv-x="1017" 
d="M257 -12q-58 0 -104 27t-73 83t-27 144q0 108 44 180.5t117.5 109t160.5 36.5q81 0 138.5 -22.5t93.5 -62.5t53 -91.5t17 -110.5t-13 -107.5t-32 -91.5h368v-82h-475l-4 68q22 35 36 85t14 115q0 69 -24.5 117.5t-69.5 73.5t-108 25q-69 0 -118.5 -33t-76 -89.5
t-26.5 -126.5q0 -62 14 -99t39 -53.5t57 -16.5q25 0 43 11t28.5 31.5t10.5 50.5q0 46 -24.5 70.5t-63.5 24.5q-41 0 -75.5 -22t-62.5 -53l-17 74q32 35 77 58t99 23q74 0 120 -44.5t46 -121.5q0 -56 -21.5 -96.5t-62 -62t-98.5 -21.5z" />
    <glyph glyph-name="monthsigntamil" unicode="&#xbf4;" horiz-adv-x="1302" 
d="M593 568q80 0 131 -38.5t75.5 -107.5t24.5 -158q0 -71 -16 -121.5t-50 -82.5q-25 -23 -56 -36t-73.5 -18.5t-104.5 -5.5h-439v556h105v-474h214v273q0 62 12 99t35 63q24 25 58.5 38t83.5 13zM594 486q-16 0 -31 -5t-25 -16q-15 -17 -22.5 -42.5t-7.5 -83.5v-257h44
q64 0 100 18t51 59t15 109q0 61 -12.5 110t-39.5 78.5t-72 29.5zM879 491q-38 0 -68.5 16.5t-48 49.5t-17.5 82q0 12 0.5 24t3.5 23q11 54 43 89t77 52.5t95 17.5q67 0 113 -22t69.5 -62t23.5 -92q0 -30 -7 -61t-21 -55l-26 8h169v-67h-233v43q15 26 23.5 53t8.5 66
q0 37 -14 64t-41 42t-67 15q-47 0 -85.5 -22t-52.5 -69q-3 -11 -4.5 -24.5t-1.5 -27.5q0 -37 14 -57t45 -20q20 0 34 10t14 32q0 14 -4 23t-13 15q-9 5 -22.5 8.5t-40.5 3.5h-53q-37 0 -60 -12.5t-33.5 -35.5t-10.5 -53v-23l-78 30q2 33 15 62t37.5 50.5t61 33.5t85.5 12h42
q46 0 71.5 -8.5t43.5 -24.5q14 -14 22 -33t8 -45q0 -36 -15.5 -61t-42 -37.5t-59.5 -12.5z" />
    <glyph glyph-name="yearsigntamil" unicode="&#xbf5;" horiz-adv-x="2318" 
d="M988 759q-159 0 -288.5 -18.5t-229 -56t-166 -95.5t-100.5 -137.5t-34 -181.5v-10q0 -79 21.5 -147t64 -123t107 -97t151 -70t194.5 -42.5t238 -14.5h34q113 0 211 11.5t177 36t135.5 64t87 95.5t30.5 130q0 41 -12.5 72t-35.5 48.5t-56 17.5q-18 0 -34.5 -4.5
t-30.5 -12.5v-224h-105v474h-155v-474h-105v556h519v-82h-154v-169q18 9 39 14t47 5q44 0 78.5 -16.5t59.5 -46.5t38 -70t13 -88q0 -80 -27.5 -143.5t-78 -110t-118.5 -79.5t-150 -52.5t-172.5 -29t-185.5 -9.5h-65q-139 0 -256.5 16.5t-214 49.5t-170 81t-124 111t-76 142
t-25.5 171v29q0 100 33.5 187t102.5 157t176 119.5t253.5 76t334.5 26.5h64q123 0 227.5 -9t191.5 -28t157.5 -48t125.5 -68q59 -43 95.5 -93.5t55.5 -106t27 -112.5t10 -113q1 -41 5 -71.5t12 -53t23 -38.5q14 -16 33.5 -24t47.5 -8q32 0 58 15.5t41 52t15 101.5
q0 60 -15.5 114.5t-42.5 101.5t-63 87l92 59q63 -80 98.5 -167t35.5 -188q0 -84 -25.5 -142t-75 -88t-124.5 -30q-45 0 -82 12t-63 37q-35 31 -52.5 83.5t-19.5 118.5q-4 98 -22 171t-54 128t-94 96q-54 38 -123.5 61.5t-153 37.5t-179 20t-202.5 6zM523 -12
q-57 0 -103.5 27t-73 83t-26.5 144q0 108 44 180.5t117 109t161 36.5q81 0 138 -22.5t93.5 -62.5t53 -91.5t16.5 -110.5t-12 -107.5t-32 -91.5h217l11 -82h-335l-4 68q21 35 35 85t14 115q0 69 -24 117.5t-69 73.5t-108 25q-69 0 -118.5 -33t-76 -89.5t-26.5 -126.5
q0 -62 14 -99t39 -53.5t57 -16.5q25 0 43 11t28.5 31.5t10.5 50.5q0 46 -24.5 70.5t-64.5 24.5t-74.5 -22t-62.5 -53l-17 74q32 35 77 58t98 23q75 0 121 -44.5t46 -121.5q0 -56 -22 -96.5t-62.5 -62t-98.5 -21.5z" />
    <glyph glyph-name="debitsigntamil" unicode="&#xbf6;" horiz-adv-x="1054" 
d="M276 -321q-71 0 -125 18t-84.5 53t-30.5 86q0 23 8.5 39.5t24.5 27.5q15 10 35.5 14.5t67.5 4.5h692v634h104v-716h-355l-51 3h-391q-17 0 -26.5 -4.5t-9.5 -17.5q0 -17 16 -31.5t48 -22.5t77 -8q101 0 170.5 27t107.5 76l14 40q12 24 18 52t6 59v108l104 33v-124
q0 -34 -4.5 -64.5t-14.5 -58.5l-17 -47q-33 -57 -88 -97.5t-129.5 -62t-166.5 -21.5zM618 0h-533v556h105v-474h429zM696 556v-460l-104 -29v489h104z" />
    <glyph glyph-name="creditsigntamil" unicode="&#xbf7;" horiz-adv-x="1362" 
d="M257 -12q-58 0 -104 26.5t-73 82t-27 141.5q0 81 28 141t78 98q33 28 75 45t99 25.5t135 8.5h47l1 -82h-74q-60 0 -100 -6.5t-66.5 -18.5t-46.5 -29q-39 -32 -60 -79.5t-21 -110.5q0 -59 14 -95.5t39 -52.5t57 -16q26 0 44 11t28 31.5t10 50.5q0 46 -24.5 70.5
t-63.5 24.5q-41 0 -75.5 -22t-62.5 -53l-17 74q32 35 77 58t99 23q74 0 120 -44.5t46 -121.5q0 -56 -21.5 -96.5t-62 -62t-98.5 -21.5zM540 0v474h-42l5 82h304v-82h-162v-474h-105zM861 -3q-37 0 -67.5 16t-48.5 49t-18 83q0 15 1.5 29.5t3.5 27.5q14 50 46 83.5t76 50
t92 16.5q68 0 114 -22.5t69.5 -62t23.5 -92.5q0 -29 -7.5 -61.5t-22.5 -56.5l-19 11h241v-68h-311v42q15 26 24 53.5t9 65.5t-14.5 65t-41.5 42t-67 15q-47 0 -84.5 -21.5t-51.5 -67.5q-3 -12 -5 -25.5t-2 -27.5q0 -38 14 -58.5t45 -20.5q19 0 33 10.5t14 33.5
q0 14 -4.5 23.5t-14.5 14.5q-9 6 -22.5 8.5t-36.5 2.5h-189l-9 65h206q41 0 65 -7.5t40 -20.5q19 -14 27.5 -35t8.5 -48q0 -37 -15.5 -62.5t-42 -37.5t-59.5 -12z" />
    <glyph glyph-name="asabovesigntamil" unicode="&#xbf8;" horiz-adv-x="2036" 
d="M403 -12q-77 0 -140.5 28.5t-110 80.5t-71.5 124.5t-25 160.5q0 111 37 197t103 145.5t155.5 90t194.5 30.5q112 0 206 -34t165 -99t112 -157l18 -52q15 -43 23.5 -89.5t8.5 -95.5q0 -108 -48.5 -169.5t-148.5 -61.5q-51 0 -94.5 20t-70 64t-26.5 115q0 57 18 103
t51.5 81t78 58t95.5 34q19 2 39 4t40 2q107 0 173.5 -38.5t97 -104t30.5 -144.5q0 -59 -13 -107.5t-32 -91.5h255l-20 -82h-342l-4 68q22 35 36 85t14 115q0 66 -21 113t-59 74.5t-91 32.5l-61 -1q-59 -6 -100 -33t-62 -71t-21 -100q0 -59 23.5 -88t63.5 -29q33 0 54 17.5
t31.5 51.5t10.5 83q0 48 -9 94t-25 83l-20 46q-35 65 -88.5 114.5t-127 77t-166.5 27.5q-73 0 -141 -22.5t-121.5 -69.5t-85 -119.5t-31.5 -172.5q0 -57 10.5 -104t30 -83.5t46.5 -62.5t59 -40l55 -14q12 -2 26 -3t28 -1q52 0 80 28.5t28 80.5q0 41 -22.5 69.5t-64.5 28.5
q-39 0 -64 -25.5t-25 -73.5q0 -34 10.5 -65t30.5 -52l-92 4q-16 26 -28.5 56.5t-12.5 73.5q0 45 20.5 81.5t61.5 59t103 22.5q55 0 95 -21.5t62.5 -62t22.5 -94.5q0 -66 -28.5 -108t-77.5 -62t-112 -20zM1582 568q48 0 80.5 -13.5t52.5 -36.5t28.5 -52t8.5 -59
q0 -36 -5.5 -75t-18.5 -90l-11 -46l-122 -480l-96 26l72 278l11 48l43 167q13 52 19 92.5t6 75.5q0 40 -17 62t-50 22q-40 0 -63 -27.5t-23 -77.5q0 -41 19.5 -67.5t55.5 -39t84 -12.5h31q64 0 108 22.5t75 48.5h95v-334h-536l12 82h429v74q0 21 1 44.5t2 42.5
q-27 -22 -78 -41t-119 -19h-19q-60 0 -107.5 13t-81.5 38.5t-51.5 63.5t-17.5 87q0 50 21 91.5t62 66.5t100 25z" />
    <glyph glyph-name="rupeesigntamil" unicode="&#xbf9;" horiz-adv-x="1087" 
d="M850 295q56 0 99 -26.5t67.5 -78t24.5 -124.5q0 -103 -37 -176t-101.5 -119.5t-149 -69t-177.5 -22.5h-18q-126 0 -219 38.5t-154 107t-91 158.5t-30 193v26q0 96 24.5 182t69.5 156.5t108 121.5t141 76l2 -80q-69 -33 -124 -100t-86.5 -158.5t-31.5 -199.5v-21
q0 -87 22.5 -162t70.5 -131.5t123.5 -88t179.5 -31.5h14q109 0 189 32t124.5 99t44.5 169q0 73 -27.5 110t-78.5 37q-30 0 -56.5 -13t-50.5 -31l-1 83q21 16 53.5 29.5t75.5 13.5zM364 0v506h542v-82h-166v-424h-104v424h-167v-424h-105zM508 542q-41 0 -69.5 17t-42.5 48
t-14 72q2 42 21 73t49.5 52t67.5 31t75 10q102 0 150.5 -40.5t48.5 -105.5q0 -24 -6.5 -50t-21.5 -47l-20 13h157v-67h-226v37q15 21 25 43t10 52q0 45 -28.5 71t-91.5 26q-46 0 -78 -14.5t-50 -33.5l-9 -30q-1 -4 -2 -11t-1 -15q0 -33 14 -50t41 -17q19 0 32 9.5t13 28.5
q0 20 -13.5 31t-37.5 11q-15 0 -30 -3t-29 -8l15 65q10 4 23.5 6t27.5 2q39 0 64.5 -14t38 -37.5t12.5 -49.5q0 -35 -15 -58.5t-41 -35t-59 -11.5z" />
    <glyph glyph-name="numsigntamil" unicode="&#xbfa;" horiz-adv-x="1241" 
d="M581 362q54 0 97.5 -26t69 -77t25.5 -127q0 -89 -27 -142.5t-74 -86.5q-33 -23 -75 -37.5t-96.5 -20t-126.5 -5.5h-79q-48 0 -71.5 -6t-39.5 -17t-25 -30.5t-9 -52.5q0 -13 1 -25.5t2 -24.5l-101 -5q-3 19 -5 40t-2 40q0 45 16.5 76t43.5 51q18 13 39 21t50 11.5t69 3.5
h99q80 0 129.5 7t80.5 21.5t53 38.5q19 21 31.5 55.5t12.5 84.5t-13 83t-38 50t-62 17q-28 0 -54.5 -11.5t-46.5 -27.5l-3 84q26 15 57.5 26.5t71.5 11.5zM85 0v556h542v-82h-166v-474h-104v474h-167v-474h-105zM818 491q-38 0 -69 16.5t-48 49.5t-17 82q0 12 0.5 24t2.5 23
q12 54 44 89t77 52.5t95 17.5q67 0 113 -22t69.5 -62t23.5 -92q0 -30 -7 -61t-21 -55l-26 8h169v-67h-233v43q15 26 23.5 53t8.5 66q0 37 -14 64t-41.5 42t-67.5 15q-46 0 -84.5 -22t-52.5 -69q-3 -11 -4.5 -24.5t-1.5 -27.5q0 -37 14 -57t45 -20q20 0 34 10t14 32
q0 14 -4 23t-14 15q-8 5 -21.5 8.5t-40.5 3.5h-53q-37 0 -60 -12.5t-33.5 -35.5t-10.5 -53v-9l-78 16q2 33 15 62t37 50.5t61 33.5t86 12h42q46 0 71.5 -8.5t43.5 -24.5q14 -14 21.5 -33t7.5 -45q0 -36 -15 -61t-41.5 -37.5t-59.5 -12.5z" />
    <glyph glyph-name="uni1CDA" unicode="&#x1cda;" horiz-adv-x="0" 
d="M-382 870h74v-212h-74v212zM-248 870h74v-212h-74v212z" />
    <glyph glyph-name="Wgrave" unicode="&#x1e80;" horiz-adv-x="941" 
d="M932 714l-188 -714h-115l-126 441q-6 18 -11.5 40t-10.5 43.5t-8.5 38.5t-5.5 26q-1 -9 -4 -26t-8 -38.5t-10 -44t-11 -42.5l-124 -438h-115l-187 714h111l105 -422q5 -22 10 -45t9.5 -46t8 -44.5t6.5 -39.5q3 19 6.5 41t8.5 45.5t10.5 46.5t11.5 42l119 422h108
l123 -424q6 -20 11.5 -43t10.5 -46.5t8.5 -45t6.5 -38.5q3 25 8.5 54.5t12.5 61t14 59.5l105 422h110zM449 941q12 -22 30 -49.5t37.5 -53.5t34.5 -45v-12h-71q-17 14 -39.5 33.5t-45 41t-41 41.5t-28.5 34v10h123z" />
    <glyph glyph-name="wgrave" unicode="&#x1e81;" horiz-adv-x="807" 
d="M447 270q-5 20 -11.5 44t-12.5 48.5t-11 45.5t-8 33h-4q-2 -12 -6.5 -33t-10.5 -45.5l-12 -49t-13 -44.5l-80 -268h-118l-149 539h108l70 -273q8 -28 14.5 -59t12 -59.5t7.5 -47.5h4q2 13 6 32.5t8.5 41t9 41.5t9.5 33l86 291h116l84 -291q6 -20 13 -47.5t12.5 -54
t7.5 -45.5h4q2 17 7 44.5t12.5 59.5t14.5 61l72 273h107l-151 -539h-121zM381 766q12 -22 30 -49.5t37.5 -53.5t34.5 -45v-12h-71q-17 14 -39.5 33.5t-45 41t-41 41.5t-28.5 34v10h123z" />
    <glyph glyph-name="Wacute" unicode="&#x1e82;" horiz-adv-x="941" 
d="M932 714l-188 -714h-115l-126 441q-6 18 -11.5 40t-10.5 43.5t-8.5 38.5t-5.5 26q-1 -9 -4 -26t-8 -38.5t-10 -44t-11 -42.5l-124 -438h-115l-187 714h111l105 -422q5 -22 10 -45t9.5 -46t8 -44.5t6.5 -39.5q3 19 6.5 41t8.5 45.5t10.5 46.5t11.5 42l119 422h108
l123 -424q6 -20 11.5 -43t10.5 -46.5t8.5 -45t6.5 -38.5q3 25 8.5 54.5t12.5 61t14 59.5l105 422h110zM637 931q-11 -14 -29.5 -34t-41 -41.5t-44.5 -41t-40 -33.5h-70v12q15 19 34 45t37 53.5t30 49.5h124v-10z" />
    <glyph glyph-name="wacute" unicode="&#x1e83;" horiz-adv-x="807" 
d="M447 270q-5 20 -11.5 44t-12.5 48.5t-11 45.5t-8 33h-4q-2 -12 -6.5 -33t-10.5 -45.5l-12 -49t-13 -44.5l-80 -268h-118l-149 539h108l70 -273q8 -28 14.5 -59t12 -59.5t7.5 -47.5h4q2 13 6 32.5t8.5 41t9 41.5t9.5 33l86 291h116l84 -291q6 -20 13 -47.5t12.5 -54
t7.5 -45.5h4q2 17 7 44.5t12.5 59.5t14.5 61l72 273h107l-151 -539h-121zM570 756q-11 -14 -29.5 -34t-41 -41.5t-44.5 -41t-40 -33.5h-70v12q15 19 34 45t37 53.5t30 49.5h124v-10z" />
    <glyph glyph-name="Wdieresis" unicode="&#x1e84;" horiz-adv-x="941" 
d="M932 714l-188 -714h-115l-126 441q-6 18 -11.5 40t-10.5 43.5t-8.5 38.5t-5.5 26q-1 -9 -4 -26t-8 -38.5t-10 -44t-11 -42.5l-124 -438h-115l-187 714h111l105 -422q5 -22 10 -45t9.5 -46t8 -44.5t6.5 -39.5q3 19 6.5 41t8.5 45.5t10.5 46.5t11.5 42l119 422h108
l123 -424q6 -20 11.5 -43t10.5 -46.5t8.5 -45t6.5 -38.5q3 25 8.5 54.5t12.5 61t14 59.5l105 422h110zM322 857q0 29 16 41.5t37 12.5q22 0 38 -12.5t16 -40.5t-16 -41.5t-38 -13.5q-21 0 -37 13.5t-16 40.5zM513 857q0 29 15.5 41.5t37.5 12.5q21 0 37 -12.5t16 -40.5
t-16 -41.5t-37 -13.5q-22 0 -37.5 13.5t-15.5 40.5z" />
    <glyph glyph-name="wdieresis" unicode="&#x1e85;" horiz-adv-x="807" 
d="M447 270q-5 20 -11.5 44t-12.5 48.5t-11 45.5t-8 33h-4q-2 -12 -6.5 -33t-10.5 -45.5l-12 -49t-13 -44.5l-80 -268h-118l-149 539h108l70 -273q8 -28 14.5 -59t12 -59.5t7.5 -47.5h4q2 13 6 32.5t8.5 41t9 41.5t9.5 33l86 291h116l84 -291q6 -20 13 -47.5t12.5 -54
t7.5 -45.5h4q2 17 7 44.5t12.5 59.5t14.5 61l72 273h107l-151 -539h-121zM255 682q0 29 16 41.5t37 12.5q22 0 38 -12.5t16 -40.5t-16 -41.5t-38 -13.5q-21 0 -37 13.5t-16 40.5zM446 682q0 29 15.5 41.5t37.5 12.5q21 0 37 -12.5t16 -40.5t-16 -41.5t-37 -13.5
q-22 0 -37.5 13.5t-15.5 40.5z" />
    <glyph glyph-name="uni1E9E" unicode="&#x1e9e;" horiz-adv-x="725" 
d="M366 724q70 0 121 -21t84 -60t47 -92l-132 -139q60 -4 106.5 -28.5t72.5 -68.5t26 -107q0 -64 -26.5 -113t-82 -77t-144.5 -28q-52 0 -98 8.5t-87 29.5v96q40 -22 87 -34t89 -12q81 0 116.5 35t35.5 96q0 59 -40.5 90.5t-125.5 31.5h-56v76l143 150q-11 25 -30.5 41.5
t-46.5 25t-64 8.5q-57 0 -94 -22t-54 -61.5t-17 -94.5v-454h-107v459q0 78 31 138t92.5 93.5t153.5 33.5z" />
    <glyph glyph-name="Ygrave" unicode="&#x1ef2;" horiz-adv-x="583" 
d="M292 380l175 334h116l-238 -437v-277h-107v273l-238 441h117zM270 941q12 -22 30 -49.5t37.5 -53.5t34.5 -45v-12h-71q-17 14 -39.5 33.5t-45 41t-41 41.5t-28.5 34v10h123z" />
    <glyph glyph-name="ygrave" unicode="&#x1ef3;" horiz-adv-x="527" 
d="M1 539h114l112 -306q9 -23 16 -45t12.5 -43.5t8.5 -42.5h4q5 26 16 61.5t23 70.5l106 305h114l-231 -612q-19 -52 -47 -89.5t-66.5 -57.5t-90.5 -20q-25 0 -43 2.5t-31 5.5v84q11 -2 26.5 -4t32.5 -2q31 0 53.5 12t38 34t26.5 50l22 58zM242 766q12 -22 30 -49.5
t37.5 -53.5t34.5 -45v-12h-71q-17 14 -39.5 33.5t-45 41t-41 41.5t-28.5 34v10h123z" />
    <glyph glyph-name="uni200B" unicode="&#x200b;" horiz-adv-x="0" 
 />
    <glyph glyph-name="uni200C" unicode="&#x200c;" horiz-adv-x="0" 
d="M-29 -244v997h58v-997h-58z" />
    <glyph glyph-name="uni200D" unicode="&#x200d;" horiz-adv-x="0" 
d="M-29 -244v809l-92 -91l-40 40l121 117l-121 117l40 40l121 -119l121 119l40 -40l-121 -117l121 -117l-40 -40l-92 91v-809h-58z" />
    <glyph glyph-name="uni2010" unicode="&#x2010;" horiz-adv-x="322" 
d="M37 256v94h248v-94h-248z" />
    <glyph glyph-name="endash.tamil" unicode="&#x2013;" horiz-adv-x="500" 
d="M40 256v94h420v-94h-420z" />
    <glyph glyph-name="emdash.tamil" unicode="&#x2014;" horiz-adv-x="1000" 
d="M40 256v94h920v-94h-920z" />
    <glyph glyph-name="quoteleft.tamil" unicode="&#x2018;" horiz-adv-x="243" 
d="M46 555l-7 11q9 36 23 76t30.5 81t32.5 77h79q-9 -40 -18.5 -83.5t-17.5 -85t-13 -76.5h-109z" />
    <glyph glyph-name="quoteright.tamil" unicode="&#x2019;" horiz-adv-x="243" 
d="M197 800l7 -11q-9 -35 -23 -75.5t-30 -81t-33 -77.5h-79q7 29 14 61t13.5 64.5t12 63t9.5 56.5h109z" />
    <glyph glyph-name="quotesinglbase" unicode="&#x201a;" horiz-adv-x="260" 
d="M194 105q-9 -35 -23 -76t-30 -81.5t-33 -76.5h-77q7 29 14.5 61t14 64.5t12 63t9.5 56.5h106z" />
    <glyph glyph-name="quotedblleft.tamil" unicode="&#x201c;" horiz-adv-x="443" 
d="M246 555l-7 11q9 36 23 76t30.5 81t32.5 77h78q-9 -40 -18.5 -83.5t-17 -85t-12.5 -76.5h-109zM46 555l-7 11q9 36 23 76t30.5 81t32.5 77h79q-9 -40 -19 -83.5t-17.5 -85t-12.5 -76.5h-109z" />
    <glyph glyph-name="quotedblright.tamil" unicode="&#x201d;" horiz-adv-x="443" 
d="M397 800l6 -11q-9 -35 -23 -75.5t-30 -81t-32 -77.5h-79q10 39 19 82.5t17 86t13 76.5h109zM197 800l7 -11q-9 -35 -23 -75.5t-30 -81t-33 -77.5h-79q7 29 14 61t13.5 64.5t12 63t9.5 56.5h109z" />
    <glyph glyph-name="quotedblbase" unicode="&#x201e;" horiz-adv-x="445" 
d="M391 105q-9 -35 -23 -76t-30 -81.5t-33 -76.5h-78q10 39 19.5 82.5t18 85.5t13.5 77h106zM194 105q-9 -35 -23 -76t-30.5 -81.5t-32.5 -76.5h-77q7 29 14 61t13.5 64.5t12 63t9.5 56.5h107z" />
    <glyph glyph-name="bullet" unicode="&#x2022;" horiz-adv-x="376" 
d="M68 365q0 48 16 77.5t43.5 42.5t60.5 13t60 -13t43.5 -42.5t16.5 -77.5q0 -47 -16.5 -76.5t-43.5 -43t-60 -13.5t-60.5 13.5t-43.5 43t-16 76.5z" />
    <glyph glyph-name="ellipsis.tamil" unicode="&#x2026;" horiz-adv-x="819" 
d="M137 -12q-29 0 -49 17t-20 55q0 40 20 56.5t49 16.5q28 0 48 -16t20 -57q0 -38 -20 -55t-48 -17zM410 -12q-29 0 -49 17t-20 55q0 40 20 56.5t49 16.5q28 0 48 -16t20 -57q0 -38 -20 -55t-48 -17zM683 -12q-29 0 -49 17t-20 55q0 40 20 56.5t49 16.5q28 0 48 -16t20 -57
q0 -38 -20 -55t-48 -17z" />
    <glyph glyph-name="guilsinglleft" unicode="&#x2039;" horiz-adv-x="327" 
d="M40 273l172 207l76 -42l-139 -171l139 -171l-76 -43l-172 207v13z" />
    <glyph glyph-name="guilsinglright" unicode="&#x203a;" horiz-adv-x="327" 
d="M115 480l172 -207v-13l-172 -207l-76 43l139 171l-139 171z" />
    <glyph glyph-name="uni2074" unicode="&#x2074;" horiz-adv-x="370" 
d="M209 369v90h-194v58l194 283h86v-275h61v-66h-61v-90h-86zM93 525h116v87q0 23 1 48t2 49q-5 -11 -19.5 -34.5t-25.5 -39.5z" />
    <glyph glyph-name="uni2082" unicode="&#x2082;" horiz-adv-x="323" 
d="M16 -217v62l113 111q37 36 57 59t27.5 41.5t7.5 38.5q0 28 -16.5 42.5t-43.5 14.5t-50.5 -11t-49.5 -32l-42 54q29 26 65 41.5t82 15.5q65 0 102 -31.5t37 -87.5q0 -32 -12.5 -59t-37.5 -55t-63 -64l-72 -67h188v-73h-292z" />
    <glyph glyph-name="uni2083" unicode="&#x2083;" horiz-adv-x="331" 
d="M148 -225q-37 0 -69.5 7t-63.5 23v72q33 -17 66.5 -26.5t64.5 -9.5q47 0 68.5 18t21.5 50q0 31 -24.5 47.5t-74.5 16.5h-57v61h54q49 0 70 18.5t21 46.5t-18 41.5t-46 13.5t-53.5 -10t-50.5 -27l-40 53q30 23 65.5 36.5t83.5 13.5q68 0 105 -31t37 -80q0 -37 -20 -62
t-57 -38v-3q44 -10 66.5 -36.5t22.5 -64.5q0 -58 -41 -94t-131 -36z" />
    <glyph glyph-name="uni2084" unicode="&#x2084;" horiz-adv-x="370" 
d="M209 -217v90h-194v58l194 283h86v-275h61v-66h-61v-90h-86zM93 -61h116v87q0 23 1 48t2 49q-5 -11 -19.5 -34.5t-25.5 -39.5z" />
    <glyph glyph-name="Euro" unicode="&#x20ac;" 
d="M384 722q50 0 93 -11t83 -33l-40 -85q-30 15 -65 27t-71 12q-35 0 -64.5 -10.5t-51.5 -32.5t-37.5 -55t-23.5 -76h230v-72h-237q-1 -8 -1 -16v-18v-18t1 -20h206v-71h-198q10 -51 34 -87t61.5 -55t88.5 -19q39 0 76.5 9t68.5 22v-92q-30 -13 -67 -22t-84 -9
q-80 0 -138.5 30.5t-94.5 87t-51 135.5h-76v71h68q-1 10 -1.5 18.5t-0.5 19.5q0 10 0.5 19.5t0.5 14.5h-67v72h75q13 81 49 140t95.5 91.5t138.5 32.5z" />
    <glyph glyph-name="uni20B9.tamil" unicode="&#x20b9;" 
d="M269 0l-202 270l12 81h36q49 0 75 9.5t41 28.5q13 16 20.5 41t7.5 64q0 44 -9 71t-25 43q-15 16 -36 22t-57 6h-65v78h449v-78h-204q24 -23 38 -58.5t14 -86.5q0 -62 -21 -106.5t-62 -72t-102 -39.5l-3 13l221 -286h-128zM67 459v78h449v-78h-449z" />
    <glyph glyph-name="trademark" unicode="&#x2122;" horiz-adv-x="773" 
d="M325 362v352h94l94 -271l97 271h91v-352h-64v204q0 8 1 31.5t2 35.5h-4l-101 -271h-53l-96 271h-4q1 -16 2 -36t1 -26v-209h-60zM118 362v298h-101v54h266v-54h-102v-298h-63z" />
    <glyph glyph-name="minus.tamil" unicode="&#x2212;" 
d="M48 312v81h475v-81h-475z" />
    <glyph glyph-name="uni25CC" unicode="&#x25cc;" horiz-adv-x="562" 
d="M89 231q-32 0 -32 33q0 31 32 31t32 -31q0 -33 -32 -33zM138 95q-32 0 -32 32q0 31 32 31q31 0 31 -31q0 -32 -31 -32zM281 40q-32 0 -32 32t32 32q31 0 31 -32t-31 -32zM138 369q-32 0 -32 32q0 31 32 31q31 0 31 -31q0 -32 -31 -32zM423 95q-32 0 -32 32q0 31 32 31
t32 -31q0 -32 -32 -32zM281 424q-32 0 -32 32q0 31 32 31q31 0 31 -31q0 -32 -31 -32zM472 231q-31 0 -31 33q0 31 31 31q32 0 32 -31q0 -33 -32 -33zM423 369q-32 0 -32 32q0 31 32 31t32 -31q0 -32 -32 -32z" />
    <glyph glyph-name="uniA8F3" unicode="&#xa8f3;" horiz-adv-x="497" 
d="M248 288q-71 0 -118 23.5t-70.5 64.5t-23.5 94q0 21 2.5 41t6.5 33l94 -16q-3 -12 -4.5 -26.5t-1.5 -24.5q0 -60 33 -83.5t82 -23.5q51 0 83.5 24t32.5 83q0 12 -2 25.5t-4 25.5l93 16q5 -13 7.5 -33t2.5 -41q0 -53 -23.5 -94t-70.5 -64.5t-119 -23.5zM248 414
q-27 0 -45 17.5t-18 45.5q0 27 18 45t45 18q28 0 46 -18t18 -45q0 -28 -18 -45.5t-46 -17.5zM453 77l-56 -76l-252 178l56 75z" />
    <glyph glyph-name="u11301" unicode="&#x11301;" horiz-adv-x="0" 
d="M-278 657q-88 0 -134 41.5t-46 115.5q0 16 2 30.5t6 25.5l75 -15q-3 -10 -4 -20t-1 -18q0 -35 14.5 -54t38 -26.5t49.5 -7.5t49.5 8t38 28t14.5 54q0 8 -1 17t-4 19l76 15q3 -12 5 -26.5t2 -28.5q0 -74 -47.5 -116t-132.5 -42zM-279 766q-26 0 -39.5 14t-13.5 37
q0 22 13.5 36.5t39.5 14.5t40 -14.5t14 -36.5q0 -23 -14 -37t-40 -14z" />
    <glyph glyph-name="u11303" unicode="&#x11303;" horiz-adv-x="371" 
d="M45 119q0 56 38 94t102 38q65 0 103 -37.5t38 -94.5q0 -56 -38 -93.5t-103 -37.5t-102.5 37.5t-37.5 93.5zM125 120q0 -26 15 -43.5t45 -17.5t45.5 17.5t15.5 43.5q0 25 -15.5 42.5t-45.5 17.5q-29 0 -44.5 -17.5t-15.5 -42.5zM45 436q0 57 38 94.5t102 37.5
q65 0 103 -37.5t38 -93.5t-38 -93.5t-103 -37.5t-102.5 37.5t-37.5 92.5zM125 438q0 -26 15 -43.5t45 -17.5t45.5 17.5t15.5 43.5t-15.5 42.5t-45.5 16.5q-29 0 -44.5 -16.5t-15.5 -42.5z" />
    <glyph glyph-name="u1133B" unicode="&#x1133b;" horiz-adv-x="0" 
d="M-279 -213q-30 0 -49 19t-19 49t19 49.5t49 19.5t49 -19.5t19 -49.5t-19.5 -49t-48.5 -19z" />
    <glyph glyph-name="u1133C" unicode="&#x1133c;" horiz-adv-x="0" 
d="M-434 -145q0 28 18.5 46.5t43.5 18.5q26 0 44 -18.5t18 -46.5q0 -27 -18 -45.5t-44 -18.5q-25 0 -43.5 18.5t-18.5 45.5zM-247 -145q0 28 18 46.5t43 18.5q27 0 45 -18.5t18 -46.5q0 -27 -18 -45.5t-45 -18.5q-25 0 -43 18.5t-18 45.5z" />
    <glyph glyph-name="tchatamil" horiz-adv-x="1925" 
d="M1471 568q48 0 80.5 -13.5t52.5 -36.5t28.5 -52t8.5 -59q0 -36 -5.5 -75t-18.5 -90l-11 -46l-122 -480l-96 26l72 278l11 48l43 167q13 52 19 92.5t6 75.5q0 40 -17 62t-50 22q-40 0 -63 -27.5t-23 -77.5q0 -41 20 -67.5t55.5 -39t83.5 -12.5h31q64 0 108 22.5t75 48.5
h95v-334h-536l13 82h428v74q0 20 1 44t2 43q-27 -22 -78 -41t-119 -19h-19q-60 0 -107.5 13t-81.5 38.5t-51.5 63.5t-17.5 87q0 50 21 91.5t62 66.5t100 25zM271 -12q-65 0 -115.5 19.5t-79.5 57t-29 91.5t29.5 94t94 62t170.5 22h324v-80h-334q-46 0 -80.5 -5t-58.5 -18
q-21 -12 -31 -29.5t-10 -44.5q0 -43 36 -65t92 -22q43 0 73 13t47 46t17 91v254h-166v-172l-95 -16v270h551v-82h-188v-244q0 -68 -12 -106.5t-34 -65.5q-33 -38 -84 -54t-117 -16zM834 -12q-44 0 -83 20t-64 63.5t-25 114.5q0 62 21 113t59.5 89t92 58.5t119.5 20.5
q70 0 120 -19t81 -52t45.5 -74.5t14.5 -86.5q0 -48 -11.5 -88t-26.5 -65h196l-13 -82h-287l-5 64q12 17 22 41t16.5 53t6.5 59q0 81 -47 124.5t-122 43.5q-55 0 -94 -18.5t-66 -60.5l-8 -20q-11 -28 -17 -53.5t-6 -58.5q0 -59 25.5 -83.5t59.5 -24.5q33 0 48.5 20.5
t15.5 52.5q0 41 -17.5 66.5t-50.5 37t-81 11.5h-157v80h142q52 0 88.5 -6t63 -17.5t47.5 -27.5q28 -22 44 -55t16 -77q0 -75 -40.5 -119t-122.5 -44z" />
    <glyph glyph-name="kaprehalftamil" horiz-adv-x="852" 
d="M271 -12q-65 0 -115.5 19.5t-79.5 57t-29 91.5t29.5 94t94 62t170.5 22h190q55 0 94 -5t68 -16t53 -29q27 -21 43 -54t16 -75q0 -78 -47.5 -121t-133.5 -43q-24 0 -52 3t-52 10l21 77q14 -4 32 -6.5t36 -2.5q46 0 69.5 21.5t23.5 66.5q0 31 -14.5 50t-38.5 28.5
t-54.5 12.5t-61.5 3h-202q-46 0 -80.5 -5t-58.5 -18q-21 -12 -31 -29.5t-10 -44.5q0 -43 36 -65t92 -22q43 0 73 13t47 46t17 91v254h-166v-172l-95 -16v270h551v-82h-187v-244q0 -68 -12 -106.5t-35 -65.5q-32 -38 -83.5 -54t-117.5 -16zM446 673q-31 0 -51 20t-20 52
q0 31 20 51.5t51 20.5t51 -20.5t20 -51.5q0 -32 -20 -52t-51 -20z" />
    <glyph glyph-name="ngaprehalftamil" horiz-adv-x="1085" 
d="M85 0v556h557v-82h-185v-149q22 13 54 25t75 12q54 0 91 -20t55.5 -56t18.5 -83q0 -35 -9.5 -65.5t-24.5 -55.5h165v-82h-529v82h259q15 21 25 48.5t10 58.5q0 50 -23.5 70t-60.5 20q-29 0 -56.5 -11.5t-49.5 -28.5v-90h-104v325h-163v-474h-105zM777 0l-10 82h128v474
h104v-556h-222zM543 673q-31 0 -51 20t-20 52q0 31 20 51.5t51 20.5t51 -20.5t20 -51.5q0 -32 -20 -52t-51 -20z" />
    <glyph glyph-name="caprehalftamil" horiz-adv-x="748" 
d="M271 -12q-65 0 -115.5 19.5t-79.5 57t-29 91.5t29.5 94t94 62t170.5 22h365v-80h-375q-46 0 -80.5 -5t-58.5 -18q-21 -12 -31 -29.5t-10 -44.5q0 -43 36 -65t92 -22q43 0 73 13t47 46t17 91v254h-166v-172l-95 -16v270h551v-82h-188v-244q0 -68 -12 -106.5t-34 -65.5
q-33 -38 -84 -54t-117 -16zM446 673q-31 0 -51 20t-20 52q0 31 20 51.5t51 20.5t51 -20.5t20 -51.5q0 -32 -20 -52t-51 -20z" />
    <glyph glyph-name="japrehalftamil" horiz-adv-x="1052" 
d="M337 568q75 0 122.5 -18.5t75.5 -47.5t42 -59l-25 -11q17 44 44.5 74.5t66.5 46t88 15.5q80 0 133 -30.5t80.5 -83.5t27.5 -121q0 -72 -23 -121t-64 -80q-38 -30 -89.5 -46t-113 -22t-129.5 -6h-135q-60 0 -105 -4t-76.5 -15t-53.5 -30q-20 -19 -29.5 -43.5t-9.5 -57.5
q0 -52 20.5 -84.5t52.5 -47t66 -14.5q43 0 75 12t59.5 35.5t57.5 54.5q45 49 85 79t86 45t110 15q41 0 77.5 -11t65 -33t44.5 -54t16 -75q0 -44 -20.5 -78.5t-59 -53.5t-90.5 -19q-47 0 -79.5 12.5t-53 33.5t-29.5 47t-9 51q0 44 22.5 78t54.5 61l81 -13
q-35 -26 -50.5 -54.5t-15.5 -57.5q0 -33 18.5 -56t60.5 -23q20 0 37 8t27.5 24.5t10.5 42.5q0 27 -10.5 44t-28 27t-39.5 14.5t-46 4.5q-18 0 -34 -2t-32 -7q-21 -7 -40.5 -20t-39 -32.5t-41.5 -44.5q-36 -42 -74.5 -73t-85.5 -48t-109 -17q-87 0 -141.5 31.5t-79.5 83.5
t-25 112q0 56 19 96t51 67q34 29 80 44t101 21t116 6h122q69 0 124 4.5t96.5 16.5t67.5 36q26 22 38.5 54.5t12.5 78.5q0 53 -18.5 87t-50 51t-71.5 17q-28 0 -50 -8.5t-38 -26.5q-18 -22 -26 -52t-8 -86v-105h-105v82q0 47 -9.5 84.5t-30 63.5t-55.5 39.5t-85 13.5
q-23 0 -38 -2t-30 -8l-34 -11q-32 -13 -50.5 -32t-26.5 -42t-8 -47q0 -39 19.5 -64.5t66.5 -25.5q37 0 59.5 21t22.5 57q0 32 -17 56.5t-48 38.5t-75 14l81 47q43 -5 78 -24t55.5 -51.5t20.5 -76.5q0 -73 -48 -116.5t-130 -43.5q-58 0 -98 22t-60.5 59.5t-20.5 85.5
q0 70 38 119.5t101.5 75.5t139.5 26zM519 673q-31 0 -51 20t-20 52q0 31 20 51.5t51 20.5t51 -20.5t20 -51.5q0 -32 -20 -52t-51 -20z" />
    <glyph glyph-name="nyaprehalftamil" horiz-adv-x="1254" 
d="M1017 324q58 0 101 -28t66.5 -81t23.5 -129q0 -90 -30 -157.5t-82.5 -115.5t-121 -77.5t-147.5 -43t-162 -13.5h-35q-128 0 -222.5 25.5t-160.5 71t-106 105.5t-58.5 128.5t-18.5 139.5v20q0 71 19 141.5t49.5 134.5t64.5 115l87 -52q-38 -56 -64 -114t-39.5 -115.5
t-13.5 -114.5v-13q0 -83 26.5 -153t83 -122t146 -81t215.5 -29h21q96 0 177 19t140.5 57.5t92.5 99t33 143.5q0 51 -12 85.5t-36 52.5t-59 18q-28 0 -51.5 -10.5t-43.5 -25.5l1 84q20 13 49.5 24t66.5 11zM520 -12q-58 0 -104 26.5t-73 82t-27 141.5q0 81 28 141t77 98
q34 28 76 45t99 25.5t135 8.5h49l1 -82h-76q-60 0 -100 -6.5t-66.5 -18.5t-46.5 -29q-39 -32 -60 -79.5t-21 -110.5q0 -58 14 -94t39 -53t57 -17q25 0 43 11t28.5 31.5t10.5 50.5q0 46 -25 70.5t-64 24.5q-40 0 -74.5 -22t-62.5 -53l-17 74q32 35 77 58t98 23
q75 0 121 -44.5t46 -121.5q0 -56 -21.5 -96.5t-62 -62t-98.5 -21.5zM803 0v474h-40l3 82h304v-82h-162v-474h-105zM628 673q-31 0 -51 20t-20 52q0 31 20 51.5t51 20.5t51 -20.5t20 -51.5q0 -32 -20 -52t-51 -20z" />
    <glyph glyph-name="ttaprehalftamil" horiz-adv-x="708" 
d="M85 0v556h105v-474h501v-82h-606zM363 673q-31 0 -51 20t-20 52q0 31 20 51.5t51 20.5t51 -20.5t20 -51.5q0 -32 -20 -52t-51 -20z" />
    <glyph glyph-name="nnaprehalftamil" horiz-adv-x="1703" 
d="M257 -12q-58 0 -104 27t-73 83t-27 144q0 99 45.5 172.5t129 113.5t196.5 40q52 0 97.5 -7.5t87 -23.5t82.5 -43l36 -30q61 -52 97 -120.5t36 -155.5q0 -65 -21 -109.5t-59.5 -67.5t-92.5 -23q-62 0 -101 26.5t-57.5 71t-18.5 100.5q0 54 12.5 102.5t37.5 91.5t62 80
l41 35q50 36 107.5 54.5t128.5 18.5q48 0 87.5 -7t74.5 -22.5t69 -40.5l39 -33q38 -35 65.5 -77.5t42.5 -92.5t15 -107q0 -65 -20.5 -109.5t-59.5 -67.5t-93 -23q-62 0 -101 26.5t-57 71t-18 100.5q0 52 12 99.5t38 91.5t66 84l43 33q32 20 67.5 33.5t85.5 21t127 7.5h304
v-82h-162v-474h-105v474h-59q-39 0 -69 -2.5t-55 -8t-48 -15.5t-47 -27q-32 -21 -54 -57t-33 -80t-11 -92q0 -66 20 -96t52 -30q30 0 46.5 17.5t23 45.5t6.5 57q0 52 -14.5 99t-39 83.5t-56.5 57.5q-43 34 -89 46.5t-92 12.5q-59 0 -105.5 -14.5t-87.5 -45.5
q-33 -27 -54.5 -64.5t-31.5 -80.5t-10 -88q0 -65 19.5 -95.5t53.5 -30.5q29 0 45 17.5t22.5 45.5t6.5 57q0 75 -30.5 136.5t-88.5 102.5q-47 33 -102.5 46t-119.5 13q-77 0 -133.5 -26.5t-89.5 -72t-43 -103.5q-1 -14 -2 -26.5t-1 -24.5q0 -60 14 -96.5t39 -52.5t57 -16
q26 0 44 11t28 31.5t10 50.5q0 46 -24.5 70.5t-63.5 24.5q-41 0 -75 -22t-63 -53l-17 74q32 35 77 58t99 23q74 0 120 -44.5t46 -121.5q0 -56 -21.5 -96.5t-62 -62t-98.5 -21.5zM852 673q-31 0 -51 20t-20 52q0 31 20 51.5t51 20.5t51 -20.5t20 -51.5q0 -32 -20 -52t-51 -20
z" />
    <glyph glyph-name="taprehalftamil" horiz-adv-x="851" 
d="M271 -12q-65 0 -115.5 19.5t-79.5 57t-29 91.5t29.5 94t94.5 62t170 22h152q91 0 161.5 -22.5t111 -74t40.5 -139.5q0 -68 -26 -114t-75 -80q-33 -23 -75.5 -37.5t-99 -20.5t-131.5 -6h-103q-48 0 -71.5 -6t-40.5 -17q-16 -11 -25 -30.5t-9 -52.5q0 -13 1 -25.5t2 -24.5
l-101 -5q-3 19 -4.5 40t-1.5 40q0 45 16.5 76t42.5 51q19 13 40 21t50 11.5t68 3.5h104q88 0 145 7.5t91.5 22.5t57.5 39q20 22 30.5 50.5t10.5 64.5q0 48 -19.5 77t-51.5 44.5t-70.5 21t-77.5 5.5h-152q-46 0 -80.5 -5t-58.5 -18q-21 -12 -31 -29.5t-10 -44.5q0 -43 36 -65
t92 -22q43 0 73 13t47 46t17 91v254h-166v-172l-95 -16v270h551v-82h-187v-244q0 -68 -12 -106.5t-35 -65.5q-32 -38 -83.5 -54t-117.5 -16zM449 673q-31 0 -51 20t-20 52q0 31 20 51.5t51 20.5t51 -20.5t20 -51.5q0 -32 -20 -52t-51 -20z" />
    <glyph glyph-name="naprehalftamil" horiz-adv-x="819" 
d="M581 362q54 0 97.5 -26t69 -77.5t25.5 -126.5q0 -89 -27 -142.5t-74 -86.5q-33 -23 -75 -37.5t-96.5 -20t-126.5 -5.5h-79q-48 0 -71.5 -6t-39.5 -17t-25 -30.5t-9 -52.5q0 -13 1 -25.5t2 -24.5l-101 -5q-3 19 -5 40t-2 40q0 45 16.5 76t43.5 51q18 13 39 21t50 11.5
t69 3.5h99q80 0 129.5 7t80.5 21.5t53 38.5q19 21 31.5 55.5t12.5 84.5t-13 83t-38 50t-62 17q-28 0 -54.5 -11.5t-46.5 -27.5l-3 84q26 15 57.5 26.5t71.5 11.5zM85 0v556h542v-82h-166v-474h-104v474h-167v-474h-105zM409 673q-31 0 -51 20t-20 52q0 31 20 51.5t51 20.5
t51 -20.5t20 -51.5q0 -32 -20 -52t-51 -20z" />
    <glyph glyph-name="nnnaprehalftamil" horiz-adv-x="1271" 
d="M257 -12q-58 0 -104 27t-73 83t-27 144q0 99 45.5 172.5t129 113.5t196.5 40q52 0 97.5 -7.5t87 -23.5t82.5 -43l40 -34q58 -49 93.5 -117.5t35.5 -154.5q0 -65 -21 -109.5t-59.5 -67.5t-92.5 -23q-62 0 -101 26.5t-57.5 71t-18.5 100.5q0 54 13 102t38.5 90.5t61.5 79.5
l46 36q33 20 68 33.5t85.5 21t126.5 7.5h305v-82h-162v-474h-105v474h-59q-39 0 -69.5 -2.5t-56 -8.5t-48.5 -16t-45 -26q-33 -21 -54.5 -57.5t-32.5 -81t-11 -90.5q0 -66 19.5 -96t53.5 -30q29 0 45 17.5t22.5 45.5t6.5 57q0 74 -30.5 136t-88.5 103q-47 33 -102.5 46
t-119.5 13q-77 0 -133.5 -26.5t-89.5 -72t-43 -103.5q-1 -14 -2 -26.5t-1 -24.5q0 -60 14 -96.5t39 -52.5t57 -16q26 0 44 11t28 31.5t10 50.5q0 46 -24.5 70.5t-63.5 24.5q-41 0 -75 -22t-63 -53l-17 74q32 35 77 58t99 23q74 0 120 -44.5t46 -121.5q0 -56 -21.5 -96.5
t-62 -62t-98.5 -21.5zM636 673q-31 0 -51 20t-20 52q0 31 20 51.5t51 20.5t51 -20.5t20 -51.5q0 -32 -20 -52t-51 -20z" />
    <glyph glyph-name="paprehalftamil" horiz-adv-x="794" 
d="M85 0v556h105v-474h413v474h105v-556h-623zM397 673q-31 0 -51 20t-20 52q0 31 20 51.5t51 20.5t51 -20.5t20 -51.5q0 -32 -20 -52t-51 -20z" />
    <glyph glyph-name="maprehalftamil" horiz-adv-x="881" 
d="M593 568q80 0 131 -38.5t75.5 -107.5t24.5 -158q0 -71 -16 -121.5t-50 -82.5q-25 -23 -56 -36t-73.5 -18.5t-104.5 -5.5h-439v556h105v-474h214v273q0 62 12 99t35 63q24 25 58.5 38t83.5 13zM594 486q-16 0 -31 -5t-25 -16q-15 -17 -22.5 -42.5t-7.5 -83.5v-257h44
q64 0 100 18t51 59t15 109q0 61 -12.5 110t-39.5 78.5t-72 29.5zM441 673q-31 0 -51 20t-20 52q0 31 20 51.5t51 20.5t51 -20.5t20 -51.5q0 -32 -20 -52t-51 -20z" />
    <glyph glyph-name="yaprehalftamil" horiz-adv-x="985" 
d="M358 0v556h105v-474h332v474h104v-556h-541zM245 -11q-39 0 -67.5 12t-48.5 34q-12 15 -22 34.5t-16 51t-6 81.5v354h105v-336q0 -44 4 -77t22 -52q9 -9 22.5 -14.5t31.5 -5.5q29 0 53.5 15.5t45.5 47.5l-2 -94q-21 -20 -51 -35.5t-71 -15.5zM492 673q-31 0 -51 20
t-20 52q0 31 20 51.5t51 20.5t51 -20.5t20 -51.5q0 -32 -20 -52t-51 -20z" />
    <glyph glyph-name="raprehalftamil" horiz-adv-x="656" 
d="M254 -212l-68 63l186 176v447h-182v-474h-105v556h554v-82h-162v-474zM328 673q-31 0 -51 20t-20 52q0 31 20 51.5t51 20.5t51 -20.5t20 -51.5q0 -32 -20 -52t-51 -20z" />
    <glyph glyph-name="rraprehalftamil" horiz-adv-x="899" 
d="M592 568q80 0 135 -38.5t83.5 -111t28.5 -175.5q0 -122 -31 -200t-85 -122q-39 -32 -88 -49.5t-106.5 -24.5t-121.5 -7h-114q-48 0 -71.5 -6t-39.5 -17t-25 -30.5t-9 -52.5q0 -13 1 -25.5t2 -24.5l-101 -5q-3 19 -5 40t-2 40q0 45 16.5 76t43.5 51q18 13 39 21t50 11.5
t69 3.5h124q91 0 156.5 13.5t108 47.5t62.5 97.5t20 163.5q0 89 -19 142t-52.5 76.5t-76.5 23.5q-26 0 -48 -8t-38 -27q-19 -23 -26.5 -53t-7.5 -82v-316h-104v316q0 50 -4.5 83.5t-19.5 55.5q-10 14 -25 22.5t-37 8.5t-37 -8t-26 -22q-15 -21 -19 -55t-4 -81v-320h-105v338
q0 49 5.5 83t18 58.5t32.5 44.5q23 22 54 33t68 11q44 0 75.5 -13.5t55.5 -41.5t40 -71l-30 9q15 34 40 60.5t62 41.5t88 15zM449 673q-31 0 -51 20t-20 52q0 31 20 51.5t51 20.5t51 -20.5t20 -51.5q0 -32 -20 -52t-51 -20z" />
    <glyph glyph-name="laprehalftamil" horiz-adv-x="1044" 
d="M257 -12q-58 0 -104 26.5t-73 83t-27 144.5q0 81 25.5 142t70 102t102.5 61.5t122 20.5q55 0 106 -13.5t90 -50.5q27 -26 43.5 -60t24 -81.5t9.5 -114.5q0 -32 3.5 -60t12.5 -50t25 -38q14 -14 33 -21t44 -7q33 0 58.5 15.5t41 52t15.5 101.5q0 61 -15.5 115t-42.5 101
t-63 87l92 59q63 -80 98.5 -167t35.5 -188q0 -84 -25.5 -142t-75.5 -88t-126 -30q-44 0 -81 12t-64 37q-33 30 -51.5 81.5t-20.5 126.5q-1 36 -5 72.5t-14.5 69t-33.5 54.5q-20 21 -48.5 32t-71.5 11q-69 0 -118 -32.5t-75 -89.5t-26 -131q0 -60 14 -96.5t39 -52.5t57 -16
q26 0 44 11t28 31.5t10 50.5q0 46 -24.5 70.5t-63.5 24.5q-41 0 -75.5 -22t-62.5 -53l-17 74q32 35 77 58t99 23q74 0 120 -44.5t46 -121.5q0 -56 -21.5 -96.5t-62 -62t-98.5 -21.5zM523 673q-31 0 -51 20t-20 52q0 31 20 51.5t51 20.5t51 -20.5t20 -51.5q0 -32 -20 -52
t-51 -20z" />
    <glyph glyph-name="llaprehalftamil" horiz-adv-x="1101" 
d="M257 -12q-58 0 -104 27t-73 83t-27 145q0 81 25.5 142t70 101.5t101 61t117.5 20.5q47 0 84 -9t69 -25.5t61 -40.5l-27 -102q-34 43 -80 68t-110 25q-66 0 -114 -32t-75 -88.5t-27 -128.5q0 -62 14 -99t39 -53.5t57 -16.5q25 0 43.5 11t28.5 31.5t10 50.5
q0 46 -24.5 70.5t-63.5 24.5q-41 0 -75.5 -22t-62.5 -53l-17 74q32 35 77 58t99 23q74 0 120 -44.5t46 -121.5q0 -56 -21.5 -96.5t-62 -62t-98.5 -21.5zM546 0v427l15 63v66h523v-82h-162v-474h-105v474h-166v-474h-105zM551 673q-31 0 -51 20t-20 52q0 31 20 51.5t51 20.5
t51 -20.5t20 -51.5q0 -32 -20 -52t-51 -20z" />
    <glyph glyph-name="lllaprehalftamil" horiz-adv-x="881" 
d="M593 568q80 0 131 -38.5t75.5 -107.5t24.5 -158q0 -71 -16 -121.5t-50 -82.5q-25 -23 -56 -36t-73.5 -18.5t-104.5 -5.5h-439v556h105v-474h214v273q0 62 12 99t35 63q24 25 58.5 38t83.5 13zM594 486q-16 0 -31 -5t-25 -16q-15 -17 -22.5 -42.5t-7.5 -83.5v-257h44
q64 0 100 18t51 59t15 109q0 61 -12.5 110t-39.5 78.5t-72 29.5zM222 -56q18 0 37.5 -1.5t36.5 -3.5l-8 -77q-10 2 -22.5 2.5t-28.5 0.5q-33 0 -54.5 -11t-21.5 -37q0 -24 17 -36.5t43.5 -17t53.5 -4.5h26q49 0 82.5 11.5t56 33t37.5 52.5q8 15 19 25.5t30.5 16t52.5 6.5
l80 -17q-43 -9 -62.5 -25t-29.5 -40q-23 -45 -56 -77.5t-83.5 -49t-128.5 -16.5h-28q-49 0 -93 11t-70 29q-20 14 -35 38.5t-15 59.5q0 59 44.5 93t119.5 34zM553 -171l-14 10q-38 8 -68 26.5t-47.5 51.5t-19.5 83l102 1q1 -28 10 -47.5t30 -30.5q14 -6 33.5 -9t50.5 -3h121
v-82h-198zM441 673q-31 0 -51 20t-20 52q0 31 20 51.5t51 20.5t51 -20.5t20 -51.5q0 -32 -20 -52t-51 -20z" />
    <glyph glyph-name="vaprehalftamil" horiz-adv-x="1073" 
d="M257 -12q-58 0 -104 27t-73 83t-27 144q0 108 44 180.5t117.5 109t160.5 36.5q81 0 138.5 -22.5t93.5 -62.5t53 -91.5t17 -110.5t-13 -107.5t-32 -91.5h251v474h104v-556h-462l-4 68q22 35 36 85t14 115q0 69 -24.5 117.5t-69.5 73.5t-108 25q-69 0 -118.5 -33t-76 -89.5
t-26.5 -126.5q0 -62 14 -99t39 -53.5t57 -16.5q25 0 43 11t28.5 31.5t10.5 50.5q0 46 -24.5 70.5t-63.5 24.5q-41 0 -75.5 -22t-62.5 -53l-17 74q32 35 77 58t99 23q74 0 120 -44.5t46 -121.5q0 -56 -21.5 -96.5t-62 -62t-98.5 -21.5zM536 673q-31 0 -51 20t-20 52
q0 31 20 51.5t51 20.5t51 -20.5t20 -51.5q0 -32 -20 -52t-51 -20z" />
    <glyph glyph-name="shaprehalftamil" horiz-adv-x="1207" 
d="M310 -12q-57 0 -101.5 16.5t-74.5 48.5q-25 29 -38 71t-13 110v322h105v-313q0 -62 9 -93.5t28 -50.5q15 -15 36 -21.5t49 -6.5q29 0 50.5 7.5t36.5 24.5q18 20 26 51.5t8 89.5v312h692v-324q0 -63 -13 -107.5t-38 -73.5q-28 -30 -72 -46.5t-103 -16.5q-57 0 -102 16.5
t-74 48.5q-25 29 -38 71.5t-13 111.5v238h-134v-243q0 -65 -12.5 -107t-37.5 -71q-28 -32 -72 -48.5t-104 -16.5zM897 71q29 0 50.5 7.5t36.5 24.5q18 20 26.5 51.5t8.5 89.5v230h-244v-231q0 -62 9 -93.5t28 -50.5q15 -15 36 -21.5t49 -6.5zM603 673q-31 0 -51 20t-20 52
q0 31 20 51.5t51 20.5t51 -20.5t20 -51.5q0 -32 -20 -52t-51 -20z" />
    <glyph glyph-name="ssaprehalftamil" horiz-adv-x="1383" 
d="M945 568q48 0 80.5 -13.5t52.5 -36.5t28.5 -52t8.5 -59q0 -36 -5.5 -75t-18.5 -90l-11 -46l-122 -480l-96 26l72 278l11 48l43 167q13 52 19 92.5t6 75.5q0 40 -17 62t-50 22q-40 0 -63 -27.5t-23 -77.5q0 -41 20 -67.5t55.5 -39t83.5 -12.5h31q64 0 108 22.5t75 48.5h95
v-334h-536l12 82h429v74q0 20 1 44t2 43q-28 -22 -78.5 -41t-118.5 -19h-19q-60 0 -107.5 13t-81.5 38.5t-51.5 63.5t-17.5 87q0 50 21 91.5t62 66.5t100 25zM257 -12q-58 0 -104 27t-73 83t-27 144q0 108 44 180.5t117.5 109t160.5 36.5q81 0 138.5 -22.5t93.5 -62.5
t53 -91.5t17 -110.5t-13 -107.5t-32 -91.5h250l-8 -82h-349l-4 68q22 35 36 85t14 115q0 69 -24.5 117.5t-69.5 73.5t-108 25q-69 0 -118.5 -33t-76 -89.5t-26.5 -126.5q0 -62 14 -99t39 -53.5t57 -16.5q25 0 43 11t28.5 31.5t10.5 50.5q0 46 -24.5 70.5t-63.5 24.5
q-41 0 -75.5 -22t-62.5 -53l-17 74q32 35 77 58t99 23q74 0 120 -43.5t46 -122.5q0 -56 -21.5 -96.5t-62 -62t-98.5 -21.5zM691 673q-31 0 -51 20t-20 52q0 31 20 51.5t51 20.5t51 -20.5t20 -51.5q0 -32 -20 -52t-51 -20z" />
    <glyph glyph-name="saprehalftamil" horiz-adv-x="1325" 
d="M257 -12q-58 0 -104 26.5t-73 83t-27 144.5q0 81 25.5 142t70 102t101.5 61.5t120 20.5q56 0 99.5 -14.5t78 -44.5t61.5 -75l-39 -2q14 38 37.5 69t57.5 49t80 18q44 0 75 -12t54 -36q27 -28 40 -72t13 -113v-83q0 -52 8 -90t33 -62q14 -14 33 -21t44 -7q33 0 59 15.5
t41 52t15 101.5q0 61 -15.5 115t-42.5 101t-63 87l91 59q64 -80 99.5 -167t35.5 -188q0 -84 -25 -142t-75 -88t-127 -30q-44 0 -80.5 12t-64.5 37q-21 20 -37.5 50t-25 71t-8.5 94v39q0 63 -4.5 98.5t-14.5 56.5t-26.5 30.5t-38.5 9.5q-21 0 -36.5 -8.5t-24.5 -21.5
q-14 -19 -20 -46.5t-6 -72.5v-337h-105v284q0 61 -14.5 98t-39.5 60q-26 23 -55.5 32.5t-69.5 9.5q-69 0 -118 -32.5t-75 -89.5t-26 -131q0 -60 14 -96.5t39 -52.5t57 -16q25 0 43 11t28.5 31.5t10.5 50.5q0 46 -24.5 70.5t-63.5 24.5q-41 0 -75.5 -22t-62.5 -53l-17 74
q32 35 77 58t99 23q74 0 120 -44.5t46 -121.5q0 -56 -21.5 -96.5t-62 -62t-98.5 -21.5zM663 673q-31 0 -51 20t-20 52q0 31 20 51.5t51 20.5t51 -20.5t20 -51.5q0 -32 -20 -52t-51 -20z" />
    <glyph glyph-name="haprehalftamil" horiz-adv-x="1666" 
d="M1359 568q79 0 134.5 -38.5t83.5 -111t28 -175.5q0 -122 -31 -200t-84 -122q-39 -32 -88.5 -49.5t-106.5 -24.5t-122 -7h-878q-48 0 -71.5 -6t-39.5 -17t-25 -30.5t-9 -52.5q0 -13 1 -25.5t2 -24.5l-101 -5q-3 19 -5 40t-2 40q0 45 16.5 76t43.5 51q18 13 39 21t50 11.5
t69 3.5h889q91 0 156.5 13.5t107.5 47.5t62.5 97.5t20.5 163.5q0 89 -19 142t-52.5 76.5t-76.5 23.5q-26 0 -48 -8t-38 -27q-19 -23 -26.5 -53t-7.5 -82v-316h-105v315q0 51 -4.5 84.5t-18.5 54.5q-9 15 -24.5 23.5t-37.5 8.5t-37.5 -8t-25.5 -22q-15 -21 -19 -54.5
t-4 -80.5v-321h-105v338q0 49 5.5 83t18 58.5t32.5 44.5q23 22 54 33t68 11q44 0 75.5 -13.5t55.5 -41.5t40 -71l-31 9q16 34 40.5 60.5t62 41.5t88.5 15zM257 -12q-58 0 -104 27t-73 83t-27 144q0 108 44 180.5t117.5 109t160.5 36.5q81 0 138.5 -22.5t93.5 -62.5t53 -91.5
t17 -110.5t-13 -107.5t-32 -91.5h250l17 -82h-374l-4 68q22 35 36 85t14 115q0 69 -24.5 117.5t-69.5 73.5t-108 25q-69 0 -118.5 -33t-76 -89.5t-26.5 -126.5q0 -62 14 -99t39 -53.5t57 -16.5q25 0 43 11t28.5 31.5t10.5 50.5q0 46 -24.5 70.5t-63.5 24.5q-41 0 -75.5 -22
t-62.5 -53l-17 74q32 35 77 58t99 23q74 0 120 -44.5t46 -121.5q0 -56 -21.5 -96.5t-62 -62t-98.5 -21.5zM833 673q-31 0 -51 20t-20 52q0 31 20 51.5t51 20.5t51 -20.5t20 -51.5q0 -32 -20 -52t-51 -20z" />
    <glyph glyph-name="tchaprehalftamil" horiz-adv-x="1925" 
d="M1471 568q48 0 80.5 -13.5t52.5 -36.5t28.5 -52t8.5 -59q0 -36 -5.5 -75t-18.5 -90l-11 -46l-122 -480l-96 26l72 278l11 48l43 167q13 52 19 92.5t6 75.5q0 40 -17 62t-50 22q-40 0 -63 -27.5t-23 -77.5q0 -41 20 -67.5t55.5 -39t83.5 -12.5h31q64 0 108 22.5t75 48.5
h95v-334h-536l13 82h428v74q0 20 1 44t2 43q-27 -22 -78 -41t-119 -19h-19q-60 0 -107.5 13t-81.5 38.5t-51.5 63.5t-17.5 87q0 50 21 91.5t62 66.5t100 25zM271 -12q-65 0 -115.5 19.5t-79.5 57t-29 91.5t29.5 94t94 62t170.5 22h324v-80h-334q-46 0 -80.5 -5t-58.5 -18
q-21 -12 -31 -29.5t-10 -44.5q0 -43 36 -65t92 -22q43 0 73 13t47 46t17 91v254h-166v-172l-95 -16v270h551v-82h-188v-244q0 -68 -12 -106.5t-34 -65.5q-33 -38 -84 -54t-117 -16zM834 -12q-44 0 -83 20t-64 63.5t-25 114.5q0 62 21 113t59.5 89t92 58.5t119.5 20.5
q70 0 120 -19t81 -52t45.5 -74.5t14.5 -86.5q0 -48 -11.5 -88t-26.5 -65h196l-13 -82h-287l-5 64q12 17 22 41t16.5 53t6.5 59q0 81 -47 124.5t-122 43.5q-55 0 -94 -18.5t-66 -60.5l-8 -20q-11 -28 -17 -53.5t-6 -58.5q0 -59 25.5 -83.5t59.5 -24.5q33 0 48.5 20.5
t15.5 52.5q0 41 -17.5 66.5t-50.5 37t-81 11.5h-157v80h142q52 0 88.5 -6t63 -17.5t47.5 -27.5q28 -22 44 -55t16 -77q0 -75 -40.5 -119t-122.5 -44zM951 673q-31 0 -51 20t-20 52q0 31 20 51.5t51 20.5t51 -20.5t20 -51.5q0 -32 -20 -52t-51 -20z" />
    <glyph glyph-name="kaiivowelsigntamil" horiz-adv-x="852" 
d="M271 -12q-65 0 -115.5 19.5t-79.5 57t-29 91.5t29.5 94t94 62t170.5 22h190q55 0 94 -5t68 -16t53 -29q27 -21 43 -54t16 -75q0 -78 -47.5 -121t-133.5 -43q-24 0 -52 3t-52 10l21 77q14 -4 32 -6.5t36 -2.5q46 0 69.5 21.5t23.5 66.5q0 31 -14.5 50t-38.5 28.5
t-54.5 12.5t-61.5 3h-202q-46 0 -80.5 -5t-58.5 -18q-21 -12 -31 -29.5t-10 -44.5q0 -43 36 -65t92 -22q43 0 73 13t47 46t17 91v254h-166v-172l-95 -16v270h551v-82h-187v-244q0 -68 -12 -106.5t-35 -65.5q-32 -38 -83.5 -54t-117.5 -16zM676 845q93 0 138.5 -36t45.5 -93
q0 -63 -38.5 -94.5t-101.5 -31.5q-66 0 -101.5 31t-35.5 85q0 25 11.5 57t39.5 60l61 -24q-17 -20 -26.5 -40t-9.5 -42q0 -20 7.5 -33.5t21 -19.5t31.5 -6q28 0 42.5 15.5t14.5 38.5q0 33 -27 47t-68 14q-11 0 -24 -1t-27 -3q-67 -10 -100 -49.5t-33 -95.5q0 -27 6.5 -48.5
t17.5 -40.5l-94 -10q-10 22 -15.5 47t-5.5 53q0 43 16 82.5t48.5 70.5t83.5 49t122 18z" />
    <glyph glyph-name="kauvowelsigntamil" horiz-adv-x="1095" 
d="M516 -12q-64 0 -115 19.5t-80 57t-29 91.5t29.5 94t94.5 62t170 22h130q91 0 155 -24.5t103.5 -65.5t57.5 -93t18 -108q0 -81 -25.5 -141.5t-70.5 -103t-104 -69t-127 -38.5t-139 -12h-28q-112 0 -194.5 26.5t-139.5 72.5t-92 104.5t-50.5 123t-15.5 127.5v21
q0 83 20 155t51.5 135t66.5 116l86 -52q-38 -54 -65 -112t-41.5 -118.5t-14.5 -120.5v-20q0 -75 22.5 -142t70 -118.5t123 -81t182.5 -29.5h10q85 0 153 17t116 51.5t73.5 87t25.5 121.5q0 73 -31 120t-84.5 69t-122.5 22h-129q-46 0 -80.5 -5t-58.5 -18q-21 -12 -31 -29.5
t-10 -44.5q0 -43 36 -65t92 -22q43 0 73 13t47 46t17 91v254h-166v-179l-95 -16v277h551v-82h-188v-244q0 -68 -12 -106.5t-34 -65.5q-33 -38 -84 -54t-117 -16z" />
    <glyph glyph-name="kauuvowelsigntamil" horiz-adv-x="1383" 
d="M834 -12q-44 0 -83 20t-64 63.5t-25 114.5q0 83 36.5 146t102 99t153.5 36q70 0 120 -19t81 -52t45.5 -74.5t14.5 -86.5q0 -48 -11.5 -88t-26.5 -65h189v-82h-293l-5 64q12 17 22 41t16.5 53t6.5 59q0 81 -47 124.5t-122 43.5q-55 0 -94 -18.5t-66 -60.5l-8 -20
q-11 -28 -17 -53.5t-6 -58.5q0 -59 25.5 -83.5t59.5 -24.5q33 0 48.5 20.5t15.5 52.5q0 41 -17.5 66.5t-50.5 37t-81 11.5h-157v80h142q52 0 88.5 -6t63 -17.5t47.5 -27.5q28 -22 44 -55t16 -77q0 -75 -40.5 -119t-122.5 -44zM271 -12q-65 0 -115.5 19.5t-79.5 57t-29 91.5
t29.5 94t94 62t170.5 22h325v-80h-335q-46 0 -80.5 -5t-58.5 -18q-21 -12 -31 -29.5t-10 -44.5q0 -43 36 -65t92 -22q43 0 73 13t47 46t17 91v254h-166v-172l-95 -16v270h551v-82h-188v-244q0 -68 -12 -106.5t-34 -65.5q-33 -38 -84 -54t-117 -16z" />
    <glyph glyph-name="ngaiivowelsigntamil" horiz-adv-x="1085" 
d="M85 0v556h520v-82h-148v-149q22 13 54 25t75 12q54 0 91 -20t55.5 -56t18.5 -83q0 -35 -9.5 -65.5t-24.5 -55.5h235v-82h-599v82h259q15 21 25 48.5t10 58.5q0 50 -23.5 70t-60.5 20q-29 0 -56.5 -11.5t-49.5 -28.5v-90h-104v325h-163v-474h-105zM895 0v556h104v-556
h-104zM906 845q92 0 137.5 -36t45.5 -93q0 -63 -39 -94.5t-101 -31.5q-66 0 -102 31t-36 85q0 25 12 57t40 60l61 -24q-17 -20 -26.5 -40t-9.5 -42q0 -20 7 -33.5t20.5 -19.5t31.5 -6q29 0 43.5 15.5t14.5 38.5q0 33 -27 47t-68 14q-11 0 -23.5 -1t-25.5 -3
q-66 -10 -99 -49.5t-33 -96.5q0 -40 14.5 -68t39 -46t53.5 -28.5t59 -13.5v-84q-54 7 -101 25t-81.5 47.5t-54 70.5t-19.5 96q0 44 15.5 84t48 71.5t83 49.5t120.5 18z" />
    <glyph glyph-name="ngauvowelsigntamil" horiz-adv-x="1085" 
d="M85 0v556h539v-82h-167v-149q22 13 54 25t75 12q54 0 91 -20t55.5 -56t18.5 -83q0 -35 -9.5 -65.5t-24.5 -55.5h211v-82h-575v82h259q15 21 25 48.5t10 58.5q0 50 -23.5 70t-60.5 20q-29 0 -56.5 -11.5t-49.5 -28.5v-90h-104v325h-163v-474h-105zM895 -283v839h104v-839
h-104z" />
    <glyph glyph-name="ngauuvowelsigntamil" horiz-adv-x="1270" 
d="M1106 106q42 0 78 -16.5t58.5 -50.5t22.5 -87q0 -69 -34 -116t-97 -79q-56 -28 -133.5 -45.5t-173 -25t-204.5 -7.5h-66q-70 0 -129 2.5t-107 8.5t-85.5 14.5t-65.5 20.5q-46 20 -67 47.5t-21 64.5q0 31 17 57t56.5 42t105.5 16q45 0 88 -6t77 -14l-16 -81
q-30 8 -68.5 14t-71.5 6q-48 0 -67 -9.5t-19 -28.5q0 -13 18 -26t63 -23.5t125 -16t203 -5.5h24q66 0 126.5 3t114.5 9t100 16t82 23q59 23 91.5 56.5t32.5 79.5q0 40 -21.5 58.5t-60.5 18.5q-27 0 -51.5 -10.5t-39.5 -23.5l-1 83q20 14 49.5 22.5t66.5 8.5zM85 0v556h539
v-82h-167v-149q22 13 54 25t75 12q54 0 91 -20t55.5 -56t18.5 -83q0 -35 -9.5 -65.5t-24.5 -55.5h211v-82h-575v82h259q15 21 25 48.5t10 58.5q0 50 -23.5 70t-60.5 20q-29 0 -56.5 -11.5t-49.5 -28.5v-90h-104v325h-163v-474h-105zM895 -145v701h104v-701h-104z" />
    <glyph glyph-name="caiivowelsigntamil" horiz-adv-x="801" 
d="M271 -12q-65 0 -115.5 19.5t-79.5 57t-29 91.5t29.5 94t94 62t170.5 22h365v-80h-375q-46 0 -80.5 -5t-58.5 -18q-21 -12 -31 -29.5t-10 -44.5q0 -43 36 -65t92 -22q43 0 73 13t47 46t17 91v254h-166v-172l-95 -16v270h551v-82h-188v-244q0 -68 -12 -106.5t-34 -65.5
q-33 -38 -84 -54t-117 -16zM625 845q93 0 138.5 -36t45.5 -93q0 -63 -38.5 -94.5t-101.5 -31.5q-66 0 -101.5 31t-35.5 85q0 25 11.5 57t39.5 60l61 -24q-17 -20 -26.5 -40t-9.5 -42q0 -20 7.5 -33.5t21 -19.5t31.5 -6q28 0 42.5 15.5t14.5 38.5q0 33 -27 47t-68 14
q-11 0 -24 -1t-27 -3q-67 -10 -100 -49.5t-33 -95.5q0 -27 6.5 -48.5t17.5 -40.5l-94 -10q-10 22 -15.5 47t-5.5 53q0 43 16 82.5t48.5 70.5t83.5 49t122 18z" />
    <glyph glyph-name="cauvowelsigntamil" horiz-adv-x="893" 
d="M271 -12q-65 0 -115.5 19.5t-79.5 57t-29 91.5t29.5 94t94 62t170.5 22h528v-80h-538q-46 0 -80.5 -5t-58.5 -18q-21 -12 -31 -29.5t-10 -44.5q0 -43 36 -65t92 -22q43 0 73 13t47 46t17 91v254h-166v-172l-95 -16v270h551v-82h-188v-244q0 -68 -12 -106.5t-34 -65.5
q-33 -38 -84 -54t-117 -16zM644 0v275l101 -8v-267h-101z" />
    <glyph glyph-name="cauuvowelsigntamil" horiz-adv-x="1247" 
d="M1077 180q46 0 80.5 -21t53.5 -59.5t19 -92.5q0 -72 -29.5 -126.5t-82.5 -93t-122.5 -62.5t-149.5 -35t-164 -11h-34q-155 0 -262 35.5t-175 93.5q-79 67 -113 154t-34 175v25q0 81 20 152t51.5 132t65.5 114l87 -52q-39 -54 -66 -111.5t-41 -115.5t-14 -117v-17
q0 -80 27 -149.5t85.5 -121.5t151 -81t223.5 -29h22q75 0 143 9t124.5 27.5t97.5 47.5t63.5 67.5t22.5 89.5q0 45 -21.5 70.5t-58.5 25.5q-22 0 -40.5 -8.5t-34.5 -19.5l-3 73q20 14 48 23t60 9zM516 -12q-65 0 -115.5 19.5t-79.5 57t-29 91.5t29.5 94t94.5 62t170 22h529
v-80h-539q-46 0 -80.5 -5t-58.5 -18q-21 -12 -31 -29.5t-10 -44.5q0 -43 36 -65t92 -22q43 0 73 13t47 46t17 91v254h-166v-172l-95 -16v270h551v-82h-188v-244q0 -68 -12 -106.5t-34 -65.5q-33 -38 -84 -54t-117 -16zM889 0v275l100 -8v-267h-100z" />
    <glyph glyph-name="jaiivowelsigntamil" horiz-adv-x="1052" 
d="M337 568q75 0 122.5 -18.5t75.5 -47.5t42 -59l-25 -11q17 44 44.5 74.5t66.5 46t88 15.5q80 0 133 -30.5t80.5 -83.5t27.5 -121q0 -72 -23 -121t-64 -80q-38 -30 -89.5 -46t-113 -22t-129.5 -6h-135q-60 0 -105 -4t-76.5 -15t-53.5 -30q-20 -19 -29.5 -43.5t-9.5 -57.5
q0 -52 20.5 -84.5t52.5 -47t66 -14.5q43 0 75 12t59.5 35.5t57.5 54.5q45 49 85 79t86 45t110 15q41 0 77.5 -11t65 -33t44.5 -54t16 -75q0 -44 -20.5 -78.5t-59 -53.5t-90.5 -19q-47 0 -79.5 12.5t-53 33.5t-29.5 47t-9 51q0 44 22.5 78t54.5 61l81 -13
q-35 -26 -50.5 -54.5t-15.5 -57.5q0 -33 18.5 -56t60.5 -23q20 0 37 8t27.5 24.5t10.5 42.5q0 27 -10.5 44t-28 27t-39.5 14.5t-46 4.5q-18 0 -34 -2t-32 -7q-21 -7 -40.5 -20t-39 -32.5t-41.5 -44.5q-36 -42 -74.5 -73t-85.5 -48t-109 -17q-87 0 -141.5 31.5t-79.5 83.5
t-25 112q0 56 19 96t51 67q34 29 80 44t101 21t116 6h122q69 0 124 4.5t96.5 16.5t67.5 36q26 22 38.5 54.5t12.5 78.5q0 53 -18.5 87t-50 51t-71.5 17q-28 0 -50 -8.5t-38 -26.5q-18 -22 -26 -52t-8 -86v-105h-105v82q0 47 -9.5 84.5t-30 63.5t-55.5 39.5t-85 13.5
q-23 0 -38 -2t-30 -8l-34 -11q-32 -13 -50.5 -32t-26.5 -42t-8 -47q0 -39 19.5 -64.5t66.5 -25.5q37 0 59.5 21t22.5 57q0 32 -17 56.5t-48 38.5t-75 14l81 47q43 -5 78 -24t55.5 -51.5t20.5 -76.5q0 -73 -48 -116.5t-130 -43.5q-58 0 -98 22t-60.5 59.5t-20.5 85.5
q0 70 38 119.5t101.5 75.5t139.5 26zM876 845q93 0 138.5 -36t45.5 -93q0 -63 -38.5 -94.5t-101.5 -31.5q-66 0 -101.5 31t-35.5 85q0 25 11.5 57t39.5 60l61 -24q-17 -20 -26.5 -40t-9.5 -42q0 -20 7.5 -33.5t21 -19.5t31.5 -6q28 0 42.5 15.5t14.5 38.5q0 33 -27 47
t-68 14q-11 0 -24 -1t-27 -3q-67 -10 -100 -49.5t-33 -95.5q0 -27 6.5 -48.5t17.5 -40.5l-94 -10q-10 22 -15.5 47t-5.5 53q0 43 16 82.5t48.5 70.5t83.5 49t122 18z" />
    <glyph glyph-name="nyaiivowelsigntamil" horiz-adv-x="1253" 
d="M1017 324q58 0 101 -28t66.5 -81t23.5 -129q0 -90 -30 -157.5t-82.5 -115.5t-121 -77.5t-147.5 -43t-162 -13.5h-35q-128 0 -222.5 25.5t-160.5 71t-106 105.5t-58.5 128.5t-18.5 139.5v20q0 71 19 141.5t49.5 134.5t64.5 115l87 -52q-38 -56 -64 -114t-39.5 -115.5
t-13.5 -114.5v-13q0 -83 26.5 -153t83 -122t146 -81t215.5 -29h21q96 0 177 19t140.5 57.5t92.5 99t33 143.5q0 51 -12 85.5t-36 52.5t-59 18q-28 0 -51.5 -10.5t-43.5 -25.5l1 84q20 13 49.5 24t66.5 11zM520 -12q-58 0 -104 26.5t-73 82t-27 141.5q0 81 28 141t77 98
q34 28 76 45t99 25.5t135 8.5h49l1 -82h-76q-60 0 -100 -6.5t-66.5 -18.5t-46.5 -29q-39 -32 -60 -79.5t-21 -110.5q0 -58 14 -94t39 -53t57 -17q25 0 43 11t28.5 31.5t10.5 50.5q0 46 -25 70.5t-64 24.5q-40 0 -74.5 -22t-62.5 -53l-17 74q32 35 77 58t98 23
q75 0 121 -44.5t46 -121.5q0 -56 -21.5 -96.5t-62 -62t-98.5 -21.5zM803 0v474h-40l3 82h304v-82h-162v-474h-105zM1060 845q93 0 138.5 -36t45.5 -93q0 -63 -38.5 -94.5t-101.5 -31.5q-66 0 -101.5 31t-35.5 85q0 25 11.5 57t39.5 60l61 -24q-17 -20 -26.5 -40t-9.5 -42
q0 -20 7.5 -33.5t21 -19.5t31.5 -6q28 0 42.5 15.5t14.5 38.5q0 33 -27 47t-68 14q-11 0 -24 -1t-27 -3q-67 -10 -100 -49.5t-33 -95.5q0 -27 6.5 -48.5t17.5 -40.5l-94 -10q-10 22 -15.5 47t-5.5 53q0 43 16 82.5t48.5 70.5t83.5 49t122 18z" />
    <glyph glyph-name="nyauvowelsigntamil" horiz-adv-x="1273" 
d="M1187 556v-716h-361l-78 3h-285l-3 79h622v634h105zM754 324q58 0 101 -27.5t66.5 -79t23.5 -124.5q0 -55 -12.5 -101t-36.5 -86l-28 -51q-53 -62 -133 -101t-176.5 -57t-199.5 -18h-30q-60 0 -113 9t-93.5 28t-63.5 49t-23 71q0 23 8.5 39.5t24.5 27.5q15 10 35.5 14.5
t67.5 4.5h321l-4 -79h-320q-13 0 -23.5 -3.5t-10.5 -18.5q0 -26 49.5 -44t148.5 -18h28q83 0 153 10t127.5 32t102.5 57l39 53q27 35 41.5 81t14.5 102q0 47 -12.5 79.5t-36 50t-58.5 17.5q-32 0 -58 -13.5t-49 -31.5l-1 85q21 16 54 29.5t76 13.5zM540 0v474h-39l4 82h302
v-82h-162v-474h-105zM257 -12q-58 0 -104 26.5t-73 82t-27 141.5q0 81 28 141t78 98q33 28 75 45t99 25.5t135 8.5h49l-3 -82h-72q-60 0 -100 -6.5t-66.5 -18.5t-46.5 -29q-39 -32 -60 -79.5t-21 -110.5q0 -58 14 -94t38.5 -53t57.5 -17q25 0 43 11t28.5 31.5t10.5 50.5
q0 46 -24.5 70.5t-64.5 24.5t-74.5 -22t-62.5 -53l-17 74q32 35 77 58t99 23q74 0 120 -44.5t46 -121.5q0 -56 -21.5 -96.5t-62 -62t-98.5 -21.5z" />
    <glyph glyph-name="nyauuvowelsigntamil" horiz-adv-x="1639" 
d="M257 -12q-58 0 -104 26.5t-73 82t-27 141.5q0 81 28 141t78 98q33 28 75 45t99 25.5t135 8.5h49l-3 -82h-72q-60 0 -100 -6.5t-66.5 -18.5t-46.5 -29q-39 -32 -60 -79.5t-21 -110.5q0 -58 14 -94t38.5 -53t57.5 -17q25 0 43 11t28.5 31.5t10.5 50.5q0 46 -24.5 70.5
t-63.5 24.5q-41 0 -75.5 -22t-62.5 -53l-17 74q32 35 77 58t99 23q74 0 120 -43.5t46 -122.5q0 -56 -21.5 -96.5t-62 -62t-98.5 -21.5zM540 0v474h-39l4 82h302v-82h-162v-474h-105zM754 324q58 0 101 -27.5t66.5 -79t23.5 -124.5q0 -55 -12.5 -101t-36.5 -86l-28 -51
q-53 -62 -133 -101t-176.5 -57t-199.5 -18h-30q-60 0 -113 9t-93.5 28t-63.5 49t-23 71q0 23 8.5 39.5t24.5 27.5q15 10 35.5 14.5t67.5 4.5h321l-4 -79h-320q-13 0 -23.5 -3.5t-10.5 -18.5q0 -26 49.5 -44t148.5 -18h28q83 0 153 10t127.5 32t102.5 57l39 53q27 35 41.5 81
t14.5 102q0 47 -12.5 79.5t-36 50t-58.5 17.5q-32 0 -58 -13.5t-49 -31.5l-1 85q21 16 54 29.5t76 13.5zM1622 556v-83h-164v-633h-104v633h-167v-633h-365l-77 3h-282l-3 79h622v634h540z" />
    <glyph glyph-name="ttaivowelsigntamil" horiz-adv-x="819" 
d="M85 0v556h105v-474h612v-82h-717zM506 474q45 0 77 -14t51.5 -37.5t28 -53t8.5 -61.5q0 -46 -9.5 -94t-22.5 -95l-114 -403l-95 26l78 270l3 17l20 72q17 54 26.5 102.5t9.5 99.5q0 42 -16 65.5t-48 23.5q-35 0 -56.5 -27t-21.5 -78q0 -45 16.5 -85.5t44 -75t57.5 -64.5
l-81 -44q-36 40 -67 82t-49.5 89.5t-18.5 105.5q0 50 20 90t60.5 64.5t98.5 24.5z" />
    <glyph glyph-name="ttaiivowelsigntamil" horiz-adv-x="819" 
d="M85 0v556h105v-474h612v-82h-717zM565 475q60 0 100 -17.5t60.5 -47t20.5 -68.5q0 -63 -40 -96t-100 -33q-44 0 -74.5 14.5t-47 42t-16.5 63.5q0 26 12 58.5t39 60.5l61 -24q-16 -19 -26 -39.5t-10 -42.5q0 -20 7.5 -33t21 -19t31.5 -6q28 0 42.5 15t14.5 39
q0 33 -26.5 46.5t-66.5 13.5q-9 0 -20 -0.5t-20 -2.5q-43 -6 -71.5 -28.5t-42.5 -55.5t-14 -72q0 -60 26 -108t69 -81l-75 -43q-35 30 -61 65t-40.5 76.5t-14.5 91.5q0 43 15.5 84.5t47.5 74t81.5 52.5t116.5 20z" />
    <glyph glyph-name="ttauvowelsigntamil" horiz-adv-x="1054" 
d="M439 -301q-91 0 -160.5 35.5t-116.5 102.5t-71 162.5t-24 214.5v24q0 116 23.5 212t68 169.5t107 123.5t140 76t168.5 26q87 0 151 -21t111 -60q36 -29 61.5 -66.5t41 -85.5t23 -108.5t7.5 -138.5v-365h-105v330q0 81 -8 152t-31 128t-69 93q-32 26 -78 41.5t-108 15.5
t-121 -19.5t-109 -59.5t-88.5 -103.5t-60 -151.5t-21.5 -202q0 -120 19 -204t54.5 -136t84.5 -76t108 -24q61 0 104 19t69.5 54.5t39 85t12.5 111.5q0 70 -12.5 111t-36.5 58.5t-58 17.5q-31 0 -57.5 -13.5t-48.5 -31.5l-1 85q20 16 52.5 29.5t73.5 13.5q58 0 102 -28
t68 -86t24 -149q0 -100 -24.5 -169.5t-69 -112t-104 -61.5t-130.5 -19zM361 0v556h106v-556h-106z" />
    <glyph glyph-name="ttauuvowelsigntamil" horiz-adv-x="944" 
d="M438 -301q-90 0 -160 35.5t-116.5 103t-70.5 163t-24 214.5v22q0 117 24 212.5t69 169t108.5 124t143 76.5t171.5 26q88 0 154 -21.5t109.5 -60t65 -89.5t21.5 -109q0 -68 -25 -110t-64.5 -61.5t-83.5 -19.5q-51 0 -88.5 20t-57 54t-19.5 76q0 36 12 63.5t33.5 46.5
t49.5 28.5t60 9.5q35 0 65 -13.5t52.5 -33.5t35.5 -39l-15 -70q-26 40 -56 61.5t-67 21.5q-34 0 -54.5 -19.5t-20.5 -54.5q0 -22 8.5 -38.5t25 -25t38.5 -8.5q42 0 60.5 32.5t18.5 80.5v23t-3 23q-14 46 -47 79t-85.5 50.5t-125.5 17.5q-65 0 -125.5 -19t-111.5 -59
t-90 -103.5t-61 -151.5t-22 -202q0 -120 19.5 -204t55 -136t84 -76t107.5 -24q61 0 104 19t69.5 54.5t39 85t12.5 111.5q0 70 -12.5 111t-36.5 58.5t-58 17.5q-31 0 -57.5 -13.5t-48.5 -31.5l-1 85q20 16 52.5 29.5t73.5 13.5q58 0 102 -28t68 -86t24 -149
q0 -100 -24.5 -169.5t-69 -112t-104.5 -61.5t-131 -19zM361 0v556h106v-556h-106z" />
    </font>
</defs>
</svg>
