<?xml version="1.0" standalone="no"?>
<!DOCTYPE svg PUBLIC "-//W3C//DTD SVG 1.1//EN" "http://www.w3.org/Graphics/SVG/1.1/DTD/svg11.dtd" >
<svg xmlns="http://www.w3.org/2000/svg" xmlns:xlink="http://www.w3.org/1999/xlink" version="1.1">
<metadata>
Created by FontForge 20201107 at Mon Mar 27 11:46:49 2023
 By 
Copyright 2022 The Noto Project Authors (https://github.com/notofonts/tamil)
</metadata>
<defs>
<font id="NotoSansTamil-SemiBold" horiz-adv-x="0" >
  <font-face 
    font-family="Noto Sans Tamil SemiBold"
    font-weight="600"
    font-stretch="normal"
    units-per-em="1000"
    panose-1="0 0 0 0 0 0 0 0 0 0"
    ascent="800"
    descent="-200"
    x-height="542"
    cap-height="714"
    bbox="-604 -321 2367 1001"
    underline-thickness="50"
    underline-position="-125"
    unicode-range="U+000D-1133C"
  />
<missing-glyph horiz-adv-x="600" 
d="M94 0v714h411v-714h-411zM145 51h309v612h-309v-612z" />
    <glyph glyph-name=".notdef" horiz-adv-x="600" 
d="M94 0v714h411v-714h-411zM145 51h309v612h-309v-612z" />
    <glyph glyph-name=".null" 
 />
    <glyph glyph-name="nonmarkingreturn" horiz-adv-x="333" 
 />
    <glyph glyph-name="NULL" 
 />
    <glyph glyph-name="CR" unicode="&#xd;" horiz-adv-x="260" 
 />
    <glyph glyph-name="space" unicode=" " horiz-adv-x="260" 
 />
    <glyph glyph-name="exclam.tamil" unicode="!" horiz-adv-x="292" 
d="M99 223l-25 491h145l-25 -491h-95zM146 -13q-33 0 -55 18.5t-22 59.5q0 40 21.5 58.5t55.5 18.5q33 0 54.5 -18.5t21.5 -58.5t-22 -59t-54 -19z" />
    <glyph glyph-name="quotedbl.tamil" unicode="&#x22;" horiz-adv-x="459" 
d="M91 542l-22 258h127l-22 -258h-83zM285 542l-22 258h127l-22 -258h-83z" />
    <glyph glyph-name="numbersign.tamil" unicode="#" horiz-adv-x="658" 
d="M112 0l38 202h-121v88h137l26 131h-127v89h143l39 203h94l-39 -203h114l39 203h92l-39 -203h121v-89h-137l-26 -131h129v-88h-146l-39 -202h-93l38 202h-112l-38 -202h-93zM259 290h114l25 131h-113z" />
    <glyph glyph-name="dollar" unicode="$" horiz-adv-x="572" 
d="M253 43q-61 2 -112.5 12t-89.5 27v112q38 -18 94 -33t108 -17v170q-73 26 -117.5 52.5t-65 61t-20.5 82.5q0 50 25.5 86t71.5 57.5t106 25.5v80h66v-78q55 -2 102 -13t90 -29l-39 -99q-37 15 -76.5 24.5t-76.5 12.5v-166q58 -19 105.5 -42t75 -57.5t27.5 -89.5
q0 -72 -53 -119t-155 -57v-104h-66v101zM319 148q43 6 63.5 23t20.5 44q0 18 -8.5 31t-27 23.5t-48.5 20.5v-142zM253 575q-26 -3 -43.5 -11t-26.5 -21t-9 -30q0 -18 7.5 -31.5t25 -24.5t46.5 -21v139z" />
    <glyph glyph-name="percent.tamil" unicode="%" horiz-adv-x="875" 
d="M188 0l396 714h102l-396 -714h-102zM197 276q-77 0 -118 59t-41 166q0 108 38.5 165.5t120.5 57.5q80 0 122 -58t42 -165q0 -108 -40 -166.5t-124 -58.5zM198 363q30 0 44 34t14 103t-14 103t-44 34q-29 0 -42.5 -34t-13.5 -103q0 -68 13.5 -102.5t42.5 -34.5zM674 -10
q-77 0 -118.5 59t-41.5 166q0 108 38.5 165.5t121.5 57.5q79 0 121 -58.5t42 -164.5q0 -108 -40 -166.5t-123 -58.5zM674 77q30 0 44.5 34t14.5 103t-14.5 103t-44.5 34q-29 0 -42.5 -34t-13.5 -103t13.5 -103t42.5 -34z" />
    <glyph glyph-name="ampersand" unicode="&#x26;" horiz-adv-x="743" 
d="M308 724q56 0 98.5 -18t67 -52.5t24.5 -83.5q0 -67 -41 -113t-102 -81l159 -154q22 33 37.5 71.5t26.5 79.5h130q-16 -59 -43 -119.5t-69 -110.5l146 -143h-159l-68 66q-29 -23 -63.5 -40t-74 -26.5t-86.5 -9.5q-76 0 -131.5 24.5t-85 69.5t-29.5 106q0 51 16.5 88t48 65
t75.5 52q-25 28 -42 54.5t-26 54t-9 59.5q0 50 25 86.5t70 55.5t105 19zM259 319q-26 -16 -44 -33.5t-28 -38t-10 -47.5q0 -47 34 -75t87 -28q45 0 79.5 13t60.5 33zM306 626q-31 0 -55 -16.5t-24 -52.5q0 -29 14.5 -55t41.5 -55q49 27 72.5 53t23.5 60q0 32 -21.5 49
t-51.5 17z" />
    <glyph glyph-name="quotesingle.tamil" unicode="'" horiz-adv-x="264" 
d="M91 542l-22 258h127l-22 -258h-83z" />
    <glyph glyph-name="parenleft.tamil" unicode="(" horiz-adv-x="338" 
d="M54 282q0 92 16.5 186t49.5 180t82 152h106q-43 -70 -74.5 -156t-48.5 -178.5t-17 -184.5q0 -91 16 -183t47.5 -179t77.5 -163h-107q-50 71 -83 157.5t-49 181t-16 187.5z" />
    <glyph glyph-name="parenright.tamil" unicode=")" horiz-adv-x="338" 
d="M285 274q0 -91 -16.5 -185.5t-50 -180.5t-81.5 -152h-107q45 71 76 156.5t47.5 178t16.5 184.5q0 91 -15.5 183t-46.5 179t-78 163h107q50 -71 82.5 -157.5t49 -181t16.5 -187.5z" />
    <glyph glyph-name="asterisk.tamil" unicode="*" horiz-adv-x="552" 
d="M334 800l-20 -184l186 52l15 -112l-174 -13l114 -150l-102 -54l-79 162l-72 -162l-105 54l113 150l-173 13l17 112l183 -52l-20 184h117z" />
    <glyph glyph-name="plus.tamil" unicode="+" horiz-adv-x="572" 
d="M239 111v195h-193v93h193v197h94v-197h192v-93h-192v-195h-94z" />
    <glyph glyph-name="comma.tamil" unicode="," horiz-adv-x="275" 
d="M202 116l7 -11q-9 -35 -23 -75.5t-30 -81t-33 -77.5h-92q10 40 19 83.5t17 85.5t13 76h122z" />
    <glyph glyph-name="hyphen.tamil" unicode="-" horiz-adv-x="322" 
d="M34 250v106h254v-106h-254z" />
    <glyph glyph-name="period.tamil" unicode="." horiz-adv-x="279" 
d="M139 -13q-32 0 -54 18.5t-22 59.5q0 43 22 60t54 17q33 0 55 -17t22 -60q0 -41 -22 -59.5t-55 -18.5z" />
    <glyph glyph-name="slash.tamil" unicode="/" horiz-adv-x="414" 
d="M19 -244l266 1044h110l-266 -1044h-110z" />
    <glyph glyph-name="zero.tamil" unicode="0" horiz-adv-x="572" 
d="M285 -11q-82 0 -136.5 43.5t-81 125.5t-26.5 199q0 119 24.5 201t79 124.5t140.5 42.5q83 0 137 -43t81 -125t27 -200q0 -89 -13.5 -157.5t-43 -115t-76 -71t-112.5 -24.5zM285 94q37 0 60.5 19t36 54.5t17.5 84t5 105.5t-5 105t-18 83.5t-36.5 55.5t-59.5 20t-59.5 -20
t-35.5 -55.5t-17 -83.5t-5 -105q0 -60 5 -108.5t18 -83t36 -53t58 -18.5z" />
    <glyph glyph-name="one.tamil" unicode="1" horiz-adv-x="572" 
d="M392 0h-127v445q0 32 1.5 69.5t2.5 65.5q-6 -6 -20 -19.5t-27 -23.5l-88 -72l-63 78l216 171h105v-714z" />
    <glyph glyph-name="two.tamil" unicode="2" horiz-adv-x="572" 
d="M43 0v93l182 184q55 55 89 94t50.5 73.5t16.5 74.5q0 32 -12.5 54t-35 33.5t-54.5 11.5q-45 0 -83.5 -18.5t-81.5 -53.5l-69 83q32 28 68 49t78.5 33.5t94.5 12.5q68 0 117.5 -24t77 -67t27.5 -101t-23.5 -106.5t-67 -96.5t-101.5 -105l-114 -109v-6h330v-109h-489z" />
    <glyph glyph-name="three.tamil" unicode="3" horiz-adv-x="572" 
d="M243 -11q-59 0 -109.5 10t-92.5 29v111q46 -23 97 -35t96 -12q84 0 121.5 31t37.5 89q0 35 -18 58.5t-58 35t-107 11.5h-59v101h60q63 0 99.5 14t52 39t15.5 58q0 42 -27.5 66.5t-84.5 24.5q-52 0 -90.5 -16t-72.5 -39l-60 88q46 32 101.5 51.5t127.5 19.5q69 0 121 -19
t82 -58t30 -96q0 -47 -19.5 -82.5t-53.5 -58.5t-79 -34v-3q85 -10 129 -53t44 -114q0 -68 -33 -116.5t-96 -74.5t-154 -26z" />
    <glyph glyph-name="four.tamil" unicode="4" horiz-adv-x="572" 
d="M338 0v153h-319v94l321 469h121v-460h93v-103h-93v-153h-123zM134 256h204v160q0 22 0.5 52t2 58.5t2.5 45.5h-4q-8 -19 -18.5 -38.5t-24.5 -39.5z" />
    <glyph glyph-name="five.tamil" unicode="5" horiz-adv-x="572" 
d="M244 -11q-57 0 -106 10t-84 29v113q39 -21 90.5 -34t96.5 -13q49 0 83 14.5t52 43t18 71.5q0 61 -39 91.5t-118 30.5q-28 0 -58 -4.5t-55 -10.5l-54 30l26 354h377v-110h-266l-14 -165q22 4 44.5 7t53.5 3q66 0 118.5 -24.5t82.5 -72t30 -118.5q0 -77 -32.5 -132
t-94.5 -84t-151 -29z" />
    <glyph glyph-name="six.tamil" unicode="6" horiz-adv-x="572" 
d="M296 -11q-58 0 -105 21.5t-80 62.5t-51 99t-18 132q0 70 10.5 132.5t34.5 115t64 91t99 59.5t138 21q23 0 49 -1.5t44 -6.5v-103q-18 5 -40 7.5t-46 2.5q-84 0 -134 -29t-73 -84.5t-26 -134.5h6q15 26 37.5 44.5t53 29t69.5 10.5q64 0 110 -27t70.5 -77t24.5 -119
q0 -75 -28 -130.5t-81.5 -85.5t-127.5 -30zM294 93q53 0 84.5 35.5t31.5 104.5q0 60 -28.5 93t-84.5 33q-38 0 -66.5 -16t-45 -41.5t-16.5 -53.5q0 -29 8.5 -56.5t24 -50t39 -35.5t53.5 -13z" />
    <glyph glyph-name="seven.tamil" unicode="7" horiz-adv-x="572" 
d="M121 0l277 604h-365v109h500v-84l-278 -629h-134z" />
    <glyph glyph-name="eight.tamil" unicode="8" horiz-adv-x="572" 
d="M287 -11q-75 0 -130 22t-85.5 64.5t-30.5 105.5q0 46 17.5 81.5t49.5 63t74 47.5q-36 22 -63 48t-41.5 58.5t-14.5 73.5q0 58 31.5 96t82.5 56.5t109 18.5q60 0 110.5 -18.5t81.5 -56.5t31 -97q0 -40 -16 -72t-45.5 -57t-69.5 -46q40 -20 75 -46.5t56.5 -62t21.5 -83.5
q0 -62 -32 -106t-87 -67t-125 -23zM285 85q58 0 92 26.5t34 75.5q0 28 -15 51t-42 41.5t-63 34.5l-15 7q-37 -16 -63 -36.5t-39.5 -44t-13.5 -54.5q0 -45 32 -73t93 -28zM288 429q30 14 52.5 30t35 37t12.5 48q0 42 -30 63t-73 21q-45 0 -73 -22t-28 -62q0 -29 14 -50
t37.5 -35.5t52.5 -29.5z" />
    <glyph glyph-name="nine.tamil" unicode="9" horiz-adv-x="572" 
d="M183 -11q-20 0 -48 2t-46 6v104q20 -5 42 -8t45 -3q64 0 107.5 16.5t70 48.5t40 78t15.5 105h-6q-15 -24 -37 -43t-52 -29.5t-73 -10.5q-63 0 -108.5 27t-70 76.5t-24.5 118.5q0 76 28.5 131t82.5 85t126 30q58 0 105 -21.5t80.5 -62t51 -98t17.5 -130.5
q0 -70 -10.5 -134t-34.5 -116.5t-64 -91t-98.5 -59.5t-138.5 -21zM274 354q38 0 66.5 16t45 41.5t16.5 53.5t-8 55.5t-24 50t-39 36t-54 13.5q-52 0 -83.5 -35.5t-31.5 -105.5q0 -59 28 -92t84 -33z" />
    <glyph glyph-name="colon.tamil" unicode=":" horiz-adv-x="279" 
d="M139 -13q-32 0 -54 18.5t-22 59.5q0 43 22 60t54 17q33 0 55 -17t22 -60q0 -41 -22 -59.5t-55 -18.5zM139 399q-32 0 -54 18t-22 59q0 43 22 60.5t54 17.5q33 0 55 -17t22 -61q0 -41 -22 -59t-55 -18z" />
    <glyph glyph-name="semicolon.tamil" unicode=";" horiz-adv-x="282" 
d="M202 116l7 -11q-9 -35 -23 -75.5t-30 -81t-33 -77.5h-92q10 40 19 83.5t17 85.5t13 76h122zM139 399q-32 0 -54 18t-22 59q0 43 22 60.5t54 17.5q33 0 55 -17t22 -61q0 -41 -22 -59t-55 -18z" />
    <glyph glyph-name="less.tamil" unicode="&#x3c;" horiz-adv-x="572" 
d="M525 105l-479 212v62l479 240v-103l-349 -163l349 -145v-103z" />
    <glyph glyph-name="equal.tamil" unicode="=" horiz-adv-x="572" 
d="M48 204v93h475v-93h-475zM48 407v93h475v-93h-475z" />
    <glyph glyph-name="greater.tamil" unicode="&#x3e;" horiz-adv-x="572" 
d="M46 105v103l350 144l-350 164v103l479 -240v-62z" />
    <glyph glyph-name="question.tamil" unicode="?" horiz-adv-x="460" 
d="M232 724q98 0 150 -49t52 -130q0 -42 -10.5 -71.5t-33 -56t-58.5 -58.5q-29 -26 -45.5 -44t-23 -34t-6.5 -36v-21h-106v29q0 32 8.5 58.5t28.5 51t53 51.5q29 24 45 42.5t22 38t6 45.5q0 37 -27 58.5t-70 21.5q-36 0 -69.5 -9.5t-68.5 -27.5l-42 93q46 23 92 35.5
t103 12.5zM209 -13q-32 0 -54.5 18.5t-22.5 59.5q0 43 22.5 60t54.5 17t54.5 -17t22.5 -60q0 -41 -22.5 -59.5t-54.5 -18.5z" />
    <glyph glyph-name="at" unicode="@" horiz-adv-x="898" 
d="M845 358q0 -46 -11 -91t-33.5 -81t-55.5 -57.5t-78 -21.5q-41 0 -68.5 20.5t-36.5 51.5h-6q-20 -30 -54 -51t-83 -21q-84 0 -130 52.5t-46 137.5q0 67 28 118t79 80.5t120 29.5q46 0 93.5 -8t73.5 -18l-10 -204q-1 -13 -1 -22.5v-12.5q0 -45 14.5 -60t32.5 -15
q26 0 43.5 24t26.5 63t9 87q0 87 -35.5 148t-96.5 93t-139 32q-82 0 -144 -26t-104.5 -72.5t-64 -109.5t-21.5 -138q0 -93 33.5 -157.5t98 -98t158.5 -33.5q59 0 119 13t109 31v-84q-46 -19 -103 -31t-123 -12q-122 0 -208 44t-132 126.5t-46 198.5q0 92 29.5 170.5
t85.5 137t135 91t177 32.5q79 0 146 -24.5t116 -71t76 -112t27 -148.5zM343 295q0 -58 24 -84t64 -26q52 0 74 38.5t26 100.5l6 115q-12 3 -28 5t-35 2q-48 0 -77 -22t-41.5 -56.5t-12.5 -72.5z" />
    <glyph glyph-name="A" unicode="A" horiz-adv-x="671" 
d="M534 0l-65 189h-269l-64 -189h-136l262 717h146l262 -717h-136zM374 483q-4 14 -12 38t-15.5 49.5t-11.5 42.5q-5 -20 -12.5 -46t-14 -49t-10.5 -35l-63 -184h201z" />
    <glyph glyph-name="B" unicode="B" horiz-adv-x="664" 
d="M308 714q139 0 210.5 -40t71.5 -139q0 -41 -14 -74t-40.5 -54t-65.5 -28v-5q40 -7 71.5 -25.5t50 -53t18.5 -90.5q0 -65 -31 -111t-88.5 -70t-136.5 -24h-261v714h215zM325 423q76 0 104.5 24t28.5 71q0 48 -34 69t-109 21h-94v-185h104zM221 320v-213h116q78 0 108.5 30
t30.5 80q0 32 -13 55t-45 35.5t-87 12.5h-110z" />
    <glyph glyph-name="C" unicode="C" horiz-adv-x="635" 
d="M397 616q-49 0 -87 -18t-64.5 -52t-40 -82t-13.5 -108q0 -81 22 -138.5t67.5 -88.5t114.5 -31q46 0 88.5 9.5t89.5 25.5v-109q-44 -18 -88.5 -26t-102.5 -8q-110 0 -182 45.5t-107 128t-35 193.5q0 81 22.5 148t65 116t105.5 76t145 27q54 0 106.5 -12.5t98.5 -34.5
l-44 -105q-38 17 -78.5 30.5t-82.5 13.5z" />
    <glyph glyph-name="D" unicode="D" horiz-adv-x="736" 
d="M677 364q0 -120 -45.5 -201t-131 -122t-206.5 -41h-201v714h222q111 0 192 -40t125.5 -117.5t44.5 -192.5zM543 360q0 85 -26 140t-77 81.5t-125 26.5h-94v-501h77q124 0 184.5 63.5t60.5 189.5z" />
    <glyph glyph-name="E" unicode="E" horiz-adv-x="558" 
d="M499 0h-406v714h406v-107h-278v-182h260v-107h-260v-210h278v-108z" />
    <glyph glyph-name="F" unicode="F" horiz-adv-x="538" 
d="M219 0h-126v714h405v-107h-279v-210h260v-107h-260v-290z" />
    <glyph glyph-name="G" unicode="G" horiz-adv-x="726" 
d="M378 392h270v-363q-57 -19 -117 -29t-136 -10q-108 0 -183 43t-114 125t-39 200q0 112 44 194t126.5 127t201.5 45q58 0 112.5 -11.5t99.5 -31.5l-44 -105q-34 17 -78.5 28.5t-92.5 11.5q-73 0 -126 -32t-81.5 -90.5t-28.5 -137.5q0 -76 22 -134.5t70 -91t125 -32.5
q38 0 64.5 3.5t48.5 9.5v172h-144v109z" />
    <glyph glyph-name="H" unicode="H" horiz-adv-x="756" 
d="M663 0h-128v317h-314v-317h-128v714h128v-288h314v288h128v-714z" />
    <glyph glyph-name="I" unicode="I" horiz-adv-x="370" 
d="M335 0h-300v73l86 32v503l-86 33v73h300v-73l-86 -33v-503l86 -32v-73z" />
    <glyph glyph-name="J" unicode="J" horiz-adv-x="309" 
d="M8 -202q-28 0 -48 3.5t-36 7.5v107q16 -4 34 -7t38 -3q25 0 47 10t35 37t13 77v684h128v-681q0 -84 -26.5 -135.5t-74 -75.5t-110.5 -24z" />
    <glyph glyph-name="K" unicode="K" horiz-adv-x="647" 
d="M647 0h-147l-212 316l-67 -53v-263h-128v714h128v-336q20 25 41 51l42 52l193 233h145l-262 -314z" />
    <glyph glyph-name="L" unicode="L" horiz-adv-x="550" 
d="M93 0v714h128v-606h298v-108h-426z" />
    <glyph glyph-name="M" unicode="M" horiz-adv-x="929" 
d="M400 0l-196 585h-4q1 -20 3 -56.5t3.5 -79t1.5 -79.5v-370h-115v714h178l188 -561h4l196 561h178v-714h-122v376q0 34 1.5 74.5t3 77t2.5 56.5h-4l-204 -584h-114z" />
    <glyph glyph-name="N" unicode="N" horiz-adv-x="793" 
d="M700 0h-159l-338 560h-4q2 -30 3.5 -63t3 -67.5t2.5 -69.5v-360h-115v714h158l337 -556h3q-1 26 -2 59t-2.5 67.5t-2.5 66.5v363h116v-714z" />
    <glyph glyph-name="O" unicode="O" horiz-adv-x="790" 
d="M731 358q0 -83 -20.5 -150.5t-62 -116.5t-105 -75t-148.5 -26q-86 0 -149.5 26.5t-104.5 75t-61.5 116.5t-20.5 151q0 111 36.5 193t111 127.5t189.5 45.5q113 0 187 -45.5t111 -128t37 -193.5zM194 358q0 -81 21.5 -139t66 -89t113.5 -31q71 0 115 31t65 89t21 139
q0 121 -47 190t-153 69q-70 0 -114.5 -31t-66 -89t-21.5 -139z" />
    <glyph glyph-name="P" unicode="P" horiz-adv-x="619" 
d="M306 714q139 0 202.5 -58t63.5 -160q0 -46 -14 -87.5t-47 -74.5t-86.5 -52t-132.5 -19h-71v-263h-128v714h213zM298 608h-77v-239h58q52 0 88.5 12.5t55.5 39.5t19 70q0 59 -35 88t-109 29z" />
    <glyph glyph-name="Q" unicode="Q" horiz-adv-x="790" 
d="M731 358q0 -83 -20.5 -150.5t-62 -116.5t-105.5 -74l172 -187h-170l-133 160h-8.5h-8.5q-86 0 -149.5 26.5t-104.5 75t-61.5 116.5t-20.5 151q0 111 36.5 193t111 127.5t189.5 45.5q113 0 187 -45.5t111 -128t37 -193.5zM194 358q0 -81 21.5 -139t66 -89t113.5 -31
q71 0 115 31t65 89t21 139q0 121 -47 190t-153 69q-70 0 -114.5 -31t-66 -89t-21.5 -139z" />
    <glyph glyph-name="R" unicode="R" horiz-adv-x="646" 
d="M296 714q94 0 155 -23t91 -69.5t30 -117.5q0 -52 -19.5 -89t-50.5 -61.5t-67 -39.5l205 -314h-144l-171 282h-104v-282h-128v714h203zM288 607h-67v-220h71q79 0 114.5 28.5t35.5 84.5q0 39 -17 62.5t-50.5 34t-86.5 10.5z" />
    <glyph glyph-name="S" unicode="S" horiz-adv-x="550" 
d="M508 195q0 -63 -31 -109t-89.5 -71t-139.5 -25q-39 0 -74.5 4.5t-67 13.5t-58.5 22v120q45 -20 99 -36.5t110 -16.5q43 0 70.5 11.5t40.5 32t13 47.5q0 30 -17 51t-50 39t-82 38q-33 14 -64.5 31.5t-56.5 42.5t-40 59t-15 80q0 61 29.5 105t83 67t124.5 23q57 0 107 -12
t99 -34l-41 -103q-44 19 -85 30t-84 11q-34 0 -58 -10.5t-36 -29.5t-12 -44q0 -29 15 -49t46.5 -37.5t81.5 -39.5q58 -25 98 -52t62 -65t22 -94z" />
    <glyph glyph-name="T" unicode="T" horiz-adv-x="570" 
d="M349 0h-128v606h-205v108h538v-108h-205v-606z" />
    <glyph glyph-name="U" unicode="U" horiz-adv-x="747" 
d="M659 252q0 -74 -31.5 -133.5t-95.5 -94t-162 -34.5q-139 0 -211 72.5t-72 191.5v460h128v-447q0 -87 40 -127.5t119 -40.5q56 0 90.5 19t51 57.5t16.5 92.5v446h127v-462z" />
    <glyph glyph-name="V" unicode="V" horiz-adv-x="631" 
d="M631 714l-247 -714h-137l-247 714h131l144 -437q7 -18 14.5 -46.5t15 -58t11.5 -52.5q3 23 10.5 52.5t15.5 58t14 46.5l144 437h131z" />
    <glyph glyph-name="W" unicode="W" horiz-adv-x="953" 
d="M948 714l-185 -714h-141l-113 410q-4 15 -9 37t-10.5 45.5t-9.5 44t-5 30.5q-1 -10 -5 -30.5t-9 -44t-10 -46t-10 -38.5l-110 -408h-142l-184 714h128l98 -407q5 -20 10 -43.5t10 -48t9 -48t6 -41.5q2 19 6 42.5t9 48t10 47t10 38.5l112 412h124l114 -413
q5 -17 10.5 -39.5t10.5 -47t8.5 -47.5t6.5 -41q3 25 8.5 57t13 65t13.5 59l98 407h128z" />
    <glyph glyph-name="X" unicode="X" horiz-adv-x="636" 
d="M635 0h-146l-175 285l-176 -285h-136l237 370l-222 344h141l162 -266l161 266h137l-223 -349z" />
    <glyph glyph-name="Y" unicode="Y" horiz-adv-x="602" 
d="M301 399l163 315h138l-237 -436v-278h-128v273l-237 441h139z" />
    <glyph glyph-name="Z" unicode="Z" horiz-adv-x="576" 
d="M547 0h-518v87l355 519h-345v108h498v-87l-354 -519h364v-108z" />
    <glyph glyph-name="bracketleft.tamil" unicode="[" horiz-adv-x="332" 
d="M73 -244v1044h222v-90h-111v-864h111v-90h-222z" />
    <glyph glyph-name="backslash.tamil" unicode="\" horiz-adv-x="414" 
d="M285 -244l-266 1044h110l266 -1044h-110z" />
    <glyph glyph-name="bracketright.tamil" unicode="]" horiz-adv-x="334" 
d="M38 -244v90h110v864h-110v90h221v-1044h-221z" />
    <glyph glyph-name="asciicircum.tamil" unicode="^" horiz-adv-x="606" 
d="M34 259l230 459h62l246 -459h-103l-172 331l-162 -331h-101z" />
    <glyph glyph-name="underscore.tamil" unicode="_" horiz-adv-x="423" 
d="M-2 -156v66h427v-66h-427z" />
    <glyph glyph-name="grave" unicode="`" horiz-adv-x="331" 
d="M184 766q13 -22 32 -49.5t39.5 -53t35.5 -44.5v-13h-83q-19 13 -42.5 32.5t-48 41.5t-45 42t-32.5 34v10h144z" />
    <glyph glyph-name="a" unicode="a" horiz-adv-x="588" 
d="M297 552q105 0 159.5 -45.5t54.5 -142.5v-364h-89l-25 75h-4q-23 -29 -47.5 -48.5t-56 -28t-76.5 -8.5q-48 0 -86.5 18t-60.5 55.5t-22 94.5q0 84 61.5 126.5t186.5 46.5l94 3v27q0 52 -25 74t-70 22q-41 0 -79 -12t-74 -28l-40 88q40 21 91.5 34t107.5 13zM320 254
q-83 -3 -115 -28.5t-32 -68.5q0 -38 23 -55t59 -17q55 0 93 31.5t38 93.5v46z" />
    <glyph glyph-name="b" unicode="b" horiz-adv-x="626" 
d="M207 580q0 -32 -2 -62t-4 -47h6q22 34 60 57.5t99 23.5q95 0 153 -71t58 -209q0 -93 -26.5 -156t-75 -94.5t-112.5 -31.5q-61 0 -97.5 22t-58.5 51h-9l-23 -63h-94v760h126v-180zM330 450q-46 0 -72.5 -18t-38.5 -55t-12 -94v-11q0 -87 26.5 -133t98.5 -46q56 0 86 46.5
t30 133.5q0 88 -30.5 132.5t-87.5 44.5z" />
    <glyph glyph-name="c" unicode="c" horiz-adv-x="501" 
d="M300 -10q-77 0 -133.5 29.5t-87 91t-30.5 157.5q0 100 33.5 162.5t92.5 92t135 29.5q51 0 91 -10t68 -24l-37 -99q-31 12 -62 20.5t-60 8.5q-45 0 -74.5 -20t-43.5 -59.5t-14 -99.5q0 -58 14.5 -97t43.5 -58.5t72 -19.5q46 0 81 11t66 30v-109q-31 -19 -66.5 -27.5
t-88.5 -8.5z" />
    <glyph glyph-name="d" unicode="d" horiz-adv-x="626" 
d="M260 -10q-94 0 -152.5 70.5t-58.5 209.5t59 210.5t155 71.5q40 0 70.5 -10.5t52.5 -28.5t37 -40h6q-3 14 -6 43t-3 54v190h126v-760h-98l-23 71h-5q-15 -22 -37 -40.5t-52 -29.5t-71 -11zM298 92q70 0 99 40t29 121v16q0 88 -27.5 134t-102.5 46q-57 0 -88 -47.5
t-31 -133.5t31 -131t90 -45z" />
    <glyph glyph-name="e" unicode="e" horiz-adv-x="581" 
d="M299 552q73 0 125.5 -29.5t81.5 -84t29 -132.5v-64h-358q2 -74 41 -114.5t108 -40.5q53 0 94.5 10.5t85.5 30.5v-101q-40 -19 -83 -28t-103 -9q-79 0 -140.5 30.5t-96 92.5t-34.5 154q0 93 31.5 156.5t87.5 96t131 32.5zM299 459q-50 0 -81.5 -32.5t-37.5 -96.5h233
q0 38 -12.5 67t-37.5 45.5t-64 16.5z" />
    <glyph glyph-name="f" unicode="f" horiz-adv-x="371" 
d="M362 447h-131v-447h-126v447h-87v60l87 36v37q0 70 22 110t64 57.5t99 17.5q40 0 72 -6.5t53 -14.5l-32 -94q-17 5 -37.5 9.5t-44.5 4.5q-36 0 -53 -23t-17 -64v-35h131v-95z" />
    <glyph glyph-name="g" unicode="g" horiz-adv-x="626" 
d="M263 552q51 0 92 -20t69 -60h5l12 70h105v-546q0 -77 -29 -129.5t-87 -79.5t-145 -27q-58 0 -107 7.5t-93 25.5v104q46 -20 98.5 -31t109.5 -11q62 0 94.5 35t32.5 100v14q0 15 1.5 35t2.5 32h-4q-28 -42 -68 -61.5t-92 -19.5q-99 0 -155 74t-56 206t57 207t157 75z
M296 449q-38 0 -64.5 -20.5t-40 -60.5t-13.5 -100q0 -88 30 -133t90 -45q34 0 58 8.5t39.5 28t23.5 50t8 73.5v19q0 65 -14 104.5t-42.5 57.5t-74.5 18z" />
    <glyph glyph-name="h" unicode="h" horiz-adv-x="642" 
d="M207 579q0 -32 -2.5 -62.5t-4.5 -45.5h8q17 28 42 45.5t55.5 26.5t63.5 9q61 0 105 -21t67.5 -64.5t23.5 -113.5v-353h-126v328q0 62 -24 92t-76 30q-50 0 -79 -21.5t-41 -63t-12 -101.5v-264h-126v760h126v-181z" />
    <glyph glyph-name="i" unicode="i" horiz-adv-x="287" 
d="M207 542v-542h-126v542h126zM144 751q28 0 49 -14.5t21 -51.5q0 -36 -21 -51.5t-49 -15.5q-29 0 -49.5 15.5t-20.5 51.5q0 37 20.5 51.5t49.5 14.5z" />
    <glyph glyph-name="j" unicode="j" horiz-adv-x="287" 
d="M29 -240q-25 0 -49 3.5t-41 8.5v100q17 -4 33 -7t36 -3q31 0 52 17.5t21 66.5v596h126v-609q0 -50 -18 -89t-57 -61.5t-103 -22.5zM74 685q0 37 20.5 51.5t49.5 14.5q28 0 49 -14.5t21 -51.5q0 -36 -21 -51.5t-49 -15.5q-29 0 -49.5 15.5t-20.5 51.5z" />
    <glyph glyph-name="k" unicode="k" horiz-adv-x="588" 
d="M206 399q0 -26 -2 -54.5t-4 -55.5h3q8 12 19 26.5t22.5 29t22.5 26.5l160 171h143l-217 -234l231 -308h-147l-168 232l-63 -52v-180h-125v760h125v-361z" />
    <glyph glyph-name="l" unicode="l" horiz-adv-x="287" 
d="M207 0h-126v760h126v-760z" />
    <glyph glyph-name="m" unicode="m" horiz-adv-x="964" 
d="M702 552q92 0 138.5 -47t46.5 -152v-353h-126v329q0 60 -22 90.5t-70 30.5q-66 0 -94 -43t-28 -125v-282h-126v329q0 40 -10 67t-30.5 40.5t-52.5 13.5q-45 0 -72 -21.5t-38 -62.5t-11 -101v-265h-126v542h97l18 -71h7q17 28 41.5 46t55 26.5t61.5 8.5q61 0 103 -20.5
t63 -63.5h10q25 44 70.5 64t94.5 20z" />
    <glyph glyph-name="n" unicode="n" horiz-adv-x="642" 
d="M371 552q91 0 142.5 -47t51.5 -152v-353h-126v328q0 61 -24 91.5t-76 30.5q-76 0 -104 -47.5t-28 -137.5v-265h-126v542h97l18 -71h7q18 28 44 46t58 26.5t66 8.5z" />
    <glyph glyph-name="o" unicode="o" horiz-adv-x="614" 
d="M565 272q0 -68 -18 -120t-51.5 -88.5t-82 -55t-107.5 -18.5q-56 0 -103 18.5t-81.5 55t-53.5 88.5t-19 120q0 90 31 152.5t89.5 95t138.5 32.5q76 0 133.5 -32.5t90.5 -95t33 -152.5zM178 272q0 -57 13.5 -97.5t42 -61.5t73.5 -21q46 0 74.5 21t41.5 61.5t13 97.5
q0 58 -13.5 97.5t-42 60t-73.5 20.5q-68 0 -98.5 -46t-30.5 -132z" />
    <glyph glyph-name="p" unicode="p" horiz-adv-x="626" 
d="M366 552q95 0 153 -70.5t58 -209.5q0 -92 -27 -155t-75 -95t-112 -32q-39 0 -69 10.5t-51 27t-36 35.5h-8q4 -18 6 -40.5t2 -42.5v-220h-126v782h102l18 -72h6q15 23 36.5 41.5t52 29.5t70.5 11zM330 450q-44 0 -71 -17.5t-39 -53.5t-13 -90v-16q0 -58 11.5 -98t39 -61
t74.5 -21q40 0 65.5 22t38 62.5t12.5 96.5q0 84 -28.5 130t-89.5 46z" />
    <glyph glyph-name="q" unicode="q" horiz-adv-x="626" 
d="M420 -11q0 19 1 41.5t4 40.5h-6q-22 -33 -60 -57t-100 -24q-94 0 -152 70.5t-58 209.5q0 93 27 155.5t75 94.5t111 32q61 0 100 -23.5t62 -57.5h4l13 71h105v-782h-126v229zM299 90q46 0 73.5 17.5t40 53.5t13.5 90v18q0 88 -28 134t-101 46q-60 0 -89.5 -47.5
t-29.5 -133.5q0 -87 29.5 -132.5t91.5 -45.5z" />
    <glyph glyph-name="r" unicode="r" horiz-adv-x="439" 
d="M365 552q12 0 28 -1t27 -4l-11 -117q-9 2 -23.5 3.5t-25.5 1.5q-30 0 -57.5 -9.5t-49 -28t-34 -47.5t-12.5 -69v-281h-126v542h97l18 -94h6q16 29 40 52.5t55.5 37.5t67.5 14z" />
    <glyph glyph-name="s" unicode="s" horiz-adv-x="490" 
d="M450 157q0 -54 -26 -91.5t-76.5 -56.5t-123.5 -19q-57 0 -98 8t-78 25v107q40 -19 89 -32t91 -13q52 0 75 16t23 43q0 16 -9 29t-35 27.5t-79 36.5q-52 21 -86.5 42t-52 50.5t-17.5 74.5q0 73 58 110.5t153 37.5q50 0 94.5 -9.5t89.5 -30.5l-40 -93q-37 16 -73.5 27
t-74.5 11q-41 0 -62 -12.5t-21 -34.5q0 -17 10.5 -29.5t37 -25t75.5 -32.5q49 -19 83.5 -39.5t53.5 -50.5t19 -76z" />
    <glyph glyph-name="t" unicode="t" horiz-adv-x="406" 
d="M291 91q24 0 46 4.5t41 10.5v-94q-20 -9 -52 -15.5t-67 -6.5q-46 0 -83.5 15.5t-60 53.5t-22.5 106v282h-73v55l80 44l40 115h79v-119h154v-95h-154v-281q0 -38 20 -56.5t52 -18.5z" />
    <glyph glyph-name="u" unicode="u" horiz-adv-x="642" 
d="M562 542v-542h-99l-17 70h-6q-17 -28 -44 -45.5t-59 -26t-66 -8.5q-60 0 -104 21t-67 64.5t-23 112.5v354h126v-329q0 -60 24 -90.5t76 -30.5q51 0 80 21.5t41 62.5t12 101v265h126z" />
    <glyph glyph-name="v" unicode="v" horiz-adv-x="546" 
d="M206 0l-206 542h133l108 -313q7 -19 13 -41.5t10.5 -44t5.5 -37.5h4q2 17 7 38.5t11.5 43.5t12.5 41l108 313h133l-206 -542h-134z" />
    <glyph glyph-name="w" unicode="w" horiz-adv-x="830" 
d="M465 233q-5 19 -12 47.5t-14.5 59.5t-14 57t-8.5 40h-4q-3 -14 -9 -40t-13 -57t-14.5 -60t-12.5 -48l-63 -232h-138l-152 543h127l67 -259q7 -26 13.5 -59t11.5 -63.5t7 -49.5h4q2 13 5 34.5t7.5 45t9 43.5t7.5 31l78 277h138l75 -277q5 -18 11 -47t11 -58t6 -48h4
q2 17 7 46.5t12 63.5t15 61l68 259h125l-154 -543h-140z" />
    <glyph glyph-name="x" unicode="x" horiz-adv-x="560" 
d="M198 277l-179 265h143l118 -184l118 184h143l-181 -265l190 -277h-143l-127 197l-127 -197h-143z" />
    <glyph glyph-name="y" unicode="y" horiz-adv-x="547" 
d="M0 542h137l108 -306q7 -20 12.5 -38.5t9.5 -37.5t6 -38h4q4 25 12.5 55t17.5 59l104 306h136l-231 -614q-20 -53 -50.5 -91t-72 -57.5t-93.5 -19.5q-24 0 -42.5 2.5t-32.5 5.5v100q11 -2 26.5 -4t32.5 -2q31 0 53.5 12.5t38 34.5t25.5 49l16 44z" />
    <glyph glyph-name="z" unicode="z" horiz-adv-x="481" 
d="M448 0h-416v77l266 369h-251v96h393v-85l-261 -360h269v-97z" />
    <glyph glyph-name="braceleft.tamil" unicode="{" horiz-adv-x="379" 
d="M342 -244q-72 0 -114.5 20t-60.5 57.5t-18 90.5v207q0 53 -32 75t-91 22v101q60 0 91.5 22.5t31.5 74.5v206q0 53 18 90t60.5 57.5t114.5 20.5v-96q-40 -1 -59 -20.5t-19 -68.5v-209q0 -53 -29.5 -83.5t-85.5 -40.5v-6q56 -9 85.5 -40t29.5 -84v-212q0 -32 8.5 -51
t26 -27.5t43.5 -9.5v-96z" />
    <glyph glyph-name="bar.tamil" unicode="|" horiz-adv-x="551" 
d="M228 -244v1044h95v-1044h-95z" />
    <glyph glyph-name="braceright.tamil" unicode="}" horiz-adv-x="379" 
d="M38 800q72 0 114 -20.5t60 -57.5t18 -90v-206q0 -52 32 -74t90 -22v-102q-58 0 -90 -22t-32 -74v-208q0 -53 -18 -90.5t-60 -57.5t-114 -20v96q39 1 58 21t19 68v211q0 53 29.5 84t85.5 40v6q-56 10 -85.5 40.5t-29.5 83.5v209q0 33 -8.5 52t-25.5 28t-43 9v96z" />
    <glyph glyph-name="asciitilde.tamil" unicode="~" horiz-adv-x="572" 
d="M269 308q-39 16 -62 21.5t-44 5.5q-31 0 -61.5 -17t-55.5 -42v100q25 26 55.5 39.5t67.5 13.5q29 0 58 -6t74 -25q38 -16 62.5 -22t48.5 -6q30 0 59 17t54 42v-100q-25 -26 -55 -39.5t-68 -13.5q-28 0 -57.5 6.5t-75.5 25.5z" />
    <glyph glyph-name="uni00A0.tamil" unicode="&#xa0;" horiz-adv-x="260" 
 />
    <glyph glyph-name="exclamdown" unicode="&#xa1;" horiz-adv-x="280" 
d="M90 309h96l25 -490h-146zM216 469q0 -43 -22.5 -60t-54.5 -17q-31 0 -53.5 17t-22.5 59t22.5 60t53.5 18q32 0 54.5 -18t22.5 -59z" />
    <glyph glyph-name="cent" unicode="&#xa2;" horiz-adv-x="572" 
d="M359 646q43 -2 78 -11.5t62 -21.5l-37 -100q-31 13 -62.5 21.5t-60.5 8.5q-45 0 -74 -20t-43.5 -60t-14.5 -100t15 -98.5t44 -57.5t71 -19q46 0 79 9.5t69 25.5v-107q-29 -14 -59.5 -22t-67.5 -10v-94h-79v98q-62 9 -107 40t-69.5 89t-24.5 145q0 93 25 151t70.5 89
t105.5 40v82h80v-78z" />
    <glyph glyph-name="sterling" unicode="&#xa3;" horiz-adv-x="572" 
d="M339 724q54 0 101 -12t84 -29l-40 -96q-32 14 -67 24t-70 10q-41 0 -67 -23t-26 -77v-111h191v-91h-191v-83q0 -37 -10.5 -62t-27 -40t-34.5 -25h364v-109h-509v103q28 10 48.5 25.5t32 41t11.5 65.5v84h-90v91h90v115q0 69 27.5 112.5t75 65t107.5 21.5z" />
    <glyph glyph-name="yen" unicode="&#xa5;" horiz-adv-x="572" 
d="M285 399l148 315h130l-192 -369h106v-78h-132v-73h132v-78h-132v-116h-120v116h-132v78h132v73h-132v78h104l-190 369h131z" />
    <glyph glyph-name="section" unicode="&#xa7;" horiz-adv-x="496" 
d="M62 393q0 45 21 75.5t49 46.5q-33 20 -51 48t-18 66q0 62 53.5 99t144.5 37q52 0 93.5 -10.5t81.5 -27.5l-36 -84q-33 16 -67.5 27t-75.5 11q-48 0 -68.5 -12.5t-20.5 -37.5q0 -17 11.5 -30.5t36.5 -26.5t67 -29q49 -19 84 -41.5t54.5 -52t19.5 -69.5q0 -50 -19.5 -80.5
t-47.5 -48.5q32 -19 49 -45t17 -63q0 -71 -57.5 -112t-158.5 -41q-53 0 -94.5 9.5t-74.5 27.5v91q24 -12 53 -22.5t60 -17t58 -6.5q62 0 85 18.5t23 44.5q0 17 -8.5 30t-32 26.5t-71.5 32.5q-50 21 -86 42t-55 51t-19 74zM158 403q0 -21 12.5 -39t40.5 -34.5t72 -33.5l12 -5
q18 12 33 30.5t15 47.5q0 22 -11 40t-39 34.5t-80 33.5q-21 -7 -38 -26.5t-17 -47.5z" />
    <glyph glyph-name="dieresis" unicode="&#xa8;" horiz-adv-x="597" 
d="M141 684q0 32 17.5 46t42.5 14q24 0 42.5 -14t18.5 -46q0 -30 -18.5 -44.5t-42.5 -14.5q-25 0 -42.5 14.5t-17.5 44.5zM335 684q0 32 17.5 46t42.5 14q24 0 42.5 -14t18.5 -46q0 -30 -18.5 -44.5t-42.5 -14.5q-25 0 -42.5 14.5t-17.5 44.5z" />
    <glyph glyph-name="copyright" unicode="&#xa9;" horiz-adv-x="832" 
d="M431 130q-101 0 -151 62.5t-50 164.5q0 66 24 117t69.5 80.5t111.5 29.5q31 0 63 -8t60 -22l-29 -65q-25 13 -48.5 19.5t-44.5 6.5q-59 0 -91.5 -42t-32.5 -116q0 -76 28.5 -117.5t94.5 -41.5q23 0 51.5 6.5t53.5 16.5v-67q-24 -10 -49 -17t-60 -7zM416 -10
q-80 0 -147 27t-116.5 76.5t-76.5 116.5t-27 147q0 78 27.5 144.5t77 116.5t116.5 78t146 28q76 0 142.5 -27t117 -76.5t79 -116.5t28.5 -147t-27 -147t-76.5 -116.5t-116.5 -76.5t-147 -27zM416 50q63 0 117.5 22.5t96 64t65 97.5t23.5 123q0 64 -22.5 119.5t-63.5 98
t-96 66.5t-120 24q-66 0 -121 -23t-96 -64t-64 -97.5t-23 -123.5q0 -66 22.5 -122t63 -97.5t96 -64.5t122.5 -23z" />
    <glyph glyph-name="ordfeminine" unicode="&#xaa;" horiz-adv-x="373" 
d="M191 722q69 0 103 -32.5t34 -92.5v-218h-59l-14 50q-20 -26 -50 -41t-66 -15q-34 0 -59.5 11.5t-39.5 35t-14 58.5q0 37 19 60.5t56.5 35t90.5 13.5l52 2v13q0 27 -18 40t-48 13q-24 0 -50.5 -8t-53.5 -20l-28 59q30 15 66.5 25.5t78.5 10.5zM196 533q-51 -2 -67 -17.5
t-16 -36.5t12 -31t32 -10q43 0 65 22t22 56v20z" />
    <glyph glyph-name="guillemotleft" unicode="&#xab;" horiz-adv-x="575" 
d="M40 276l176 214l91 -49l-138 -171l138 -170l-91 -50l-176 213v13zM269 276l176 214l90 -49l-137 -171l137 -170l-90 -50l-176 213v13z" />
    <glyph glyph-name="uni00AD.tamil" unicode="&#xad;" horiz-adv-x="322" 
d="M34 250v106h254v-106h-254z" />
    <glyph glyph-name="registered" unicode="&#xae;" horiz-adv-x="832" 
d="M276 138v440h131q82 0 120 -33.5t38 -98.5q0 -47 -24 -74.5t-54 -39.5l116 -194h-89l-97 170h-62v-170h-79zM405 373q39 0 59.5 20t20.5 51q0 35 -18.5 51t-62.5 16h-49v-138h50zM416 -10q-80 0 -147 27t-116.5 76.5t-76.5 116.5t-27 147q0 78 27.5 144.5t77 116.5
t116.5 78t146 28q76 0 142.5 -27t117 -76.5t79 -116.5t28.5 -147t-27 -147t-76.5 -116.5t-116.5 -76.5t-147 -27zM416 50q63 0 117.5 22.5t96 64t65 97.5t23.5 123q0 64 -22.5 119.5t-63.5 98t-96 66.5t-120 24q-66 0 -121 -23t-96 -64t-64 -97.5t-23 -123.5
q0 -66 22.5 -122t63 -97.5t96 -64.5t122.5 -23z" />
    <glyph glyph-name="overscore" unicode="&#xaf;" horiz-adv-x="500" 
d="M503 760h-506v86h506v-86z" />
    <glyph glyph-name="degree" unicode="&#xb0;" horiz-adv-x="428" 
d="M214 398q-50 0 -88 21t-59.5 57.5t-21.5 84.5t21.5 84.5t59.5 57.5t88 21t88 -20.5t59 -57.5t21 -85t-21 -84.5t-59 -57.5t-88 -21zM214 478q38 0 60.5 23t22.5 60q0 39 -22.5 61.5t-60.5 22.5q-37 0 -60 -22.5t-23 -61.5q0 -37 23 -60t60 -23z" />
    <glyph glyph-name="uni00B2" unicode="&#xb2;" horiz-adv-x="336" 
d="M17 369v71l112 109q34 33 52.5 54.5t25.5 39t7 35.5q0 24 -14.5 36t-37.5 12t-46 -10.5t-49 -32.5l-50 64q31 27 68.5 43.5t86.5 16.5q65 0 103.5 -31.5t38.5 -89.5q0 -31 -12 -57.5t-36.5 -54t-63.5 -63.5l-62 -58h180v-84h-303z" />
    <glyph glyph-name="uni00B3" unicode="&#xb3;" horiz-adv-x="333" 
d="M151 361q-37 0 -71 7.5t-65 24.5v82q33 -18 65.5 -28t64.5 -10q42 0 61 15t19 43q0 26 -20.5 42.5t-68.5 16.5h-55v69h49q48 0 66.5 17.5t18.5 40.5q0 25 -16 37t-41 12t-48.5 -9t-49.5 -27l-44 61q31 23 67 37t86 14q65 0 103 -30.5t38 -81.5q0 -36 -19.5 -61t-60.5 -39
v-3q46 -10 69 -37.5t23 -63.5q0 -59 -40.5 -94t-130.5 -35z" />
    <glyph glyph-name="acute" unicode="&#xb4;" horiz-adv-x="331" 
d="M291 756q-12 -14 -32.5 -34t-45 -42t-48 -41.5t-41.5 -32.5h-84v13q16 19 36 44.5t39.5 53t31.5 49.5h144v-10z" />
    <glyph glyph-name="paragraph" unicode="&#xb6;" horiz-adv-x="655" 
d="M562 -127h-71v805h-89v-805h-71v400q-15 -4 -33.5 -6.5t-37.5 -2.5q-62 0 -108 23t-71.5 77t-25.5 145q0 96 27.5 150.5t77.5 77.5t115 23h287v-887z" />
    <glyph glyph-name="periodcentered" unicode="&#xb7;" horiz-adv-x="279" 
d="M63 352q0 42 22 59.5t54 17.5t54.5 -17t22.5 -60q0 -41 -22.5 -59t-54.5 -18t-54 18t-22 59z" />
    <glyph glyph-name="cedilla" unicode="&#xb8;" horiz-adv-x="213" 
d="M207 -128q0 -53 -34 -82.5t-116 -29.5q-19 0 -35 2.5t-28 5.5v72q12 -3 30.5 -5.5t33.5 -2.5q22 0 35.5 7.5t13.5 27.5q0 21 -21 34.5t-63 19.5l39 79h81l-18 -39q22 -5 40.5 -17t30 -29.5t11.5 -42.5z" />
    <glyph glyph-name="ordmasculine" unicode="&#xba;" horiz-adv-x="383" 
d="M354 548q0 -83 -44 -129t-119 -46q-70 0 -115.5 45.5t-45.5 129.5t43.5 129t119.5 45q47 0 83.5 -20t57 -58.5t20.5 -95.5zM115 548q0 -52 18 -78.5t59 -26.5q40 0 58 26.5t18 78.5q0 53 -18 78.5t-58 25.5q-41 0 -59 -25.5t-18 -78.5z" />
    <glyph glyph-name="guillemotright" unicode="&#xbb;" horiz-adv-x="575" 
d="M535 263l-177 -213l-90 50l138 170l-138 171l90 49l177 -214v-13zM306 263l-176 -213l-90 50l137 170l-137 171l90 49l176 -214v-13z" />
    <glyph glyph-name="questiondown" unicode="&#xbf;" horiz-adv-x="461" 
d="M325 276q0 -35 -8.5 -61.5t-28 -50t-53.5 -49.5q-33 -25 -52.5 -44t-28.5 -37.5t-9 -43.5q0 -37 26.5 -57.5t74.5 -20.5q45 0 85 13t80 33l45 -94q-46 -24 -100 -40t-119 -16q-100 0 -155.5 49t-55.5 127q0 43 13.5 73.5t39.5 56.5t64 55q32 25 48 41.5t21.5 33.5t5.5 40
v25h107v-33zM344 468q0 -43 -22.5 -60t-54.5 -17q-31 0 -53.5 17t-22.5 60q0 41 22.5 59t53.5 18q32 0 54.5 -18t22.5 -59z" />
    <glyph glyph-name="Agrave" unicode="&#xc0;" horiz-adv-x="671" 
d="M534 0l-65 189h-269l-64 -189h-136l262 717h146l262 -717h-136zM374 483q-4 14 -12 38t-15.5 49.5t-11.5 42.5q-5 -20 -12.5 -46t-14 -49t-10.5 -35l-63 -184h201zM317 938q13 -22 32 -49.5t39.5 -53t35.5 -44.5v-13h-83q-19 13 -42.5 32.5t-48 41.5t-45 42t-32.5 34v10
h144z" />
    <glyph glyph-name="Aacute" unicode="&#xc1;" horiz-adv-x="671" 
d="M534 0l-65 189h-269l-64 -189h-136l262 717h146l262 -717h-136zM374 483q-4 14 -12 38t-15.5 49.5t-11.5 42.5q-5 -20 -12.5 -46t-14 -49t-10.5 -35l-63 -184h201zM522 928q-12 -14 -32.5 -34t-45 -42t-48 -41.5t-41.5 -32.5h-84v13q16 19 36 44.5t39.5 53t31.5 49.5h144
v-10z" />
    <glyph glyph-name="Acircumflex" unicode="&#xc2;" horiz-adv-x="671" 
d="M534 0l-65 189h-269l-64 -189h-136l262 717h146l262 -717h-136zM374 483q-4 14 -12 38t-15.5 49.5t-11.5 42.5q-5 -20 -12.5 -46t-14 -49t-10.5 -35l-63 -184h201zM406 938q13 -22 35.5 -49.5t46.5 -53.5t43 -45v-12h-85q-26 16 -56 38.5t-57 49.5q-26 -27 -55 -49
t-55 -39h-84v12q19 20 42.5 45.5t46 53t35.5 49.5h143z" />
    <glyph glyph-name="Atilde" unicode="&#xc3;" horiz-adv-x="671" 
d="M534 0l-65 189h-269l-64 -189h-136l262 717h146l262 -717h-136zM374 483q-4 14 -12 38t-15.5 49.5t-11.5 42.5q-5 -20 -12.5 -46t-14 -49t-10.5 -35l-63 -184h201zM140 777q3 36 13.5 62.5t27 44.5t37.5 27t46 9q21 0 41 -8t38.5 -19t36.5 -19t35 -8q18 0 31.5 14
t19.5 41h65q-6 -70 -40.5 -106.5t-83.5 -36.5q-21 0 -40 8t-38.5 19t-37 19t-35.5 8t-31.5 -13.5t-19.5 -41.5h-65z" />
    <glyph glyph-name="Adieresis" unicode="&#xc4;" horiz-adv-x="671" 
d="M534 0l-65 189h-269l-64 -189h-136l262 717h146l262 -717h-136zM374 483q-4 14 -12 38t-15.5 49.5t-11.5 42.5q-5 -20 -12.5 -46t-14 -49t-10.5 -35l-63 -184h201zM177 856q0 32 17.5 46t42.5 14q24 0 42.5 -14t18.5 -46q0 -30 -18.5 -44.5t-42.5 -14.5q-25 0 -42.5 14.5
t-17.5 44.5zM371 856q0 32 17.5 46t42.5 14q24 0 42.5 -14t18.5 -46q0 -30 -18.5 -44.5t-42.5 -14.5q-25 0 -42.5 14.5t-17.5 44.5z" />
    <glyph glyph-name="Aring" unicode="&#xc5;" horiz-adv-x="671" 
d="M534 0l-65 189h-269l-64 -189h-136l262 717h146l262 -717h-136zM374 483q-4 14 -12 38t-15.5 49.5t-11.5 42.5q-5 -20 -12.5 -46t-14 -49t-10.5 -35l-63 -184h201zM334 655q-53 0 -85 30t-32 83q0 52 32 81.5t84 29.5q51 0 85.5 -29.5t34.5 -80.5q0 -54 -34 -84t-85 -30z
M333 717q22 0 36.5 13.5t14.5 37.5q0 23 -14.5 36.5t-35.5 13.5q-22 0 -36.5 -13.5t-14.5 -36.5q0 -24 13 -37.5t37 -13.5z" />
    <glyph glyph-name="AE" unicode="&#xc6;" horiz-adv-x="925" 
d="M866 0h-406v189h-244l-85 -189h-131l327 714h539v-107h-278v-182h259v-107h-259v-210h278v-108zM264 299h196v304h-60z" />
    <glyph glyph-name="Ccedilla" unicode="&#xc7;" horiz-adv-x="635" 
d="M397 616q-49 0 -87 -18t-64.5 -52t-40 -82t-13.5 -108q0 -81 22 -138.5t67.5 -88.5t114.5 -31q46 0 88.5 9.5t89.5 25.5v-109q-44 -18 -88.5 -26t-102.5 -8q-110 0 -182 45.5t-107 128t-35 193.5q0 81 22.5 148t65 116t105.5 76t145 27q54 0 106.5 -12.5t98.5 -34.5
l-44 -105q-38 17 -78.5 30.5t-82.5 13.5zM481 -128q0 -53 -34 -82.5t-116 -29.5q-19 0 -35 2.5t-28 5.5v72q12 -3 30.5 -5.5t33.5 -2.5q22 0 35.5 7.5t13.5 27.5q0 21 -21 34.5t-63 19.5l39 79h81l-18 -39q22 -5 40.5 -17t30 -29.5t11.5 -42.5z" />
    <glyph glyph-name="Egrave" unicode="&#xc8;" horiz-adv-x="558" 
d="M499 0h-406v714h406v-107h-278v-182h260v-107h-260v-210h278v-108zM285 938q13 -22 32 -49.5t39.5 -53t35.5 -44.5v-13h-83q-19 13 -42.5 32.5t-48 41.5t-45 42t-32.5 34v10h144z" />
    <glyph glyph-name="Eacute" unicode="&#xc9;" horiz-adv-x="558" 
d="M499 0h-406v714h406v-107h-278v-182h260v-107h-260v-210h278v-108zM489 928q-12 -14 -32.5 -34t-45 -42t-48 -41.5t-41.5 -32.5h-84v13q16 19 36 44.5t39.5 53t31.5 49.5h144v-10z" />
    <glyph glyph-name="Ecircumflex" unicode="&#xca;" horiz-adv-x="558" 
d="M499 0h-406v714h406v-107h-278v-182h260v-107h-260v-210h278v-108zM374 938q13 -22 35.5 -49.5t46.5 -53.5t43 -45v-12h-85q-26 16 -56 38.5t-57 49.5q-26 -27 -55 -49t-55 -39h-84v12q19 20 42.5 45.5t46 53t35.5 49.5h143z" />
    <glyph glyph-name="Edieresis" unicode="&#xcb;" horiz-adv-x="558" 
d="M499 0h-406v714h406v-107h-278v-182h260v-107h-260v-210h278v-108zM145 856q0 32 17.5 46t42.5 14q24 0 42.5 -14t18.5 -46q0 -30 -18.5 -44.5t-42.5 -14.5q-25 0 -42.5 14.5t-17.5 44.5zM339 856q0 32 17.5 46t42.5 14q24 0 42.5 -14t18.5 -46q0 -30 -18.5 -44.5
t-42.5 -14.5q-25 0 -42.5 14.5t-17.5 44.5z" />
    <glyph glyph-name="Igrave" unicode="&#xcc;" horiz-adv-x="370" 
d="M335 0h-300v73l86 32v503l-86 33v73h300v-73l-86 -33v-503l86 -32v-73zM168 938q13 -22 32 -49.5t39.5 -53t35.5 -44.5v-13h-83q-19 13 -42.5 32.5t-48 41.5t-45 42t-32.5 34v10h144z" />
    <glyph glyph-name="Iacute" unicode="&#xcd;" horiz-adv-x="370" 
d="M335 0h-300v73l86 32v503l-86 33v73h300v-73l-86 -33v-503l86 -32v-73zM372 928q-12 -14 -32.5 -34t-45 -42t-48 -41.5t-41.5 -32.5h-84v13q16 19 36 44.5t39.5 53t31.5 49.5h144v-10z" />
    <glyph glyph-name="Icircumflex" unicode="&#xce;" horiz-adv-x="370" 
d="M335 0h-300v73l86 32v503l-86 33v73h300v-73l-86 -33v-503l86 -32v-73zM257 938q13 -22 35.5 -49.5t46.5 -53.5t43 -45v-12h-85q-26 16 -56 38.5t-57 49.5q-26 -27 -55 -49t-55 -39h-84v12q19 20 42.5 45.5t46 53t35.5 49.5h143z" />
    <glyph glyph-name="Idieresis" unicode="&#xcf;" horiz-adv-x="370" 
d="M335 0h-300v73l86 32v503l-86 33v73h300v-73l-86 -33v-503l86 -32v-73zM28 856q0 32 17.5 46t42.5 14q24 0 42.5 -14t18.5 -46q0 -30 -18.5 -44.5t-42.5 -14.5q-25 0 -42.5 14.5t-17.5 44.5zM222 856q0 32 17.5 46t42.5 14q24 0 42.5 -14t18.5 -46q0 -30 -18.5 -44.5
t-42.5 -14.5q-25 0 -42.5 14.5t-17.5 44.5z" />
    <glyph glyph-name="Eth" unicode="&#xd0;" horiz-adv-x="736" 
d="M315 714q110 0 191.5 -40t126 -117.5t44.5 -192.5q0 -120 -45.5 -201t-131.5 -122t-207 -41h-198v300h-69v106h69v308h220zM315 608h-92v-202h140v-106h-140v-193h74q124 0 185 64t61 190q0 84 -27 139t-78 81.5t-123 26.5z" />
    <glyph glyph-name="Ntilde" unicode="&#xd1;" horiz-adv-x="793" 
d="M700 0h-159l-338 560h-4q2 -30 3.5 -63t3 -67.5t2.5 -69.5v-360h-115v714h158l337 -556h3q-1 26 -2 59t-2.5 67.5t-2.5 66.5v363h116v-714zM202 777q3 36 13.5 62.5t27 44.5t37.5 27t46 9q21 0 41 -8t38.5 -19t36.5 -19t35 -8q18 0 31.5 14t19.5 41h65
q-6 -70 -40.5 -106.5t-83.5 -36.5q-21 0 -40 8t-38.5 19t-37 19t-35.5 8t-31.5 -13.5t-19.5 -41.5h-65z" />
    <glyph glyph-name="Ograve" unicode="&#xd2;" horiz-adv-x="790" 
d="M731 358q0 -83 -20.5 -150.5t-62 -116.5t-105 -75t-148.5 -26q-86 0 -149.5 26.5t-104.5 75t-61.5 116.5t-20.5 151q0 111 36.5 193t111 127.5t189.5 45.5q113 0 187 -45.5t111 -128t37 -193.5zM194 358q0 -81 21.5 -139t66 -89t113.5 -31q71 0 115 31t65 89t21 139
q0 121 -47 190t-153 69q-70 0 -114.5 -31t-66 -89t-21.5 -139zM378 938q13 -22 32 -49.5t39.5 -53t35.5 -44.5v-13h-83q-19 13 -42.5 32.5t-48 41.5t-45 42t-32.5 34v10h144z" />
    <glyph glyph-name="Oacute" unicode="&#xd3;" horiz-adv-x="790" 
d="M731 358q0 -83 -20.5 -150.5t-62 -116.5t-105 -75t-148.5 -26q-86 0 -149.5 26.5t-104.5 75t-61.5 116.5t-20.5 151q0 111 36.5 193t111 127.5t189.5 45.5q113 0 187 -45.5t111 -128t37 -193.5zM194 358q0 -81 21.5 -139t66 -89t113.5 -31q71 0 115 31t65 89t21 139
q0 121 -47 190t-153 69q-70 0 -114.5 -31t-66 -89t-21.5 -139zM582 928q-12 -14 -32.5 -34t-45 -42t-48 -41.5t-41.5 -32.5h-84v13q16 19 36 44.5t39.5 53t31.5 49.5h144v-10z" />
    <glyph glyph-name="Ocircumflex" unicode="&#xd4;" horiz-adv-x="790" 
d="M731 358q0 -83 -20.5 -150.5t-62 -116.5t-105 -75t-148.5 -26q-86 0 -149.5 26.5t-104.5 75t-61.5 116.5t-20.5 151q0 111 36.5 193t111 127.5t189.5 45.5q113 0 187 -45.5t111 -128t37 -193.5zM194 358q0 -81 21.5 -139t66 -89t113.5 -31q71 0 115 31t65 89t21 139
q0 121 -47 190t-153 69q-70 0 -114.5 -31t-66 -89t-21.5 -139zM467 938q13 -22 35.5 -49.5t46.5 -53.5t43 -45v-12h-85q-26 16 -56 38.5t-57 49.5q-26 -27 -55 -49t-55 -39h-84v12q19 20 42.5 45.5t46 53t35.5 49.5h143z" />
    <glyph glyph-name="Otilde" unicode="&#xd5;" horiz-adv-x="790" 
d="M731 358q0 -83 -20.5 -150.5t-62 -116.5t-105 -75t-148.5 -26q-86 0 -149.5 26.5t-104.5 75t-61.5 116.5t-20.5 151q0 111 36.5 193t111 127.5t189.5 45.5q113 0 187 -45.5t111 -128t37 -193.5zM194 358q0 -81 21.5 -139t66 -89t113.5 -31q71 0 115 31t65 89t21 139
q0 121 -47 190t-153 69q-70 0 -114.5 -31t-66 -89t-21.5 -139zM201 777q3 36 13.5 62.5t27 44.5t37.5 27t46 9q21 0 41 -8t38.5 -19t36.5 -19t35 -8q18 0 31.5 14t19.5 41h65q-6 -70 -40.5 -106.5t-83.5 -36.5q-21 0 -40 8t-38.5 19t-37 19t-35.5 8t-31.5 -13.5t-19.5 -41.5
h-65z" />
    <glyph glyph-name="Odieresis" unicode="&#xd6;" horiz-adv-x="790" 
d="M731 358q0 -83 -20.5 -150.5t-62 -116.5t-105 -75t-148.5 -26q-86 0 -149.5 26.5t-104.5 75t-61.5 116.5t-20.5 151q0 111 36.5 193t111 127.5t189.5 45.5q113 0 187 -45.5t111 -128t37 -193.5zM194 358q0 -81 21.5 -139t66 -89t113.5 -31q71 0 115 31t65 89t21 139
q0 121 -47 190t-153 69q-70 0 -114.5 -31t-66 -89t-21.5 -139zM238 856q0 32 17.5 46t42.5 14q24 0 42.5 -14t18.5 -46q0 -30 -18.5 -44.5t-42.5 -14.5q-25 0 -42.5 14.5t-17.5 44.5zM432 856q0 32 17.5 46t42.5 14q24 0 42.5 -14t18.5 -46q0 -30 -18.5 -44.5t-42.5 -14.5
q-25 0 -42.5 14.5t-17.5 44.5z" />
    <glyph glyph-name="multiply.tamil" unicode="&#xd7;" horiz-adv-x="572" 
d="M442 575l66 -65l-158 -157l156 -156l-64 -66l-157 156l-155 -155l-65 65l155 156l-156 155l65 67l156 -156z" />
    <glyph glyph-name="Oslash" unicode="&#xd8;" horiz-adv-x="790" 
d="M731 358q0 -83 -20.5 -150.5t-62 -116.5t-105 -75t-148.5 -26q-51 0 -94 9.5t-78 28.5l-45 -67l-72 48l47 69q-47 49 -70.5 120.5t-23.5 160.5q0 111 36.5 193t111 127.5t189.5 45.5q51 0 94 -10t78 -28l43 63l72 -47l-46 -67q47 -48 70.5 -118.5t23.5 -159.5zM596 358
q0 104 -34 166l-273 -399q21 -13 47.5 -19.5t58.5 -6.5q71 0 115 31t65 89t21 139zM194 358q0 -51 8.5 -93.5t26.5 -74.5l274 400q-22 13 -48.5 20t-58.5 7q-70 0 -114.5 -31t-66 -89t-21.5 -139z" />
    <glyph glyph-name="Ugrave" unicode="&#xd9;" horiz-adv-x="747" 
d="M659 252q0 -74 -31.5 -133.5t-95.5 -94t-162 -34.5q-139 0 -211 72.5t-72 191.5v460h128v-447q0 -87 40 -127.5t119 -40.5q56 0 90.5 19t51 57.5t16.5 92.5v446h127v-462zM356 938q13 -22 32 -49.5t39.5 -53t35.5 -44.5v-13h-83q-19 13 -42.5 32.5t-48 41.5t-45 42
t-32.5 34v10h144z" />
    <glyph glyph-name="Uacute" unicode="&#xda;" horiz-adv-x="747" 
d="M659 252q0 -74 -31.5 -133.5t-95.5 -94t-162 -34.5q-139 0 -211 72.5t-72 191.5v460h128v-447q0 -87 40 -127.5t119 -40.5q56 0 90.5 19t51 57.5t16.5 92.5v446h127v-462zM560 928q-12 -14 -32.5 -34t-45 -42t-48 -41.5t-41.5 -32.5h-84v13q16 19 36 44.5t39.5 53
t31.5 49.5h144v-10z" />
    <glyph glyph-name="Ucircumflex" unicode="&#xdb;" horiz-adv-x="747" 
d="M659 252q0 -74 -31.5 -133.5t-95.5 -94t-162 -34.5q-139 0 -211 72.5t-72 191.5v460h128v-447q0 -87 40 -127.5t119 -40.5q56 0 90.5 19t51 57.5t16.5 92.5v446h127v-462zM445 938q13 -22 35.5 -49.5t46.5 -53.5t43 -45v-12h-85q-26 16 -56 38.5t-57 49.5
q-26 -27 -55 -49t-55 -39h-84v12q19 20 42.5 45.5t46 53t35.5 49.5h143z" />
    <glyph glyph-name="Udieresis" unicode="&#xdc;" horiz-adv-x="747" 
d="M659 252q0 -74 -31.5 -133.5t-95.5 -94t-162 -34.5q-139 0 -211 72.5t-72 191.5v460h128v-447q0 -87 40 -127.5t119 -40.5q56 0 90.5 19t51 57.5t16.5 92.5v446h127v-462zM216 856q0 32 17.5 46t42.5 14q24 0 42.5 -14t18.5 -46q0 -30 -18.5 -44.5t-42.5 -14.5
q-25 0 -42.5 14.5t-17.5 44.5zM410 856q0 32 17.5 46t42.5 14q24 0 42.5 -14t18.5 -46q0 -30 -18.5 -44.5t-42.5 -14.5q-25 0 -42.5 14.5t-17.5 44.5z" />
    <glyph glyph-name="Yacute" unicode="&#xdd;" horiz-adv-x="602" 
d="M301 399l163 315h138l-237 -436v-278h-128v273l-237 441h139zM488 928q-12 -14 -32.5 -34t-45 -42t-48 -41.5t-41.5 -32.5h-84v13q16 19 36 44.5t39.5 53t31.5 49.5h144v-10z" />
    <glyph glyph-name="Thorn" unicode="&#xde;" horiz-adv-x="619" 
d="M572 378q0 -45 -14 -86.5t-45.5 -74t-84 -51t-130.5 -18.5h-77v-148h-128v714h128v-117h90q137 0 199 -59t62 -160zM278 252q56 0 92 12.5t54 40t18 71.5q0 59 -36 87.5t-114 28.5h-71v-240h57z" />
    <glyph glyph-name="germandbls" unicode="&#xdf;" horiz-adv-x="681" 
d="M577 610q0 -36 -14 -62.5t-35 -46t-42 -35t-35 -29t-14 -28.5q0 -12 8.5 -23t30 -25.5t58.5 -38.5q34 -22 58 -45t37 -51.5t13 -68.5q0 -56 -24.5 -93.5t-71.5 -55.5t-114 -18q-48 0 -83.5 8t-63.5 24v103q16 -10 39.5 -20t50 -16t49.5 -6q45 0 67.5 18t22.5 52
q0 20 -7.5 35t-27.5 31t-57 39q-42 25 -65.5 45.5t-33.5 42t-10 47.5q0 31 13.5 53t34 38.5t41 31.5t34 33t13.5 43q0 35 -33.5 54t-83.5 19q-35 0 -63.5 -10t-45 -32t-16.5 -60v-563h-126v567q0 69 33 113t89.5 64.5t128.5 20.5q71 0 126 -17.5t87 -52t32 -85.5z" />
    <glyph glyph-name="agrave" unicode="&#xe0;" horiz-adv-x="588" 
d="M297 552q105 0 159.5 -45.5t54.5 -142.5v-364h-89l-25 75h-4q-23 -29 -47.5 -48.5t-56 -28t-76.5 -8.5q-48 0 -86.5 18t-60.5 55.5t-22 94.5q0 84 61.5 126.5t186.5 46.5l94 3v27q0 52 -25 74t-70 22q-41 0 -79 -12t-74 -28l-40 88q40 21 91.5 34t107.5 13zM320 254
q-83 -3 -115 -28.5t-32 -68.5q0 -38 23 -55t59 -17q55 0 93 31.5t38 93.5v46zM276 766q13 -22 32 -49.5t39.5 -53t35.5 -44.5v-13h-83q-19 13 -42.5 32.5t-48 41.5t-45 42t-32.5 34v10h144z" />
    <glyph glyph-name="aacute" unicode="&#xe1;" horiz-adv-x="588" 
d="M297 552q105 0 159.5 -45.5t54.5 -142.5v-364h-89l-25 75h-4q-23 -29 -47.5 -48.5t-56 -28t-76.5 -8.5q-48 0 -86.5 18t-60.5 55.5t-22 94.5q0 84 61.5 126.5t186.5 46.5l94 3v27q0 52 -25 74t-70 22q-41 0 -79 -12t-74 -28l-40 88q40 21 91.5 34t107.5 13zM320 254
q-83 -3 -115 -28.5t-32 -68.5q0 -38 23 -55t59 -17q55 0 93 31.5t38 93.5v46zM481 756q-12 -14 -32.5 -34t-45 -42t-48 -41.5t-41.5 -32.5h-84v13q16 19 36 44.5t39.5 53t31.5 49.5h144v-10z" />
    <glyph glyph-name="acircumflex" unicode="&#xe2;" horiz-adv-x="588" 
d="M297 552q105 0 159.5 -45.5t54.5 -142.5v-364h-89l-25 75h-4q-23 -29 -47.5 -48.5t-56 -28t-76.5 -8.5q-48 0 -86.5 18t-60.5 55.5t-22 94.5q0 84 61.5 126.5t186.5 46.5l94 3v27q0 52 -25 74t-70 22q-41 0 -79 -12t-74 -28l-40 88q40 21 91.5 34t107.5 13zM320 254
q-83 -3 -115 -28.5t-32 -68.5q0 -38 23 -55t59 -17q55 0 93 31.5t38 93.5v46zM365 766q13 -22 35.5 -49.5t46.5 -53.5t43 -45v-12h-85q-26 16 -56 38.5t-57 49.5q-26 -27 -55 -49t-55 -39h-84v12q19 20 42.5 45.5t46 53t35.5 49.5h143z" />
    <glyph glyph-name="atilde" unicode="&#xe3;" horiz-adv-x="588" 
d="M297 552q105 0 159.5 -45.5t54.5 -142.5v-364h-89l-25 75h-4q-23 -29 -47.5 -48.5t-56 -28t-76.5 -8.5q-48 0 -86.5 18t-60.5 55.5t-22 94.5q0 84 61.5 126.5t186.5 46.5l94 3v27q0 52 -25 74t-70 22q-41 0 -79 -12t-74 -28l-40 88q40 21 91.5 34t107.5 13zM320 254
q-83 -3 -115 -28.5t-32 -68.5q0 -38 23 -55t59 -17q55 0 93 31.5t38 93.5v46zM99 605q3 36 13.5 62.5t27 44.5t37.5 27t46 9q21 0 41 -8t38.5 -19t36.5 -19t35 -8q18 0 31.5 14t19.5 41h65q-6 -70 -40.5 -106.5t-83.5 -36.5q-21 0 -40 8t-38.5 19t-37 19t-35.5 8
t-31.5 -13.5t-19.5 -41.5h-65z" />
    <glyph glyph-name="adieresis" unicode="&#xe4;" horiz-adv-x="588" 
d="M297 552q105 0 159.5 -45.5t54.5 -142.5v-364h-89l-25 75h-4q-23 -29 -47.5 -48.5t-56 -28t-76.5 -8.5q-48 0 -86.5 18t-60.5 55.5t-22 94.5q0 84 61.5 126.5t186.5 46.5l94 3v27q0 52 -25 74t-70 22q-41 0 -79 -12t-74 -28l-40 88q40 21 91.5 34t107.5 13zM320 254
q-83 -3 -115 -28.5t-32 -68.5q0 -38 23 -55t59 -17q55 0 93 31.5t38 93.5v46zM137 684q0 32 17.5 46t42.5 14q24 0 42.5 -14t18.5 -46q0 -30 -18.5 -44.5t-42.5 -14.5q-25 0 -42.5 14.5t-17.5 44.5zM331 684q0 32 17.5 46t42.5 14q24 0 42.5 -14t18.5 -46q0 -30 -18.5 -44.5
t-42.5 -14.5q-25 0 -42.5 14.5t-17.5 44.5z" />
    <glyph glyph-name="aring" unicode="&#xe5;" horiz-adv-x="588" 
d="M297 552q105 0 159.5 -45.5t54.5 -142.5v-364h-89l-25 75h-4q-23 -29 -47.5 -48.5t-56 -28t-76.5 -8.5q-48 0 -86.5 18t-60.5 55.5t-22 94.5q0 84 61.5 126.5t186.5 46.5l94 3v27q0 52 -25 74t-70 22q-41 0 -79 -12t-74 -28l-40 88q40 21 91.5 34t107.5 13zM320 254
q-83 -3 -115 -28.5t-32 -68.5q0 -38 23 -55t59 -17q55 0 93 31.5t38 93.5v46zM293 605q-53 0 -85 30t-32 83q0 52 32 81.5t84 29.5q51 0 85.5 -29.5t34.5 -80.5q0 -54 -34 -84t-85 -30zM292 667q22 0 36.5 13.5t14.5 37.5q0 23 -14.5 36.5t-35.5 13.5q-22 0 -36.5 -13.5
t-14.5 -36.5q0 -24 13 -37.5t37 -13.5z" />
    <glyph glyph-name="ae" unicode="&#xe6;" horiz-adv-x="897" 
d="M627 552q67 0 117.5 -29.5t78.5 -84t28 -131.5v-65h-349q2 -75 39 -115t104 -40q50 0 92.5 10.5t85.5 30.5v-101q-41 -19 -83 -28t-101 -9q-45 0 -84.5 11.5t-70.5 35t-54 59.5q-27 -35 -55.5 -58.5t-66 -35.5t-92.5 -12q-47 0 -86.5 18t-62.5 55.5t-23 94.5
q0 56 26.5 93.5t79.5 57t133 22.5l91 3v38q0 46 -24.5 65.5t-67.5 19.5q-40 0 -77 -11t-73 -28l-40 87q40 21 92 34t106 13q58 0 99 -17.5t67 -54.5q30 36 72 54t99 18zM311 254q-78 -3 -108 -28.5t-30 -68.5q0 -38 21 -55t57 -17q35 0 62.5 14t44 42t16.5 69v46zM624 459
q-52 0 -83.5 -32.5t-36.5 -96.5h225q0 38 -12 67t-35 45.5t-58 16.5z" />
    <glyph glyph-name="ccedilla" unicode="&#xe7;" horiz-adv-x="501" 
d="M300 -10q-77 0 -133.5 29.5t-87 91t-30.5 157.5q0 100 33.5 162.5t92.5 92t135 29.5q51 0 91 -10t68 -24l-37 -99q-31 12 -62 20.5t-60 8.5q-45 0 -74.5 -20t-43.5 -59.5t-14 -99.5q0 -58 14.5 -97t43.5 -58.5t72 -19.5q46 0 81 11t66 30v-109q-31 -19 -66.5 -27.5
t-88.5 -8.5zM398 -128q0 -53 -34 -82.5t-116 -29.5q-19 0 -35 2.5t-28 5.5v72q12 -3 30.5 -5.5t33.5 -2.5q22 0 35.5 7.5t13.5 27.5q0 21 -21 34.5t-63 19.5l39 79h81l-18 -39q22 -5 40.5 -17t30 -29.5t11.5 -42.5z" />
    <glyph glyph-name="egrave" unicode="&#xe8;" horiz-adv-x="581" 
d="M299 552q73 0 125.5 -29.5t81.5 -84t29 -132.5v-64h-358q2 -74 41 -114.5t108 -40.5q53 0 94.5 10.5t85.5 30.5v-101q-40 -19 -83 -28t-103 -9q-79 0 -140.5 30.5t-96 92.5t-34.5 154q0 93 31.5 156.5t87.5 96t131 32.5zM299 459q-50 0 -81.5 -32.5t-37.5 -96.5h233
q0 38 -12.5 67t-37.5 45.5t-64 16.5zM274 766q13 -22 32 -49.5t39.5 -53t35.5 -44.5v-13h-83q-19 13 -42.5 32.5t-48 41.5t-45 42t-32.5 34v10h144z" />
    <glyph glyph-name="eacute" unicode="&#xe9;" horiz-adv-x="581" 
d="M299 552q73 0 125.5 -29.5t81.5 -84t29 -132.5v-64h-358q2 -74 41 -114.5t108 -40.5q53 0 94.5 10.5t85.5 30.5v-101q-40 -19 -83 -28t-103 -9q-79 0 -140.5 30.5t-96 92.5t-34.5 154q0 93 31.5 156.5t87.5 96t131 32.5zM299 459q-50 0 -81.5 -32.5t-37.5 -96.5h233
q0 38 -12.5 67t-37.5 45.5t-64 16.5zM479 756q-12 -14 -32.5 -34t-45 -42t-48 -41.5t-41.5 -32.5h-84v13q16 19 36 44.5t39.5 53t31.5 49.5h144v-10z" />
    <glyph glyph-name="ecircumflex" unicode="&#xea;" horiz-adv-x="581" 
d="M299 552q73 0 125.5 -29.5t81.5 -84t29 -132.5v-64h-358q2 -74 41 -114.5t108 -40.5q53 0 94.5 10.5t85.5 30.5v-101q-40 -19 -83 -28t-103 -9q-79 0 -140.5 30.5t-96 92.5t-34.5 154q0 93 31.5 156.5t87.5 96t131 32.5zM299 459q-50 0 -81.5 -32.5t-37.5 -96.5h233
q0 38 -12.5 67t-37.5 45.5t-64 16.5zM363 766q13 -22 35.5 -49.5t46.5 -53.5t43 -45v-12h-85q-26 16 -56 38.5t-57 49.5q-26 -27 -55 -49t-55 -39h-84v12q19 20 42.5 45.5t46 53t35.5 49.5h143z" />
    <glyph glyph-name="edieresis" unicode="&#xeb;" horiz-adv-x="581" 
d="M299 552q73 0 125.5 -29.5t81.5 -84t29 -132.5v-64h-358q2 -74 41 -114.5t108 -40.5q53 0 94.5 10.5t85.5 30.5v-101q-40 -19 -83 -28t-103 -9q-79 0 -140.5 30.5t-96 92.5t-34.5 154q0 93 31.5 156.5t87.5 96t131 32.5zM299 459q-50 0 -81.5 -32.5t-37.5 -96.5h233
q0 38 -12.5 67t-37.5 45.5t-64 16.5zM135 684q0 32 17.5 46t42.5 14q24 0 42.5 -14t18.5 -46q0 -30 -18.5 -44.5t-42.5 -14.5q-25 0 -42.5 14.5t-17.5 44.5zM329 684q0 32 17.5 46t42.5 14q24 0 42.5 -14t18.5 -46q0 -30 -18.5 -44.5t-42.5 -14.5q-25 0 -42.5 14.5
t-17.5 44.5z" />
    <glyph glyph-name="igrave" unicode="&#xec;" horiz-adv-x="287" 
d="M207 0h-126v542h126v-542zM126 766q13 -22 32 -49.5t39.5 -53t35.5 -44.5v-13h-83q-19 13 -42.5 32.5t-48 41.5t-45 42t-32.5 34v10h144z" />
    <glyph glyph-name="iacute" unicode="&#xed;" horiz-adv-x="287" 
d="M207 0h-126v542h126v-542zM331 756q-12 -14 -32.5 -34t-45 -42t-48 -41.5t-41.5 -32.5h-84v13q16 19 36 44.5t39.5 53t31.5 49.5h144v-10z" />
    <glyph glyph-name="icircumflex" unicode="&#xee;" horiz-adv-x="287" 
d="M207 0h-126v542h126v-542zM215 766q13 -22 35.5 -49.5t46.5 -53.5t43 -45v-12h-85q-26 16 -56 38.5t-57 49.5q-26 -27 -55 -49t-55 -39h-84v12q19 20 42.5 45.5t46 53t35.5 49.5h143z" />
    <glyph glyph-name="idieresis" unicode="&#xef;" horiz-adv-x="287" 
d="M207 0h-126v542h126v-542zM-13 684q0 32 17.5 46t42.5 14q24 0 42.5 -14t18.5 -46q0 -30 -18.5 -44.5t-42.5 -14.5q-25 0 -42.5 14.5t-17.5 44.5zM181 684q0 32 17.5 46t42.5 14q24 0 42.5 -14t18.5 -46q0 -30 -18.5 -44.5t-42.5 -14.5q-25 0 -42.5 14.5t-17.5 44.5z" />
    <glyph glyph-name="eth" unicode="&#xf0;" horiz-adv-x="614" 
d="M221 765q34 -16 66 -33t60 -37l112 67l45 -67l-89 -53q48 -43 81 -97.5t51 -120.5t18 -146q0 -93 -31.5 -157.5t-89.5 -97.5t-139 -33q-74 0 -132 29t-91 84.5t-33 133.5q0 77 29.5 131.5t82.5 83.5t123 29q34 0 61 -5.5t47.5 -17t33.5 -29.5l4 2q-16 47 -42.5 85
t-62.5 71l-119 -71l-45 68l96 57q-19 12 -39 24t-41 24zM307 386q-46 0 -74.5 -17.5t-42 -50.5t-13.5 -83q0 -44 13.5 -77.5t42.5 -52.5t74 -19q69 0 99.5 43.5t30.5 127.5q0 26 -7.5 49.5t-24 41t-40.5 28t-58 10.5z" />
    <glyph glyph-name="ntilde" unicode="&#xf1;" horiz-adv-x="642" 
d="M371 552q91 0 142.5 -47t51.5 -152v-353h-126v328q0 61 -24 91.5t-76 30.5q-76 0 -104 -47.5t-28 -137.5v-265h-126v542h97l18 -71h7q18 28 44 46t58 26.5t66 8.5zM127 605q3 36 13.5 62.5t27 44.5t37.5 27t46 9q21 0 41 -8t38.5 -19t36.5 -19t35 -8q18 0 31.5 14
t19.5 41h65q-6 -70 -40.5 -106.5t-83.5 -36.5q-21 0 -40 8t-38.5 19t-37 19t-35.5 8t-31.5 -13.5t-19.5 -41.5h-65z" />
    <glyph glyph-name="ograve" unicode="&#xf2;" horiz-adv-x="614" 
d="M565 272q0 -68 -18 -120t-51.5 -88.5t-82 -55t-107.5 -18.5q-56 0 -103 18.5t-81.5 55t-53.5 88.5t-19 120q0 90 31 152.5t89.5 95t138.5 32.5q76 0 133.5 -32.5t90.5 -95t33 -152.5zM178 272q0 -57 13.5 -97.5t42 -61.5t73.5 -21q46 0 74.5 21t41.5 61.5t13 97.5
q0 58 -13.5 97.5t-42 60t-73.5 20.5q-68 0 -98.5 -46t-30.5 -132zM290 766q13 -22 32 -49.5t39.5 -53t35.5 -44.5v-13h-83q-19 13 -42.5 32.5t-48 41.5t-45 42t-32.5 34v10h144z" />
    <glyph glyph-name="oacute" unicode="&#xf3;" horiz-adv-x="614" 
d="M565 272q0 -68 -18 -120t-51.5 -88.5t-82 -55t-107.5 -18.5q-56 0 -103 18.5t-81.5 55t-53.5 88.5t-19 120q0 90 31 152.5t89.5 95t138.5 32.5q76 0 133.5 -32.5t90.5 -95t33 -152.5zM178 272q0 -57 13.5 -97.5t42 -61.5t73.5 -21q46 0 74.5 21t41.5 61.5t13 97.5
q0 58 -13.5 97.5t-42 60t-73.5 20.5q-68 0 -98.5 -46t-30.5 -132zM494 756q-12 -14 -32.5 -34t-45 -42t-48 -41.5t-41.5 -32.5h-84v13q16 19 36 44.5t39.5 53t31.5 49.5h144v-10z" />
    <glyph glyph-name="ocircumflex" unicode="&#xf4;" horiz-adv-x="614" 
d="M565 272q0 -68 -18 -120t-51.5 -88.5t-82 -55t-107.5 -18.5q-56 0 -103 18.5t-81.5 55t-53.5 88.5t-19 120q0 90 31 152.5t89.5 95t138.5 32.5q76 0 133.5 -32.5t90.5 -95t33 -152.5zM178 272q0 -57 13.5 -97.5t42 -61.5t73.5 -21q46 0 74.5 21t41.5 61.5t13 97.5
q0 58 -13.5 97.5t-42 60t-73.5 20.5q-68 0 -98.5 -46t-30.5 -132zM379 766q13 -22 35.5 -49.5t46.5 -53.5t43 -45v-12h-85q-26 16 -56 38.5t-57 49.5q-26 -27 -55 -49t-55 -39h-84v12q19 20 42.5 45.5t46 53t35.5 49.5h143z" />
    <glyph glyph-name="otilde" unicode="&#xf5;" horiz-adv-x="614" 
d="M565 272q0 -68 -18 -120t-51.5 -88.5t-82 -55t-107.5 -18.5q-56 0 -103 18.5t-81.5 55t-53.5 88.5t-19 120q0 90 31 152.5t89.5 95t138.5 32.5q76 0 133.5 -32.5t90.5 -95t33 -152.5zM178 272q0 -57 13.5 -97.5t42 -61.5t73.5 -21q46 0 74.5 21t41.5 61.5t13 97.5
q0 58 -13.5 97.5t-42 60t-73.5 20.5q-68 0 -98.5 -46t-30.5 -132zM113 605q3 36 13.5 62.5t27 44.5t37.5 27t46 9q21 0 41 -8t38.5 -19t36.5 -19t35 -8q18 0 31.5 14t19.5 41h65q-6 -70 -40.5 -106.5t-83.5 -36.5q-21 0 -40 8t-38.5 19t-37 19t-35.5 8t-31.5 -13.5
t-19.5 -41.5h-65z" />
    <glyph glyph-name="odieresis" unicode="&#xf6;" horiz-adv-x="614" 
d="M565 272q0 -68 -18 -120t-51.5 -88.5t-82 -55t-107.5 -18.5q-56 0 -103 18.5t-81.5 55t-53.5 88.5t-19 120q0 90 31 152.5t89.5 95t138.5 32.5q76 0 133.5 -32.5t90.5 -95t33 -152.5zM178 272q0 -57 13.5 -97.5t42 -61.5t73.5 -21q46 0 74.5 21t41.5 61.5t13 97.5
q0 58 -13.5 97.5t-42 60t-73.5 20.5q-68 0 -98.5 -46t-30.5 -132zM150 684q0 32 17.5 46t42.5 14q24 0 42.5 -14t18.5 -46q0 -30 -18.5 -44.5t-42.5 -14.5q-25 0 -42.5 14.5t-17.5 44.5zM344 684q0 32 17.5 46t42.5 14q24 0 42.5 -14t18.5 -46q0 -30 -18.5 -44.5
t-42.5 -14.5q-25 0 -42.5 14.5t-17.5 44.5z" />
    <glyph glyph-name="divide.tamil" unicode="&#xf7;" horiz-adv-x="572" 
d="M46 306v93h479v-93h-479zM285 113q-27 0 -45 17t-18 52q0 37 17.5 53t45.5 16q27 0 45 -16t18 -53q0 -35 -18 -52t-45 -17zM285 454q-27 0 -45 17t-18 52q0 37 17.5 53t45.5 16q27 0 45 -16.5t18 -52.5t-18 -52.5t-45 -16.5z" />
    <glyph glyph-name="oslash" unicode="&#xf8;" horiz-adv-x="614" 
d="M565 272q0 -90 -31.5 -153t-90 -96t-138.5 -33q-33 0 -63 7t-56 19l-36 -51l-69 46l38 54q-33 37 -51.5 88.5t-18.5 118.5q0 135 69.5 207.5t189.5 72.5q35 0 66.5 -7.5t58.5 -21.5l32 46l68 -47l-34 -50q31 -35 48.5 -85.5t17.5 -114.5zM178 272q0 -29 3.5 -54t10.5 -45
l180 260q-13 8 -29.5 12.5t-36.5 4.5q-67 0 -97.5 -46t-30.5 -132zM436 272q0 27 -3 49t-9 40l-177 -256q13 -6 28 -9.5t32 -3.5q46 0 74.5 21t41.5 61.5t13 97.5z" />
    <glyph glyph-name="ugrave" unicode="&#xf9;" horiz-adv-x="642" 
d="M562 542v-542h-99l-17 70h-6q-17 -28 -44 -45.5t-59 -26t-66 -8.5q-60 0 -104 21t-67 64.5t-23 112.5v354h126v-329q0 -60 24 -90.5t76 -30.5q51 0 80 21.5t41 62.5t12 101v265h126zM304 766q13 -22 32 -49.5t39.5 -53t35.5 -44.5v-13h-83q-19 13 -42.5 32.5t-48 41.5
t-45 42t-32.5 34v10h144z" />
    <glyph glyph-name="uacute" unicode="&#xfa;" horiz-adv-x="642" 
d="M562 542v-542h-99l-17 70h-6q-17 -28 -44 -45.5t-59 -26t-66 -8.5q-60 0 -104 21t-67 64.5t-23 112.5v354h126v-329q0 -60 24 -90.5t76 -30.5q51 0 80 21.5t41 62.5t12 101v265h126zM508 756q-12 -14 -32.5 -34t-45 -42t-48 -41.5t-41.5 -32.5h-84v13q16 19 36 44.5
t39.5 53t31.5 49.5h144v-10z" />
    <glyph glyph-name="ucircumflex" unicode="&#xfb;" horiz-adv-x="642" 
d="M562 542v-542h-99l-17 70h-6q-17 -28 -44 -45.5t-59 -26t-66 -8.5q-60 0 -104 21t-67 64.5t-23 112.5v354h126v-329q0 -60 24 -90.5t76 -30.5q51 0 80 21.5t41 62.5t12 101v265h126zM393 766q13 -22 35.5 -49.5t46.5 -53.5t43 -45v-12h-85q-26 16 -56 38.5t-57 49.5
q-26 -27 -55 -49t-55 -39h-84v12q19 20 42.5 45.5t46 53t35.5 49.5h143z" />
    <glyph glyph-name="udieresis" unicode="&#xfc;" horiz-adv-x="642" 
d="M562 542v-542h-99l-17 70h-6q-17 -28 -44 -45.5t-59 -26t-66 -8.5q-60 0 -104 21t-67 64.5t-23 112.5v354h126v-329q0 -60 24 -90.5t76 -30.5q51 0 80 21.5t41 62.5t12 101v265h126zM164 684q0 32 17.5 46t42.5 14q24 0 42.5 -14t18.5 -46q0 -30 -18.5 -44.5t-42.5 -14.5
q-25 0 -42.5 14.5t-17.5 44.5zM358 684q0 32 17.5 46t42.5 14q24 0 42.5 -14t18.5 -46q0 -30 -18.5 -44.5t-42.5 -14.5q-25 0 -42.5 14.5t-17.5 44.5z" />
    <glyph glyph-name="yacute" unicode="&#xfd;" horiz-adv-x="547" 
d="M0 542h137l108 -306q7 -20 12.5 -38.5t9.5 -37.5t6 -38h4q4 25 12.5 55t17.5 59l104 306h136l-231 -614q-20 -53 -50.5 -91t-72 -57.5t-93.5 -19.5q-24 0 -42.5 2.5t-32.5 5.5v100q11 -2 26.5 -4t32.5 -2q31 0 53.5 12.5t38 34.5t25.5 49l16 44zM460 756
q-12 -14 -32.5 -34t-45 -42t-48 -41.5t-41.5 -32.5h-84v13q16 19 36 44.5t39.5 53t31.5 49.5h144v-10z" />
    <glyph glyph-name="thorn" unicode="&#xfe;" horiz-adv-x="626" 
d="M577 272q0 -92 -26.5 -155t-74 -95t-110.5 -32q-40 0 -70 9.5t-52 26t-37 35.5h-7q2 -9 3.5 -23.5t2.5 -29.5t1 -26v-222h-126v1000h126v-203q0 -21 -2 -46.5t-4 -39.5h6q15 23 36.5 41t52 29t70.5 11q95 0 153 -70.5t58 -209.5zM448 274q0 88 -28 132t-89 44
q-67 0 -94.5 -39.5t-29.5 -120.5v-17q0 -87 26.5 -133.5t98.5 -46.5q40 0 65.5 21t38 61.5t12.5 98.5z" />
    <glyph glyph-name="ydieresis" unicode="&#xff;" horiz-adv-x="547" 
d="M0 542h137l108 -306q7 -20 12.5 -38.5t9.5 -37.5t6 -38h4q4 25 12.5 55t17.5 59l104 306h136l-231 -614q-20 -53 -50.5 -91t-72 -57.5t-93.5 -19.5q-24 0 -42.5 2.5t-32.5 5.5v100q11 -2 26.5 -4t32.5 -2q31 0 53.5 12.5t38 34.5t25.5 49l16 44zM116 684q0 32 17.5 46
t42.5 14q24 0 42.5 -14t18.5 -46q0 -30 -18.5 -44.5t-42.5 -14.5q-25 0 -42.5 14.5t-17.5 44.5zM310 684q0 32 17.5 46t42.5 14q24 0 42.5 -14t18.5 -46q0 -30 -18.5 -44.5t-42.5 -14.5q-25 0 -42.5 14.5t-17.5 44.5z" />
    <glyph glyph-name="Amacron" unicode="&#x100;" horiz-adv-x="671" 
d="M534 0l-65 189h-269l-64 -189h-136l262 717h146l262 -717h-136zM374 483q-4 14 -12 38t-15.5 49.5t-11.5 42.5q-5 -20 -12.5 -46t-14 -49t-10.5 -35l-63 -184h201zM493 869v-91h-318v91h318z" />
    <glyph glyph-name="amacron" unicode="&#x101;" horiz-adv-x="588" 
d="M297 552q105 0 159.5 -45.5t54.5 -142.5v-364h-89l-25 75h-4q-23 -29 -47.5 -48.5t-56 -28t-76.5 -8.5q-48 0 -86.5 18t-60.5 55.5t-22 94.5q0 84 61.5 126.5t186.5 46.5l94 3v27q0 52 -25 74t-70 22q-41 0 -79 -12t-74 -28l-40 88q40 21 91.5 34t107.5 13zM320 254
q-83 -3 -115 -28.5t-32 -68.5q0 -38 23 -55t59 -17q55 0 93 31.5t38 93.5v46zM452 697v-91h-318v91h318z" />
    <glyph glyph-name="Abreve" unicode="&#x102;" horiz-adv-x="671" 
d="M534 0l-65 189h-269l-64 -189h-136l262 717h146l262 -717h-136zM374 483q-4 14 -12 38t-15.5 49.5t-11.5 42.5q-5 -20 -12.5 -46t-14 -49t-10.5 -35l-63 -184h201zM512 931q-3 -45 -26 -79.5t-62 -54t-92 -19.5q-81 0 -126.5 42t-49.5 111h72q3 -27 17 -40.5t37 -17
t51 -3.5q25 0 48 4.5t39 17.5t19 39h73z" />
    <glyph glyph-name="abreve" unicode="&#x103;" horiz-adv-x="588" 
d="M297 552q105 0 159.5 -45.5t54.5 -142.5v-364h-89l-25 75h-4q-23 -29 -47.5 -48.5t-56 -28t-76.5 -8.5q-48 0 -86.5 18t-60.5 55.5t-22 94.5q0 84 61.5 126.5t186.5 46.5l94 3v27q0 52 -25 74t-70 22q-41 0 -79 -12t-74 -28l-40 88q40 21 91.5 34t107.5 13zM320 254
q-83 -3 -115 -28.5t-32 -68.5q0 -38 23 -55t59 -17q55 0 93 31.5t38 93.5v46zM472 759q-3 -45 -26 -79.5t-62 -54t-92 -19.5q-81 0 -126.5 42t-49.5 111h72q3 -27 17 -40.5t37 -17t51 -3.5q25 0 48 4.5t39 17.5t19 39h73z" />
    <glyph glyph-name="Aogonek" unicode="&#x104;" horiz-adv-x="671" 
d="M534 0l-65 189h-269l-64 -189h-136l262 717h146l262 -717h-136zM374 483q-4 14 -12 38t-15.5 49.5t-11.5 42.5q-5 -20 -12.5 -46t-14 -49t-10.5 -35l-63 -184h201zM563 -113q0 -21 11.5 -31.5t30.5 -10.5q16 0 29.5 3t23.5 5v-75q-16 -4 -32.5 -7t-38.5 -3q-55 0 -85 29
t-30 76q0 29 15 56t38 49t50 38l59 -16q-34 -32 -52.5 -58.5t-18.5 -54.5z" />
    <glyph glyph-name="aogonek" unicode="&#x105;" horiz-adv-x="588" 
d="M297 552q105 0 159.5 -45.5t54.5 -142.5v-364h-89l-25 75h-4q-23 -29 -47.5 -48.5t-56 -28t-76.5 -8.5q-48 0 -86.5 18t-60.5 55.5t-22 94.5q0 84 61.5 126.5t186.5 46.5l94 3v27q0 52 -25 74t-70 22q-41 0 -79 -12t-74 -28l-40 88q40 21 91.5 34t107.5 13zM320 254
q-83 -3 -115 -28.5t-32 -68.5q0 -38 23 -55t59 -17q55 0 93 31.5t38 93.5v46zM432 -113q0 -21 11.5 -31.5t30.5 -10.5q16 0 29.5 3t23.5 5v-75q-16 -4 -32.5 -7t-38.5 -3q-55 0 -85 29t-30 76q0 29 15 56t38 49t50 38l59 -16q-34 -32 -52.5 -58.5t-18.5 -54.5z" />
    <glyph glyph-name="Cacute" unicode="&#x106;" horiz-adv-x="635" 
d="M397 616q-49 0 -87 -18t-64.5 -52t-40 -82t-13.5 -108q0 -81 22 -138.5t67.5 -88.5t114.5 -31q46 0 88.5 9.5t89.5 25.5v-109q-44 -18 -88.5 -26t-102.5 -8q-110 0 -182 45.5t-107 128t-35 193.5q0 81 22.5 148t65 116t105.5 76t145 27q54 0 106.5 -12.5t98.5 -34.5
l-44 -105q-38 17 -78.5 30.5t-82.5 13.5zM565 928q-12 -14 -32.5 -34t-45 -42t-48 -41.5t-41.5 -32.5h-84v13q16 19 36 44.5t39.5 53t31.5 49.5h144v-10z" />
    <glyph glyph-name="cacute" unicode="&#x107;" horiz-adv-x="501" 
d="M300 -10q-77 0 -133.5 29.5t-87 91t-30.5 157.5q0 100 33.5 162.5t92.5 92t135 29.5q51 0 91 -10t68 -24l-37 -99q-31 12 -62 20.5t-60 8.5q-45 0 -74.5 -20t-43.5 -59.5t-14 -99.5q0 -58 14.5 -97t43.5 -58.5t72 -19.5q46 0 81 11t66 30v-109q-31 -19 -66.5 -27.5
t-88.5 -8.5zM473 756q-12 -14 -32.5 -34t-45 -42t-48 -41.5t-41.5 -32.5h-84v13q16 19 36 44.5t39.5 53t31.5 49.5h144v-10z" />
    <glyph glyph-name="Cdotaccent" unicode="&#x10a;" horiz-adv-x="635" 
d="M397 616q-49 0 -87 -18t-64.5 -52t-40 -82t-13.5 -108q0 -81 22 -138.5t67.5 -88.5t114.5 -31q46 0 88.5 9.5t89.5 25.5v-109q-44 -18 -88.5 -26t-102.5 -8q-110 0 -182 45.5t-107 128t-35 193.5q0 81 22.5 148t65 116t105.5 76t145 27q54 0 106.5 -12.5t98.5 -34.5
l-44 -105q-38 17 -78.5 30.5t-82.5 13.5zM378 923q28 0 49 -14.5t21 -51.5q0 -36 -21 -51.5t-49 -15.5q-29 0 -49.5 15.5t-20.5 51.5q0 37 20.5 51.5t49.5 14.5z" />
    <glyph glyph-name="cdotaccent" unicode="&#x10b;" horiz-adv-x="501" 
d="M300 -10q-77 0 -133.5 29.5t-87 91t-30.5 157.5q0 100 33.5 162.5t92.5 92t135 29.5q51 0 91 -10t68 -24l-37 -99q-31 12 -62 20.5t-60 8.5q-45 0 -74.5 -20t-43.5 -59.5t-14 -99.5q0 -58 14.5 -97t43.5 -58.5t72 -19.5q46 0 81 11t66 30v-109q-31 -19 -66.5 -27.5
t-88.5 -8.5zM286 751q28 0 49 -14.5t21 -51.5q0 -36 -21 -51.5t-49 -15.5q-29 0 -49.5 15.5t-20.5 51.5q0 37 20.5 51.5t49.5 14.5z" />
    <glyph glyph-name="Ccaron" unicode="&#x10c;" horiz-adv-x="635" 
d="M397 616q-49 0 -87 -18t-64.5 -52t-40 -82t-13.5 -108q0 -81 22 -138.5t67.5 -88.5t114.5 -31q46 0 88.5 9.5t89.5 25.5v-109q-44 -18 -88.5 -26t-102.5 -8q-110 0 -182 45.5t-107 128t-35 193.5q0 81 22.5 148t65 116t105.5 76t145 27q54 0 106.5 -12.5t98.5 -34.5
l-44 -105q-38 17 -78.5 30.5t-82.5 13.5zM306 778q-13 23 -35.5 50t-46 53t-42.5 44v13h84q26 -16 55.5 -38.5t54.5 -49.5q27 27 57 49.5t56 38.5h85v-13q-19 -18 -43 -44t-46.5 -53t-35.5 -50h-143z" />
    <glyph glyph-name="ccaron" unicode="&#x10d;" horiz-adv-x="501" 
d="M300 -10q-77 0 -133.5 29.5t-87 91t-30.5 157.5q0 100 33.5 162.5t92.5 92t135 29.5q51 0 91 -10t68 -24l-37 -99q-31 12 -62 20.5t-60 8.5q-45 0 -74.5 -20t-43.5 -59.5t-14 -99.5q0 -58 14.5 -97t43.5 -58.5t72 -19.5q46 0 81 11t66 30v-109q-31 -19 -66.5 -27.5
t-88.5 -8.5zM214 606q-13 23 -35.5 50t-46 53t-42.5 44v13h84q26 -16 55.5 -38.5t54.5 -49.5q27 27 57 49.5t56 38.5h85v-13q-19 -18 -43 -44t-46.5 -53t-35.5 -50h-143z" />
    <glyph glyph-name="Dcaron" unicode="&#x10e;" horiz-adv-x="736" 
d="M677 364q0 -120 -45.5 -201t-131 -122t-206.5 -41h-201v714h222q111 0 192 -40t125.5 -117.5t44.5 -192.5zM543 360q0 85 -26 140t-77 81.5t-125 26.5h-94v-501h77q124 0 184.5 63.5t60.5 189.5zM295 778q-13 23 -35.5 50t-46 53t-42.5 44v13h84q26 -16 55.5 -38.5
t54.5 -49.5q27 27 57 49.5t56 38.5h85v-13q-19 -18 -43 -44t-46.5 -53t-35.5 -50h-143z" />
    <glyph glyph-name="dcaron" unicode="&#x10f;" horiz-adv-x="626" 
d="M260 -10q-94 0 -152.5 70.5t-58.5 209.5t59 210.5t155 71.5q40 0 70.5 -10.5t52.5 -28.5t37 -40h6q-3 14 -6 43t-3 54v190h126v-760h-98l-23 71h-5q-15 -22 -37 -40.5t-52 -29.5t-71 -11zM298 92q70 0 99 40t29 121v16q0 88 -27.5 134t-102.5 46q-57 0 -88 -47.5
t-31 -133.5t31 -131t90 -45zM731 750q-8 -20 -20 -45.5t-26.5 -52.5t-31.5 -52h-72v13q5 14 9.5 33t8.5 39t7.5 39.5t5.5 35.5h119v-10z" />
    <glyph glyph-name="Dcroat" unicode="&#x110;" horiz-adv-x="736" 
d="M315 714q110 0 191.5 -40t126 -117.5t44.5 -192.5q0 -120 -45.5 -201t-131.5 -122t-207 -41h-198v300h-69v106h69v308h220zM315 608h-92v-202h140v-106h-140v-193h74q124 0 185 64t61 190q0 84 -27 139t-78 81.5t-123 26.5z" />
    <glyph glyph-name="dcroat" unicode="&#x111;" horiz-adv-x="637" 
d="M260 -10q-94 0 -152.5 68.5t-58.5 201.5q0 136 59 204t155 68q40 0 70.5 -10.5t52.5 -28.5t37 -40h6q-4 18 -6.5 48.5t-2.5 51.5v39h-177v85h177v83h126v-83h76v-85h-76v-592h-99l-23 71h-5q-15 -22 -37 -40.5t-51.5 -29.5t-70.5 -11zM298 92q70 0 99 37.5t29 114.5v15
q0 83 -27.5 127t-102.5 44q-57 0 -87.5 -45t-30.5 -127q0 -81 30.5 -123.5t89.5 -42.5z" />
    <glyph glyph-name="Emacron" unicode="&#x112;" horiz-adv-x="558" 
d="M499 0h-406v714h406v-107h-278v-182h260v-107h-260v-210h278v-108zM461 869v-91h-318v91h318z" />
    <glyph glyph-name="emacron" unicode="&#x113;" horiz-adv-x="581" 
d="M299 552q73 0 125.5 -29.5t81.5 -84t29 -132.5v-64h-358q2 -74 41 -114.5t108 -40.5q53 0 94.5 10.5t85.5 30.5v-101q-40 -19 -83 -28t-103 -9q-79 0 -140.5 30.5t-96 92.5t-34.5 154q0 93 31.5 156.5t87.5 96t131 32.5zM299 459q-50 0 -81.5 -32.5t-37.5 -96.5h233
q0 38 -12.5 67t-37.5 45.5t-64 16.5zM450 697v-91h-318v91h318z" />
    <glyph glyph-name="Edotaccent" unicode="&#x116;" horiz-adv-x="558" 
d="M499 0h-406v714h406v-107h-278v-182h260v-107h-260v-210h278v-108zM303 923q28 0 49 -14.5t21 -51.5q0 -36 -21 -51.5t-49 -15.5q-29 0 -49.5 15.5t-20.5 51.5q0 37 20.5 51.5t49.5 14.5z" />
    <glyph glyph-name="edotaccent" unicode="&#x117;" horiz-adv-x="581" 
d="M299 552q73 0 125.5 -29.5t81.5 -84t29 -132.5v-64h-358q2 -74 41 -114.5t108 -40.5q53 0 94.5 10.5t85.5 30.5v-101q-40 -19 -83 -28t-103 -9q-79 0 -140.5 30.5t-96 92.5t-34.5 154q0 93 31.5 156.5t87.5 96t131 32.5zM299 459q-50 0 -81.5 -32.5t-37.5 -96.5h233
q0 38 -12.5 67t-37.5 45.5t-64 16.5zM292 751q28 0 49 -14.5t21 -51.5q0 -36 -21 -51.5t-49 -15.5q-29 0 -49.5 15.5t-20.5 51.5q0 37 20.5 51.5t49.5 14.5z" />
    <glyph glyph-name="Eogonek" unicode="&#x118;" horiz-adv-x="558" 
d="M499 0h-406v714h406v-107h-278v-182h260v-107h-260v-210h278v-108zM403 -113q0 -21 11.5 -31.5t30.5 -10.5q16 0 29.5 3t23.5 5v-75q-16 -4 -32.5 -7t-38.5 -3q-55 0 -85 29t-30 76q0 29 15 56t38 49t50 38l59 -16q-34 -32 -52.5 -58.5t-18.5 -54.5z" />
    <glyph glyph-name="eogonek" unicode="&#x119;" horiz-adv-x="581" 
d="M404 -113q0 -21 11.5 -31.5t29.5 -10.5q17 0 30.5 3l22.5 5v-75q-15 -4 -31.5 -7t-39.5 -3q-54 0 -84 29t-30 76q0 29 14.5 56t38.5 49t50 38l90 11q-40 -33 -62 -58t-31 -44t-9 -38zM299 552q73 0 125.5 -29.5t81.5 -84t29 -132.5v-64h-358q2 -74 41 -114.5t108 -40.5
q53 0 94.5 10.5t85.5 30.5v-101q-40 -19 -83 -28t-103 -9q-79 0 -140.5 30.5t-96 92.5t-34.5 154q0 93 31.5 156.5t87.5 96t131 32.5zM299 459q-50 0 -81.5 -32.5t-37.5 -96.5h233q0 38 -12.5 67t-37.5 45.5t-64 16.5z" />
    <glyph glyph-name="Ecaron" unicode="&#x11a;" horiz-adv-x="558" 
d="M499 0h-406v714h406v-107h-278v-182h260v-107h-260v-210h278v-108zM231 778q-13 23 -35.5 50t-46 53t-42.5 44v13h84q26 -16 55.5 -38.5t54.5 -49.5q27 27 57 49.5t56 38.5h85v-13q-19 -18 -43 -44t-46.5 -53t-35.5 -50h-143z" />
    <glyph glyph-name="ecaron" unicode="&#x11b;" horiz-adv-x="581" 
d="M299 552q73 0 125.5 -29.5t81.5 -84t29 -132.5v-64h-358q2 -74 41 -114.5t108 -40.5q53 0 94.5 10.5t85.5 30.5v-101q-40 -19 -83 -28t-103 -9q-79 0 -140.5 30.5t-96 92.5t-34.5 154q0 93 31.5 156.5t87.5 96t131 32.5zM299 459q-50 0 -81.5 -32.5t-37.5 -96.5h233
q0 38 -12.5 67t-37.5 45.5t-64 16.5zM220 606q-13 23 -35.5 50t-46 53t-42.5 44v13h84q26 -16 55.5 -38.5t54.5 -49.5q27 27 57 49.5t56 38.5h85v-13q-19 -18 -43 -44t-46.5 -53t-35.5 -50h-143z" />
    <glyph glyph-name="Gbreve" unicode="&#x11e;" horiz-adv-x="726" 
d="M378 392h270v-363q-57 -19 -117 -29t-136 -10q-108 0 -183 43t-114 125t-39 200q0 112 44 194t126.5 127t201.5 45q58 0 112.5 -11.5t99.5 -31.5l-44 -105q-34 17 -78.5 28.5t-92.5 11.5q-73 0 -126 -32t-81.5 -90.5t-28.5 -137.5q0 -76 22 -134.5t70 -91t125 -32.5
q38 0 64.5 3.5t48.5 9.5v172h-144v109zM579 931q-3 -45 -26 -79.5t-62 -54t-92 -19.5q-81 0 -126.5 42t-49.5 111h72q3 -27 17 -40.5t37 -17t51 -3.5q25 0 48 4.5t39 17.5t19 39h73z" />
    <glyph glyph-name="gbreve" unicode="&#x11f;" horiz-adv-x="626" 
d="M263 552q51 0 92 -20t69 -60h5l12 70h105v-546q0 -77 -29 -129.5t-87 -79.5t-145 -27q-58 0 -107 7.5t-93 25.5v104q46 -20 98.5 -31t109.5 -11q62 0 94.5 35t32.5 100v14q0 15 1.5 35t2.5 32h-4q-28 -42 -68 -61.5t-92 -19.5q-99 0 -155 74t-56 206t57 207t157 75z
M296 449q-38 0 -64.5 -20.5t-40 -60.5t-13.5 -100q0 -88 30 -133t90 -45q34 0 58 8.5t39.5 28t23.5 50t8 73.5v19q0 65 -14 104.5t-42.5 57.5t-74.5 18zM485 759q-3 -45 -26 -79.5t-62 -54t-92 -19.5q-81 0 -126.5 42t-49.5 111h72q3 -27 17 -40.5t37 -17t51 -3.5
q25 0 48 4.5t39 17.5t19 39h73z" />
    <glyph glyph-name="Gdotaccent" unicode="&#x120;" horiz-adv-x="726" 
d="M378 392h270v-363q-57 -19 -117 -29t-136 -10q-108 0 -183 43t-114 125t-39 200q0 112 44 194t126.5 127t201.5 45q58 0 112.5 -11.5t99.5 -31.5l-44 -105q-34 17 -78.5 28.5t-92.5 11.5q-73 0 -126 -32t-81.5 -90.5t-28.5 -137.5q0 -76 22 -134.5t70 -91t125 -32.5
q38 0 64.5 3.5t48.5 9.5v172h-144v109zM402 923q28 0 49 -14.5t21 -51.5q0 -36 -21 -51.5t-49 -15.5q-29 0 -49.5 15.5t-20.5 51.5q0 37 20.5 51.5t49.5 14.5z" />
    <glyph glyph-name="gdotaccent" unicode="&#x121;" horiz-adv-x="626" 
d="M263 552q51 0 92 -20t69 -60h5l12 70h105v-546q0 -77 -29 -129.5t-87 -79.5t-145 -27q-58 0 -107 7.5t-93 25.5v104q46 -20 98.5 -31t109.5 -11q62 0 94.5 35t32.5 100v14q0 15 1.5 35t2.5 32h-4q-28 -42 -68 -61.5t-92 -19.5q-99 0 -155 74t-56 206t57 207t157 75z
M296 449q-38 0 -64.5 -20.5t-40 -60.5t-13.5 -100q0 -88 30 -133t90 -45q34 0 58 8.5t39.5 28t23.5 50t8 73.5v19q0 65 -14 104.5t-42.5 57.5t-74.5 18zM308 751q28 0 49 -14.5t21 -51.5q0 -36 -21 -51.5t-49 -15.5q-29 0 -49.5 15.5t-20.5 51.5q0 37 20.5 51.5t49.5 14.5z
" />
    <glyph glyph-name="uni0122" unicode="&#x122;" horiz-adv-x="726" 
d="M378 392h270v-363q-57 -19 -117 -29t-136 -10q-108 0 -183 43t-114 125t-39 200q0 112 44 194t126.5 127t201.5 45q58 0 112.5 -11.5t99.5 -31.5l-44 -105q-34 17 -78.5 28.5t-92.5 11.5q-73 0 -126 -32t-81.5 -90.5t-28.5 -137.5q0 -76 22 -134.5t70 -91t125 -32.5
q38 0 64.5 3.5t48.5 9.5v172h-144v109zM471 -71q-7 -20 -19.5 -45.5t-28 -52.5t-32.5 -52h-72v13q6 18 13 44.5t13 54t8 48.5h118v-10z" />
    <glyph glyph-name="uni0123" unicode="&#x123;" horiz-adv-x="626" 
d="M263 552q51 0 92 -20t69 -60h5l12 70h105v-546q0 -77 -29 -129.5t-87 -79.5t-145 -27q-58 0 -107 7.5t-93 25.5v104q46 -20 98.5 -31t109.5 -11q62 0 94.5 35t32.5 100v14q0 15 1.5 35t2.5 32h-4q-28 -42 -68 -61.5t-92 -19.5q-99 0 -155 74t-56 206t57 207t157 75z
M296 449q-38 0 -64.5 -20.5t-40 -60.5t-13.5 -100q0 -88 30 -133t90 -45q34 0 58 8.5t39.5 28t23.5 50t8 73.5v19q0 65 -14 104.5t-42.5 57.5t-74.5 18zM381 753q-7 -18 -13.5 -44.5t-12.5 -53.5t-9 -49h-119v10q8 20 20.5 45.5t28 53t32.5 51.5h73v-13z" />
    <glyph glyph-name="Hbar" unicode="&#x126;" horiz-adv-x="756" 
d="M93 0v522h-93v88h93v104h128v-104h314v104h128v-104h93v-88h-93v-522h-128v317h-314v-317h-128zM221 426h314v96h-314v-96z" />
    <glyph glyph-name="hbar" unicode="&#x127;" horiz-adv-x="642" 
d="M207 760v-83h176v-85h-176v-39q0 -32 -2.5 -62.5t-4.5 -45.5h8q18 28 42.5 45.5t55 26.5t64.5 9q61 0 105 -21t67 -64.5t23 -113.5v-327h-126v302q0 61 -24 91.5t-76 30.5q-50 0 -79 -21.5t-41 -62.5t-12 -101v-239h-126v592h-76v85h76v83h126z" />
    <glyph glyph-name="Imacron" unicode="&#x12a;" horiz-adv-x="370" 
d="M335 0h-300v73l86 32v503l-86 33v73h300v-73l-86 -33v-503l86 -32v-73zM344 869v-91h-318v91h318z" />
    <glyph glyph-name="imacron" unicode="&#x12b;" horiz-adv-x="287" 
d="M207 0h-126v542h126v-542zM302 697v-91h-318v91h318z" />
    <glyph glyph-name="Iogonek" unicode="&#x12e;" horiz-adv-x="370" 
d="M335 0h-300v73l86 32v503l-86 33v73h300v-73l-86 -33v-503l86 -32v-73zM236 -113q0 -21 11.5 -31.5t30.5 -10.5q16 0 29.5 3t23.5 5v-75q-16 -4 -32.5 -7t-38.5 -3q-55 0 -85 29t-30 76q0 29 15 56t38 49t50 38l59 -16q-34 -32 -52.5 -58.5t-18.5 -54.5z" />
    <glyph glyph-name="iogonek" unicode="&#x12f;" horiz-adv-x="287" 
d="M207 542v-542h-126v542h126zM144 751q28 0 49 -14.5t21 -51.5q0 -36 -21 -51.5t-49 -15.5q-29 0 -49.5 15.5t-20.5 51.5q0 37 20.5 51.5t49.5 14.5zM129 -113q0 -21 11.5 -31.5t30.5 -10.5q16 0 29.5 3t23.5 5v-75q-16 -4 -32.5 -7t-38.5 -3q-55 0 -85 29t-30 76
q0 29 15 56t38 49t50 38l59 -16q-34 -32 -52.5 -58.5t-18.5 -54.5z" />
    <glyph glyph-name="Idotaccent" unicode="&#x130;" horiz-adv-x="370" 
d="M335 0h-300v73l86 32v503l-86 33v73h300v-73l-86 -33v-503l86 -32v-73zM186 923q28 0 49 -14.5t21 -51.5q0 -36 -21 -51.5t-49 -15.5q-29 0 -49.5 15.5t-20.5 51.5q0 37 20.5 51.5t49.5 14.5z" />
    <glyph glyph-name="dotlessi" unicode="&#x131;" horiz-adv-x="287" 
d="M207 0h-126v542h126v-542z" />
    <glyph glyph-name="IJ" unicode="&#x132;" horiz-adv-x="679" 
d="M335 0h-300v73l86 32v503l-86 33v73h300v-73l-86 -33v-503l86 -32v-73zM378 -202q-28 0 -48 3.5t-36 7.5v107q16 -4 34 -7t38 -3q25 0 47 10t35 37t13 77v684h128v-681q0 -84 -26.5 -135.5t-74 -75.5t-110.5 -24z" />
    <glyph glyph-name="ij" unicode="&#x133;" horiz-adv-x="575" 
d="M207 542v-542h-126v542h126zM144 751q28 0 49 -14.5t21 -51.5q0 -36 -21 -51.5t-49 -15.5q-29 0 -49.5 15.5t-20.5 51.5q0 37 20.5 51.5t49.5 14.5zM316 -240q-25 0 -49 3.5t-41 8.5v100q17 -4 33 -7t36 -3q31 0 52 17.5t21 66.5v596h126v-609q0 -50 -18 -89t-57 -61.5
t-103 -22.5zM361 685q0 37 20.5 51.5t49.5 14.5q28 0 49 -14.5t21 -51.5q0 -36 -21 -51.5t-49 -15.5q-29 0 -49.5 15.5t-20.5 51.5z" />
    <glyph glyph-name="uni0136" unicode="&#x136;" horiz-adv-x="647" 
d="M647 0h-147l-212 316l-67 -53v-263h-128v714h128v-336q20 25 41 51l42 52l193 233h145l-262 -314zM417 -71q-7 -20 -19.5 -45.5t-28 -52.5t-32.5 -52h-72v13q6 18 13 44.5t13 54t8 48.5h118v-10z" />
    <glyph glyph-name="uni0137" unicode="&#x137;" horiz-adv-x="588" 
d="M206 399q0 -26 -2 -54.5t-4 -55.5h3q8 12 19 26.5t22.5 29t22.5 26.5l160 171h143l-217 -234l231 -308h-147l-168 232l-63 -52v-180h-125v760h125v-361zM370 -71q-7 -20 -19.5 -45.5t-28 -52.5t-32.5 -52h-72v13q6 18 13 44.5t13 54t8 48.5h118v-10z" />
    <glyph glyph-name="Lacute" unicode="&#x139;" horiz-adv-x="550" 
d="M93 0v714h128v-606h298v-108h-426zM342 928q-12 -14 -32.5 -34t-45 -42t-48 -41.5t-41.5 -32.5h-84v13q16 19 36 44.5t39.5 53t31.5 49.5h144v-10z" />
    <glyph glyph-name="lacute" unicode="&#x13a;" horiz-adv-x="287" 
d="M207 0h-126v760h126v-760zM331 974q-12 -14 -32.5 -34t-45 -42t-48 -41.5t-41.5 -32.5h-84v13q16 19 36 44.5t39.5 53t31.5 49.5h144v-10z" />
    <glyph glyph-name="uni013B" unicode="&#x13b;" horiz-adv-x="550" 
d="M93 0v714h128v-606h298v-108h-426zM381 -71q-7 -20 -19.5 -45.5t-28 -52.5t-32.5 -52h-72v13q6 18 13 44.5t13 54t8 48.5h118v-10z" />
    <glyph glyph-name="uni013C" unicode="&#x13c;" horiz-adv-x="287" 
d="M207 0h-126v760h126v-760zM220 -71q-7 -20 -19.5 -45.5t-28 -52.5t-32.5 -52h-72v13q6 18 13 44.5t13 54t8 48.5h118v-10z" />
    <glyph glyph-name="Lcaron" unicode="&#x13d;" horiz-adv-x="550" 
d="M93 0v714h128v-606h298v-108h-426zM536 704q-8 -20 -20 -45.5t-26.5 -52.5t-31.5 -52h-72v13q5 14 9.5 33t8.5 39t7.5 39.5t5.5 35.5h119v-10z" />
    <glyph glyph-name="lcaron" unicode="&#x13e;" horiz-adv-x="287" 
d="M207 0h-126v760h126v-760zM390 750q-8 -20 -20 -45.5t-26.5 -52.5t-31.5 -52h-72v13q5 14 9.5 33t8.5 39t7.5 39.5t5.5 35.5h119v-10z" />
    <glyph glyph-name="Lslash" unicode="&#x141;" horiz-adv-x="550" 
d="M93 0v243l-40 -23l-47 82l87 53v359h128v-282l95 57l49 -83l-144 -86v-212h298v-108h-426z" />
    <glyph glyph-name="lslash" unicode="&#x142;" horiz-adv-x="287" 
d="M78 0v253l-41 -26l-48 83l89 55v395h126v-317l45 30l50 -82l-95 -60v-331h-126z" />
    <glyph glyph-name="Nacute" unicode="&#x143;" horiz-adv-x="793" 
d="M700 0h-159l-338 560h-4q2 -30 3.5 -63t3 -67.5t2.5 -69.5v-360h-115v714h158l337 -556h3q-1 26 -2 59t-2.5 67.5t-2.5 66.5v363h116v-714zM584 928q-12 -14 -32.5 -34t-45 -42t-48 -41.5t-41.5 -32.5h-84v13q16 19 36 44.5t39.5 53t31.5 49.5h144v-10z" />
    <glyph glyph-name="nacute" unicode="&#x144;" horiz-adv-x="642" 
d="M371 552q91 0 142.5 -47t51.5 -152v-353h-126v328q0 61 -24 91.5t-76 30.5q-76 0 -104 -47.5t-28 -137.5v-265h-126v542h97l18 -71h7q18 28 44 46t58 26.5t66 8.5zM508 756q-12 -14 -32.5 -34t-45 -42t-48 -41.5t-41.5 -32.5h-84v13q16 19 36 44.5t39.5 53t31.5 49.5h144
v-10z" />
    <glyph glyph-name="uni0145" unicode="&#x145;" horiz-adv-x="793" 
d="M700 0h-159l-338 560h-4q2 -30 3.5 -63t3 -67.5t2.5 -69.5v-360h-115v714h158l337 -556h3q-1 26 -2 59t-2.5 67.5t-2.5 66.5v363h116v-714zM473 -71q-7 -20 -19.5 -45.5t-28 -52.5t-32.5 -52h-72v13q6 18 13 44.5t13 54t8 48.5h118v-10z" />
    <glyph glyph-name="uni0146" unicode="&#x146;" horiz-adv-x="642" 
d="M371 552q91 0 142.5 -47t51.5 -152v-353h-126v328q0 61 -24 91.5t-76 30.5q-76 0 -104 -47.5t-28 -137.5v-265h-126v542h97l18 -71h7q18 28 44 46t58 26.5t66 8.5zM397 -71q-7 -20 -19.5 -45.5t-28 -52.5t-32.5 -52h-72v13q6 18 13 44.5t13 54t8 48.5h118v-10z" />
    <glyph glyph-name="Ncaron" unicode="&#x147;" horiz-adv-x="793" 
d="M700 0h-159l-338 560h-4q2 -30 3.5 -63t3 -67.5t2.5 -69.5v-360h-115v714h158l337 -556h3q-1 26 -2 59t-2.5 67.5t-2.5 66.5v363h116v-714zM325 778q-13 23 -35.5 50t-46 53t-42.5 44v13h84q26 -16 55.5 -38.5t54.5 -49.5q27 27 57 49.5t56 38.5h85v-13q-19 -18 -43 -44
t-46.5 -53t-35.5 -50h-143z" />
    <glyph glyph-name="ncaron" unicode="&#x148;" horiz-adv-x="642" 
d="M371 552q91 0 142.5 -47t51.5 -152v-353h-126v328q0 61 -24 91.5t-76 30.5q-76 0 -104 -47.5t-28 -137.5v-265h-126v542h97l18 -71h7q18 28 44 46t58 26.5t66 8.5zM250 606q-13 23 -35.5 50t-46 53t-42.5 44v13h84q26 -16 55.5 -38.5t54.5 -49.5q27 27 57 49.5t56 38.5
h85v-13q-19 -18 -43 -44t-46.5 -53t-35.5 -50h-143z" />
    <glyph glyph-name="Eng" unicode="&#x14a;" horiz-adv-x="793" 
d="M488 -202q-29 0 -51 3.5t-37 7.5v102q17 -4 36.5 -7t42.5 -3q33 0 56.5 9.5t37 31.5t13.5 59l-383 559h-4q2 -25 4 -61.5t3.5 -74.5t1.5 -69v-355h-115v714h158l337 -490h3q-1 26 -3 61t-3 71.5t-1 65.5v292h116v-712q0 -70 -26 -115.5t-74 -67t-112 -21.5z" />
    <glyph glyph-name="eng" unicode="&#x14b;" horiz-adv-x="642" 
d="M401 -240q-24 0 -45.5 3.5t-37.5 8.5v100q15 -4 28.5 -7t30.5 -3q26 0 44 17.5t18 66.5v389q0 58 -24.5 86.5t-74.5 28.5q-51 0 -80 -21.5t-41 -62.5t-12 -101v-265h-126v542h97l18 -71h8q18 28 43.5 46t57.5 26.5t66 8.5q61 0 104.5 -20.5t66.5 -64.5t23 -113v-421
q0 -50 -16.5 -89t-52.5 -61.5t-95 -22.5z" />
    <glyph glyph-name="Omacron" unicode="&#x14c;" horiz-adv-x="790" 
d="M731 358q0 -83 -20.5 -150.5t-62 -116.5t-105 -75t-148.5 -26q-86 0 -149.5 26.5t-104.5 75t-61.5 116.5t-20.5 151q0 111 36.5 193t111 127.5t189.5 45.5q113 0 187 -45.5t111 -128t37 -193.5zM194 358q0 -81 21.5 -139t66 -89t113.5 -31q71 0 115 31t65 89t21 139
q0 121 -47 190t-153 69q-70 0 -114.5 -31t-66 -89t-21.5 -139zM554 869v-91h-318v91h318z" />
    <glyph glyph-name="omacron" unicode="&#x14d;" horiz-adv-x="614" 
d="M565 272q0 -68 -18 -120t-51.5 -88.5t-82 -55t-107.5 -18.5q-56 0 -103 18.5t-81.5 55t-53.5 88.5t-19 120q0 90 31 152.5t89.5 95t138.5 32.5q76 0 133.5 -32.5t90.5 -95t33 -152.5zM178 272q0 -57 13.5 -97.5t42 -61.5t73.5 -21q46 0 74.5 21t41.5 61.5t13 97.5
q0 58 -13.5 97.5t-42 60t-73.5 20.5q-68 0 -98.5 -46t-30.5 -132zM466 697v-91h-318v91h318z" />
    <glyph glyph-name="Ohungarumlaut" unicode="&#x150;" horiz-adv-x="790" 
d="M731 358q0 -83 -20.5 -150.5t-62 -116.5t-105 -75t-148.5 -26q-86 0 -149.5 26.5t-104.5 75t-61.5 116.5t-20.5 151q0 111 36.5 193t111 127.5t189.5 45.5q113 0 187 -45.5t111 -128t37 -193.5zM194 358q0 -81 21.5 -139t66 -89t113.5 -31q71 0 115 31t65 89t21 139
q0 121 -47 190t-153 69q-70 0 -114.5 -31t-66 -89t-21.5 -139zM599 928q-8 -13 -25.5 -33t-40.5 -42t-45.5 -41.5t-40.5 -33.5h-68v13q14 19 31.5 45t34 53t26.5 49h128v-10zM412 928q-8 -13 -25.5 -33t-40.5 -42t-45.5 -41.5t-40.5 -33.5h-68v13q14 19 31 45t33 53t28 49
h128v-10z" />
    <glyph glyph-name="ohungarumlaut" unicode="&#x151;" horiz-adv-x="614" 
d="M565 272q0 -68 -18 -120t-51.5 -88.5t-82 -55t-107.5 -18.5q-56 0 -103 18.5t-81.5 55t-53.5 88.5t-19 120q0 90 31 152.5t89.5 95t138.5 32.5q76 0 133.5 -32.5t90.5 -95t33 -152.5zM178 272q0 -57 13.5 -97.5t42 -61.5t73.5 -21q46 0 74.5 21t41.5 61.5t13 97.5
q0 58 -13.5 97.5t-42 60t-73.5 20.5q-68 0 -98.5 -46t-30.5 -132zM511 756q-8 -13 -25.5 -33t-40.5 -42t-45.5 -41.5t-40.5 -33.5h-68v13q14 19 31.5 45t34 53t26.5 49h128v-10zM324 756q-8 -13 -25.5 -33t-40.5 -42t-45.5 -41.5t-40.5 -33.5h-68v13q14 19 31 45t33 53
t28 49h128v-10z" />
    <glyph glyph-name="OE" unicode="&#x152;" horiz-adv-x="956" 
d="M382 725q26 0 54.5 -3t50.5 -8h410v-107h-280v-182h261v-107h-261v-210h280v-108h-409q-22 -4 -50.5 -7t-54.5 -3q-110 0 -182 46t-107 129t-35 194t35 193t106.5 127.5t181.5 45.5zM385 617q-50 0 -86.5 -17.5t-60 -51.5t-35 -81.5t-11.5 -108.5q0 -81 20.5 -139t63 -89
t108.5 -31q28 0 57 4.5t49 13.5v481q-20 9 -48.5 14t-56.5 5z" />
    <glyph glyph-name="oe" unicode="&#x153;" horiz-adv-x="966" 
d="M681 552q74 0 127.5 -29.5t82.5 -84t29 -132.5v-64h-361q2 -76 41 -115.5t107 -39.5q55 0 97.5 10.5t86.5 30.5v-101q-41 -19 -84 -28t-104 -9q-64 0 -116.5 22t-87.5 67q-33 -44 -83 -66.5t-111 -22.5q-75 0 -132.5 33t-91 96t-33.5 153t30.5 152t88.5 95t138 33
q58 0 107.5 -22.5t81.5 -66.5q23 30 51 49.5t62.5 29.5t73.5 10zM304 450q-67 0 -96.5 -44.5t-29.5 -133.5q0 -59 13 -99t41 -60.5t73 -20.5t72.5 20.5t40.5 60t13 98.5q0 60 -13 99.5t-41 59.5t-73 20zM682 459q-51 0 -83 -32.5t-37 -96.5h235q0 38 -12.5 67t-37.5 45.5
t-65 16.5z" />
    <glyph glyph-name="Racute" unicode="&#x154;" horiz-adv-x="646" 
d="M296 714q94 0 155 -23t91 -69.5t30 -117.5q0 -52 -19.5 -89t-50.5 -61.5t-67 -39.5l205 -314h-144l-171 282h-104v-282h-128v714h203zM288 607h-67v-220h71q79 0 114.5 28.5t35.5 84.5q0 39 -17 62.5t-50.5 34t-86.5 10.5zM515 928q-12 -14 -32.5 -34t-45 -42t-48 -41.5
t-41.5 -32.5h-84v13q16 19 36 44.5t39.5 53t31.5 49.5h144v-10z" />
    <glyph glyph-name="racute" unicode="&#x155;" horiz-adv-x="439" 
d="M365 552q12 0 28 -1t27 -4l-11 -117q-9 2 -23.5 3.5t-25.5 1.5q-30 0 -57.5 -9.5t-49 -28t-34 -47.5t-12.5 -69v-281h-126v542h97l18 -94h6q16 29 40 52.5t55.5 37.5t67.5 14zM436 756q-12 -14 -32.5 -34t-45 -42t-48 -41.5t-41.5 -32.5h-84v13q16 19 36 44.5t39.5 53
t31.5 49.5h144v-10z" />
    <glyph glyph-name="uni0156" unicode="&#x156;" horiz-adv-x="646" 
d="M296 714q94 0 155 -23t91 -69.5t30 -117.5q0 -52 -19.5 -89t-50.5 -61.5t-67 -39.5l205 -314h-144l-171 282h-104v-282h-128v714h203zM288 607h-67v-220h71q79 0 114.5 28.5t35.5 84.5q0 39 -17 62.5t-50.5 34t-86.5 10.5zM423 -71q-7 -20 -19.5 -45.5t-28 -52.5
t-32.5 -52h-72v13q6 18 13 44.5t13 54t8 48.5h118v-10z" />
    <glyph glyph-name="uni0157" unicode="&#x157;" horiz-adv-x="439" 
d="M365 552q12 0 28 -1t27 -4l-11 -117q-9 2 -23.5 3.5t-25.5 1.5q-30 0 -57.5 -9.5t-49 -28t-34 -47.5t-12.5 -69v-281h-126v542h97l18 -94h6q16 29 40 52.5t55.5 37.5t67.5 14zM221 -71q-7 -20 -19.5 -45.5t-28 -52.5t-32.5 -52h-72v13q6 18 13 44.5t13 54t8 48.5h118v-10
z" />
    <glyph glyph-name="Rcaron" unicode="&#x158;" horiz-adv-x="646" 
d="M296 714q94 0 155 -23t91 -69.5t30 -117.5q0 -52 -19.5 -89t-50.5 -61.5t-67 -39.5l205 -314h-144l-171 282h-104v-282h-128v714h203zM288 607h-67v-220h71q79 0 114.5 28.5t35.5 84.5q0 39 -17 62.5t-50.5 34t-86.5 10.5zM256 778q-13 23 -35.5 50t-46 53t-42.5 44v13
h84q26 -16 55.5 -38.5t54.5 -49.5q27 27 57 49.5t56 38.5h85v-13q-19 -18 -43 -44t-46.5 -53t-35.5 -50h-143z" />
    <glyph glyph-name="rcaron" unicode="&#x159;" horiz-adv-x="439" 
d="M365 552q12 0 28 -1t27 -4l-11 -117q-9 2 -23.5 3.5t-25.5 1.5q-30 0 -57.5 -9.5t-49 -28t-34 -47.5t-12.5 -69v-281h-126v542h97l18 -94h6q16 29 40 52.5t55.5 37.5t67.5 14zM177 606q-13 23 -35.5 50t-46 53t-42.5 44v13h84q26 -16 55.5 -38.5t54.5 -49.5
q27 27 57 49.5t56 38.5h85v-13q-19 -18 -43 -44t-46.5 -53t-35.5 -50h-143z" />
    <glyph glyph-name="Sacute" unicode="&#x15a;" horiz-adv-x="550" 
d="M508 195q0 -63 -31 -109t-89.5 -71t-139.5 -25q-39 0 -74.5 4.5t-67 13.5t-58.5 22v120q45 -20 99 -36.5t110 -16.5q43 0 70.5 11.5t40.5 32t13 47.5q0 30 -17 51t-50 39t-82 38q-33 14 -64.5 31.5t-56.5 42.5t-40 59t-15 80q0 61 29.5 105t83 67t124.5 23q57 0 107 -12
t99 -34l-41 -103q-44 19 -85 30t-84 11q-34 0 -58 -10.5t-36 -29.5t-12 -44q0 -29 15 -49t46.5 -37.5t81.5 -39.5q58 -25 98 -52t62 -65t22 -94zM471 928q-12 -14 -32.5 -34t-45 -42t-48 -41.5t-41.5 -32.5h-84v13q16 19 36 44.5t39.5 53t31.5 49.5h144v-10z" />
    <glyph glyph-name="sacute" unicode="&#x15b;" horiz-adv-x="490" 
d="M450 157q0 -54 -26 -91.5t-76.5 -56.5t-123.5 -19q-57 0 -98 8t-78 25v107q40 -19 89 -32t91 -13q52 0 75 16t23 43q0 16 -9 29t-35 27.5t-79 36.5q-52 21 -86.5 42t-52 50.5t-17.5 74.5q0 73 58 110.5t153 37.5q50 0 94.5 -9.5t89.5 -30.5l-40 -93q-37 16 -73.5 27
t-74.5 11q-41 0 -62 -12.5t-21 -34.5q0 -17 10.5 -29.5t37 -25t75.5 -32.5q49 -19 83.5 -39.5t53.5 -50.5t19 -76zM432 756q-12 -14 -32.5 -34t-45 -42t-48 -41.5t-41.5 -32.5h-84v13q16 19 36 44.5t39.5 53t31.5 49.5h144v-10z" />
    <glyph glyph-name="Scedilla" unicode="&#x15e;" horiz-adv-x="550" 
d="M508 195q0 -63 -31 -109t-89.5 -71t-139.5 -25q-39 0 -74.5 4.5t-67 13.5t-58.5 22v120q45 -20 99 -36.5t110 -16.5q43 0 70.5 11.5t40.5 32t13 47.5q0 30 -17 51t-50 39t-82 38q-33 14 -64.5 31.5t-56.5 42.5t-40 59t-15 80q0 61 29.5 105t83 67t124.5 23q57 0 107 -12
t99 -34l-41 -103q-44 19 -85 30t-84 11q-34 0 -58 -10.5t-36 -29.5t-12 -44q0 -29 15 -49t46.5 -37.5t81.5 -39.5q58 -25 98 -52t62 -65t22 -94zM370 -128q0 -53 -34 -82.5t-116 -29.5q-19 0 -35 2.5t-28 5.5v72q12 -3 30.5 -5.5t33.5 -2.5q22 0 35.5 7.5t13.5 27.5
q0 21 -21 34.5t-63 19.5l39 79h81l-18 -39q22 -5 40.5 -17t30 -29.5t11.5 -42.5z" />
    <glyph glyph-name="scedilla" unicode="&#x15f;" horiz-adv-x="490" 
d="M450 157q0 -54 -26 -91.5t-76.5 -56.5t-123.5 -19q-57 0 -98 8t-78 25v107q40 -19 89 -32t91 -13q52 0 75 16t23 43q0 16 -9 29t-35 27.5t-79 36.5q-52 21 -86.5 42t-52 50.5t-17.5 74.5q0 73 58 110.5t153 37.5q50 0 94.5 -9.5t89.5 -30.5l-40 -93q-37 16 -73.5 27
t-74.5 11q-41 0 -62 -12.5t-21 -34.5q0 -17 10.5 -29.5t37 -25t75.5 -32.5q49 -19 83.5 -39.5t53.5 -50.5t19 -76zM352 -128q0 -53 -34 -82.5t-116 -29.5q-19 0 -35 2.5t-28 5.5v72q12 -3 30.5 -5.5t33.5 -2.5q22 0 35.5 7.5t13.5 27.5q0 21 -21 34.5t-63 19.5l39 79h81
l-18 -39q22 -5 40.5 -17t30 -29.5t11.5 -42.5z" />
    <glyph glyph-name="Scaron" unicode="&#x160;" horiz-adv-x="550" 
d="M508 195q0 -63 -31 -109t-89.5 -71t-139.5 -25q-39 0 -74.5 4.5t-67 13.5t-58.5 22v120q45 -20 99 -36.5t110 -16.5q43 0 70.5 11.5t40.5 32t13 47.5q0 30 -17 51t-50 39t-82 38q-33 14 -64.5 31.5t-56.5 42.5t-40 59t-15 80q0 61 29.5 105t83 67t124.5 23q57 0 107 -12
t99 -34l-41 -103q-44 19 -85 30t-84 11q-34 0 -58 -10.5t-36 -29.5t-12 -44q0 -29 15 -49t46.5 -37.5t81.5 -39.5q58 -25 98 -52t62 -65t22 -94zM213 778q-13 23 -35.5 50t-46 53t-42.5 44v13h84q26 -16 55.5 -38.5t54.5 -49.5q27 27 57 49.5t56 38.5h85v-13
q-19 -18 -43 -44t-46.5 -53t-35.5 -50h-143z" />
    <glyph glyph-name="scaron" unicode="&#x161;" horiz-adv-x="490" 
d="M450 157q0 -54 -26 -91.5t-76.5 -56.5t-123.5 -19q-57 0 -98 8t-78 25v107q40 -19 89 -32t91 -13q52 0 75 16t23 43q0 16 -9 29t-35 27.5t-79 36.5q-52 21 -86.5 42t-52 50.5t-17.5 74.5q0 73 58 110.5t153 37.5q50 0 94.5 -9.5t89.5 -30.5l-40 -93q-37 16 -73.5 27
t-74.5 11q-41 0 -62 -12.5t-21 -34.5q0 -17 10.5 -29.5t37 -25t75.5 -32.5q49 -19 83.5 -39.5t53.5 -50.5t19 -76zM174 606q-13 23 -35.5 50t-46 53t-42.5 44v13h84q26 -16 55.5 -38.5t54.5 -49.5q27 27 57 49.5t56 38.5h85v-13q-19 -18 -43 -44t-46.5 -53t-35.5 -50h-143z
" />
    <glyph glyph-name="Tcaron" unicode="&#x164;" horiz-adv-x="570" 
d="M349 0h-128v606h-205v108h538v-108h-205v-606zM214 778q-13 23 -35.5 50t-46 53t-42.5 44v13h84q26 -16 55.5 -38.5t54.5 -49.5q27 27 57 49.5t56 38.5h85v-13q-19 -18 -43 -44t-46.5 -53t-35.5 -50h-143z" />
    <glyph glyph-name="tcaron" unicode="&#x165;" horiz-adv-x="406" 
d="M291 91q24 0 46 4.5t41 10.5v-94q-20 -9 -52 -15.5t-67 -6.5q-46 0 -83.5 15.5t-60 53.5t-22.5 106v282h-73v55l80 44l40 115h79v-119h154v-95h-154v-281q0 -38 20 -56.5t52 -18.5zM532 750q-8 -20 -20 -45.5t-26.5 -52.5t-31.5 -52h-72v13q5 14 9.5 33t8.5 39t7.5 39.5
t5.5 35.5h119v-10z" />
    <glyph glyph-name="Umacron" unicode="&#x16a;" horiz-adv-x="747" 
d="M659 252q0 -74 -31.5 -133.5t-95.5 -94t-162 -34.5q-139 0 -211 72.5t-72 191.5v460h128v-447q0 -87 40 -127.5t119 -40.5q56 0 90.5 19t51 57.5t16.5 92.5v446h127v-462zM532 869v-91h-318v91h318z" />
    <glyph glyph-name="umacron" unicode="&#x16b;" horiz-adv-x="642" 
d="M562 542v-542h-99l-17 70h-6q-17 -28 -44 -45.5t-59 -26t-66 -8.5q-60 0 -104 21t-67 64.5t-23 112.5v354h126v-329q0 -60 24 -90.5t76 -30.5q51 0 80 21.5t41 62.5t12 101v265h126zM480 697v-91h-318v91h318z" />
    <glyph glyph-name="Ubreve" unicode="&#x16c;" horiz-adv-x="747" 
d="M659 252q0 -74 -31.5 -133.5t-95.5 -94t-162 -34.5q-139 0 -211 72.5t-72 191.5v460h128v-447q0 -87 40 -127.5t119 -40.5q56 0 90.5 19t51 57.5t16.5 92.5v446h127v-462zM551 931q-3 -45 -26 -79.5t-62 -54t-92 -19.5q-81 0 -126.5 42t-49.5 111h72q3 -27 17 -40.5
t37 -17t51 -3.5q25 0 48 4.5t39 17.5t19 39h73z" />
    <glyph glyph-name="ubreve" unicode="&#x16d;" horiz-adv-x="642" 
d="M562 542v-542h-99l-17 70h-6q-17 -28 -44 -45.5t-59 -26t-66 -8.5q-60 0 -104 21t-67 64.5t-23 112.5v354h126v-329q0 -60 24 -90.5t76 -30.5q51 0 80 21.5t41 62.5t12 101v265h126zM499 759q-3 -45 -26 -79.5t-62 -54t-92 -19.5q-81 0 -126.5 42t-49.5 111h72
q3 -27 17 -40.5t37 -17t51 -3.5q25 0 48 4.5t39 17.5t19 39h73z" />
    <glyph glyph-name="Uring" unicode="&#x16e;" horiz-adv-x="747" 
d="M659 252q0 -74 -31.5 -133.5t-95.5 -94t-162 -34.5q-139 0 -211 72.5t-72 191.5v460h128v-447q0 -87 40 -127.5t119 -40.5q56 0 90.5 19t51 57.5t16.5 92.5v446h127v-462zM372 777q-53 0 -85 30t-32 83q0 52 32 81.5t84 29.5q51 0 85.5 -29.5t34.5 -80.5q0 -54 -34 -84
t-85 -30zM371 839q22 0 36.5 13.5t14.5 37.5q0 23 -14.5 36.5t-35.5 13.5q-22 0 -36.5 -13.5t-14.5 -36.5q0 -24 13 -37.5t37 -13.5z" />
    <glyph glyph-name="uring" unicode="&#x16f;" horiz-adv-x="642" 
d="M562 542v-542h-99l-17 70h-6q-17 -28 -44 -45.5t-59 -26t-66 -8.5q-60 0 -104 21t-67 64.5t-23 112.5v354h126v-329q0 -60 24 -90.5t76 -30.5q51 0 80 21.5t41 62.5t12 101v265h126zM320 605q-53 0 -85 30t-32 83q0 52 32 81.5t84 29.5q51 0 85.5 -29.5t34.5 -80.5
q0 -54 -34 -84t-85 -30zM319 667q22 0 36.5 13.5t14.5 37.5q0 23 -14.5 36.5t-35.5 13.5q-22 0 -36.5 -13.5t-14.5 -36.5q0 -24 13 -37.5t37 -13.5z" />
    <glyph glyph-name="Uhungarumlaut" unicode="&#x170;" horiz-adv-x="747" 
d="M659 252q0 -74 -31.5 -133.5t-95.5 -94t-162 -34.5q-139 0 -211 72.5t-72 191.5v460h128v-447q0 -87 40 -127.5t119 -40.5q56 0 90.5 19t51 57.5t16.5 92.5v446h127v-462zM577 928q-8 -13 -25.5 -33t-40.5 -42t-45.5 -41.5t-40.5 -33.5h-68v13q14 19 31.5 45t34 53
t26.5 49h128v-10zM390 928q-8 -13 -25.5 -33t-40.5 -42t-45.5 -41.5t-40.5 -33.5h-68v13q14 19 31 45t33 53t28 49h128v-10z" />
    <glyph glyph-name="uhungarumlaut" unicode="&#x171;" horiz-adv-x="642" 
d="M562 542v-542h-99l-17 70h-6q-17 -28 -44 -45.5t-59 -26t-66 -8.5q-60 0 -104 21t-67 64.5t-23 112.5v354h126v-329q0 -60 24 -90.5t76 -30.5q51 0 80 21.5t41 62.5t12 101v265h126zM525 756q-8 -13 -25.5 -33t-40.5 -42t-45.5 -41.5t-40.5 -33.5h-68v13q14 19 31.5 45
t34 53t26.5 49h128v-10zM338 756q-8 -13 -25.5 -33t-40.5 -42t-45.5 -41.5t-40.5 -33.5h-68v13q14 19 31 45t33 53t28 49h128v-10z" />
    <glyph glyph-name="Uogonek" unicode="&#x172;" horiz-adv-x="747" 
d="M478 -103q0 -26 12 -39t30 -13q17 0 30 3t22 5v-75q-15 -4 -31.5 -7t-39.5 -3q-55 0 -84.5 29.5t-29.5 83.5q0 33 15 63.5t39.5 56t50.5 41.5l82 13q-33 -33 -54.5 -60.5t-31.5 -51t-10 -46.5zM659 252q0 -74 -31.5 -133.5t-95.5 -94t-162 -34.5q-139 0 -211 72.5
t-72 191.5v460h128v-447q0 -87 40 -127.5t119 -40.5q56 0 90.5 19t51 57.5t16.5 92.5v446h127v-462z" />
    <glyph glyph-name="uogonek" unicode="&#x173;" horiz-adv-x="642" 
d="M562 542v-542h-99l-17 70h-6q-17 -28 -44 -45.5t-59 -26t-66 -8.5q-60 0 -104 21t-67 64.5t-23 112.5v354h126v-329q0 -60 24 -90.5t76 -30.5q51 0 80 21.5t41 62.5t12 101v265h126zM465 -113q0 -21 11.5 -31.5t30.5 -10.5q16 0 29.5 3t23.5 5v-75q-16 -4 -32.5 -7
t-38.5 -3q-55 0 -85 29t-30 76q0 29 15 56t38 49t50 38l59 -16q-34 -32 -52.5 -58.5t-18.5 -54.5z" />
    <glyph glyph-name="Wcircumflex" unicode="&#x174;" horiz-adv-x="953" 
d="M948 714l-185 -714h-141l-113 410q-4 15 -9 37t-10.5 45.5t-9.5 44t-5 30.5q-1 -10 -5 -30.5t-9 -44t-10 -46t-10 -38.5l-110 -408h-142l-184 714h128l98 -407q5 -20 10 -43.5t10 -48t9 -48t6 -41.5q2 19 6 42.5t9 48t10 47t10 38.5l112 412h124l114 -413
q5 -17 10.5 -39.5t10.5 -47t8.5 -47.5t6.5 -41q3 25 8.5 57t13 65t13.5 59l98 407h128zM548 938q13 -22 35.5 -49.5t46.5 -53.5t43 -45v-12h-85q-26 16 -56 38.5t-57 49.5q-26 -27 -55 -49t-55 -39h-84v12q19 20 42.5 45.5t46 53t35.5 49.5h143z" />
    <glyph glyph-name="wcircumflex" unicode="&#x175;" horiz-adv-x="830" 
d="M465 233q-5 19 -12 47.5t-14.5 59.5t-14 57t-8.5 40h-4q-3 -14 -9 -40t-13 -57t-14.5 -60t-12.5 -48l-63 -232h-138l-152 543h127l67 -259q7 -26 13.5 -59t11.5 -63.5t7 -49.5h4q2 13 5 34.5t7.5 45t9 43.5t7.5 31l78 277h138l75 -277q5 -18 11 -47t11 -58t6 -48h4
q2 17 7 46.5t12 63.5t15 61l68 259h125l-154 -543h-140zM486 766q13 -22 35.5 -49.5t46.5 -53.5t43 -45v-12h-85q-26 16 -56 38.5t-57 49.5q-26 -27 -55 -49t-55 -39h-84v12q19 20 42.5 45.5t46 53t35.5 49.5h143z" />
    <glyph glyph-name="Ycircumflex" unicode="&#x176;" horiz-adv-x="602" 
d="M301 399l163 315h138l-237 -436v-278h-128v273l-237 441h139zM372 938q13 -22 35.5 -49.5t46.5 -53.5t43 -45v-12h-85q-26 16 -56 38.5t-57 49.5q-26 -27 -55 -49t-55 -39h-84v12q19 20 42.5 45.5t46 53t35.5 49.5h143z" />
    <glyph glyph-name="ycircumflex" unicode="&#x177;" horiz-adv-x="547" 
d="M0 542h137l108 -306q7 -20 12.5 -38.5t9.5 -37.5t6 -38h4q4 25 12.5 55t17.5 59l104 306h136l-231 -614q-20 -53 -50.5 -91t-72 -57.5t-93.5 -19.5q-24 0 -42.5 2.5t-32.5 5.5v100q11 -2 26.5 -4t32.5 -2q31 0 53.5 12.5t38 34.5t25.5 49l16 44zM345 766
q13 -22 35.5 -49.5t46.5 -53.5t43 -45v-12h-85q-26 16 -56 38.5t-57 49.5q-26 -27 -55 -49t-55 -39h-84v12q19 20 42.5 45.5t46 53t35.5 49.5h143z" />
    <glyph glyph-name="Ydieresis" unicode="&#x178;" horiz-adv-x="602" 
d="M301 399l163 315h138l-237 -436v-278h-128v273l-237 441h139zM144 856q0 32 17.5 46t42.5 14q24 0 42.5 -14t18.5 -46q0 -30 -18.5 -44.5t-42.5 -14.5q-25 0 -42.5 14.5t-17.5 44.5zM338 856q0 32 17.5 46t42.5 14q24 0 42.5 -14t18.5 -46q0 -30 -18.5 -44.5t-42.5 -14.5
q-25 0 -42.5 14.5t-17.5 44.5z" />
    <glyph glyph-name="Zacute" unicode="&#x179;" horiz-adv-x="576" 
d="M547 0h-518v87l355 519h-345v108h498v-87l-354 -519h364v-108zM480 928q-12 -14 -32.5 -34t-45 -42t-48 -41.5t-41.5 -32.5h-84v13q16 19 36 44.5t39.5 53t31.5 49.5h144v-10z" />
    <glyph glyph-name="zacute" unicode="&#x17a;" horiz-adv-x="481" 
d="M448 0h-416v77l266 369h-251v96h393v-85l-261 -360h269v-97zM427 756q-12 -14 -32.5 -34t-45 -42t-48 -41.5t-41.5 -32.5h-84v13q16 19 36 44.5t39.5 53t31.5 49.5h144v-10z" />
    <glyph glyph-name="Zdotaccent" unicode="&#x17b;" horiz-adv-x="576" 
d="M547 0h-518v87l355 519h-345v108h498v-87l-354 -519h364v-108zM293 923q28 0 49 -14.5t21 -51.5q0 -36 -21 -51.5t-49 -15.5q-29 0 -49.5 15.5t-20.5 51.5q0 37 20.5 51.5t49.5 14.5z" />
    <glyph glyph-name="zdotaccent" unicode="&#x17c;" horiz-adv-x="481" 
d="M448 0h-416v77l266 369h-251v96h393v-85l-261 -360h269v-97zM241 751q28 0 49 -14.5t21 -51.5q0 -36 -21 -51.5t-49 -15.5q-29 0 -49.5 15.5t-20.5 51.5q0 37 20.5 51.5t49.5 14.5z" />
    <glyph glyph-name="Zcaron" unicode="&#x17d;" horiz-adv-x="576" 
d="M547 0h-518v87l355 519h-345v108h498v-87l-354 -519h364v-108zM221 778q-13 23 -35.5 50t-46 53t-42.5 44v13h84q26 -16 55.5 -38.5t54.5 -49.5q27 27 57 49.5t56 38.5h85v-13q-19 -18 -43 -44t-46.5 -53t-35.5 -50h-143z" />
    <glyph glyph-name="zcaron" unicode="&#x17e;" horiz-adv-x="481" 
d="M448 0h-416v77l266 369h-251v96h393v-85l-261 -360h269v-97zM169 606q-13 23 -35.5 50t-46 53t-42.5 44v13h84q26 -16 55.5 -38.5t54.5 -49.5q27 27 57 49.5t56 38.5h85v-13q-19 -18 -43 -44t-46.5 -53t-35.5 -50h-143z" />
    <glyph glyph-name="uni0218" unicode="&#x218;" horiz-adv-x="550" 
d="M508 195q0 -63 -31 -109t-89.5 -71t-139.5 -25q-39 0 -74.5 4.5t-67 13.5t-58.5 22v120q45 -20 99 -36.5t110 -16.5q43 0 70.5 11.5t40.5 32t13 47.5q0 30 -17 51t-50 39t-82 38q-33 14 -64.5 31.5t-56.5 42.5t-40 59t-15 80q0 61 29.5 105t83 67t124.5 23q57 0 107 -12
t99 -34l-41 -103q-44 19 -85 30t-84 11q-34 0 -58 -10.5t-36 -29.5t-12 -44q0 -29 15 -49t46.5 -37.5t81.5 -39.5q58 -25 98 -52t62 -65t22 -94zM340 -71q-7 -20 -19.5 -45.5t-28 -52.5t-32.5 -52h-72v13q6 18 13 44.5t13 54t8 48.5h118v-10z" />
    <glyph glyph-name="uni0219" unicode="&#x219;" horiz-adv-x="490" 
d="M450 157q0 -54 -26 -91.5t-76.5 -56.5t-123.5 -19q-57 0 -98 8t-78 25v107q40 -19 89 -32t91 -13q52 0 75 16t23 43q0 16 -9 29t-35 27.5t-79 36.5q-52 21 -86.5 42t-52 50.5t-17.5 74.5q0 73 58 110.5t153 37.5q50 0 94.5 -9.5t89.5 -30.5l-40 -93q-37 16 -73.5 27
t-74.5 11q-41 0 -62 -12.5t-21 -34.5q0 -17 10.5 -29.5t37 -25t75.5 -32.5q49 -19 83.5 -39.5t53.5 -50.5t19 -76zM322 -71q-7 -20 -19.5 -45.5t-28 -52.5t-32.5 -52h-72v13q6 18 13 44.5t13 54t8 48.5h118v-10z" />
    <glyph glyph-name="uni021A" unicode="&#x21a;" horiz-adv-x="570" 
d="M349 0h-128v606h-205v108h538v-108h-205v-606zM361 -71q-7 -20 -19.5 -45.5t-28 -52.5t-32.5 -52h-72v13q6 18 13 44.5t13 54t8 48.5h118v-10z" />
    <glyph glyph-name="uni021B" unicode="&#x21b;" horiz-adv-x="406" 
d="M291 91q24 0 46 4.5t41 10.5v-94q-20 -9 -52 -15.5t-67 -6.5q-46 0 -83.5 15.5t-60 53.5t-22.5 106v282h-73v55l80 44l40 115h79v-119h154v-95h-154v-281q0 -38 20 -56.5t52 -18.5zM307 -71q-7 -20 -19.5 -45.5t-28 -52.5t-32.5 -52h-72v13q6 18 13 44.5t13 54t8 48.5
h118v-10z" />
    <glyph glyph-name="uni0237" unicode="&#x237;" horiz-adv-x="287" 
d="M29 -240q-25 0 -49 3.5t-41 8.5v100q17 -4 33 -7t36 -3q31 0 52 17.5t21 66.5v596h126v-609q0 -50 -18 -89t-57 -61.5t-103 -22.5z" />
    <glyph glyph-name="circumflex" unicode="&#x2c6;" horiz-adv-x="472" 
d="M307 766q13 -22 35.5 -49.5t46.5 -53.5t43 -45v-12h-85q-26 16 -56 38.5t-57 49.5q-26 -27 -55 -49t-55 -39h-84v12q19 20 42.5 45.5t46 53t35.5 49.5h143z" />
    <glyph glyph-name="caron" unicode="&#x2c7;" horiz-adv-x="472" 
d="M164 606q-13 23 -35.5 50t-46 53t-42.5 44v13h84q26 -16 55.5 -38.5t54.5 -49.5q27 27 57 49.5t56 38.5h85v-13q-19 -18 -43 -44t-46.5 -53t-35.5 -50h-143z" />
    <glyph glyph-name="macronmod" unicode="&#x2c9;" horiz-adv-x="398" 
d="M358 697v-91h-318v91h318z" />
    <glyph glyph-name="breve" unicode="&#x2d8;" horiz-adv-x="436" 
d="M396 759q-3 -45 -26 -79.5t-62 -54t-92 -19.5q-81 0 -126.5 42t-49.5 111h72q3 -27 17 -40.5t37 -17t51 -3.5q25 0 48 4.5t39 17.5t19 39h73z" />
    <glyph glyph-name="dotaccent" unicode="&#x2d9;" horiz-adv-x="220" 
d="M110 751q28 0 49 -14.5t21 -51.5q0 -36 -21 -51.5t-49 -15.5q-29 0 -49.5 15.5t-20.5 51.5q0 37 20.5 51.5t49.5 14.5z" />
    <glyph glyph-name="ring" unicode="&#x2da;" horiz-adv-x="316" 
d="M157 605q-53 0 -85 30t-32 83q0 52 32 81.5t84 29.5q51 0 85.5 -29.5t34.5 -80.5q0 -54 -34 -84t-85 -30zM156 667q22 0 36.5 13.5t14.5 37.5q0 23 -14.5 36.5t-35.5 13.5q-22 0 -36.5 -13.5t-14.5 -36.5q0 -24 13 -37.5t37 -13.5z" />
    <glyph glyph-name="ogonek" unicode="&#x2db;" horiz-adv-x="266" 
d="M131 -113q0 -21 11.5 -31.5t30.5 -10.5q16 0 29.5 3t23.5 5v-75q-16 -4 -32.5 -7t-38.5 -3q-55 0 -85 29t-30 76q0 29 15 56t38 49t50 38l59 -16q-34 -32 -52.5 -58.5t-18.5 -54.5z" />
    <glyph glyph-name="tilde" unicode="&#x2dc;" horiz-adv-x="471" 
d="M40 605q3 36 13.5 62.5t27 44.5t37.5 27t46 9q21 0 41 -8t38.5 -19t36.5 -19t35 -8q18 0 31.5 14t19.5 41h65q-6 -70 -40.5 -106.5t-83.5 -36.5q-21 0 -40 8t-38.5 19t-37 19t-35.5 8t-31.5 -13.5t-19.5 -41.5h-65z" />
    <glyph glyph-name="hungarumlaut" unicode="&#x2dd;" horiz-adv-x="487" 
d="M447 756q-8 -13 -25.5 -33t-40.5 -42t-45.5 -41.5t-40.5 -33.5h-68v13q14 19 31.5 45t34 53t26.5 49h128v-10zM260 756q-8 -13 -25.5 -33t-40.5 -42t-45.5 -41.5t-40.5 -33.5h-68v13q14 19 31 45t33 53t28 49h128v-10z" />
    <glyph glyph-name="gravecomb" unicode="&#x300;" 
d="M-372 766q13 -22 32 -49.5t39.5 -53t35.5 -44.5v-13h-83q-19 13 -42.5 32.5t-48 41.5t-45 42t-32.5 34v10h144z" />
    <glyph glyph-name="acutecomb" unicode="&#x301;" 
d="M-76 756q-12 -14 -32.5 -34t-45 -42t-48 -41.5t-41.5 -32.5h-84v13q16 19 36 44.5t39.5 53t31.5 49.5h144v-10z" />
    <glyph glyph-name="uni0302" unicode="&#x302;" 
d="M73 766q13 -22 35.5 -49.5t46.5 -53.5t43 -45v-12h-85q-26 16 -56 38.5t-57 49.5q-26 -27 -55 -49t-55 -39h-84v12q19 20 42.5 45.5t46 53t35.5 49.5h143z" />
    <glyph glyph-name="tildecomb" unicode="&#x303;" 
d="M-507 605q3 36 13.5 62.5t27 44.5t37.5 27t46 9q21 0 41 -8t38.5 -19t36.5 -19t35 -8q18 0 31.5 14t19.5 41h65q-6 -70 -40.5 -106.5t-83.5 -36.5q-21 0 -40 8t-38.5 19t-37 19t-35.5 8t-31.5 -13.5t-19.5 -41.5h-65z" />
    <glyph glyph-name="uni0304" unicode="&#x304;" 
d="M159 697v-91h-318v91h318z" />
    <glyph glyph-name="uni0306" unicode="&#x306;" 
d="M180 759q-3 -45 -26 -79.5t-62 -54t-92 -19.5q-81 0 -126.5 42t-49.5 111h72q3 -27 17 -40.5t37 -17t51 -3.5q25 0 48 4.5t39 17.5t19 39h73z" />
    <glyph glyph-name="uni0307" unicode="&#x307;" 
d="M0 751q28 0 49 -14.5t21 -51.5q0 -36 -21 -51.5t-49 -15.5q-29 0 -49.5 15.5t-20.5 51.5q0 37 20.5 51.5t49.5 14.5z" />
    <glyph glyph-name="uni0308" unicode="&#x308;" 
d="M-157 684q0 32 17.5 46t42.5 14q24 0 42.5 -14t18.5 -46q0 -30 -18.5 -44.5t-42.5 -14.5q-25 0 -42.5 14.5t-17.5 44.5zM37 684q0 32 17.5 46t42.5 14q24 0 42.5 -14t18.5 -46q0 -30 -18.5 -44.5t-42.5 -14.5q-25 0 -42.5 14.5t-17.5 44.5z" />
    <glyph glyph-name="uni030A" unicode="&#x30a;" 
d="M2 605q-53 0 -85 30t-32 83q0 52 32 81.5t84 29.5q51 0 85.5 -29.5t34.5 -80.5q0 -54 -34 -84t-85 -30zM1 667q22 0 36.5 13.5t14.5 37.5q0 23 -14.5 36.5t-35.5 13.5q-22 0 -36.5 -13.5t-14.5 -36.5q0 -24 13 -37.5t37 -13.5z" />
    <glyph glyph-name="uni030B" unicode="&#x30b;" 
d="M265 756q-8 -13 -25.5 -33t-40.5 -42t-45.5 -41.5t-40.5 -33.5h-68v13q14 19 31.5 45t34 53t26.5 49h128v-10zM78 756q-8 -13 -25.5 -33t-40.5 -42t-45.5 -41.5t-40.5 -33.5h-68v13q14 19 31 45t33 53t28 49h128v-10z" />
    <glyph glyph-name="uni030C" unicode="&#x30c;" 
d="M-71 606q-13 23 -35.5 50t-46 53t-42.5 44v13h84q26 -16 55.5 -38.5t54.5 -49.5q27 27 57 49.5t56 38.5h85v-13q-19 -18 -43 -44t-46.5 -53t-35.5 -50h-143z" />
    <glyph glyph-name="uni0312" unicode="&#x312;" 
d="M-90 480q9 36 23 76t30.5 81t32.5 77h91q-9 -39 -18.5 -82.5t-17.5 -85.5t-13 -77h-121z" />
    <glyph glyph-name="uni0326" unicode="&#x326;" 
d="M76 -71q-7 -20 -19.5 -45.5t-28 -52.5t-32.5 -52h-72v13q6 18 13 44.5t13 54t8 48.5h118v-10z" />
    <glyph glyph-name="uni0327" unicode="&#x327;" 
d="M107 -128q0 -53 -34 -82.5t-116 -29.5q-19 0 -35 2.5t-28 5.5v72q12 -3 30.5 -5.5t33.5 -2.5q22 0 35.5 7.5t13.5 27.5q0 21 -21 34.5t-63 19.5l39 79h81l-18 -39q22 -5 40.5 -17t30 -29.5t11.5 -42.5z" />
    <glyph glyph-name="uni0328" unicode="&#x328;" 
d="M-2 -113q0 -21 11.5 -31.5t30.5 -10.5q16 0 29.5 3t23.5 5v-75q-16 -4 -32.5 -7t-38.5 -3q-55 0 -85 29t-30 76q0 29 15 56t38 49t50 38l59 -16q-34 -32 -52.5 -58.5t-18.5 -54.5z" />
    <glyph glyph-name="uni0951" unicode="&#x951;" 
d="M-323 870h90v-214h-90v214z" />
    <glyph glyph-name="uni0952" unicode="&#x952;" 
d="M-49 -183h-459v84h459v-84z" />
    <glyph glyph-name="uni0964.tamil" unicode="&#x964;" horiz-adv-x="374" 
d="M165 -49v652h126v-652h-126z" />
    <glyph glyph-name="uni0965.tamil" unicode="&#x965;" horiz-adv-x="639" 
d="M431 -49v652h125v-652h-125zM165 -49v652h126v-652h-126z" />
    <glyph glyph-name="anusvaratamil" unicode="&#xb82;" horiz-adv-x="369" 
d="M50 717q0 57 37 94t97 37q61 0 98.5 -37t37.5 -94q0 -55 -37.5 -92t-98.5 -37q-60 0 -97 37t-37 92zM130 717q0 -24 15 -40t39 -16q25 0 40.5 16t15.5 40q0 26 -15.5 42.5t-40.5 16.5q-24 0 -39 -16.5t-15 -42.5z" />
    <glyph glyph-name="visargatamil" unicode="&#xb83;" horiz-adv-x="954" 
d="M241 -12q-61 0 -105.5 23t-68.5 65.5t-24 100.5t24.5 100t69 64.5t102.5 22.5q60 0 103.5 -23t67.5 -65t24 -99q0 -58 -23.5 -100.5t-67.5 -65.5t-102 -23zM240 80q35 0 57 24t22 73t-23 72.5t-57 23.5q-35 0 -58 -24.5t-23 -72.5q0 -49 23 -72.5t59 -23.5zM718 -12
q-61 0 -105.5 23t-69 65.5t-24.5 100.5t25 100t69.5 64.5t102.5 22.5q60 0 103 -23t67.5 -65t24.5 -99q0 -58 -24 -100.5t-67.5 -65.5t-101.5 -23zM717 80q34 0 56.5 24t22.5 73t-23 72.5t-57 23.5q-36 0 -59 -24.5t-23 -72.5q0 -49 23 -72.5t60 -23.5zM480 472
q-62 0 -106.5 23t-68.5 65.5t-24 99.5q0 59 24.5 100.5t69 64.5t103.5 23t102.5 -23t67.5 -65t24 -100q0 -57 -23.5 -99.5t-67 -65.5t-101.5 -23zM478 564q35 0 57 24t22 73q0 48 -22.5 71.5t-57.5 23.5t-58 -24t-23 -73q0 -48 23 -71.5t59 -23.5z" />
    <glyph glyph-name="atamil" unicode="&#xb85;" horiz-adv-x="1183" 
d="M340 -135q-102 0 -172 25.5t-105.5 69.5t-35.5 102q0 27 11 52.5t37 43.5q13 9 31 15.5t45 9.5t68 3h763l1 -93h-753q-22 0 -35 -1t-20.5 -4t-13.5 -7q-13 -12 -13 -29q0 -42 50 -67t155 -25h14q101 0 172 23t116 63.5t67 90.5l3 24q7 22 9.5 43.5t2.5 42.5
q0 56 -17.5 105.5t-55.5 83t-98 43.5q-12 2 -24 2.5t-24 0.5q-29 0 -54 -8t-40 -26.5t-15 -49.5q0 -34 19 -54.5t54 -20.5q30 0 50.5 19t20.5 63q0 36 -15 65.5t-38 55.5l87 17q17 -15 32.5 -36.5t25.5 -49t10 -62.5t-10.5 -64.5t-32.5 -51.5t-55.5 -34t-81.5 -12t-89 17.5
t-66 53t-25 88.5q0 64 31 103t83 57.5t115 18.5q84 0 146.5 -26.5t104.5 -72.5t62.5 -103.5t20.5 -119.5q0 -24 -2.5 -46.5t-7.5 -43.5l-2 -31q-29 -83 -97.5 -141.5t-167.5 -90t-222 -31.5h-19zM974 -154v713h126v-713h-126z" />
    <glyph glyph-name="aatamil" unicode="&#xb86;" horiz-adv-x="1396" 
d="M340 -135q-102 0 -172 25.5t-105.5 69.5t-35.5 102q0 27 11 52.5t37 43.5q13 9 31 15.5t45 9.5t68 3h763l1 -93h-753q-22 0 -35 -1t-20.5 -4t-13.5 -7q-13 -12 -13 -29q0 -42 50 -67t155 -25h14q101 0 172 23t116 63.5t67 90.5l3 24q7 22 9.5 43.5t2.5 42.5
q0 56 -17.5 105.5t-55.5 83t-98 43.5q-12 2 -24 2.5t-24 0.5q-29 0 -54 -8t-40 -26.5t-15 -49.5q0 -34 19 -54.5t54 -20.5q30 0 50.5 19t20.5 63q0 36 -15 65.5t-38 55.5l87 17q17 -15 32.5 -36.5t25.5 -49t10 -62.5t-10.5 -64.5t-32.5 -51.5t-55.5 -34t-81.5 -12t-89 17.5
t-66 53t-25 88.5q0 64 31 103t83 57.5t115 18.5q84 0 146.5 -26.5t104.5 -72.5t62.5 -103.5t20.5 -119.5q0 -24 -2.5 -46.5t-7.5 -43.5l-2 -31q-29 -83 -97.5 -141.5t-167.5 -90t-222 -31.5h-19zM971 -321q-142 0 -217 44.5t-75 125.5q0 30 17 57.5t50 45.5t81 18
q26 0 53 -5t54 -15l-16 -83q-18 6 -36 9t-36 3q-27 0 -41 -9t-14 -27t17 -34.5t59 -26.5t116 -10h7q84 0 147.5 19t99 56t35.5 90q0 39 -22.5 61t-65.5 22q-31 0 -57.5 -10t-43.5 -23v90q23 14 54 24t78 10q45 0 85.5 -18.5t66 -56t25.5 -95.5q0 -78 -47.5 -137t-138.5 -92
t-222 -33h-13zM974 -124v683h126v-683h-126z" />
    <glyph glyph-name="itamil" unicode="&#xb87;" horiz-adv-x="1191" 
d="M273 -321q-76 0 -129 23t-80.5 66t-27.5 102q0 73 42 130t113 95q61 33 140.5 49.5t169.5 16.5q72 0 142.5 -12t129.5 -37q58 -23 101.5 -59t68 -81.5t24.5 -101.5q0 -89 -60.5 -140t-182.5 -51q-77 0 -149 20.5t-140 59.5q-56 30 -104 70t-87.5 89.5t-73.5 105.5
q-49 84 -72.5 167.5t-23.5 184.5q0 90 31.5 174.5t96.5 151.5t164.5 106.5t236.5 39.5q135 0 229 -34.5t158 -102.5q44 -47 70.5 -102.5t38 -126.5t11.5 -166v-316h-125v260q0 104 -10.5 178t-34 127.5t-62.5 92.5q-47 48 -114.5 71t-162.5 23q-84 0 -158 -25t-129.5 -73.5
t-87 -121t-31.5 -166.5q0 -57 7.5 -105t24 -93t43.5 -94q28 -56 69.5 -107.5t94.5 -92.5t114 -68q40 -17 82 -25t88 -8q72 0 102.5 29.5t30.5 77.5t-30 84t-77 58q-51 25 -115 35.5t-126 10.5q-87 0 -154.5 -15t-112.5 -42q-42 -25 -63 -58t-21 -72q0 -49 30.5 -78.5
t101.5 -29.5q40 0 78.5 6t74.5 21q63 25 116 67.5t92 99.5t59 121q12 38 18.5 78.5t6.5 83.5q0 59 -15.5 106.5t-44.5 79t-71 43.5h-30q-11 1 -19.5 1.5t-22.5 0.5q-30 0 -55 -7t-40.5 -25.5t-15.5 -49.5q0 -33 19 -54t54 -21q30 0 50 18.5t20 62.5q0 35 -15.5 65t-39.5 57
l104 -18q14 -12 25.5 -30t19.5 -39.5t8 -45.5q0 -43 -19.5 -79.5t-59 -58.5t-100.5 -22q-48 0 -89 18.5t-65 55.5t-24 88q0 60 31 98.5t84.5 57t118.5 18.5q104 0 173.5 -40t104.5 -111.5t35 -165.5q0 -56 -9.5 -110.5t-31.5 -106.5q-22 -59 -57.5 -112t-82.5 -96.5
t-104 -72.5q-66 -35 -140 -55.5t-152 -20.5z" />
    <glyph glyph-name="iitamil" unicode="&#xb88;" horiz-adv-x="792" 
d="M82 0v559h690v-94h-212v-465h-126v465h-226v-465h-126zM322 203q-32 0 -52.5 20.5t-20.5 52.5q0 30 20.5 50.5t52.5 20.5q31 0 51 -20.5t20 -50.5q0 -32 -20.5 -52.5t-50.5 -20.5zM673 203q-31 0 -51.5 20.5t-20.5 52.5q0 30 20.5 50.5t51.5 20.5t51.5 -20.5t20.5 -50.5
q0 -32 -20.5 -52.5t-51.5 -20.5z" />
    <glyph glyph-name="utamil" unicode="&#xb89;" horiz-adv-x="1080" 
d="M312 571q114 0 187 -28.5t108 -77t35 -107.5q0 -58 -24 -97t-66.5 -63t-99 -36.5t-121.5 -19.5l-104 -9q-34 -3 -44 -8.5t-10 -13.5q0 -10 8 -13.5t27 -3.5h855v-94h-855q-60 0 -93.5 14.5t-47 38t-13.5 49.5q0 31 16 55.5t51.5 40.5t95.5 22l82 7q94 9 141 27.5t63 44.5
t16 57q0 41 -24.5 68t-66.5 41.5t-94 14.5h-23q-11 1 -25 1h-19q-43 0 -74 -17.5t-31 -57.5q0 -33 20.5 -49.5t52.5 -16.5q31 0 50.5 18.5t19.5 58.5q0 32 -14 63.5t-39 53.5l92 8q18 -14 33 -33.5t24.5 -45.5t9.5 -64q0 -68 -46 -108.5t-136 -40.5q-48 0 -88.5 16.5
t-65.5 50.5t-25 83q0 59 32 97t91 56t139 18z" />
    <glyph glyph-name="uutamil" unicode="&#xb8a;" horiz-adv-x="1628" 
d="M312 571q114 0 187 -28.5t108 -77t35 -107.5q0 -58 -24 -97t-66.5 -63t-99 -36.5t-121.5 -19.5l-104 -9q-22 -2 -34 -5t-16 -7.5t-4 -9.5q0 -10 8 -13.5t27 -3.5h1374v-94h-1374q-60 0 -93.5 14.5t-47 38t-13.5 49.5q0 31 16 55.5t51.5 40.5t95.5 22l80 7q71 6 115 18
t67 29t31.5 37.5t8.5 44.5q0 41 -24.5 68t-66.5 41.5t-94 14.5h-23q-11 1 -25 1h-19q-43 0 -74 -17.5t-31 -57.5q0 -33 21 -49.5t52 -16.5q30 0 50 18.5t20 58.5q0 32 -14 63.5t-39 53.5l92 8q18 -14 33 -33.5t24.5 -45.5t9.5 -64q0 -68 -46.5 -108.5t-135.5 -40.5
q-47 0 -88 16.5t-66 50.5t-25 83q0 59 32 97t91 56t139 18zM905 141q-50 0 -90.5 20t-64 62t-23.5 108q0 79 36.5 132t96.5 80.5t128 27.5q58 0 98 -12.5t75 -34.5l-17 -105q-28 28 -63.5 46.5t-91.5 18.5q-43 0 -77 -15t-56 -43t-29 -66l-3 -35q0 -38 9.5 -61t26.5 -33.5
t41 -10.5q19 0 31.5 6.5t19.5 18.5t7 29q0 27 -17 41.5t-45 14.5q-32 0 -58.5 -18.5t-48.5 -44.5l-16 73q29 29 64.5 49t81.5 20q63 0 102 -34.5t39 -95.5q0 -64 -40.5 -101t-115.5 -37zM1132 150v327l16 25v57h434v-87h-111v-322h-111v322h-117v-322h-111z" />
    <glyph glyph-name="etamil" unicode="&#xb8e;" horiz-adv-x="849" 
d="M265 -12q-63 0 -111.5 27t-76 82.5t-27.5 139.5q0 86 30.5 149t87.5 102q35 25 78 40.5t102 23t139 7.5h40l2 -94h-84q-54 0 -91.5 -5.5t-62.5 -16t-46 -26.5q-40 -30 -61.5 -76.5t-21.5 -113.5q0 -53 12.5 -86.5t35 -48t53.5 -14.5q24 0 41 10t26.5 28.5t9.5 45.5
q0 42 -22.5 65.5t-60.5 23.5q-41 0 -75 -23.5t-62 -53.5l-19 84q34 35 80.5 58.5t103.5 23.5q78 0 125.5 -44.5t47.5 -124.5q0 -57 -22 -98t-65 -63t-106 -22zM554 0v465h-42l1 94h319v-94h-153v-465h-125z" />
    <glyph glyph-name="eetamil" unicode="&#xb8f;" horiz-adv-x="849" 
d="M456 -213l-81 75l179 168v435h-51l8 94h321v-94h-153v-465zM265 -12q-63 0 -111.5 27t-76 82.5t-27.5 139.5q0 86 30.5 149t87.5 102q35 25 78 40.5t102 23t139 7.5h40l2 -94h-84q-54 0 -91.5 -5.5t-62.5 -16t-46 -26.5q-40 -30 -61.5 -76.5t-21.5 -113.5q0 -53 12.5 -86
t35 -48t53.5 -15q24 0 41 10t26.5 28.5t9.5 45.5q0 42 -22.5 65.5t-60.5 23.5q-41 0 -75 -23.5t-62 -53.5l-19 84q34 35 80.5 58.5t103.5 23.5q78 0 125.5 -44.5t47.5 -124.5q0 -57 -22 -98t-65 -63t-106 -22z" />
    <glyph glyph-name="aitamil" unicode="&#xb90;" horiz-adv-x="1085" 
d="M340 -321q-96 0 -160 29t-96 81t-32 118q0 57 19.5 97.5t52.5 67.5q35 29 79.5 45t98.5 22.5t115 6.5h159q62 0 113 3.5t91.5 14.5t68.5 33q26 21 40 52.5t14 77.5q0 51 -18 83.5t-48.5 49t-68.5 16.5q-27 0 -48 -8t-36 -25q-18 -21 -26 -51t-8 -89v-94h-125v76
q0 45 -9 81.5t-30 62.5t-56.5 39.5t-88.5 13.5q-14 0 -26 -1t-23 -4l-33 -9q-37 -11 -58 -30.5t-29.5 -42.5t-8.5 -46q0 -37 18 -61t60 -24q37 0 57 19.5t20 52.5q0 30 -15 54t-45 37.5t-76 13.5l99 48q40 -5 73.5 -24t53.5 -51t20 -76q0 -74 -50 -118t-139 -44
q-61 0 -102.5 22t-63 61.5t-21.5 89.5q0 70 39 119.5t105 76t147 26.5q78 0 128 -18.5t80 -47t47 -59.5l-33 -12q18 45 48 75.5t71 46t92 15.5q84 0 140 -32t84.5 -86t28.5 -122q0 -77 -26.5 -128.5t-72.5 -83.5q-38 -26 -87.5 -40.5t-108.5 -20.5t-127 -6h-181
q-53 0 -92 -4t-66 -13.5t-47 -25.5q-22 -17 -32.5 -41.5t-10.5 -57.5q0 -47 23 -77.5t62 -45t88 -14.5q46 0 81 11.5t57 35.5q18 20 27 47.5t9 77.5v40h125v-33q0 -45 6 -72.5t17 -47.5q19 -33 49 -46t64 -13q35 0 61.5 14t41 42.5t14.5 71.5q0 28 -5.5 57.5t-14.5 50.5
l121 38q13 -32 19 -68t6 -76q0 -69 -27.5 -119.5t-80.5 -77.5t-131 -27q-65 0 -108.5 18.5t-70 48.5t-42.5 64l33 -3q-21 -36 -56 -65t-85.5 -46t-120.5 -17z" />
    <glyph glyph-name="otamil" unicode="&#xb92;" horiz-adv-x="1073" 
d="M831 53q-52 0 -91.5 17t-61.5 50.5t-22 81.5q0 17 4 40.5t16 39.5l15 -1q-50 -26 -71 -64.5t-21 -78.5q0 -42 15 -71.5t42 -49.5q19 -15 43 -25t59 -14t88 -4h100v-94h-114q-53 0 -83.5 4.5t-58.5 10.5q-73 19 -117 54t-64.5 81.5t-20.5 98.5q0 53 21.5 98.5t63 82.5
t100.5 60l107 -45q-10 -24 -16.5 -47t-6.5 -50q0 -33 15.5 -58.5t61.5 -25.5q28 0 44 14.5t23 37t7 47.5q0 72 -45.5 123.5t-128.5 79.5t-194 28q-95 0 -172 -15.5t-130 -45.5t-76 -73l-6 -34l-2 -20t-1 -22q0 -38 11.5 -64t33 -39t50.5 -13q36 0 55.5 20.5t19.5 58.5
q0 36 -20.5 56t-56.5 20q-30 0 -57 -13.5t-51 -38.5l11 91q23 19 54.5 31.5t68.5 12.5q48 0 84.5 -18t57.5 -53t21 -86q0 -58 -23.5 -96t-66 -56.5t-98.5 -18.5q-58 0 -104 25t-73 72t-27 113q0 60 24.5 107.5t64.5 82.5q50 43 114 67.5t137 35t148 10.5q124 0 227.5 -26.5
t178.5 -90.5q44 -37 68.5 -88.5t24.5 -115.5q0 -34 -10 -69t-32.5 -64t-61 -46.5t-95.5 -17.5zM448 -321q-63 0 -113.5 19.5t-80 59t-29.5 100.5q0 40 14 82t41 81l104 -45q-19 -28 -29 -55t-10 -53q0 -33 14 -54t38 -31t56 -10q37 0 65.5 12t52.5 35.5t46 58.5q8 14 20 30
t23 25l117 -27q-12 -12 -23 -29t-16 -29q-26 -49 -64 -88t-93 -60.5t-133 -21.5z" />
    <glyph glyph-name="ootamil" unicode="&#xb93;" horiz-adv-x="1073" 
d="M831 53q-52 0 -91.5 17t-61.5 50.5t-22 81.5q0 17 4 40.5t16 39.5l15 -1q-50 -26 -71 -64.5t-21 -78.5q0 -42 15 -71.5t42 -49.5q19 -15 43 -25t59 -14t88 -4h100v-94h-114q-53 0 -83.5 4.5t-58.5 10.5q-73 19 -117 54t-64.5 81.5t-20.5 98.5q0 53 21.5 98.5t63 82.5
t100.5 60l107 -45q-10 -24 -16.5 -47t-6.5 -50q0 -33 15.5 -58.5t61.5 -25.5q28 0 44 14.5t23 37t7 47.5q0 72 -45.5 123.5t-128.5 79.5t-194 28q-95 0 -172 -15.5t-130 -45.5t-76 -73l-6 -34l-2 -20t-1 -22q0 -38 11.5 -64t33 -39t50.5 -13q36 0 55.5 20.5t19.5 58.5
q0 36 -20.5 56t-56.5 20q-30 0 -57 -13.5t-51 -38.5l11 91q23 19 54.5 31.5t68.5 12.5q48 0 84.5 -18t57.5 -53t21 -86q0 -58 -23.5 -96t-66 -56.5t-98.5 -18.5q-58 0 -104 25t-73 72t-27 113q0 60 24.5 107.5t64.5 82.5q50 43 114 67.5t137 35t148 10.5q124 0 227.5 -26.5
t178.5 -90.5q44 -37 68.5 -88.5t24.5 -115.5q0 -34 -10 -69t-32.5 -64t-61 -46.5t-95.5 -17.5zM331 9q64 0 103 -21t58 -54.5t19 -71.5q0 -36 -11 -65t-26 -48l-107 11q18 19 26.5 41.5t8.5 44.5q0 23 -8.5 39t-25 24.5t-40.5 8.5q-19 0 -34.5 -7t-24.5 -22t-9 -37
q0 -28 13 -44.5t32.5 -25t41 -11.5t38.5 -3l78 1q34 2 61.5 14t50.5 35.5t45 59.5q9 14 18.5 27.5t20.5 22.5l114 -24q-12 -12 -21.5 -27.5t-15.5 -27.5q-27 -52 -66 -90.5t-96.5 -59t-138.5 -20.5h-17q-70 0 -117 11.5t-80 33.5q-34 22 -52.5 54t-18.5 74q0 46 21 81.5
t62 55.5t98 20z" />
    <glyph glyph-name="autamil" unicode="&#xb94;" horiz-adv-x="2204" 
d="M831 53q-52 0 -91.5 17t-61.5 50.5t-22 81.5q0 17 4 40.5t16 39.5l15 -1q-50 -26 -71 -64.5t-21 -78.5q0 -42 15 -71.5t42 -49.5q19 -15 43 -25t59 -14t88 -4h100v-94h-114q-53 0 -83.5 4.5t-58.5 10.5q-73 19 -117 54t-64.5 81.5t-20.5 98.5q0 53 21.5 98.5t63 82.5
t100.5 60l107 -45q-10 -24 -16.5 -47t-6.5 -50q0 -33 15.5 -58.5t61.5 -25.5q28 0 44 14.5t23 37t7 47.5q0 72 -45.5 123.5t-128.5 79.5t-194 28q-95 0 -172 -15.5t-130 -45.5t-76 -73l-6 -34l-2 -20t-1 -22q0 -38 11.5 -64t33 -39t50.5 -13q36 0 55.5 20.5t19.5 58.5
q0 36 -20.5 56t-56.5 20q-30 0 -57 -13.5t-51 -38.5l11 91q23 19 54.5 31.5t68.5 12.5q48 0 84.5 -18t57.5 -53t21 -86q0 -58 -23.5 -96t-66 -56.5t-98.5 -18.5q-58 0 -104 25t-73 72t-27 113q0 60 24.5 107.5t64.5 82.5q50 43 114 67.5t137 35t148 10.5q124 0 227.5 -26.5
t178.5 -90.5q44 -37 68.5 -88.5t24.5 -115.5q0 -34 -10 -69t-32.5 -64t-61 -46.5t-95.5 -17.5zM448 -321q-63 0 -113.5 19.5t-80 59t-29.5 100.5q0 40 14 82t41 81l104 -45q-19 -28 -29 -55t-10 -53q0 -33 14 -54t38 -31t56 -10q37 0 65.5 12t52.5 35.5t46 58.5q8 14 20 30
t23 25l117 -27q-12 -12 -23 -29t-16 -29q-26 -49 -64 -88t-93 -60.5t-133 -21.5zM1334 -12q-63 0 -111.5 27.5t-76 83.5t-27.5 143q0 81 26 142.5t72 103t105 62.5t124 21q50 0 89.5 -9.5t74 -27.5t69.5 -45l-42 -110q-34 43 -81 69.5t-114 26.5q-63 0 -110.5 -30.5
t-74 -85.5t-26.5 -127q0 -56 12.5 -90t35 -49.5t53.5 -15.5q24 0 41 10t26.5 29t9.5 46q0 43 -23 66t-60 23q-41 0 -75 -23.5t-62 -53.5l-19 84q34 35 80.5 58.5t103.5 23.5q77 0 125 -44.5t48 -124.5q0 -57 -22 -98t-65 -63t-106 -22zM1625 0v439l17 46l1 74h544v-94h-153
v-465h-125v465h-158v-465h-126z" />
    <glyph glyph-name="katamil" unicode="&#xb95;" horiz-adv-x="881" 
d="M282 -12q-70 0 -123.5 20t-84 58.5t-30.5 93.5t31 95t98.5 62.5t177.5 22.5h200q60 0 100.5 -5t70 -16t53.5 -30q29 -21 45.5 -54.5t16.5 -76.5q0 -80 -49 -124t-141 -44q-23 0 -52.5 2.5t-53.5 9.5l22 89q14 -4 30 -6t33 -2q44 0 67 19.5t23 60.5q0 29 -14 46.5
t-38 26.5t-54 12t-62 3h-211q-41 0 -74 -4.5t-56 -16.5q-20 -12 -29.5 -28t-9.5 -40q0 -41 34 -61t89 -20q41 0 70 13t45 45t16 90v236h-159v-163l-114 -16v273h583v-94h-188v-230q0 -69 -13 -108.5t-36 -67.5q-35 -39 -89 -55t-124 -16z" />
    <glyph glyph-name="ngatamil" unicode="&#xb99;" horiz-adv-x="1131" 
d="M82 0v559h602v-94h-197v-140q25 15 57 26t73 11q60 0 97.5 -21.5t55.5 -57t18 -78.5q0 -34 -9.5 -62t-22.5 -49h212v-94h-606v94h270q12 16 21.5 40t9.5 52q0 46 -22 64t-56 18q-26 0 -51 -10.5t-47 -25.5v-78h-125v311h-154v-465h-126zM825 0l-20 94h117v465h126v-559
h-223z" />
    <glyph glyph-name="catamil" unicode="&#xb9a;" horiz-adv-x="776" 
d="M282 -12q-70 0 -123.5 20t-84 58.5t-30.5 93.5t31 95t98.5 62.5t177.5 22.5h381v-89h-395q-41 0 -74 -4.5t-56 -16.5q-20 -12 -29.5 -28t-9.5 -40q0 -41 34 -60.5t89 -19.5q41 0 70 12.5t45 44.5t16 90v236h-159v-163l-114 -16v273h583v-94h-189v-230q0 -69 -12.5 -108.5
t-36.5 -67.5q-34 -39 -88.5 -55t-123.5 -16z" />
    <glyph glyph-name="jatamil" unicode="&#xb9c;" horiz-adv-x="1085" 
d="M343 571q78 0 128 -18.5t80 -47t47 -59.5l-33 -12q18 45 48 75.5t71 46t92 15.5q84 0 140 -32t84.5 -86t28.5 -122q0 -77 -26.5 -128.5t-72.5 -83.5q-38 -26 -87.5 -40.5t-108.5 -20.5t-127 -6h-181q-53 0 -92 -4t-66 -13.5t-47 -25.5q-22 -17 -32.5 -41.5t-10.5 -57.5
q0 -47 19 -77t50 -45t68 -15q42 0 74 11.5t61.5 35.5t63.5 58q48 50 90 79.5t89 43t110 13.5q47 0 86 -12.5t67.5 -36t44 -56.5t15.5 -74q0 -45 -21 -80.5t-62 -55.5t-99 -20q-53 0 -87.5 13t-55.5 35t-30 48t-9 52q0 41 22 77t53 61l96 -11q-36 -28 -51.5 -56.5
t-15.5 -54.5q0 -33 18.5 -53.5t56.5 -20.5q23 0 39.5 8.5t25.5 24.5t9 39q0 22 -8.5 37.5t-24 25.5t-36.5 14.5t-46 4.5q-21 0 -39 -2.5t-36 -10.5q-19 -7 -36.5 -18t-36 -29t-43.5 -45q-39 -43 -80 -74.5t-90.5 -48t-116.5 -16.5q-93 0 -150 31.5t-83.5 84t-26.5 112.5
q0 57 19.5 97.5t52.5 67.5q35 29 79.5 45t98.5 22.5t115 6.5h159q62 0 113 3.5t91.5 14.5t68.5 33q26 21 40 52.5t14 77.5q0 51 -18 83.5t-48.5 49t-68.5 16.5q-27 0 -48 -8t-36 -25q-18 -21 -26 -51t-8 -89v-94h-125v75q0 46 -9.5 82.5t-30 62.5t-56 39.5t-88.5 13.5
q-14 0 -26 -1t-23 -4l-33 -9q-37 -11 -58 -30.5t-29.5 -42.5t-8.5 -46q0 -37 18 -61t60 -24q37 0 57 19.5t20 52.5q0 30 -15 54t-45 37.5t-76 13.5l99 48q40 -5 73.5 -24t53.5 -51t20 -76q0 -74 -50 -118t-139 -44q-61 0 -102.5 22t-63 61.5t-21.5 89.5q0 70 39 119.5
t105 76t147 26.5z" />
    <glyph glyph-name="nyatamil" unicode="&#xb9e;" horiz-adv-x="1302" 
d="M1058 329q63 0 108 -28.5t69 -82t24 -129.5q0 -91 -31.5 -159.5t-87.5 -116.5t-127.5 -77.5t-153.5 -43t-166 -13.5h-44q-132 0 -230.5 25t-167 70t-110.5 104.5t-61.5 128.5t-19.5 141v20q0 73 19 145t50 136.5t66 116.5l102 -60q-38 -55 -64 -113t-39 -115.5
t-13 -112.5v-12q0 -82 26.5 -150.5t83 -119t146.5 -78.5t218 -28h30q96 0 178 18.5t142.5 56t94 96t33.5 139.5q0 46 -11.5 79t-34 51t-58.5 18q-25 0 -46.5 -9t-40.5 -23l1 95q21 13 50.5 22t64.5 9zM538 -12q-63 0 -111.5 27t-76.5 82.5t-28 139.5q0 86 31 149t88 102
q35 25 78 40.5t101.5 23t139.5 7.5h39l3 -94h-85q-54 0 -91 -5.5t-62.5 -16t-45.5 -26.5q-40 -30 -62 -76.5t-22 -113.5q0 -53 12.5 -86t35.5 -48t54 -15q24 0 41 10t26.5 28.5t9.5 45.5q0 42 -23 65.5t-61 23.5q-41 0 -74.5 -23.5t-61.5 -53.5l-19 84q34 35 80 58.5
t104 23.5q78 0 125.5 -44.5t47.5 -124.5q0 -57 -22.5 -98t-65 -63t-105.5 -22zM826 0v465h-44l3 94h320v-94h-154v-465h-125z" />
    <glyph glyph-name="ttatamil" unicode="&#xb9f;" horiz-adv-x="724" 
d="M82 0v559h126v-465h499v-94h-625z" />
    <glyph glyph-name="nnatamil" unicode="&#xba3;" horiz-adv-x="1763" 
d="M265 -12q-63 0 -111.5 27.5t-76 83.5t-27.5 142q0 100 47.5 174t135 115t208.5 41q57 0 104.5 -7.5t91 -24.5t87.5 -45l31 -24q64 -52 104 -122t40 -160q0 -64 -22 -108.5t-63.5 -68t-100.5 -23.5q-66 0 -107.5 26.5t-61 71.5t-19.5 101q0 53 14 102.5t42.5 94t69.5 83.5
l32 27q54 39 114 58t139 19q50 0 91.5 -7t79.5 -22.5t75 -42.5l31 -26q43 -35 73.5 -79t47 -95.5t16.5 -110.5q0 -64 -22 -108.5t-63.5 -68t-99.5 -23.5q-67 0 -108 26.5t-60.5 71.5t-19.5 101q0 52 14 101.5t42.5 93.5t68.5 82l40 30q35 21 72 35.5t89.5 22t132.5 7.5h310
v-94h-153v-465h-125v465h-52q-46 0 -78 -2.5t-56.5 -8.5t-46 -16.5t-44.5 -27.5q-31 -20 -52.5 -54t-32.5 -75.5t-11 -85.5q0 -63 18.5 -90.5t47.5 -27.5q27 0 42 16.5t21 42.5t6 55q0 47 -13.5 91t-38.5 80.5t-60 57.5q-44 34 -89.5 45t-92.5 11q-63 0 -108.5 -15
t-80.5 -41q-35 -25 -58 -60.5t-34.5 -77t-11.5 -87.5q0 -61 18.5 -89.5t48.5 -28.5q27 0 41.5 16.5t21 42.5t6.5 55q0 69 -30.5 128.5t-88.5 96.5q-47 33 -102.5 46t-119.5 13q-80 0 -138.5 -26t-91.5 -70t-43 -98l-2 -24t-1 -28q0 -55 12 -88.5t35 -48t54 -14.5q24 0 41 10
t26.5 28.5t9.5 45.5q0 42 -22.5 65.5t-60.5 23.5q-41 0 -74.5 -23.5t-62.5 -53.5l-19 84q34 35 80.5 58.5t103.5 23.5q78 0 125.5 -44.5t47.5 -124.5q0 -57 -22 -98t-65 -63t-106 -22z" />
    <glyph glyph-name="tatamil" unicode="&#xba4;" horiz-adv-x="879" 
d="M282 -12q-70 0 -123.5 20t-84 58.5t-30.5 93.5t31 95t99 62.5t178 22.5h159q95 0 168.5 -23t115.5 -76t42 -144q0 -67 -27 -114t-77 -81q-33 -23 -78 -38t-104 -21.5t-137 -6.5h-92q-53 0 -77.5 -5.5t-41.5 -16.5q-16 -12 -25 -31t-9 -52q0 -12 1 -23.5t2 -22.5l-122 -6
q-3 20 -4.5 41t-1.5 42q0 45 17 77t45 53q20 13 43 21.5t55.5 12.5t79.5 4h97q88 0 144 6.5t91 21.5t57 38q20 21 30 48.5t10 62.5q0 46 -18.5 74.5t-50 43.5t-69 20.5t-75.5 5.5h-163q-41 0 -74 -4.5t-56 -16.5q-20 -12 -29.5 -28t-9.5 -40q0 -40 34 -60t89 -20
q41 0 70 12.5t45 44.5t16 90v236h-159v-163l-114 -16v273h583v-94h-188v-230q0 -69 -13 -108.5t-36 -67.5q-34 -39 -88.5 -55t-124.5 -16z" />
    <glyph glyph-name="natamil" unicode="&#xba8;" horiz-adv-x="852" 
d="M607 362q59 0 104 -26.5t71 -78t26 -127.5q0 -88 -28 -143t-75 -88q-33 -23 -76 -37t-98 -20t-127 -6h-83q-54 0 -78.5 -5.5t-40.5 -16.5q-16 -12 -25 -31t-9 -52q0 -12 1 -23.5t2 -22.5l-122 -6q-3 20 -4.5 41t-1.5 42q0 45 17 77t45 53q19 13 42 21.5t56 12.5t79 4h107
q76 0 123.5 6t77.5 20t52 36q19 20 31 53.5t12 81.5q0 47 -12.5 78t-36.5 47t-58 16q-28 0 -51.5 -10t-44.5 -26l-2 94q25 15 56.5 25.5t70.5 10.5zM82 0v559h565v-94h-156v-465h-125v465h-158v-465h-126z" />
    <glyph glyph-name="nnnatamil" unicode="&#xba9;" horiz-adv-x="1312" 
d="M265 -12q-63 0 -111.5 27.5t-76 83.5t-27.5 142q0 100 47.5 174t135.5 115t208 41q57 0 104.5 -7.5t91 -24.5t87.5 -45l33 -26q63 -51 102.5 -121t39.5 -159q0 -64 -22 -108.5t-63.5 -68t-99.5 -23.5q-67 0 -108.5 26.5t-61 71.5t-19.5 101q0 53 14.5 102.5t42.5 93
t67 79.5l41 32q35 21 72.5 35.5t89.5 22t131 7.5h312v-94h-153v-465h-126v465h-52q-45 0 -77.5 -2.5t-57.5 -8.5t-46 -16.5t-43 -27.5q-32 -20 -53.5 -54.5t-32.5 -76t-11 -84.5q0 -63 18.5 -90.5t48.5 -27.5q27 0 41.5 16.5t21 42.5t6.5 55q0 69 -30.5 128.5t-88.5 96.5
q-47 33 -102.5 46t-119.5 13q-80 0 -138.5 -26t-91.5 -70t-43 -98l-2 -24t-1 -28q0 -55 12 -88.5t35 -48t54 -14.5q24 0 41 10t26.5 28.5t9.5 45.5q0 42 -22.5 65.5t-60.5 23.5q-41 0 -74.5 -23.5t-62.5 -53.5l-19 84q34 35 80.5 58.5t103.5 23.5q78 0 125.5 -44.5
t47.5 -124.5q0 -57 -22 -98t-65 -63t-106 -22z" />
    <glyph glyph-name="patamil" unicode="&#xbaa;" horiz-adv-x="811" 
d="M82 0v559h126v-465h395v465h125v-559h-646z" />
    <glyph glyph-name="matamil" unicode="&#xbae;" horiz-adv-x="907" 
d="M607 571q86 0 140 -39t80 -108t26 -157q0 -74 -16.5 -124.5t-52.5 -82.5q-26 -23 -58.5 -36t-77 -18.5t-110.5 -5.5h-456v559h126v-465h199v261q0 62 13 100t37 64q26 25 62.5 38.5t87.5 13.5zM612 477q-14 0 -28 -4.5t-24 -15.5q-14 -15 -20.5 -39t-6.5 -79v-245h41
q59 0 92 16.5t47 55.5t14 103q0 58 -11.5 105t-36.5 75t-67 28z" />
    <glyph glyph-name="yatamil" unicode="&#xbaf;" horiz-adv-x="1009" 
d="M363 0v559h126v-465h312v465h125v-559h-563zM250 -12q-41 0 -70.5 12t-50.5 35q-12 15 -23 34.5t-17.5 51t-6.5 81.5v357h126v-343q0 -41 4 -69.5t19 -44.5q9 -9 22.5 -14.5t30.5 -5.5q29 0 52 16t42 46l-2 -103q-22 -22 -53 -37.5t-73 -15.5z" />
    <glyph glyph-name="ratamil" unicode="&#xbb0;" horiz-adv-x="673" 
d="M280 -213l-80 75l178 168v435h-170v-465h-126v559h574v-94h-153v-465z" />
    <glyph glyph-name="rratamil" unicode="&#xbb1;" horiz-adv-x="933" 
d="M616 571q84 0 142 -39.5t88 -113t30 -177.5q0 -122 -31 -200t-86 -122q-40 -33 -90.5 -51t-111 -25t-130.5 -7h-108q-54 0 -78.5 -5.5t-40.5 -16.5q-16 -12 -25 -31t-9 -52q0 -12 1 -23.5t2 -22.5l-122 -6q-3 20 -4.5 41t-1.5 42q0 45 17 77t45 53q19 13 42 21.5t56 12.5
t79 4h126q90 0 154.5 12.5t106.5 45.5t62.5 94.5t20.5 158.5q0 86 -18.5 137.5t-51 75t-73.5 23.5q-25 0 -46 -8t-37 -26q-18 -22 -24.5 -51.5t-6.5 -78.5v-313h-125v310q0 53 -4 85t-18 52q-9 14 -23 22t-35 8t-36 -7.5t-24 -21.5q-15 -20 -18.5 -52.5t-3.5 -83.5v-312
h-126v335q0 49 6.5 84t19.5 60.5t33 44.5q25 24 58 35.5t72 11.5q48 0 82 -13.5t59 -42t46 -73.5l-42 10q21 35 47.5 62t64 42t90.5 15z" />
    <glyph glyph-name="latamil" unicode="&#xbb2;" horiz-adv-x="1078" 
d="M265 -12q-63 0 -111.5 27t-76 83.5t-27.5 142.5q0 81 26.5 143t74 103.5t108.5 62.5t130 21q63 0 115 -14.5t91 -50.5q27 -24 44 -57t26.5 -82t11.5 -122q2 -30 5.5 -57t12 -47.5t24.5 -34.5q13 -11 29.5 -17t38.5 -6q32 0 56.5 14.5t38.5 50t14 98.5q0 54 -14 106
t-40 100t-61 89l106 65q66 -81 100.5 -168t34.5 -186q0 -82 -26 -141t-80 -91t-137 -32q-45 0 -83.5 11.5t-67.5 36.5q-34 29 -53.5 79t-23.5 124q-1 37 -5 71.5t-13.5 64.5t-28.5 51q-20 24 -49.5 36.5t-75.5 12.5q-67 0 -116 -31t-75 -86.5t-26 -127.5q0 -55 12.5 -89
t35 -48.5t53.5 -14.5q24 0 41 10t26.5 28.5t9.5 45.5q0 42 -22.5 65.5t-60.5 23.5q-41 0 -75 -23.5t-62 -53.5l-19 84q34 35 80.5 58.5t103.5 23.5q77 0 125 -44.5t48 -124.5q0 -57 -22.5 -98t-65.5 -63t-105 -22z" />
    <glyph glyph-name="llatamil" unicode="&#xbb3;" horiz-adv-x="1135" 
d="M265 -12q-63 0 -111.5 27.5t-76 83.5t-27.5 143q0 81 26 142.5t72 103t105 62.5t124 21q50 0 89.5 -9.5t74 -27.5t69.5 -45l-42 -110q-34 43 -81 69.5t-114 26.5q-63 0 -110.5 -30.5t-74 -85.5t-26.5 -127q0 -56 12.5 -90t35 -49.5t53.5 -15.5q24 0 41 10t26.5 29t9.5 46
q0 43 -23 66t-60 23q-41 0 -75 -23.5t-62 -53.5l-19 84q34 35 80.5 58.5t103.5 23.5q77 0 125 -44.5t48 -124.5q0 -57 -22 -98t-65 -63t-106 -22zM556 0v439l17 46l1 74h544v-94h-153v-465h-125v465h-158v-465h-126z" />
    <glyph glyph-name="lllatamil" unicode="&#xbb4;" horiz-adv-x="907" 
d="M607 571q86 0 140 -39t80 -108t26 -157q0 -74 -16.5 -124.5t-52.5 -82.5q-26 -23 -58.5 -36t-77 -18.5t-110.5 -5.5h-456v559h126v-465h199v261q0 62 13 100t37 64q26 25 62.5 38.5t87.5 13.5zM612 477q-14 0 -28 -4.5t-24 -15.5q-14 -15 -20.5 -39t-6.5 -79v-245h41
q59 0 92 16.5t47 55.5t14 103q0 58 -11.5 105t-36.5 75t-67 28zM225 -50q19 0 39.5 -1.5t37.5 -4.5l-8 -87q-10 2 -23 2.5t-29 0.5q-29 0 -49 -9.5t-20 -31.5q0 -20 15.5 -30.5t38.5 -14.5t47 -4h26q47 0 80 11t56 32t39 52q7 13 19.5 23t35.5 15.5t60 6.5l85 -23
q-43 -9 -62.5 -23.5t-29.5 -36.5q-22 -49 -58.5 -82t-89.5 -49.5t-130 -16.5h-32q-51 0 -96.5 11.5t-71.5 29.5q-20 14 -36 39t-16 61q0 60 45.5 95t126.5 35zM558 -177l-12 11q-39 8 -69.5 27t-48.5 53.5t-20 86.5h122q0 -26 9 -44.5t29 -28.5q14 -6 32.5 -9t49.5 -3h115
v-93h-207z" />
    <glyph glyph-name="vatamil" unicode="&#xbb5;" horiz-adv-x="1105" 
d="M265 -12q-63 0 -111.5 27.5t-76 83.5t-27.5 143q0 107 45 180.5t122 111t171 37.5q86 0 146 -23t98 -63.5t55.5 -92.5t17.5 -110q0 -54 -11.5 -100.5t-28.5 -87.5h232v465h125v-559h-486l-4 74q20 35 33.5 83.5t13.5 110.5q0 66 -23.5 112t-68 70.5t-108.5 24.5
q-68 0 -117 -32.5t-74.5 -87.5t-25.5 -123q0 -56 12.5 -90t35 -49t53.5 -15q24 0 41 10t26.5 28.5t9.5 45.5q0 43 -22.5 66t-60.5 23q-41 0 -75 -23.5t-62 -53.5l-19 84q34 35 80.5 58.5t103.5 23.5q77 0 125 -44.5t48 -124.5q0 -57 -22.5 -98t-65.5 -63t-105 -22z" />
    <glyph glyph-name="shatamil" unicode="&#xbb6;" horiz-adv-x="1246" 
d="M320 -12q-65 0 -113.5 18t-78.5 55q-24 27 -36 68.5t-12 110.5v319h126v-319q0 -54 7.5 -83.5t27.5 -48.5q13 -13 32.5 -19.5t46.5 -6.5q30 0 50.5 9t34.5 26q15 20 21.5 49t6.5 77v316h732v-328q0 -63 -12 -104.5t-36 -70.5q-30 -33 -77.5 -50.5t-113.5 -17.5
q-65 0 -114 18t-79 55q-23 29 -34.5 70t-11.5 110v224h-129v-235q0 -61 -11.5 -101.5t-34.5 -68.5q-28 -36 -76.5 -54t-115.5 -18zM926 82q30 0 50.5 9t34.5 26q16 20 22.5 49t6.5 77v222h-228v-225q0 -54 8 -83.5t27 -48.5q14 -13 33 -19.5t46 -6.5z" />
    <glyph glyph-name="ssatamil" unicode="&#xbb7;" horiz-adv-x="1459" 
d="M986 571q53 0 87.5 -14.5t55 -38.5t29.5 -53t9 -58q0 -32 -5.5 -69.5t-18.5 -92.5l-10 -43l-124 -486l-115 31l77 286l8 40l43 168q13 49 19 89t6 72q0 36 -14.5 56t-46.5 20q-38 0 -58.5 -26t-20.5 -69q0 -37 18 -61t52 -35.5t81 -11.5h46q58 0 101 19t78 46h110v-340
h-587l6 94h471v65q0 18 0.5 40t1.5 39q-26 -19 -79 -36.5t-124 -17.5h-22q-67 0 -117 14t-84 40.5t-50.5 64t-16.5 84.5q0 48 21.5 90t65 68t107.5 26zM265 -12q-63 0 -111.5 27.5t-76 83.5t-27.5 143q0 107 45 180.5t122 111t171 37.5q86 0 146 -23t98 -63.5t55.5 -92.5
t17.5 -110q0 -54 -11.5 -100.5t-28.5 -87.5h231l-15 -94h-345l-4 74q20 35 33.5 83.5t13.5 110.5q0 66 -23.5 112t-68 70.5t-108.5 24.5q-68 0 -117 -32.5t-74.5 -87.5t-25.5 -123q0 -56 12.5 -90t35 -49t53.5 -15q24 0 41 10t26.5 28.5t9.5 45.5q0 43 -22.5 66t-60.5 23
q-41 0 -75 -23.5t-62 -53.5l-19 84q34 35 80.5 58.5t103.5 23.5q77 0 125 -44t48 -125q0 -57 -22.5 -98t-65.5 -63t-105 -22z" />
    <glyph glyph-name="satamil" unicode="&#xbb8;" horiz-adv-x="1370" 
d="M265 -12q-63 0 -111.5 27t-76 83.5t-27.5 142.5q0 81 26.5 143t73 103.5t106.5 62.5t127 21q60 0 105.5 -15t81 -44.5t64.5 -74.5l-50 -6q18 41 44.5 73t63 49.5t82.5 17.5q51 0 84.5 -13t56.5 -39q29 -30 41.5 -76t12.5 -116v-78q0 -48 8.5 -85t33.5 -58q12 -11 29 -17
t39 -6q32 0 56.5 14.5t38.5 50t14 98.5q0 54 -14.5 106t-40 100t-60.5 89l106 65q65 -81 100 -168t35 -186q0 -82 -26.5 -141t-80 -91t-136.5 -32q-45 0 -83.5 11.5t-67.5 36.5q-22 20 -39.5 49.5t-27 71t-9.5 97.5v41q0 60 -4 93.5t-15 53.5q-9 18 -24.5 26.5t-36.5 8.5
q-20 0 -35 -7.5t-24 -21.5q-14 -19 -18.5 -48t-4.5 -79v-321h-126v273q0 60 -12 96t-36 60q-23 23 -54 34.5t-75 11.5q-67 0 -116 -31t-75 -86.5t-26 -127.5q0 -55 12.5 -89t35 -48.5t53.5 -14.5q24 0 41 10t26.5 28.5t9.5 45.5q0 42 -22.5 65.5t-60.5 23.5q-41 0 -75 -23.5
t-62 -53.5l-19 84q34 35 80.5 58.5t103.5 23.5q77 0 125 -44.5t48 -124.5q0 -57 -22.5 -98t-65.5 -63t-105 -22z" />
    <glyph glyph-name="hatamil" unicode="&#xbb9;" horiz-adv-x="1718" 
d="M1402 571q84 0 142 -39.5t88 -113t30 -177.5q0 -122 -31 -200t-86 -122q-40 -33 -90.5 -51t-111 -25t-130.5 -7h-892q-54 0 -78.5 -5.5t-40.5 -16.5q-16 -12 -25 -31t-9 -52q0 -12 1 -23.5t2 -22.5l-122 -6q-3 20 -4.5 41t-1.5 42q0 45 17 77t45 53q19 13 42 21.5
t56 12.5t79 4h910q89 0 154 12.5t107 45.5t62 94.5t20 158.5q0 86 -18.5 137.5t-50.5 75t-73 23.5q-26 0 -46.5 -8t-36.5 -26q-18 -22 -24.5 -51.5t-6.5 -78.5v-313h-125v307q0 55 -4 87.5t-18 52.5q-8 14 -23 22t-36 8q-20 0 -35.5 -7.5t-24.5 -21.5q-14 -20 -18 -52.5
t-4 -83.5v-312h-125v335q0 49 6 84t19.5 60.5t33.5 44.5q24 24 57.5 35.5t71.5 11.5q49 0 82.5 -13.5t59 -42t45.5 -73.5l-41 10q20 35 46.5 62t64 42t91.5 15zM265 -12q-63 0 -111.5 27.5t-76 83.5t-27.5 143q0 107 45 180.5t122 111t171 37.5q86 0 146 -23t98 -63.5
t55.5 -92.5t17.5 -110q0 -54 -11.5 -100.5t-28.5 -87.5h231l38 -94h-398l-4 74q20 35 33.5 83.5t13.5 110.5q0 66 -23.5 112t-68 70.5t-108.5 24.5q-68 0 -117 -32.5t-74.5 -87.5t-25.5 -123q0 -56 12.5 -90t35 -49t53.5 -15q24 0 41 10t26.5 28.5t9.5 45.5q0 43 -22.5 66
t-60.5 23q-41 0 -75 -23.5t-62 -53.5l-19 84q34 35 80.5 58.5t103.5 23.5q77 0 125 -44.5t48 -124.5q0 -57 -22.5 -98t-65.5 -63t-105 -22z" />
    <glyph glyph-name="aavowelsigntamil" unicode="&#xbbe;" horiz-adv-x="673" 
d="M82 0v559h574v-94h-153v-465h-125v465h-170v-465h-126z" />
    <glyph glyph-name="ivowelsigntamil" unicode="&#xbbf;" horiz-adv-x="291" 
d="M-81 848q70 0 122 -20.5t86 -55.5q23 -24 41 -59t29 -91.5t11 -144.5v-477h-126v445q0 76 -5.5 126t-18 84t-33.5 56q-20 22 -46 32.5t-59 10.5q-43 0 -70 -16t-40 -42.5t-13 -57.5q0 -28 8.5 -60t25.5 -63h-126q-13 26 -20.5 58t-7.5 63q0 56 20.5 96t55 65.5t78 38
t88.5 12.5z" />
    <glyph glyph-name="iivowelsigntamil" unicode="&#xbc0;" 
d="M-185 848q101 0 147.5 -37.5t46.5 -97.5q0 -62 -40 -95t-110 -33q-75 0 -112 33t-37 89q0 27 14.5 60.5t43.5 60.5l71 -25q-17 -21 -29 -42t-12 -46q0 -18 7 -30.5t19.5 -18.5t30.5 -6q27 0 40 14.5t13 36.5q0 31 -25 42.5t-64 11.5q-15 0 -30 -1.5t-34 -5.5
q-55 -10 -85.5 -47t-30.5 -89q0 -26 6 -46.5t16 -39.5l-105 -15q-11 23 -16.5 49t-5.5 57q0 41 16 80.5t49.5 71t87 50.5t128.5 19z" />
    <glyph glyph-name="uvowelsigntamil" unicode="&#xbc1;" horiz-adv-x="535" 
d="M301 210q-59 0 -100 17.5t-65 46.5t-34.5 64.5t-10.5 71.5q0 40 4.5 68t9.5 44l119 -7q-4 -17 -8.5 -41t-4.5 -59q0 -55 22.5 -84t67.5 -29q30 0 47 11t24.5 28t7.5 35q0 24 -8 40.5t-24 27.5q-16 12 -41 16.5t-71 4.5h-464v94h474q71 0 112 -10t69 -28q38 -23 55 -58.5
t17 -80.5q0 -37 -12 -68.5t-37 -54.5t-62 -36t-87 -13z" />
    <glyph glyph-name="uuvowelsigntamil" unicode="&#xbc2;" horiz-adv-x="880" 
d="M414 5q-64 0 -125 11t-114.5 32t-97.5 48l53 92q38 -25 80.5 -45t92 -31t106.5 -11q69 0 123 17.5t92 54.5t58.5 95t20.5 140q0 79 -26.5 140.5t-79.5 97t-133 35.5q-63 0 -110 -21t-76.5 -56t-42.5 -74l-2 -36q-2 -19 -3.5 -37t-1.5 -39q0 -60 24.5 -88t67.5 -28
q42 0 59.5 23.5t17.5 50.5q0 24 -8 40.5t-24 27.5q-16 12 -41 16.5t-71 4.5h-481v94h491q70 0 111.5 -9.5t69.5 -28.5q38 -23 55 -58.5t17 -80.5q0 -37 -12 -68.5t-36.5 -54.5t-61 -36t-85.5 -13q-75 0 -122 31t-69 80t-22 104q0 20 1 36t3 32l3 25q14 74 60 132t120.5 92
t173.5 34q89 0 156.5 -27.5t112.5 -77.5t68 -116t23 -143q0 -112 -30.5 -190t-86 -125.5t-131.5 -69.5t-167 -22z" />
    <glyph glyph-name="evowelsigntamil" unicode="&#xbc6;" horiz-adv-x="954" 
d="M407 -12q-81 0 -145.5 28.5t-111 81t-71 126.5t-24.5 165q0 109 36.5 193.5t99 144t145 90.5t174.5 31q76 0 136 -17.5t107 -54.5q41 -32 67 -76t38.5 -109.5t12.5 -164.5v-426h-125v379q0 65 -5 123t-20 105.5t-44 79.5q-30 34 -72 49t-99 15q-58 0 -116 -20.5
t-106.5 -64.5t-78 -114.5t-29.5 -169.5q0 -63 11.5 -112.5t31.5 -86.5t47 -60.5t59 -35.5h25q17 -4 35 -6t37 -2q54 0 78 29t24 74q0 37 -19.5 64t-60.5 27q-35 0 -58.5 -23t-23.5 -68q0 -38 13 -70.5t34 -53.5l-98 -6q-18 21 -36.5 56.5t-18.5 85.5q0 48 20.5 86.5t64 61.5
t109.5 23q62 0 104.5 -23.5t64.5 -64.5t22 -93q0 -67 -29.5 -110.5t-82 -64.5t-122.5 -21z" />
    <glyph glyph-name="eevowelsigntamil" unicode="&#xbc7;" horiz-adv-x="760" 
d="M470 -12q-90 0 -166.5 28t-133.5 82.5t-88.5 134.5t-31.5 185q0 103 33.5 183t93.5 135.5t141 83.5t177 28q73 0 127 -21t83.5 -62.5t29.5 -104.5q0 -52 -23 -92t-65.5 -62t-102.5 -22q-59 0 -100 21.5t-62 59.5t-21 86q0 47 15.5 77t37.5 52l98 -8q-20 -19 -31.5 -48.5
t-11.5 -63.5q0 -44 21 -64.5t53 -20.5q37 0 55.5 24t18.5 60q0 28 -13 50.5t-38.5 35t-66.5 12.5q-8 0 -24 -1t-35 -4q-52 -7 -100 -30t-86 -65t-60.5 -101.5t-22.5 -138.5t21 -138t57 -100t82.5 -64.5t97.5 -30.5q14 -3 28.5 -4t29.5 -1q38 0 64 12.5t39.5 36t13.5 56.5
q0 37 -18 63t-57 26q-32 0 -54.5 -22.5t-22.5 -68.5q0 -38 13 -70.5t34 -53.5l-101 -6q-24 26 -39 56.5t-15 82.5q0 48 21.5 87t63 62t102.5 23q62 0 104 -23t64.5 -63.5t22.5 -92.5q0 -65 -31 -109t-87.5 -65.5t-133.5 -21.5z" />
    <glyph glyph-name="aivowelsigntamil" unicode="&#xbc8;" horiz-adv-x="1239" 
d="M266 -12q-63 0 -112 27.5t-76.5 83.5t-27.5 142q0 100 47.5 174t135.5 115t208 41q57 0 104.5 -7.5t90.5 -24.5t87 -44l29 -22q66 -52 106.5 -124t40.5 -161q0 -64 -22 -108.5t-63.5 -68t-99.5 -23.5q-67 0 -108.5 26.5t-61 71.5t-19.5 101q0 57 15.5 107t42.5 93.5
t63 80.5l28 23q48 40 104 60t115 20q103 0 166.5 -40t93.5 -106t30 -144q0 -64 -13.5 -118t-34 -98t-42.5 -77l-104 54q28 42 48 98t20 134q0 63 -21.5 108t-60.5 69t-94 24q-42 0 -75 -11t-66 -39q-31 -25 -53 -60t-33 -78t-11 -95q0 -60 18.5 -87.5t48.5 -27.5
q27 0 42 16.5t21 43t6 54.5q0 69 -30.5 128.5t-88.5 96.5q-47 33 -102.5 46t-119.5 13q-80 0 -138.5 -26t-91.5 -70t-43 -98l-2 -24t-1 -28q0 -55 12 -88.5t35.5 -48t53.5 -14.5q25 0 41.5 10t26 28.5t9.5 45.5q0 42 -22.5 65.5t-60.5 23.5q-41 0 -74.5 -23.5t-62.5 -53.5
l-19 84q34 35 80.5 58.5t103.5 23.5q78 0 125.5 -44.5t47.5 -124.5q0 -57 -22 -98t-64.5 -63t-105.5 -22z" />
    <glyph glyph-name="ovowelsigntamil" unicode="&#xbca;" horiz-adv-x="1815" 
d="M407 -12q-81 0 -145.5 28.5t-111 81t-71 126.5t-24.5 165q0 109 36.5 193.5t99 144t145 90.5t174.5 31q76 0 136 -17.5t107 -54.5q41 -32 67 -76t38.5 -109.5t12.5 -164.5v-426h-125v379q0 65 -5 123t-20 105.5t-44 79.5q-30 34 -72 49t-99 15q-58 0 -116 -20.5
t-106.5 -64.5t-78 -114.5t-29.5 -169.5q0 -63 11.5 -112.5t31.5 -86.5t47 -60.5t59 -35.5h25q17 -4 35 -6t37 -2q54 0 78 29t24 74q0 37 -19.5 64t-60.5 27q-35 0 -58.5 -23t-23.5 -68q0 -38 13 -70.5t34 -53.5l-98 -6q-18 21 -36.5 56.5t-18.5 85.5q0 48 20.5 86.5t64 61.5
t109.5 23q62 0 104.5 -23.5t64.5 -64.5t22 -93q0 -67 -29.5 -110.5t-82 -64.5t-122.5 -21zM1048 287q-33 0 -54.5 21.5t-21.5 55.5q0 33 21.5 55t54.5 22t54.5 -22t21.5 -55q0 -34 -21.5 -55.5t-54.5 -21.5zM1224 0v559h574v-94h-153v-465h-125v465h-170v-465h-126z" />
    <glyph glyph-name="oovowelsigntamil" unicode="&#xbcb;" horiz-adv-x="1612" 
d="M470 -12q-90 0 -166.5 28t-133.5 82.5t-88.5 134.5t-31.5 185q0 103 33.5 183t93.5 135.5t141 83.5t177 28q73 0 127 -21t83.5 -62.5t29.5 -104.5q0 -52 -23 -92t-65.5 -62t-102.5 -22q-59 0 -100 21.5t-62 59.5t-21 86q0 47 15.5 77t37.5 52l98 -8q-20 -19 -31.5 -48.5
t-11.5 -63.5q0 -44 21 -64.5t53 -20.5q37 0 55.5 24t18.5 60q0 28 -13 50.5t-38.5 35t-66.5 12.5q-8 0 -24 -1t-35 -4q-52 -7 -100 -30t-86 -65t-60.5 -101.5t-22.5 -138.5t21 -138t57 -100t82.5 -64.5t97.5 -30.5q14 -3 28.5 -4t29.5 -1q38 0 64 12.5t39.5 36t13.5 56.5
q0 37 -18 63t-57 26q-32 0 -54.5 -22.5t-22.5 -68.5q0 -38 13 -70.5t34 -53.5l-101 -6q-24 26 -39 56.5t-15 82.5q0 48 21.5 87t63 62t102.5 23q62 0 104 -23t64.5 -63.5t22.5 -92.5q0 -65 -31 -109t-87.5 -65.5t-133.5 -21.5zM852 287q-33 0 -54.5 21.5t-21.5 55.5
q0 33 21.5 55t54.5 22t54.5 -22t21.5 -55q0 -34 -21.5 -55.5t-54.5 -21.5zM1021 0v559h574v-94h-153v-465h-125v465h-170v-465h-126z" />
    <glyph glyph-name="auvowelsigntamil" unicode="&#xbcc;" horiz-adv-x="2291" 
d="M407 -12q-81 0 -145.5 28.5t-111 81t-71 126.5t-24.5 165q0 109 36.5 193.5t99 144t145 90.5t174.5 31q76 0 136 -17.5t107 -54.5q41 -32 67 -76t38.5 -109.5t12.5 -164.5v-426h-125v379q0 65 -5 123t-20 105.5t-44 79.5q-30 34 -72 49t-99 15q-58 0 -116 -20.5
t-106.5 -64.5t-78 -114.5t-29.5 -169.5q0 -63 11.5 -112.5t31.5 -86.5t47 -60.5t59 -35.5h25q17 -4 35 -6t37 -2q54 0 78 29t24 74q0 37 -19.5 64t-60.5 27q-35 0 -58.5 -23t-23.5 -68q0 -38 13 -70.5t34 -53.5l-98 -6q-18 21 -36.5 56.5t-18.5 85.5q0 48 20.5 86.5t64 61.5
t109.5 23q62 0 104.5 -23.5t64.5 -64.5t22 -93q0 -67 -29.5 -110.5t-82 -64.5t-122.5 -21zM1048 287q-33 0 -54.5 21.5t-21.5 55.5q0 33 21.5 55t54.5 22t54.5 -22t21.5 -55q0 -34 -21.5 -55.5t-54.5 -21.5zM1420 -12q-63 0 -111.5 27.5t-76 83.5t-27.5 143q0 81 26 142.5
t72 103t105 62.5t124 21q50 0 89.5 -9.5t74 -27.5t69.5 -45l-42 -110q-34 43 -81 69.5t-114 26.5q-63 0 -110.5 -30.5t-74 -85.5t-26.5 -127q0 -56 12.5 -90t35 -49.5t53.5 -15.5q24 0 41 10t26.5 29t9.5 46q0 43 -23 66t-60 23q-41 0 -75 -23.5t-62 -53.5l-19 84
q34 35 80.5 58.5t103.5 23.5q77 0 125 -44.5t48 -124.5q0 -57 -22 -98t-65 -63t-106 -22zM1711 0v439l17 46l1 74h544v-94h-153v-465h-125v465h-158v-465h-126z" />
    <glyph glyph-name="viramatamil" unicode="&#xbcd;" 
d="M-278 668q-33 0 -54.5 21.5t-21.5 55.5q0 33 21.5 55t54.5 22t54.5 -22t21.5 -55q0 -34 -21.5 -55.5t-54.5 -21.5z" />
    <glyph glyph-name="ohmsigntamil" unicode="&#xbd0;" horiz-adv-x="1224" 
d="M606 586q112 0 201 -13t158.5 -41t122.5 -75q43 -35 67.5 -82t24.5 -110q0 -34 -9.5 -68.5t-32.5 -63.5t-61.5 -47t-95.5 -18q-52 0 -91.5 17t-61.5 50.5t-22 81.5q0 17 4.5 40.5t15.5 40.5l15 -2q-50 -26 -71 -64.5t-21 -78.5q0 -42 15 -71.5t42 -49.5q19 -15 42.5 -25
t58.5 -14t88 -4h101v-94h-112q-61 0 -98 5.5t-69 16.5q-65 21 -104.5 56t-57 79t-17.5 92q0 53 21.5 98.5t63 82.5t100.5 60l107 -45q-10 -24 -16.5 -46t-6.5 -51q0 -33 16 -58.5t61 -25.5q29 0 45 14.5t22.5 37t6.5 46.5q0 72 -53.5 123.5t-152 79.5t-235.5 28
q-118 0 -210.5 -15.5t-154 -43.5t-87.5 -68q-5 -16 -7.5 -34.5t-2.5 -47.5q0 -36 11.5 -60.5t32 -36.5t47.5 -12q25 0 42.5 9.5t26.5 27t9 42.5q0 36 -21 56.5t-56 20.5q-30 0 -57 -14t-51 -38l7 86q24 20 55.5 34.5t74.5 14.5q46 0 82 -18.5t57 -53.5t21 -86q0 -57 -24 -95
t-66.5 -57t-100.5 -19q-56 0 -101.5 24.5t-72 69.5t-26.5 109q0 59 24.5 104.5t65.5 79.5q58 48 134 73.5t162 35.5t175 10zM88 -129q0 37 13 77t39 79l95 -45q-16 -27 -24.5 -52t-8.5 -48q0 -44 28 -68t77.5 -33.5t112.5 -9.5q78 0 132 7t92.5 26t68.5 53.5t58 89.5
l129 -30l-13 -22q-36 -68 -79.5 -110.5t-99 -65.5t-124.5 -31.5t-155 -8.5h-7q-165 0 -249.5 46.5t-84.5 145.5zM522 68q29 0 52.5 -10t39.5 -30q16 -19 23.5 -42t7.5 -49q0 -30 -10 -50.5t-25 -31.5q-16 -11 -38.5 -16.5t-64.5 -5.5h-220v216h74v-161h70v82q0 34 7.5 52
t24.5 30q12 9 26.5 12.5t32.5 3.5zM526 13q-11 0 -16.5 -6t-5.5 -20v-99h24q26 0 35 13.5t9 39.5q0 21 -5.5 37t-16 25.5t-24.5 9.5zM523 107q-22 0 -36.5 14.5t-14.5 37.5q0 22 15 36.5t36 14.5q23 0 37.5 -14.5t14.5 -36.5q0 -23 -14.5 -37.5t-37.5 -14.5z" />
    <glyph glyph-name="aulengthmarktamil" unicode="&#xbd7;" horiz-adv-x="1135" 
d="M265 -12q-63 0 -111.5 27.5t-76 83.5t-27.5 143q0 81 26 142.5t72 103t105 62.5t124 21q50 0 89.5 -9.5t74 -27.5t69.5 -45l-42 -110q-34 43 -81 69.5t-114 26.5q-63 0 -110.5 -30.5t-74 -85.5t-26.5 -127q0 -56 12.5 -90t35 -49.5t53.5 -15.5q24 0 41 10t26.5 29t9.5 46
q0 43 -23 66t-60 23q-41 0 -75 -23.5t-62 -53.5l-19 84q34 35 80.5 58.5t103.5 23.5q77 0 125 -44.5t48 -124.5q0 -57 -22 -98t-65 -63t-106 -22zM556 0v439l17 46l1 74h544v-94h-153v-465h-125v465h-158v-465h-126z" />
    <glyph glyph-name="zerotamil" unicode="&#xbe6;" horiz-adv-x="665" 
d="M334 -12q-86 0 -150 36t-99 102t-35 155t36 154t99.5 100.5t147.5 35.5q94 0 156.5 -40.5t93.5 -106.5t31 -143q0 -88 -34 -154t-96 -102.5t-150 -36.5zM333 477q-50 0 -85 -24t-53 -68t-18 -105t18 -105.5t53 -68.5t84 -24t83.5 23.5t53.5 67.5t19 107q0 61 -18.5 105
t-53 68t-83.5 24z" />
    <glyph glyph-name="onetamil" unicode="&#xbe7;" horiz-adv-x="881" 
d="M282 -12q-70 0 -123.5 20t-84 58.5t-30.5 93.5t31 95t98.5 62.5t177.5 22.5h200q60 0 100.5 -5t70 -16t53.5 -30q29 -21 45.5 -54.5t16.5 -76.5q0 -80 -49 -124t-141 -44q-23 0 -52.5 2.5t-53.5 9.5l22 89q14 -4 30 -6t33 -2q44 0 67 19.5t23 60.5q0 29 -14 46.5
t-38 26.5t-54 12t-62 3h-211q-41 0 -74 -4.5t-56 -16.5q-20 -12 -29.5 -28t-9.5 -40q0 -41 34 -61t89 -20q41 0 70 13t45 45t16 90v236h-159v-163l-114 -16v273h583v-94h-188v-230q0 -69 -13 -108.5t-36 -67.5q-35 -39 -89 -55t-124 -16z" />
    <glyph glyph-name="twotamil" unicode="&#xbe8;" horiz-adv-x="1080" 
d="M339 571q81 0 138.5 -17t94 -46.5t53.5 -68.5t17 -81q0 -58 -24 -97t-66.5 -63t-99 -36.5t-121.5 -19.5l-104 -9q-34 -3 -44 -8.5t-10 -13.5q0 -10 8 -13.5t27 -3.5h855v-94h-856q-59 0 -92.5 14.5t-47 38t-13.5 49.5q0 31 16 55.5t51.5 40.5t95.5 22l82 7
q93 8 139.5 26.5t62.5 44.5t16 57q0 37 -22.5 64t-62 42t-92.5 15q-76 0 -116.5 -31t-40.5 -83q0 -34 16 -64.5t44.5 -56t64.5 -44.5l-109 -34q-40 25 -71 56t-48.5 68t-17.5 79q0 59 32.5 105.5t94 73t150.5 26.5z" />
    <glyph glyph-name="threetamil" unicode="&#xbe9;" horiz-adv-x="1054" 
d="M82 0v559h602v-94h-197v-140q25 15 57 26t73 11q60 0 97.5 -21.5t55.5 -57t18 -78.5q0 -34 -9.5 -62t-22.5 -49h281v-94h-675v94h270q12 16 21.5 40t9.5 52q0 46 -22 64t-56 18q-26 0 -51 -10.5t-47 -25.5v-78h-125v311h-154v-465h-126z" />
    <glyph glyph-name="fourtamil" unicode="&#xbea;" horiz-adv-x="1011" 
d="M282 -12q-70 0 -123.5 20t-84 58.5t-30.5 93.5t31 95t98.5 62.5t177.5 22.5h397v-89h-411q-39 0 -73 -4.5t-57 -16.5q-20 -12 -29.5 -28t-9.5 -40q0 -41 34 -60.5t89 -19.5q41 0 70 12.5t45 44.5t16 90v236h-159v-163l-114 -16v273h563v-94h-169v-230q0 -69 -12.5 -108.5
t-36.5 -67.5q-34 -39 -88.5 -55t-123.5 -16zM704 251v89h110v219h125v-308h-235z" />
    <glyph glyph-name="fivetamil" unicode="&#xbeb;" horiz-adv-x="1136" 
d="M602 -321q-139 0 -241 42t-168.5 117t-98.5 176.5t-32 219.5v33q0 81 19 163.5t60.5 157.5t108.5 133.5t162 92.5t222 34q85 0 156 -15t135.5 -42t128.5 -61l-50 -98q-43 25 -85 46.5t-87 37.5t-95 24.5t-109 8.5q-94 0 -175 -28.5t-142 -88.5t-94.5 -153t-33.5 -221v-21
q0 -138 44.5 -242t136.5 -161t234 -57h9q109 0 189.5 34.5t124 103t43.5 170.5q0 51 -11.5 84.5t-34.5 49.5t-56 16q-23 0 -44.5 -8t-41.5 -22l-3 93q23 13 52.5 22t68.5 9q57 0 101 -27.5t69.5 -81t25.5 -132.5q0 -108 -38.5 -185t-106 -126.5t-154.5 -73.5t-182 -24h-7z
M374 0v559h565v-94h-156v-465h-125v465h-159v-465h-125z" />
    <glyph glyph-name="sixtamil" unicode="&#xbec;" horiz-adv-x="1087" 
d="M282 -12q-70 0 -123.5 20t-84 58.5t-30.5 93.5t31 95t98.5 62.5t177.5 22.5h713v-89h-727q-41 0 -74 -4.5t-56 -16.5q-20 -12 -29.5 -28t-9.5 -40q0 -41 34 -60.5t89 -19.5q41 0 70 12.5t45 44.5t16 90v236h-159v-163l-114 -16v273h583v-94h-189v-230q0 -69 -12.5 -108.5
t-36.5 -67.5q-34 -39 -88.5 -55t-123.5 -16zM646 0v275l114 -8v-267h-114zM866 0v275l114 -8v-267h-114z" />
    <glyph glyph-name="seventamil" unicode="&#xbed;" horiz-adv-x="849" 
d="M265 -12q-63 0 -111.5 27t-76 82.5t-27.5 139.5q0 86 30.5 149t87.5 102q35 25 78 40.5t102 23t139 7.5h40l2 -94h-84q-54 0 -91.5 -5.5t-62.5 -16t-46 -26.5q-40 -30 -61.5 -76.5t-21.5 -113.5q0 -53 12.5 -86.5t35 -48t53.5 -14.5q24 0 41 10t26.5 28.5t9.5 45.5
q0 42 -22.5 65.5t-60.5 23.5q-41 0 -75 -23.5t-62 -53.5l-19 84q34 35 80.5 58.5t103.5 23.5q78 0 125.5 -44.5t47.5 -124.5q0 -57 -22 -98t-65 -63t-106 -22zM554 0v465h-42l1 94h319v-94h-153v-465h-125z" />
    <glyph glyph-name="eighttamil" unicode="&#xbee;" horiz-adv-x="1183" 
d="M340 -135q-102 0 -172 25.5t-105.5 69.5t-35.5 102q0 27 11 52.5t37 43.5q13 9 31 15.5t45 9.5t68 3h789l4 -93h-782q-22 0 -35 -1t-20.5 -4t-13.5 -7q-13 -12 -13 -29q0 -42 50 -67t155 -25h14q101 0 172 23t116 63.5t67 90.5l3 25q7 21 9.5 43t2.5 43q0 65 -23.5 116.5
t-67.5 81.5t-105 30q-36 0 -64.5 -12.5t-44.5 -38.5t-16 -67q0 -39 17 -74.5t46.5 -64.5t65.5 -49l-80 -62q-46 32 -85 69.5t-62.5 84t-23.5 102.5q0 63 29.5 109.5t85 72t133.5 25.5q81 0 140.5 -26.5t98.5 -71.5t58 -103t19 -121q0 -24 -2.5 -46.5t-7.5 -43.5l-2 -31
q-29 -83 -97.5 -141.5t-167.5 -90t-222 -31.5h-19zM974 -154v713h126v-713h-126z" />
    <glyph glyph-name="ninetamil" unicode="&#xbef;" horiz-adv-x="1281" 
d="M282 -12q-70 0 -123.5 20t-84 58.5t-30.5 93.5t31 95t98.5 62.5t177.5 22.5h345l-2 -89h-357q-41 0 -74 -4.5t-56 -16.5q-20 -12 -29.5 -28t-9.5 -40q0 -41 34 -60.5t89 -19.5q41 0 70 12.5t45 44.5t16 90v236h-159v-163l-114 -16v273h583v-94h-189v-230
q0 -69 -12.5 -108.5t-36.5 -67.5q-34 -39 -88.5 -55t-123.5 -16zM845 -12q-49 0 -92.5 17.5t-70 56.5t-26.5 101q0 29 8 55.5t21 51.5l6 18q23 39 63.5 69t95 46.5t120.5 16.5q72 0 123 -18t82.5 -50t46.5 -72t15 -84q0 -57 -18.5 -107.5t-50.5 -100.5l-100 59q21 30 35 65
t14 77q0 46 -19.5 77.5t-54 47.5t-79.5 16q-56 0 -92.5 -12.5t-60.5 -35.5l-8 -13q-16 -20 -26.5 -45.5t-10.5 -64.5q0 -45 21.5 -63.5t53.5 -18.5q29 0 44 17t15 49q0 34 -16.5 58t-48 37t-78.5 13h-168v89h126q8 0 19.5 -0.5t20.5 -1.5l15 -5q49 -2 92 -12.5t76.5 -32
t52.5 -56.5t19 -85q0 -71 -43 -115t-122 -44z" />
    <glyph glyph-name="tentamil" unicode="&#xbf0;" horiz-adv-x="937" 
d="M272 -12q-39 0 -72.5 11.5t-58.5 35.5q-20 20 -33 45t-19.5 60.5t-6.5 83.5v335h126v-312q0 -51 3.5 -83.5t18.5 -52.5q9 -13 24 -21t36 -8q19 0 34 8t24 22q14 20 18 52.5t4 85.5v309h125v-313q0 -49 6.5 -78.5t24.5 -51.5q16 -18 36.5 -26t43.5 -8q32 0 58 16.5
t45 52.5t29.5 94.5t10.5 143.5q0 104 -16.5 174t-47 111t-71 59t-88.5 18q-32 0 -62.5 -5.5t-59.5 -16t-58 -25.5l-34 92q37 17 72 28.5t72 17.5t79 6q44 0 85 -9t78 -29q55 -30 94.5 -84.5t61.5 -135.5t22 -193v-11q0 -91 -15.5 -164.5t-47 -125.5t-80.5 -80t-116 -28
q-53 0 -90.5 15.5t-64 42.5t-47.5 62l42 10q-20 -45 -45 -74t-58.5 -42.5t-81.5 -13.5z" />
    <glyph glyph-name="hundredtamil" unicode="&#xbf1;" horiz-adv-x="943" 
d="M363 0v559h563v-94h-153v-465h-125v465h-159v-465h-126zM250 571q42 0 73 -15.5t53 -38.5l2 -102q-19 30 -42 46t-52 16q-17 0 -30.5 -5.5t-22.5 -14.5q-15 -16 -19 -44.5t-4 -69.5v-343h-125l-1 357q0 50 6.5 81.5t17.5 51.5t23 34q21 23 50.5 35t70.5 12z" />
    <glyph glyph-name="thousandtamil" unicode="&#xbf2;" horiz-adv-x="1049" 
d="M883 187q46 0 81.5 -19.5t55.5 -54.5t20 -81q0 -47 -16 -80.5t-43 -57.5q-40 -34 -96.5 -46t-137.5 -12h-426q-54 0 -78.5 -5.5t-40.5 -16.5q-16 -12 -25 -31t-9 -52q0 -12 1 -23.5t2 -22.5l-122 -6q-3 20 -4.5 41t-1.5 42q0 45 17 77t45 53q19 13 42 21.5t56 12.5t79 4
h455q66 0 99 6.5t53 21.5q17 12 24.5 29.5t7.5 40.5q0 27 -16 48t-52 21q-25 0 -45.5 -7.5t-38.5 -20.5l-7 87q24 12 53 21.5t68 9.5zM282 -12q-70 0 -123.5 20t-84 58.5t-30.5 93.5t31 95t98.5 62.5t177.5 22.5h547v-89h-561q-41 0 -74 -4.5t-56 -16.5q-20 -12 -29.5 -28
t-9.5 -40q0 -41 34 -60.5t89 -19.5q41 0 70 12.5t45 44.5t16 90v236h-159v-163l-114 -16v273h583v-94h-189v-230q0 -69 -12.5 -108.5t-36.5 -67.5q-34 -39 -88.5 -55t-123.5 -16zM657 0v275l116 -8v-267h-116z" />
    <glyph glyph-name="daysigntamil" unicode="&#xbf3;" horiz-adv-x="1052" 
d="M265 -12q-63 0 -111.5 27.5t-76 83.5t-27.5 143q0 107 45 180.5t122 111t171 37.5q86 0 146 -23t98 -63.5t55.5 -92.5t17.5 -110q0 -54 -11.5 -100.5t-28.5 -87.5h370v-94h-499l-4 74q20 35 33.5 83.5t13.5 110.5q0 66 -23.5 112t-68 70.5t-108.5 24.5q-68 0 -117 -32.5
t-74.5 -87.5t-25.5 -123q0 -56 12.5 -90t35 -49t53.5 -15q24 0 41 10t26.5 28.5t9.5 45.5q0 43 -22.5 66t-60.5 23q-41 0 -75 -23.5t-62 -53.5l-19 84q34 35 80.5 58.5t103.5 23.5q77 0 125 -44.5t48 -124.5q0 -57 -22.5 -98t-65.5 -63t-105 -22z" />
    <glyph glyph-name="monthsigntamil" unicode="&#xbf4;" horiz-adv-x="1340" 
d="M607 571q86 0 140 -39t80 -108t26 -157q0 -74 -16.5 -124.5t-52.5 -82.5q-26 -23 -58.5 -36t-77 -18.5t-110.5 -5.5h-456v559h126v-465h199v261q0 62 13 100t37 64q26 25 62.5 38.5t87.5 13.5zM612 477q-14 0 -28 -4.5t-24 -15.5q-14 -15 -20.5 -39t-6.5 -79v-245h41
q59 0 92 16.5t47 55.5t14 103q0 58 -11.5 105t-36.5 75t-67 28zM908 488q-41 0 -73 16.5t-49.5 49.5t-17.5 82q0 13 1 26.5t3 25.5q14 52 46.5 87.5t79 54t100.5 18.5q70 0 117 -22.5t71 -63t24 -94.5q0 -29 -7.5 -60t-19.5 -52l-24 14h164v-79h-242v49q13 23 22 49t9 65
q0 35 -14 61t-40.5 40t-66.5 14q-48 0 -83.5 -22.5t-49.5 -65.5q-2 -12 -3.5 -25.5t-1.5 -27.5q0 -32 13 -50t41 -18q18 0 31 9.5t13 29.5q0 10 -3.5 18t-10.5 12q-7 6 -19 10t-41 4h-66q-35 0 -56 -12.5t-30 -34t-9 -47.5v-26l-91 32q1 30 12.5 59t35 52t61.5 36.5t92 13.5
h56q50 0 76.5 -9.5t43.5 -25.5q15 -15 22 -35t7 -43q0 -39 -16.5 -64.5t-44.5 -38t-62 -12.5z" />
    <glyph glyph-name="yearsigntamil" unicode="&#xbf5;" horiz-adv-x="2423" 
d="M1036 750q-165 0 -299.5 -17t-237.5 -54t-172.5 -93.5t-105 -135.5t-35.5 -181v-8q0 -89 26.5 -159.5t75.5 -124t119.5 -92t159.5 -62.5t194 -35t222 -11h49q109 0 207 10.5t179.5 34t141.5 62t92.5 94t32.5 129.5q0 39 -11.5 67.5t-33 44.5t-53.5 16q-18 0 -34.5 -5
t-30.5 -13v-217h-126v465h-149v-465h-126v559h550v-94h-149v-156q19 9 42 14.5t50 5.5q45 0 81 -16t62 -46t40 -71.5t14 -94.5q0 -83 -31 -147t-86.5 -110.5t-128 -78t-157 -50.5t-174.5 -27.5t-178 -8.5h-101q-126 0 -241 13.5t-214.5 42.5t-180.5 74t-139 108.5t-89 147.5
t-31 189v20q0 112 40 203.5t118.5 160.5t193 116t264 70.5t330.5 23.5h73q118 0 224 -7.5t199.5 -25t173.5 -48t145 -76.5q57 -42 93.5 -89.5t57.5 -101t32 -110.5t15 -117q3 -42 7 -72t11.5 -51t19.5 -37q13 -15 31 -22.5t45 -7.5q32 0 56.5 14.5t38 50t13.5 97.5
q0 54 -14.5 106.5t-40 100.5t-60.5 89l106 65q66 -81 100.5 -168t34.5 -186q0 -82 -26 -141t-78.5 -91t-133.5 -32q-49 0 -86.5 11.5t-65.5 36.5q-36 33 -53.5 84t-22.5 114q-8 97 -27 168.5t-53.5 125t-91.5 92.5q-61 44 -139 70t-168.5 38.5t-188 17t-197.5 4.5zM545 -12
q-63 0 -111.5 27.5t-76.5 83.5t-28 143q0 107 45.5 180.5t122.5 111t171 37.5q86 0 146 -23t98 -63.5t55.5 -92.5t17.5 -110q0 -54 -11.5 -100.5t-28.5 -87.5h214l23 -94h-366l-5 74q21 35 34.5 83.5t13.5 110.5q0 66 -23.5 112t-68 70.5t-108.5 24.5q-69 0 -117.5 -32.5
t-74.5 -87.5t-26 -123q0 -56 13 -90t36 -49t53 -15q24 0 41 10t26.5 28.5t9.5 45.5q0 43 -22.5 66t-60.5 23q-41 0 -75 -23.5t-62 -53.5l-19 84q34 35 80 58.5t104 23.5q77 0 125 -44.5t48 -124.5q0 -57 -22.5 -98t-65.5 -63t-105 -22z" />
    <glyph glyph-name="debitsigntamil" unicode="&#xbf6;" horiz-adv-x="1084" 
d="M281 -321q-69 0 -125 18t-89 53.5t-33 88.5q0 24 9 41.5t26 28.5q16 11 38 16t74 5h694v629h126v-723h-376l-57 6h-383q-17 0 -26 -3.5t-9 -16.5q0 -15 15 -27.5t44 -19.5t72 -7q99 0 166 24t104 68l17 47q12 24 17.5 52t5.5 59v86l126 33v-100q0 -35 -5.5 -66.5
t-15.5 -60.5l-21 -53q-35 -58 -93.5 -98t-134.5 -60t-166 -20zM622 0h-540v559h126v-465h414v-94zM717 559v-466l-126 -30v496h126z" />
    <glyph glyph-name="creditsigntamil" unicode="&#xbf7;" horiz-adv-x="1400" 
d="M265 -12q-63 0 -111.5 27t-76 82.5t-27.5 139.5q0 86 30.5 149t87.5 102q35 25 78 40.5t102 23t139 7.5h35l2 -94h-79q-54 0 -91.5 -5.5t-62.5 -16t-46 -26.5q-40 -30 -61.5 -76.5t-21.5 -113.5q0 -53 12.5 -86.5t35 -48t53.5 -14.5q24 0 41 10t26.5 28.5t9.5 45.5
q0 42 -22.5 65.5t-60.5 23.5q-41 0 -75 -23.5t-62 -53.5l-19 84q34 35 80.5 58.5t103.5 23.5q78 0 125.5 -44.5t47.5 -124.5q0 -57 -22 -98t-65 -63t-106 -22zM554 0v465h-49l7 94h320v-94h-153v-465h-125zM893 -4q-40 0 -72 16.5t-50.5 49.5t-18.5 82q0 16 1.5 31t4.5 27
q14 51 46.5 85.5t78.5 52t100 17.5q69 0 116 -22.5t71 -63t24 -94.5q0 -29 -7.5 -60.5t-20.5 -52.5l-20 14h237v-78h-318v47q13 23 22 49.5t9 63.5t-13.5 63.5t-40 40t-66.5 13.5q-48 0 -83 -22.5t-49 -63.5q-2 -12 -4 -25.5t-2 -28.5q0 -31 13 -49.5t42 -18.5
q17 0 29.5 9.5t12.5 29.5q0 13 -4 21t-13 12q-8 6 -21 8t-33 2h-192l-12 75h212q43 0 69 -9t42 -25q17 -15 24.5 -35t7.5 -45q0 -39 -16.5 -65t-44 -38.5t-61.5 -12.5z" />
    <glyph glyph-name="asabovesigntamil" unicode="&#xbf8;" horiz-adv-x="2115" 
d="M407 -12q-81 0 -145.5 28t-111 80.5t-71 124.5t-24.5 160q0 111 37 197.5t105 146.5t161.5 91.5t206.5 31.5q116 0 213.5 -34t171.5 -101t118 -164l14 -44q15 -43 25 -91t10 -99q0 -110 -50.5 -171.5t-154.5 -61.5q-57 0 -104 21.5t-74.5 67t-27.5 116.5q0 56 19 102.5
t54.5 82t83.5 59t105 34.5q19 2 39 4t41 2q113 0 182 -39t100 -105t31 -145q0 -54 -11.5 -100.5t-29.5 -87.5h236l-24 -94h-340l-4 74q20 35 33.5 83t13.5 110q0 64 -20 109.5t-57.5 71.5t-91.5 31l-44 -1q-63 -3 -107 -29t-66.5 -68.5t-22.5 -96.5t22 -82t61 -28
q27 0 47 15t30.5 46t10.5 79q0 49 -9.5 94t-25.5 83l-17 39q-33 69 -89.5 118t-131 76t-162.5 27q-76 0 -145 -22t-123 -67.5t-85.5 -116t-31.5 -168.5q0 -58 10 -106t29 -84t44.5 -60.5t57.5 -36.5l44 -6q14 -3 29 -4t31 -1q54 0 78 29t24 74q0 36 -19.5 63.5t-60.5 27.5
q-35 0 -58.5 -23t-23.5 -68q0 -36 12 -68t31 -52l-106 3q-14 22 -28.5 53.5t-14.5 75.5q0 48 21 86.5t64.5 61.5t108.5 23q62 0 104.5 -23.5t64.5 -64.5t22 -93q0 -67 -29.5 -110.5t-82 -64.5t-122.5 -21zM1642 571q53 0 87.5 -14.5t55.5 -38.5t29.5 -53t8.5 -58
q0 -32 -5.5 -69.5t-18.5 -92.5l-10 -43l-124 -486l-115 31l78 286l7 40l44 168q13 49 19 89t6 72q0 36 -15 56t-47 20q-38 0 -58.5 -26t-20.5 -69q0 -37 18 -61t52 -35.5t80 -11.5h47q58 0 100.5 19t77.5 46h111v-340h-588l6 94h472v65q0 18 0.5 40t2.5 39
q-27 -19 -80 -36.5t-123 -17.5h-23q-68 0 -118 14t-83.5 40.5t-50 64t-16.5 84.5q0 48 21.5 90t65 68t107.5 26z" />
    <glyph glyph-name="rupeesigntamil" unicode="&#xbf9;" horiz-adv-x="1127" 
d="M883 292q59 0 104 -26t71 -77t26 -125q0 -101 -38.5 -174t-105.5 -119.5t-156 -69t-189 -22.5h-17q-126 0 -223 36.5t-162.5 103.5t-99 158t-33.5 201v27q0 97 25.5 182.5t73 155.5t114 121t149.5 78l16 -87q-72 -31 -130.5 -94.5t-92.5 -154t-34 -203.5v-21
q0 -87 23 -161t72 -128.5t124.5 -85t180.5 -30.5h18q109 0 189 31t125 94t45 158q0 70 -26.5 104t-76.5 34q-30 0 -57 -14t-55 -37l-2 95q23 18 58.5 34t83.5 16zM367 0v497h565v-94h-155v-403h-126v403h-159v-403h-125zM519 532q-42 0 -72.5 17.5t-46 49t-15.5 73.5
q2 43 20.5 75.5t49.5 55t71.5 34t86.5 11.5q103 0 153.5 -42.5t50.5 -109.5q0 -22 -7 -49t-20 -47l-21 16h158v-79h-238v45q13 19 22.5 40.5t9.5 51.5q0 45 -28.5 70.5t-89.5 25.5q-44 0 -77 -14.5t-49 -30.5l-9 -32q-1 -6 -1.5 -13t-0.5 -13q0 -30 12.5 -46.5t39.5 -16.5
q17 0 29 9t12 27t-12 28t-35 10q-14 0 -27.5 -3.5t-25.5 -8.5l10 74q11 4 23.5 6.5t26.5 2.5q41 0 67.5 -15t40 -39.5t13.5 -53.5q0 -38 -16.5 -62t-43.5 -35.5t-61 -11.5z" />
    <glyph glyph-name="numsigntamil" unicode="&#xbfa;" horiz-adv-x="1271" 
d="M607 362q59 0 104 -26.5t71 -77.5t26 -128q0 -88 -28 -143t-75 -88q-33 -23 -76 -37t-98 -20t-127 -6h-83q-54 0 -78.5 -5.5t-40.5 -16.5q-16 -12 -25 -31t-9 -52q0 -12 1 -23.5t2 -22.5l-122 -6q-3 20 -4.5 41t-1.5 42q0 45 17 77t45 53q19 13 42 21.5t56 12.5t79 4h107
q76 0 123.5 6t77.5 20t52 36q19 20 31 53.5t12 81.5t-12.5 79t-36.5 46.5t-58 15.5q-28 0 -51.5 -10t-44.5 -26l-2 94q25 15 56.5 25.5t70.5 10.5zM82 0v559h565v-94h-156v-465h-125v465h-158v-465h-126zM839 488q-40 0 -72 16.5t-50 49.5t-18 82q0 13 1 26.5t4 25.5
q13 52 45.5 87.5t79 54t100.5 18.5q70 0 117 -22.5t71 -63t24 -94.5q0 -29 -7.5 -60t-19.5 -52l-24 14h164v-79h-242v49q13 23 22 49t9 65q0 35 -14 61t-40.5 40t-66.5 14q-48 0 -83.5 -22.5t-49.5 -65.5q-2 -12 -3.5 -25.5t-1.5 -27.5q0 -32 13 -50t41 -18q18 0 31 9.5
t13 29.5q0 10 -3.5 18t-10.5 12q-7 6 -19 10t-41 4h-66q-35 0 -56 -12.5t-30 -34t-9 -47.5v-8l-91 14q1 30 12.5 59t35 52t61.5 36.5t92 13.5h56q50 0 76.5 -9.5t43.5 -25.5q15 -15 22 -35t7 -43q0 -39 -16.5 -64.5t-44.5 -38t-62 -12.5z" />
    <glyph glyph-name="uni1CDA" unicode="&#x1cda;" 
d="M-388 870h82v-214h-82v214zM-250 870h82v-214h-82v214z" />
    <glyph glyph-name="Wgrave" unicode="&#x1e80;" horiz-adv-x="953" 
d="M948 714l-185 -714h-141l-113 410q-4 15 -9 37t-10.5 45.5t-9.5 44t-5 30.5q-1 -10 -5 -30.5t-9 -44t-10 -46t-10 -38.5l-110 -408h-142l-184 714h128l98 -407q5 -20 10 -43.5t10 -48t9 -48t6 -41.5q2 19 6 42.5t9 48t10 47t10 38.5l112 412h124l114 -413
q5 -17 10.5 -39.5t10.5 -47t8.5 -47.5t6.5 -41q3 25 8.5 57t13 65t13.5 59l98 407h128zM459 938q13 -22 32 -49.5t39.5 -53t35.5 -44.5v-13h-83q-19 13 -42.5 32.5t-48 41.5t-45 42t-32.5 34v10h144z" />
    <glyph glyph-name="wgrave" unicode="&#x1e81;" horiz-adv-x="830" 
d="M465 233q-5 19 -12 47.5t-14.5 59.5t-14 57t-8.5 40h-4q-3 -14 -9 -40t-13 -57t-14.5 -60t-12.5 -48l-63 -232h-138l-152 543h127l67 -259q7 -26 13.5 -59t11.5 -63.5t7 -49.5h4q2 13 5 34.5t7.5 45t9 43.5t7.5 31l78 277h138l75 -277q5 -18 11 -47t11 -58t6 -48h4
q2 17 7 46.5t12 63.5t15 61l68 259h125l-154 -543h-140zM397 766q13 -22 32 -49.5t39.5 -53t35.5 -44.5v-13h-83q-19 13 -42.5 32.5t-48 41.5t-45 42t-32.5 34v10h144z" />
    <glyph glyph-name="Wacute" unicode="&#x1e82;" horiz-adv-x="953" 
d="M948 714l-185 -714h-141l-113 410q-4 15 -9 37t-10.5 45.5t-9.5 44t-5 30.5q-1 -10 -5 -30.5t-9 -44t-10 -46t-10 -38.5l-110 -408h-142l-184 714h128l98 -407q5 -20 10 -43.5t10 -48t9 -48t6 -41.5q2 19 6 42.5t9 48t10 47t10 38.5l112 412h124l114 -413
q5 -17 10.5 -39.5t10.5 -47t8.5 -47.5t6.5 -41q3 25 8.5 57t13 65t13.5 59l98 407h128zM664 928q-12 -14 -32.5 -34t-45 -42t-48 -41.5t-41.5 -32.5h-84v13q16 19 36 44.5t39.5 53t31.5 49.5h144v-10z" />
    <glyph glyph-name="wacute" unicode="&#x1e83;" horiz-adv-x="830" 
d="M465 233q-5 19 -12 47.5t-14.5 59.5t-14 57t-8.5 40h-4q-3 -14 -9 -40t-13 -57t-14.5 -60t-12.5 -48l-63 -232h-138l-152 543h127l67 -259q7 -26 13.5 -59t11.5 -63.5t7 -49.5h4q2 13 5 34.5t7.5 45t9 43.5t7.5 31l78 277h138l75 -277q5 -18 11 -47t11 -58t6 -48h4
q2 17 7 46.5t12 63.5t15 61l68 259h125l-154 -543h-140zM602 756q-12 -14 -32.5 -34t-45 -42t-48 -41.5t-41.5 -32.5h-84v13q16 19 36 44.5t39.5 53t31.5 49.5h144v-10z" />
    <glyph glyph-name="Wdieresis" unicode="&#x1e84;" horiz-adv-x="953" 
d="M948 714l-185 -714h-141l-113 410q-4 15 -9 37t-10.5 45.5t-9.5 44t-5 30.5q-1 -10 -5 -30.5t-9 -44t-10 -46t-10 -38.5l-110 -408h-142l-184 714h128l98 -407q5 -20 10 -43.5t10 -48t9 -48t6 -41.5q2 19 6 42.5t9 48t10 47t10 38.5l112 412h124l114 -413
q5 -17 10.5 -39.5t10.5 -47t8.5 -47.5t6.5 -41q3 25 8.5 57t13 65t13.5 59l98 407h128zM319 856q0 32 17.5 46t42.5 14q24 0 42.5 -14t18.5 -46q0 -30 -18.5 -44.5t-42.5 -14.5q-25 0 -42.5 14.5t-17.5 44.5zM513 856q0 32 17.5 46t42.5 14q24 0 42.5 -14t18.5 -46
q0 -30 -18.5 -44.5t-42.5 -14.5q-25 0 -42.5 14.5t-17.5 44.5z" />
    <glyph glyph-name="wdieresis" unicode="&#x1e85;" horiz-adv-x="830" 
d="M465 233q-5 19 -12 47.5t-14.5 59.5t-14 57t-8.5 40h-4q-3 -14 -9 -40t-13 -57t-14.5 -60t-12.5 -48l-63 -232h-138l-152 543h127l67 -259q7 -26 13.5 -59t11.5 -63.5t7 -49.5h4q2 13 5 34.5t7.5 45t9 43.5t7.5 31l78 277h138l75 -277q5 -18 11 -47t11 -58t6 -48h4
q2 17 7 46.5t12 63.5t15 61l68 259h125l-154 -543h-140zM257 684q0 32 17.5 46t42.5 14q24 0 42.5 -14t18.5 -46q0 -30 -18.5 -44.5t-42.5 -14.5q-25 0 -42.5 14.5t-17.5 44.5zM451 684q0 32 17.5 46t42.5 14q24 0 42.5 -14t18.5 -46q0 -30 -18.5 -44.5t-42.5 -14.5
q-25 0 -42.5 14.5t-17.5 44.5z" />
    <glyph glyph-name="uni1E9E" unicode="&#x1e9e;" horiz-adv-x="743" 
d="M372 724q76 0 131 -22.5t89.5 -64t47.5 -98.5l-123 -125q58 -7 101.5 -32t68 -68t24.5 -104q0 -65 -27.5 -114.5t-84.5 -77.5t-146 -28q-53 0 -98.5 9t-86.5 29v110q40 -22 85.5 -33.5t84.5 -11.5q77 0 110 32t33 87q0 53 -37.5 81.5t-119.5 28.5h-51v90l130 134
q-12 25 -30.5 40t-44 22t-59.5 7q-54 0 -88 -19t-50 -57t-16 -93v-446h-128v456q0 83 33.5 143t97.5 92.5t154 32.5z" />
    <glyph glyph-name="Ygrave" unicode="&#x1ef2;" horiz-adv-x="602" 
d="M301 399l163 315h138l-237 -436v-278h-128v273l-237 441h139zM283 938q13 -22 32 -49.5t39.5 -53t35.5 -44.5v-13h-83q-19 13 -42.5 32.5t-48 41.5t-45 42t-32.5 34v10h144z" />
    <glyph glyph-name="ygrave" unicode="&#x1ef3;" horiz-adv-x="547" 
d="M0 542h137l108 -306q7 -20 12.5 -38.5t9.5 -37.5t6 -38h4q4 25 12.5 55t17.5 59l104 306h136l-231 -614q-20 -53 -50.5 -91t-72 -57.5t-93.5 -19.5q-24 0 -42.5 2.5t-32.5 5.5v100q11 -2 26.5 -4t32.5 -2q31 0 53.5 12.5t38 34.5t25.5 49l16 44zM256 766q13 -22 32 -49.5
t39.5 -53t35.5 -44.5v-13h-83q-19 13 -42.5 32.5t-48 41.5t-45 42t-32.5 34v10h144z" />
    <glyph glyph-name="uni200B" unicode="&#x200b;" 
 />
    <glyph glyph-name="uni200C" unicode="&#x200c;" 
d="M-29 -244v997h58v-997h-58z" />
    <glyph glyph-name="uni200D" unicode="&#x200d;" 
d="M-29 -244v809l-92 -91l-40 40l121 117l-121 117l40 40l121 -119l121 119l40 -40l-121 -117l121 -117l-40 -40l-92 91v-809h-58z" />
    <glyph glyph-name="uni2010" unicode="&#x2010;" horiz-adv-x="322" 
d="M34 250v106h254v-106h-254z" />
    <glyph glyph-name="endash.tamil" unicode="&#x2013;" horiz-adv-x="500" 
d="M40 250v106h420v-106h-420z" />
    <glyph glyph-name="emdash.tamil" unicode="&#x2014;" horiz-adv-x="1000" 
d="M40 250v106h920v-106h-920z" />
    <glyph glyph-name="quoteleft.tamil" unicode="&#x2018;" horiz-adv-x="255" 
d="M45 555l-6 11q9 36 23 76t30.5 81t32.5 77h91q-9 -39 -18.5 -83t-17 -85.5t-12.5 -76.5h-123z" />
    <glyph glyph-name="quoteright.tamil" unicode="&#x2019;" horiz-adv-x="255" 
d="M210 800l6 -11q-9 -35 -23 -75.5t-30 -81t-32 -77.5h-92q7 30 14 62t13 64.5t11.5 62.5t9.5 56h123z" />
    <glyph glyph-name="quotesinglbase" unicode="&#x201a;" horiz-adv-x="272" 
d="M208 105q-9 -35 -23 -75.5t-30 -81t-33 -77.5h-91q7 29 14.5 61t13.5 64.5t11.5 63t9.5 56.5h121z" />
    <glyph glyph-name="quotedblleft.tamil" unicode="&#x201c;" horiz-adv-x="468" 
d="M258 556l-6 10q9 36 23 76.5t30.5 81t32.5 76.5h91q-9 -39 -18.5 -82.5t-17 -85t-12.5 -76.5h-123zM45 556l-6 10q9 36 23 76.5t30.5 81t32.5 76.5h91q-9 -39 -18.5 -82.5t-17 -85t-12.5 -76.5h-123z" />
    <glyph glyph-name="quotedblright.tamil" unicode="&#x201d;" horiz-adv-x="468" 
d="M423 800l6 -10q-9 -36 -23 -76.5t-30 -81t-32 -76.5h-92q9 39 18 82.5t17 85.5t13 76h123zM210 800l6 -10q-9 -36 -23 -76.5t-30 -81t-32 -76.5h-92q7 29 14 61t13 64.5t11.5 62.5t9.5 56h123z" />
    <glyph glyph-name="quotedblbase" unicode="&#x201e;" horiz-adv-x="476" 
d="M420 105q-9 -35 -23 -75.5t-30.5 -81t-32.5 -77.5h-92q10 39 19 82.5t17.5 85.5t13.5 77h121zM208 105q-9 -35 -23 -75.5t-30.5 -81t-32.5 -77.5h-91q7 29 14 61t13.5 64.5t12 63t9.5 56.5h121z" />
    <glyph glyph-name="bullet" unicode="&#x2022;" horiz-adv-x="376" 
d="M59 365q0 52 17 83.5t46.5 45.5t65.5 14t65 -14t46.5 -45.5t17.5 -83.5q0 -51 -17.5 -82.5t-46.5 -46t-65 -14.5t-65.5 14.5t-46.5 46t-17 82.5z" />
    <glyph glyph-name="ellipsis.tamil" unicode="&#x2026;" horiz-adv-x="836" 
d="M139 -13q-32 0 -54 18.5t-22 59.5q0 43 22 60t54 17q33 0 55 -17t22 -60q0 -41 -22 -59.5t-55 -18.5zM418 -13q-32 0 -54.5 18.5t-22.5 59.5q0 43 22.5 60t54.5 17t54.5 -17t22.5 -60q0 -41 -22.5 -59.5t-54.5 -18.5zM697 -13q-32 0 -54.5 18.5t-22.5 59.5q0 43 22.5 60
t54.5 17t54 -17t22 -60q0 -41 -22 -59.5t-54 -18.5z" />
    <glyph glyph-name="guilsinglleft" unicode="&#x2039;" horiz-adv-x="346" 
d="M40 276l176 214l91 -49l-138 -171l138 -170l-91 -50l-176 213v13z" />
    <glyph glyph-name="guilsinglright" unicode="&#x203a;" horiz-adv-x="346" 
d="M130 490l176 -214v-13l-176 -213l-90 50l137 170l-137 171z" />
    <glyph glyph-name="uni2074" unicode="&#x2074;" horiz-adv-x="381" 
d="M209 369v82h-194v67l191 282h100v-275h61v-74h-61v-82h-97zM101 525h108v81q0 24 1 46t2 46q-5 -12 -18.5 -34t-23.5 -37z" />
    <glyph glyph-name="uni2082" unicode="&#x2082;" horiz-adv-x="336" 
d="M17 -217v71l112 109q34 33 52.5 54.5t25.5 39t7 35.5q0 24 -14.5 36t-37.5 12t-46 -10.5t-49 -32.5l-50 64q31 27 68.5 43.5t86.5 16.5q65 0 103.5 -31.5t38.5 -89.5q0 -31 -12 -57.5t-36.5 -54t-63.5 -63.5l-62 -58h180v-84h-303z" />
    <glyph glyph-name="uni2083" unicode="&#x2083;" horiz-adv-x="333" 
d="M151 -225q-37 0 -71 7.5t-65 24.5v82q33 -18 65.5 -28t64.5 -10q42 0 61 15t19 43q0 26 -20.5 42.5t-68.5 16.5h-55v69h49q48 0 66.5 17.5t18.5 40.5q0 25 -16 37t-41 12t-48.5 -9t-49.5 -27l-44 61q31 23 67 37t86 14q65 0 103 -30.5t38 -81.5q0 -36 -19.5 -61
t-60.5 -39v-3q46 -10 69 -37.5t23 -63.5q0 -59 -40.5 -94t-130.5 -35z" />
    <glyph glyph-name="uni2084" unicode="&#x2084;" horiz-adv-x="381" 
d="M209 -217v82h-194v67l191 282h100v-275h61v-74h-61v-82h-97zM101 -61h108v81q0 24 1 46t2 46q-5 -12 -18.5 -34t-23.5 -37z" />
    <glyph glyph-name="Euro" unicode="&#x20ac;" horiz-adv-x="572" 
d="M387 721q50 0 92.5 -10.5t82.5 -32.5l-44 -97q-31 15 -63.5 25t-67.5 10q-32 0 -59 -9.5t-47.5 -29t-35 -49t-21.5 -67.5h215v-78h-222q0 -7 -0.5 -14.5t-0.5 -16.5v-16.5t1 -17.5h191v-79h-183q10 -45 32 -76.5t57.5 -48t82.5 -16.5q38 0 74 8t65 21v-107
q-29 -13 -64.5 -21.5t-82.5 -8.5q-79 0 -138.5 29.5t-97.5 85.5t-52 134h-72v79h63q-1 7 -1.5 16t-0.5 18t0.5 17.5t0.5 13.5h-62v78h70q13 80 51 138.5t98.5 90t138.5 31.5z" />
    <glyph glyph-name="uni20B9.tamil" unicode="&#x20b9;" horiz-adv-x="572" 
d="M253 0l-192 261l15 91h35q48 0 72 9t38 27q13 16 20 40.5t7 60.5q0 41 -8.5 67t-23.5 41t-34.5 20.5t-54.5 5.5h-66v91h459v-91h-200q22 -21 35.5 -55.5t13.5 -82.5q0 -62 -20.5 -106t-60.5 -72t-101 -41l-2 16l217 -282h-149zM61 447v91h459v-91h-459z" />
    <glyph glyph-name="trademark" unicode="&#x2122;" horiz-adv-x="773" 
d="M325 362v352h94l94 -271l97 271h91v-352h-64v204q0 8 1 31.5t2 35.5h-4l-101 -271h-53l-96 271h-4q1 -16 2 -36t1 -26v-209h-60zM118 362v298h-101v54h266v-54h-102v-298h-63z" />
    <glyph glyph-name="minus.tamil" unicode="&#x2212;" horiz-adv-x="572" 
d="M46 306v93h479v-93h-479z" />
    <glyph glyph-name="uni25CC" unicode="&#x25cc;" horiz-adv-x="562" 
d="M89 231q-32 0 -32 33q0 31 32 31t32 -31q0 -33 -32 -33zM138 95q-32 0 -32 32q0 31 32 31q31 0 31 -31q0 -32 -31 -32zM281 40q-32 0 -32 32t32 32q31 0 31 -32t-31 -32zM138 369q-32 0 -32 32q0 31 32 31q31 0 31 -31q0 -32 -31 -32zM423 95q-32 0 -32 32q0 31 32 31
t32 -31q0 -32 -32 -32zM281 424q-32 0 -32 32q0 31 32 31q31 0 31 -31q0 -32 -31 -32zM472 231q-31 0 -31 33q0 31 31 31q32 0 32 -31q0 -33 -32 -33zM423 369q-32 0 -32 32q0 31 32 31t32 -31q0 -32 -32 -32z" />
    <glyph glyph-name="uniA8F3" unicode="&#xa8f3;" horiz-adv-x="517" 
d="M258 284q-76 0 -126 24.5t-74.5 67t-24.5 96.5q0 21 3 41.5t8 33.5l110 -20q-3 -10 -4.5 -24t-1.5 -25q0 -56 31.5 -78t79.5 -22t79 22.5t31 76.5q0 13 -2 26.5t-4 23.5l109 20q6 -13 9 -33.5t3 -41.5q0 -54 -25 -96.5t-74.5 -67t-126.5 -24.5zM258 413q-27 0 -45.5 18
t-18.5 47q0 28 18 46t46 18q29 0 47 -18t18 -46q0 -29 -18 -47t-47 -18zM467 85l-63 -84l-253 172l63 84z" />
    <glyph glyph-name="u11301" unicode="&#x11301;" 
d="M-278 654q-92 0 -139.5 43t-47.5 117q0 17 2 31t6 25l83 -16q-3 -10 -4 -19.5t-1 -17.5q0 -33 14 -51.5t37 -25.5t50 -7q25 0 48.5 7.5t38 26t14.5 52.5q0 8 -1 16.5t-4 18.5l84 16q3 -11 5 -25.5t2 -29.5q0 -75 -48.5 -118t-138.5 -43zM-279 765q-29 0 -43 14t-14 38
q0 22 14 37t43 15t43.5 -15t14.5 -37q0 -24 -14.5 -38t-43.5 -14z" />
    <glyph glyph-name="u11303" unicode="&#x11303;" horiz-adv-x="380" 
d="M43 121q0 57 39 95.5t107 38.5q69 0 108.5 -38t39.5 -96q0 -57 -39 -95t-109 -38q-68 0 -107 38.5t-39 94.5zM133 122q0 -24 14 -40t42 -16q29 0 43.5 16t14.5 40q0 23 -15 39t-43 16q-27 0 -41.5 -16t-14.5 -39zM43 437q0 57 39 95.5t107 38.5q69 0 108.5 -38t39.5 -96
q0 -56 -39 -94t-109 -38q-68 0 -107 38t-39 94zM133 438q0 -23 14 -39t42 -16q29 0 43.5 16t14.5 39q0 24 -15 39.5t-43 15.5q-27 0 -41.5 -15.5t-14.5 -39.5z" />
    <glyph glyph-name="u1133B" unicode="&#x1133b;" 
d="M-280 -217q-32 0 -52.5 21t-20.5 52q0 32 20.5 53t52.5 21q31 0 51.5 -21t20.5 -53q0 -31 -20.5 -52t-51.5 -21z" />
    <glyph glyph-name="u1133C" unicode="&#x1133c;" 
d="M-438 -144q0 30 19.5 50t47.5 20q29 0 48 -20t19 -50q0 -29 -19 -48.5t-48 -19.5q-28 0 -47.5 19.5t-19.5 48.5zM-253 -144q0 30 19.5 50t47.5 20q29 0 48 -20t19 -50q0 -29 -19 -48.5t-48 -19.5q-28 0 -47.5 19.5t-19.5 48.5z" />
    <glyph glyph-name="tchatamil" horiz-adv-x="2007" 
d="M1534 571q53 0 88 -14.5t55.5 -38.5t29 -53t8.5 -58q0 -32 -5 -69.5t-19 -92.5l-10 -43l-124 -486l-115 31l78 286l7 40l44 168q13 49 19 89t6 72q0 36 -15 56t-46 20q-39 0 -59.5 -26t-20.5 -69q0 -37 18.5 -61t52 -35.5t80.5 -11.5h46q58 0 101 19t78 46h110v-340h-587
l6 94h471v65q0 18 0.5 40t2.5 39q-27 -19 -80 -36.5t-123 -17.5h-23q-67 0 -117 14t-84 40.5t-50.5 64t-16.5 84.5q0 48 22 90t65 68t107 26zM282 -12q-70 0 -123.5 20t-84 58.5t-30.5 93.5t31 95t98.5 62.5t177.5 22.5h359v-89h-373q-41 0 -74 -4.5t-56 -16.5
q-20 -12 -29.5 -28t-9.5 -40q0 -41 34 -60.5t89 -19.5q41 0 70 12.5t45 44.5t16 90v236h-159v-163l-114 -16v273h583v-94h-189v-230q0 -69 -12.5 -108.5t-36.5 -67.5q-34 -39 -88.5 -55t-123.5 -16zM871 -12q-47 0 -90 20t-70.5 64t-27.5 114q0 62 22 114t63.5 91t99 60.5
t127.5 21.5q78 0 131 -20t85 -54.5t46 -76.5t14 -86q0 -46 -10 -83t-22 -59h187l-7 -94h-305l-6 66q12 16 21.5 40.5t15.5 53t6 55.5q0 80 -47 122t-122 42q-55 0 -92.5 -16.5t-62.5 -51.5l-9 -19q-13 -25 -19 -52t-6 -60q0 -57 23.5 -80t54.5 -23q29 0 44 17.5t15 46.5
q0 36 -15.5 60.5t-49 37t-86.5 12.5h-180v89h188q45 0 81 -6t65 -18.5t51 -32.5q27 -22 42 -55t15 -77q0 -74 -44.5 -118.5t-125.5 -44.5z" />
    <glyph glyph-name="kaprehalftamil" horiz-adv-x="881" 
d="M282 -12q-70 0 -123.5 20t-84 58.5t-30.5 93.5t31 95t98.5 62.5t177.5 22.5h200q60 0 100.5 -5t70 -16t53.5 -30q29 -21 45.5 -54.5t16.5 -76.5q0 -80 -49 -124t-141 -44q-23 0 -52.5 2.5t-53.5 9.5l22 89q14 -4 30 -6t33 -2q44 0 67 19.5t23 60.5q0 29 -14 46.5
t-38 26.5t-54 12t-62 3h-211q-41 0 -74 -4.5t-56 -16.5q-20 -12 -29.5 -28t-9.5 -40q0 -41 34 -61t89 -20q41 0 70 13t45 45t16 90v236h-159v-163l-114 -16v273h583v-94h-188v-230q0 -69 -13 -108.5t-36 -67.5q-35 -39 -89 -55t-124 -16zM461 668q-33 0 -54.5 21.5
t-21.5 55.5q0 33 21.5 55t54.5 22t54.5 -22t21.5 -55q0 -34 -21.5 -55.5t-54.5 -21.5z" />
    <glyph glyph-name="ngaprehalftamil" horiz-adv-x="1131" 
d="M82 0v559h602v-94h-197v-140q25 15 57 26t73 11q60 0 97.5 -21.5t55.5 -57t18 -78.5q0 -34 -9.5 -62t-22.5 -49h212v-94h-606v94h270q12 16 21.5 40t9.5 52q0 46 -22 64t-56 18q-26 0 -51 -10.5t-47 -25.5v-78h-125v311h-154v-465h-126zM825 0l-20 94h117v465h126v-559
h-223zM566 668q-33 0 -54.5 21.5t-21.5 55.5q0 33 21.5 55t54.5 22t54.5 -22t21.5 -55q0 -34 -21.5 -55.5t-54.5 -21.5z" />
    <glyph glyph-name="caprehalftamil" horiz-adv-x="776" 
d="M282 -12q-70 0 -123.5 20t-84 58.5t-30.5 93.5t31 95t98.5 62.5t177.5 22.5h381v-89h-395q-41 0 -74 -4.5t-56 -16.5q-20 -12 -29.5 -28t-9.5 -40q0 -41 34 -60.5t89 -19.5q41 0 70 12.5t45 44.5t16 90v236h-159v-163l-114 -16v273h583v-94h-189v-230q0 -69 -12.5 -108.5
t-36.5 -67.5q-34 -39 -88.5 -55t-123.5 -16zM461 668q-33 0 -54.5 21.5t-21.5 55.5q0 33 21.5 55t54.5 22t54.5 -22t21.5 -55q0 -34 -21.5 -55.5t-54.5 -21.5z" />
    <glyph glyph-name="japrehalftamil" horiz-adv-x="1085" 
d="M343 571q78 0 128 -18.5t80 -47t47 -59.5l-33 -12q18 45 48 75.5t71 46t92 15.5q84 0 140 -32t84.5 -86t28.5 -122q0 -77 -26.5 -128.5t-72.5 -83.5q-38 -26 -87.5 -40.5t-108.5 -20.5t-127 -6h-181q-53 0 -92 -4t-66 -13.5t-47 -25.5q-22 -17 -32.5 -41.5t-10.5 -57.5
q0 -47 19 -77t50 -45t68 -15q42 0 74 11.5t61.5 35.5t63.5 58q48 50 90 79.5t89 43t110 13.5q47 0 86 -12.5t67.5 -36t44 -56.5t15.5 -74q0 -45 -21 -80.5t-62 -55.5t-99 -20q-53 0 -87.5 13t-55.5 35t-30 48t-9 52q0 41 22 77t53 61l96 -11q-36 -28 -51.5 -56.5
t-15.5 -54.5q0 -33 18.5 -53.5t56.5 -20.5q23 0 39.5 8.5t25.5 24.5t9 39q0 22 -8.5 37.5t-24 25.5t-36.5 14.5t-46 4.5q-21 0 -39 -2.5t-36 -10.5q-19 -7 -36.5 -18t-36 -29t-43.5 -45q-39 -43 -80 -74.5t-90.5 -48t-116.5 -16.5q-93 0 -150 31.5t-83.5 84t-26.5 112.5
q0 57 19.5 97.5t52.5 67.5q35 29 79.5 45t98.5 22.5t115 6.5h159q62 0 113 3.5t91.5 14.5t68.5 33q26 21 40 52.5t14 77.5q0 51 -18 83.5t-48.5 49t-68.5 16.5q-27 0 -48 -8t-36 -25q-18 -21 -26 -51t-8 -89v-94h-125v75q0 46 -9.5 82.5t-30 62.5t-56 39.5t-88.5 13.5
q-14 0 -26 -1t-23 -4l-33 -9q-37 -11 -58 -30.5t-29.5 -42.5t-8.5 -46q0 -37 18 -61t60 -24q37 0 57 19.5t20 52.5q0 30 -15 54t-45 37.5t-76 13.5l99 48q40 -5 73.5 -24t53.5 -51t20 -76q0 -74 -50 -118t-139 -44q-61 0 -102.5 22t-63 61.5t-21.5 89.5q0 70 39 119.5
t105 76t147 26.5zM538 668q-33 0 -54.5 21.5t-21.5 55.5q0 33 21.5 55t54.5 22t54.5 -22t21.5 -55q0 -34 -21.5 -55.5t-54.5 -21.5z" />
    <glyph glyph-name="nyaprehalftamil" horiz-adv-x="1302" 
d="M1058 329q63 0 108 -28.5t69 -82t24 -129.5q0 -91 -31.5 -159.5t-87.5 -116.5t-127.5 -77.5t-153.5 -43t-166 -13.5h-44q-132 0 -230.5 25t-167 70t-110.5 104.5t-61.5 128.5t-19.5 141v20q0 73 19 145t50 136.5t66 116.5l102 -60q-38 -55 -64 -113t-39 -115.5
t-13 -112.5v-12q0 -82 26.5 -150.5t83 -119t146.5 -78.5t218 -28h30q96 0 178 18.5t142.5 56t94 96t33.5 139.5q0 46 -11.5 79t-34 51t-58.5 18q-25 0 -46.5 -9t-40.5 -23l1 95q21 13 50.5 22t64.5 9zM538 -12q-63 0 -111.5 27t-76.5 82.5t-28 139.5q0 86 31 149t88 102
q35 25 78 40.5t101.5 23t139.5 7.5h39l3 -94h-85q-54 0 -91 -5.5t-62.5 -16t-45.5 -26.5q-40 -30 -62 -76.5t-22 -113.5q0 -53 12.5 -86t35.5 -48t54 -15q24 0 41 10t26.5 28.5t9.5 45.5q0 42 -23 65.5t-61 23.5q-41 0 -74.5 -23.5t-61.5 -53.5l-19 84q34 35 80 58.5
t104 23.5q78 0 125.5 -44.5t47.5 -124.5q0 -57 -22.5 -98t-65 -63t-105.5 -22zM826 0v465h-44l3 94h320v-94h-154v-465h-125zM651 668q-33 0 -54.5 21.5t-21.5 55.5q0 33 21.5 55t54.5 22t54.5 -22t21.5 -55q0 -34 -21.5 -55.5t-54.5 -21.5z" />
    <glyph glyph-name="ttaprehalftamil" horiz-adv-x="724" 
d="M82 0v559h126v-465h499v-94h-625zM381 668q-33 0 -54.5 21.5t-21.5 55.5q0 33 21.5 55t54.5 22t54.5 -22t21.5 -55q0 -34 -21.5 -55.5t-54.5 -21.5z" />
    <glyph glyph-name="nnaprehalftamil" horiz-adv-x="1764" 
d="M265 -12q-63 0 -111.5 27.5t-76 83.5t-27.5 142q0 100 47.5 174t135 115t208.5 41q57 0 104.5 -7.5t91 -24.5t87.5 -45l31 -24q64 -52 104 -122t40 -160q0 -64 -22 -108.5t-63.5 -68t-100.5 -23.5q-66 0 -107.5 26.5t-61 71.5t-19.5 101q0 53 14 102.5t42.5 94t69.5 83.5
l32 27q54 39 114 58t139 19q50 0 91.5 -7t79.5 -22.5t75 -42.5l31 -26q43 -35 73.5 -79t47 -95.5t16.5 -110.5q0 -64 -22 -108.5t-63.5 -68t-99.5 -23.5q-67 0 -108 26.5t-60.5 71.5t-19.5 101q0 52 14 101.5t42.5 93.5t68.5 82l40 30q35 21 72 35.5t89.5 22t132.5 7.5h310
v-94h-153v-465h-125v465h-52q-46 0 -78 -2.5t-56.5 -8.5t-46 -16.5t-44.5 -27.5q-31 -20 -52.5 -54t-32.5 -75.5t-11 -85.5q0 -63 18.5 -90.5t47.5 -27.5q27 0 42 16.5t21 42.5t6 55q0 47 -13.5 91t-38.5 80.5t-60 57.5q-44 34 -89.5 45t-92.5 11q-63 0 -108.5 -15
t-80.5 -41q-35 -25 -58 -60.5t-34.5 -77t-11.5 -87.5q0 -61 18.5 -89.5t48.5 -28.5q27 0 41.5 16.5t21 42.5t6.5 55q0 69 -30.5 128.5t-88.5 96.5q-47 33 -102.5 46t-119.5 13q-80 0 -138.5 -26t-91.5 -70t-43 -98l-2 -24t-1 -28q0 -55 12 -88.5t35 -48t54 -14.5q24 0 41 10
t26.5 28.5t9.5 45.5q0 42 -22.5 65.5t-60.5 23.5q-41 0 -74.5 -23.5t-62.5 -53.5l-19 84q34 35 80.5 58.5t103.5 23.5q78 0 125.5 -44.5t47.5 -124.5q0 -57 -22 -98t-65 -63t-106 -22zM882 668q-33 0 -54.5 21.5t-21.5 55.5q0 33 21.5 55t54.5 22t54.5 -22t21.5 -55
q0 -34 -21.5 -55.5t-54.5 -21.5z" />
    <glyph glyph-name="taprehalftamil" horiz-adv-x="879" 
d="M282 -12q-70 0 -123.5 20t-84 58.5t-30.5 93.5t31 95t99 62.5t178 22.5h159q95 0 168.5 -23t115.5 -76t42 -144q0 -67 -27 -114t-77 -81q-33 -23 -78 -38t-104 -21.5t-137 -6.5h-92q-53 0 -77.5 -5.5t-41.5 -16.5q-16 -12 -25 -31t-9 -52q0 -12 1 -23.5t2 -22.5l-122 -6
q-3 20 -4.5 41t-1.5 42q0 45 17 77t45 53q20 13 43 21.5t55.5 12.5t79.5 4h97q88 0 144 6.5t91 21.5t57 38q20 21 30 48.5t10 62.5q0 46 -18.5 74.5t-50 43.5t-69 20.5t-75.5 5.5h-163q-41 0 -74 -4.5t-56 -16.5q-20 -12 -29.5 -28t-9.5 -40q0 -40 34 -60t89 -20
q41 0 70 12.5t45 44.5t16 90v236h-159v-163l-114 -16v273h583v-94h-188v-230q0 -69 -13 -108.5t-36 -67.5q-34 -39 -88.5 -55t-124.5 -16zM464 668q-33 0 -54.5 21.5t-21.5 55.5q0 33 21.5 55t54.5 22t54.5 -22t21.5 -55q0 -34 -21.5 -55.5t-54.5 -21.5z" />
    <glyph glyph-name="naprehalftamil" horiz-adv-x="852" 
d="M607 362q59 0 104 -26.5t71 -78t26 -127.5q0 -88 -28 -143t-75 -88q-33 -23 -76 -37t-98 -20t-127 -6h-83q-54 0 -78.5 -5.5t-40.5 -16.5q-16 -12 -25 -31t-9 -52q0 -12 1 -23.5t2 -22.5l-122 -6q-3 20 -4.5 41t-1.5 42q0 45 17 77t45 53q19 13 42 21.5t56 12.5t79 4h107
q76 0 123.5 6t77.5 20t52 36q19 20 31 53.5t12 81.5q0 47 -12.5 78t-36.5 47t-58 16q-28 0 -51.5 -10t-44.5 -26l-2 94q25 15 56.5 25.5t70.5 10.5zM82 0v559h565v-94h-156v-465h-125v465h-158v-465h-126zM426 668q-33 0 -54.5 21.5t-21.5 55.5q0 33 21.5 55t54.5 22
t54.5 -22t21.5 -55q0 -34 -21.5 -55.5t-54.5 -21.5z" />
    <glyph glyph-name="nnnaprehalftamil" horiz-adv-x="1312" 
d="M265 -12q-63 0 -111.5 27.5t-76 83.5t-27.5 142q0 100 47.5 174t135.5 115t208 41q57 0 104.5 -7.5t91 -24.5t87.5 -45l33 -26q63 -51 102.5 -121t39.5 -159q0 -64 -22 -108.5t-63.5 -68t-99.5 -23.5q-67 0 -108.5 26.5t-61 71.5t-19.5 101q0 53 14.5 102.5t42.5 93
t67 79.5l41 32q35 21 72.5 35.5t89.5 22t131 7.5h312v-94h-153v-465h-126v465h-52q-45 0 -77.5 -2.5t-57.5 -8.5t-46 -16.5t-43 -27.5q-32 -20 -53.5 -54.5t-32.5 -76t-11 -84.5q0 -63 18.5 -90.5t48.5 -27.5q27 0 41.5 16.5t21 42.5t6.5 55q0 69 -30.5 128.5t-88.5 96.5
q-47 33 -102.5 46t-119.5 13q-80 0 -138.5 -26t-91.5 -70t-43 -98l-2 -24t-1 -28q0 -55 12 -88.5t35 -48t54 -14.5q24 0 41 10t26.5 28.5t9.5 45.5q0 42 -22.5 65.5t-60.5 23.5q-41 0 -74.5 -23.5t-62.5 -53.5l-19 84q34 35 80.5 58.5t103.5 23.5q78 0 125.5 -44.5
t47.5 -124.5q0 -57 -22 -98t-65 -63t-106 -22zM656 668q-33 0 -54.5 21.5t-21.5 55.5q0 33 21.5 55t54.5 22t54.5 -22t21.5 -55q0 -34 -21.5 -55.5t-54.5 -21.5z" />
    <glyph glyph-name="paprehalftamil" horiz-adv-x="811" 
d="M82 0v559h126v-465h395v465h125v-559h-646zM406 668q-33 0 -54.5 21.5t-21.5 55.5q0 33 21.5 55t54.5 22t54.5 -22t21.5 -55q0 -34 -21.5 -55.5t-54.5 -21.5z" />
    <glyph glyph-name="maprehalftamil" horiz-adv-x="907" 
d="M607 571q86 0 140 -39t80 -108t26 -157q0 -74 -16.5 -124.5t-52.5 -82.5q-26 -23 -58.5 -36t-77 -18.5t-110.5 -5.5h-456v559h126v-465h199v261q0 62 13 100t37 64q26 25 62.5 38.5t87.5 13.5zM612 477q-14 0 -28 -4.5t-24 -15.5q-14 -15 -20.5 -39t-6.5 -79v-245h41
q59 0 92 16.5t47 55.5t14 103q0 58 -11.5 105t-36.5 75t-67 28zM454 668q-33 0 -54.5 21.5t-21.5 55.5q0 33 21.5 55t54.5 22t54.5 -22t21.5 -55q0 -34 -21.5 -55.5t-54.5 -21.5z" />
    <glyph glyph-name="yaprehalftamil" horiz-adv-x="1009" 
d="M363 0v559h126v-465h312v465h125v-559h-563zM250 -12q-41 0 -70.5 12t-50.5 35q-12 15 -23 34.5t-17.5 51t-6.5 81.5v357h126v-343q0 -41 4 -69.5t19 -44.5q9 -9 22.5 -14.5t30.5 -5.5q29 0 52 16t42 46l-2 -103q-22 -22 -53 -37.5t-73 -15.5zM504 668q-33 0 -54.5 21.5
t-21.5 55.5q0 33 21.5 55t54.5 22t54.5 -22t21.5 -55q0 -34 -21.5 -55.5t-54.5 -21.5z" />
    <glyph glyph-name="raprehalftamil" horiz-adv-x="673" 
d="M280 -213l-80 75l178 168v435h-170v-465h-126v559h574v-94h-153v-465zM337 668q-33 0 -54.5 21.5t-21.5 55.5q0 33 21.5 55t54.5 22t54.5 -22t21.5 -55q0 -34 -21.5 -55.5t-54.5 -21.5z" />
    <glyph glyph-name="rraprehalftamil" horiz-adv-x="933" 
d="M616 571q84 0 142 -39.5t88 -113t30 -177.5q0 -122 -31 -200t-86 -122q-40 -33 -90.5 -51t-111 -25t-130.5 -7h-108q-54 0 -78.5 -5.5t-40.5 -16.5q-16 -12 -25 -31t-9 -52q0 -12 1 -23.5t2 -22.5l-122 -6q-3 20 -4.5 41t-1.5 42q0 45 17 77t45 53q19 13 42 21.5t56 12.5
t79 4h126q90 0 154.5 12.5t106.5 45.5t62.5 94.5t20.5 158.5q0 86 -18.5 137.5t-51 75t-73.5 23.5q-25 0 -46 -8t-37 -26q-18 -22 -24.5 -51.5t-6.5 -78.5v-313h-125v310q0 53 -4 85t-18 52q-9 14 -23 22t-35 8t-36 -7.5t-24 -21.5q-15 -20 -18.5 -52.5t-3.5 -83.5v-312
h-126v335q0 49 6.5 84t19.5 60.5t33 44.5q25 24 58 35.5t72 11.5q48 0 82 -13.5t59 -42t46 -73.5l-42 10q21 35 47.5 62t64 42t90.5 15zM466 668q-33 0 -54.5 21.5t-21.5 55.5q0 33 21.5 55t54.5 22t54.5 -22t21.5 -55q0 -34 -21.5 -55.5t-54.5 -21.5z" />
    <glyph glyph-name="laprehalftamil" horiz-adv-x="1078" 
d="M265 -12q-63 0 -111.5 27t-76 83.5t-27.5 142.5q0 81 26.5 143t74 103.5t108.5 62.5t130 21q63 0 115 -14.5t91 -50.5q27 -24 44 -57t26.5 -82t11.5 -122q2 -30 5.5 -57t12 -47.5t24.5 -34.5q13 -11 29.5 -17t38.5 -6q32 0 56.5 14.5t38.5 50t14 98.5q0 54 -14 106
t-40 100t-61 89l106 65q66 -81 100.5 -168t34.5 -186q0 -82 -26 -141t-80 -91t-137 -32q-45 0 -83.5 11.5t-67.5 36.5q-34 29 -53.5 79t-23.5 124q-1 37 -5 71.5t-13.5 64.5t-28.5 51q-20 24 -49.5 36.5t-75.5 12.5q-67 0 -116 -31t-75 -86.5t-26 -127.5q0 -55 12.5 -89
t35 -48.5t53.5 -14.5q24 0 41 10t26.5 28.5t9.5 45.5q0 42 -22.5 65.5t-60.5 23.5q-41 0 -75 -23.5t-62 -53.5l-19 84q34 35 80.5 58.5t103.5 23.5q77 0 125 -44.5t48 -124.5q0 -57 -22.5 -98t-65.5 -63t-105 -22zM540 668q-33 0 -54.5 21.5t-21.5 55.5q0 33 21.5 55
t54.5 22t54.5 -22t21.5 -55q0 -34 -21.5 -55.5t-54.5 -21.5z" />
    <glyph glyph-name="llaprehalftamil" horiz-adv-x="1135" 
d="M265 -12q-63 0 -111.5 27.5t-76 83.5t-27.5 143q0 81 26 142.5t72 103t105 62.5t124 21q50 0 89.5 -9.5t74 -27.5t69.5 -45l-42 -110q-34 43 -81 69.5t-114 26.5q-63 0 -110.5 -30.5t-74 -85.5t-26.5 -127q0 -56 12.5 -90t35 -49.5t53.5 -15.5q24 0 41 10t26.5 29t9.5 46
q0 43 -23 66t-60 23q-41 0 -75 -23.5t-62 -53.5l-19 84q34 35 80.5 58.5t103.5 23.5q77 0 125 -44.5t48 -124.5q0 -57 -22 -98t-65 -63t-106 -22zM556 0v439l17 46l1 74h544v-94h-153v-465h-125v465h-158v-465h-126zM568 668q-33 0 -54.5 21.5t-21.5 55.5q0 33 21.5 55
t54.5 22t54.5 -22t21.5 -55q0 -34 -21.5 -55.5t-54.5 -21.5z" />
    <glyph glyph-name="lllaprehalftamil" horiz-adv-x="907" 
d="M607 571q86 0 140 -39t80 -108t26 -157q0 -74 -16.5 -124.5t-52.5 -82.5q-26 -23 -58.5 -36t-77 -18.5t-110.5 -5.5h-456v559h126v-465h199v261q0 62 13 100t37 64q26 25 62.5 38.5t87.5 13.5zM612 477q-14 0 -28 -4.5t-24 -15.5q-14 -15 -20.5 -39t-6.5 -79v-245h41
q59 0 92 16.5t47 55.5t14 103q0 58 -11.5 105t-36.5 75t-67 28zM225 -50q19 0 39.5 -1.5t37.5 -4.5l-8 -87q-10 2 -23 2.5t-29 0.5q-29 0 -49 -9.5t-20 -31.5q0 -20 15.5 -30.5t38.5 -14.5t47 -4h26q47 0 80 11t56 32t39 52q7 13 19.5 23t35.5 15.5t60 6.5l85 -23
q-43 -9 -62.5 -23.5t-29.5 -36.5q-22 -49 -58.5 -82t-89.5 -49.5t-130 -16.5h-32q-51 0 -96.5 11.5t-71.5 29.5q-20 14 -36 39t-16 61q0 60 45.5 95t126.5 35zM558 -177l-12 11q-39 8 -69.5 27t-48.5 53.5t-20 86.5h122q0 -26 9 -44.5t29 -28.5q14 -6 32.5 -9t49.5 -3h115
v-93h-207zM454 668q-33 0 -54.5 21.5t-21.5 55.5q0 33 21.5 55t54.5 22t54.5 -22t21.5 -55q0 -34 -21.5 -55.5t-54.5 -21.5z" />
    <glyph glyph-name="vaprehalftamil" horiz-adv-x="1105" 
d="M265 -12q-63 0 -111.5 27.5t-76 83.5t-27.5 143q0 107 45 180.5t122 111t171 37.5q86 0 146 -23t98 -63.5t55.5 -92.5t17.5 -110q0 -54 -11.5 -100.5t-28.5 -87.5h232v465h125v-559h-486l-4 74q20 35 33.5 83.5t13.5 110.5q0 66 -23.5 112t-68 70.5t-108.5 24.5
q-68 0 -117 -32.5t-74.5 -87.5t-25.5 -123q0 -56 12.5 -90t35 -49t53.5 -15q24 0 41 10t26.5 28.5t9.5 45.5q0 43 -22.5 66t-60.5 23q-41 0 -75 -23.5t-62 -53.5l-19 84q34 35 80.5 58.5t103.5 23.5q77 0 125 -44.5t48 -124.5q0 -57 -22.5 -98t-65.5 -63t-105 -22zM551 668
q-33 0 -54.5 21.5t-21.5 55.5q0 33 21.5 55t54.5 22t54.5 -22t21.5 -55q0 -34 -21.5 -55.5t-54.5 -21.5z" />
    <glyph glyph-name="shaprehalftamil" horiz-adv-x="1246" 
d="M320 -12q-65 0 -113.5 18t-78.5 55q-24 27 -36 68.5t-12 110.5v319h126v-319q0 -54 7.5 -83.5t27.5 -48.5q13 -13 32.5 -19.5t46.5 -6.5q30 0 50.5 9t34.5 26q15 20 21.5 49t6.5 77v316h732v-328q0 -63 -12 -104.5t-36 -70.5q-30 -33 -77.5 -50.5t-113.5 -17.5
q-65 0 -114 18t-79 55q-23 29 -34.5 70t-11.5 110v224h-129v-235q0 -61 -11.5 -101.5t-34.5 -68.5q-28 -36 -76.5 -54t-115.5 -18zM926 82q30 0 50.5 9t34.5 26q16 20 22.5 49t6.5 77v222h-228v-225q0 -54 8 -83.5t27 -48.5q14 -13 33 -19.5t46 -6.5zM623 668
q-33 0 -54.5 21.5t-21.5 55.5q0 33 21.5 55t54.5 22t54.5 -22t21.5 -55q0 -34 -21.5 -55.5t-54.5 -21.5z" />
    <glyph glyph-name="ssaprehalftamil" horiz-adv-x="1451" 
d="M986 571q53 0 87.5 -14.5t55 -38.5t29.5 -53t9 -58q0 -32 -5.5 -69.5t-18.5 -92.5l-10 -43l-124 -486l-115 31l77 286l8 40l43 168q13 49 19 89t6 72q0 36 -14.5 56t-46.5 20q-38 0 -58.5 -26t-20.5 -69q0 -37 18 -61t52 -35.5t81 -11.5h46q58 0 101 19t78 46h110v-340
h-587l6 94h471v65q0 18 0.5 40t1.5 39q-26 -19 -79 -36.5t-124 -17.5h-22q-67 0 -117 14t-84 40.5t-50.5 64t-16.5 84.5q0 48 21.5 90t65 68t107.5 26zM265 -12q-63 0 -111.5 27.5t-76 83.5t-27.5 143q0 107 45 180.5t122 111t171 37.5q86 0 146 -23t98 -63.5t55.5 -92.5
t17.5 -110q0 -54 -11.5 -100.5t-28.5 -87.5h231l-15 -94h-345l-4 74q20 35 33.5 83.5t13.5 110.5q0 66 -23.5 112t-68 70.5t-108.5 24.5q-68 0 -117 -32.5t-74.5 -87.5t-25.5 -123q0 -56 12.5 -90t35 -49t53.5 -15q24 0 41 10t26.5 28.5t9.5 45.5q0 43 -22.5 66t-60.5 23
q-41 0 -75 -23.5t-62 -53.5l-19 84q34 35 80.5 58.5t103.5 23.5q77 0 125 -44t48 -125q0 -57 -22.5 -98t-65.5 -63t-105 -22zM725 668q-33 0 -54.5 21.5t-21.5 55.5q0 33 21.5 55t54.5 22t54.5 -22t21.5 -55q0 -34 -21.5 -55.5t-54.5 -21.5z" />
    <glyph glyph-name="saprehalftamil" horiz-adv-x="1370" 
d="M265 -12q-63 0 -111.5 27t-76 83.5t-27.5 142.5q0 81 26.5 143t73 103.5t106.5 62.5t127 21q60 0 105.5 -15t81 -44.5t64.5 -74.5l-50 -6q18 41 44.5 73t63 49.5t82.5 17.5q51 0 84.5 -13t56.5 -39q29 -30 41.5 -76t12.5 -116v-78q0 -48 8.5 -85t33.5 -58q12 -11 29 -17
t39 -6q32 0 56.5 14.5t38.5 50t14 98.5q0 54 -14.5 106t-40 100t-60.5 89l106 65q65 -81 100 -168t35 -186q0 -82 -26.5 -141t-80 -91t-136.5 -32q-45 0 -83.5 11.5t-67.5 36.5q-22 20 -39.5 49.5t-27 71t-9.5 97.5v41q0 60 -4 93.5t-15 53.5q-9 18 -24.5 26.5t-36.5 8.5
q-20 0 -35 -7.5t-24 -21.5q-14 -19 -18.5 -48t-4.5 -79v-321h-126v273q0 60 -12 96t-36 60q-23 23 -54 34.5t-75 11.5q-67 0 -116 -31t-75 -86.5t-26 -127.5q0 -55 12.5 -89t35 -48.5t53.5 -14.5q24 0 41 10t26.5 28.5t9.5 45.5q0 42 -22.5 65.5t-60.5 23.5q-41 0 -75 -23.5
t-62 -53.5l-19 84q34 35 80.5 58.5t103.5 23.5q77 0 125 -44.5t48 -124.5q0 -57 -22.5 -98t-65.5 -63t-105 -22zM686 668q-33 0 -54.5 21.5t-21.5 55.5q0 33 21.5 55t54.5 22t54.5 -22t21.5 -55q0 -34 -21.5 -55.5t-54.5 -21.5z" />
    <glyph glyph-name="haprehalftamil" horiz-adv-x="1718" 
d="M1402 571q84 0 142 -39.5t88 -113t30 -177.5q0 -122 -31 -200t-86 -122q-40 -33 -90.5 -51t-111 -25t-130.5 -7h-892q-54 0 -78.5 -5.5t-40.5 -16.5q-16 -12 -25 -31t-9 -52q0 -12 1 -23.5t2 -22.5l-122 -6q-3 20 -4.5 41t-1.5 42q0 45 17 77t45 53q19 13 42 21.5
t56 12.5t79 4h910q89 0 154 12.5t107 45.5t62 94.5t20 158.5q0 86 -18.5 137.5t-50.5 75t-73 23.5q-26 0 -46.5 -8t-36.5 -26q-18 -22 -24.5 -51.5t-6.5 -78.5v-313h-125v307q0 55 -4 87.5t-18 52.5q-8 14 -23 22t-36 8q-20 0 -35.5 -7.5t-24.5 -21.5q-14 -20 -18 -52.5
t-4 -83.5v-312h-125v335q0 49 6 84t19.5 60.5t33.5 44.5q24 24 57.5 35.5t71.5 11.5q49 0 82.5 -13.5t59 -42t45.5 -73.5l-41 10q20 35 46.5 62t64 42t91.5 15zM265 -12q-63 0 -111.5 27.5t-76 83.5t-27.5 143q0 107 45 180.5t122 111t171 37.5q86 0 146 -23t98 -63.5
t55.5 -92.5t17.5 -110q0 -54 -11.5 -100.5t-28.5 -87.5h231l38 -94h-398l-4 74q20 35 33.5 83.5t13.5 110.5q0 66 -23.5 112t-68 70.5t-108.5 24.5q-68 0 -117 -32.5t-74.5 -87.5t-25.5 -123q0 -56 12.5 -90t35 -49t53.5 -15q24 0 41 10t26.5 28.5t9.5 45.5q0 43 -22.5 66
t-60.5 23q-41 0 -75 -23.5t-62 -53.5l-19 84q34 35 80.5 58.5t103.5 23.5q77 0 125 -44.5t48 -124.5q0 -57 -22.5 -98t-65.5 -63t-105 -22zM859 668q-33 0 -54.5 21.5t-21.5 55.5q0 33 21.5 55t54.5 22t54.5 -22t21.5 -55q0 -34 -21.5 -55.5t-54.5 -21.5z" />
    <glyph glyph-name="tchaprehalftamil" horiz-adv-x="2007" 
d="M1534 571q53 0 88 -14.5t55.5 -38.5t29 -53t8.5 -58q0 -32 -5 -69.5t-19 -92.5l-10 -43l-124 -486l-115 31l78 286l7 40l44 168q13 49 19 89t6 72q0 36 -15 56t-46 20q-39 0 -59.5 -26t-20.5 -69q0 -37 18.5 -61t52 -35.5t80.5 -11.5h46q58 0 101 19t78 46h110v-340h-587
l6 94h471v65q0 18 0.5 40t2.5 39q-27 -19 -80 -36.5t-123 -17.5h-23q-67 0 -117 14t-84 40.5t-50.5 64t-16.5 84.5q0 48 22 90t65 68t107 26zM282 -12q-70 0 -123.5 20t-84 58.5t-30.5 93.5t31 95t98.5 62.5t177.5 22.5h359v-89h-373q-41 0 -74 -4.5t-56 -16.5
q-20 -12 -29.5 -28t-9.5 -40q0 -41 34 -60.5t89 -19.5q41 0 70 12.5t45 44.5t16 90v236h-159v-163l-114 -16v273h583v-94h-189v-230q0 -69 -12.5 -108.5t-36.5 -67.5q-34 -39 -88.5 -55t-123.5 -16zM871 -12q-47 0 -90 20t-70.5 64t-27.5 114q0 62 22 114t63.5 91t99 60.5
t127.5 21.5q78 0 131 -20t85 -54.5t46 -76.5t14 -86q0 -46 -10 -83t-22 -59h187l-7 -94h-305l-6 66q12 16 21.5 40.5t15.5 53t6 55.5q0 80 -47 122t-122 42q-55 0 -92.5 -16.5t-62.5 -51.5l-9 -19q-13 -25 -19 -52t-6 -60q0 -57 23.5 -80t54.5 -23q29 0 44 17.5t15 46.5
q0 36 -15.5 60.5t-49 37t-86.5 12.5h-180v89h188q45 0 81 -6t65 -18.5t51 -32.5q27 -22 42 -55t15 -77q0 -74 -44.5 -118.5t-125.5 -44.5zM997 668q-33 0 -54.5 21.5t-21.5 55.5q0 33 21.5 55t54.5 22t54.5 -22t21.5 -55q0 -34 -21.5 -55.5t-54.5 -21.5z" />
    <glyph glyph-name="kaiivowelsigntamil" horiz-adv-x="881" 
d="M282 -12q-70 0 -123.5 20t-84 58.5t-30.5 93.5t31 95t98.5 62.5t177.5 22.5h200q60 0 100.5 -5t70 -16t53.5 -30q29 -21 45.5 -54.5t16.5 -76.5q0 -80 -49 -124t-141 -44q-23 0 -52.5 2.5t-53.5 9.5l22 89q14 -4 30 -6t33 -2q44 0 67 19.5t23 60.5q0 29 -14 46.5
t-38 26.5t-54 12t-62 3h-211q-41 0 -74 -4.5t-56 -16.5q-20 -12 -29.5 -28t-9.5 -40q0 -41 34 -61t89 -20q41 0 70 13t45 45t16 90v236h-159v-163l-114 -16v273h583v-94h-188v-230q0 -69 -13 -108.5t-36 -67.5q-35 -39 -89 -55t-124 -16zM696 848q101 0 147.5 -37.5
t46.5 -97.5q0 -62 -40 -95t-110 -33q-75 0 -112 33t-37 89q0 27 14.5 60.5t43.5 60.5l71 -25q-17 -21 -29 -42t-12 -46q0 -18 7 -30.5t19.5 -18.5t30.5 -6q27 0 40 14.5t13 36.5q0 31 -25 42.5t-64 11.5q-15 0 -30 -1.5t-34 -5.5q-55 -10 -85.5 -47t-30.5 -89q0 -26 6 -46.5
t16 -39.5l-105 -15q-11 23 -16.5 49t-5.5 57q0 41 16 80.5t49.5 71t87 50.5t128.5 19z" />
    <glyph glyph-name="kauvowelsigntamil" horiz-adv-x="1132" 
d="M535 -12q-68 0 -122 20t-84.5 58.5t-30.5 93.5t31 95t98.5 62.5t178.5 22.5h135q95 0 162 -24.5t108 -66t59.5 -94t18.5 -108.5q0 -82 -26.5 -143.5t-73 -104.5t-108.5 -69.5t-132.5 -38.5t-144.5 -12h-27q-118 0 -205 27t-147 73t-96.5 105t-52.5 124t-16 129v21
q0 82 19.5 155t50.5 136.5t66 116.5l100 -60q-35 -51 -61 -108t-40 -116t-14 -116v-23q0 -75 22.5 -141.5t70.5 -117t124.5 -79t184.5 -28.5h8q86 0 154.5 16t117 50t74 84t25.5 118q0 72 -31 117t-84 67t-121 22h-135q-41 0 -74 -4.5t-56 -16.5q-20 -12 -29.5 -28t-9.5 -40
q0 -41 34 -60.5t89 -19.5q41 0 70 12.5t44.5 44.5t15.5 90v236h-159v-179l-113 -16v289h583v-94h-189v-230q0 -69 -12.5 -108.5t-36.5 -67.5q-35 -39 -89 -55t-124 -16z" />
    <glyph glyph-name="kauuvowelsigntamil" horiz-adv-x="1439" 
d="M871 -12q-47 0 -90 20t-70.5 64t-27.5 114q0 83 39 147.5t109 102t164 37.5q78 0 131 -20t85 -54.5t46 -76.5t14 -86q0 -46 -10 -83t-22 -59h183v-94h-308l-6 66q12 16 21.5 40.5t15.5 53t6 55.5q0 80 -47 122t-122 42q-55 0 -92.5 -16.5t-62.5 -51.5l-9 -19
q-13 -25 -19 -52t-6 -60q0 -57 23.5 -80t54.5 -23q29 0 44 17.5t15 46.5q0 36 -15.5 60.5t-49 37t-86.5 12.5h-180v89h188q45 0 81 -6t65 -18.5t51 -32.5q27 -22 42 -55t15 -77q0 -74 -44.5 -118.5t-125.5 -44.5zM282 -12q-70 0 -123.5 20t-84 58.5t-30.5 93.5t31 95
t98.5 62.5t177.5 22.5h360v-89h-374q-41 0 -74 -4.5t-56 -16.5q-20 -12 -29.5 -28t-9.5 -40q0 -41 34 -60.5t89 -19.5q41 0 70 12.5t45 44.5t16 90v236h-159v-163l-114 -16v273h583v-94h-189v-230q0 -69 -12.5 -108.5t-36.5 -67.5q-34 -39 -88.5 -55t-123.5 -16z" />
    <glyph glyph-name="ngaiivowelsigntamil" horiz-adv-x="1131" 
d="M82 0v559h554v-94h-149v-140q25 15 57 26t73 11q60 0 97.5 -21.5t55.5 -57t18 -78.5q0 -34 -9.5 -62t-22.5 -49h250v-94h-644v94h270q12 16 21.5 40t9.5 52q0 46 -22 64t-56 18q-26 0 -51 -10.5t-47 -25.5v-78h-125v311h-154v-465h-126zM922 0v559h126v-559h-126z
M944 848q100 0 146.5 -37.5t46.5 -97.5q0 -62 -40 -95t-110 -33q-75 0 -111.5 33t-36.5 89q0 27 14.5 60.5t43.5 60.5l70 -25q-17 -21 -28.5 -42t-11.5 -46q0 -18 6 -30.5t19 -18.5t32 -6q27 0 39.5 14.5t12.5 36.5q0 31 -25 42.5t-63 11.5q-15 0 -30 -1.5t-33 -5.5
q-56 -10 -86 -47t-30 -91q0 -36 13 -61.5t35 -43t49.5 -27.5t57.5 -15v-97q-58 9 -106 28.5t-82.5 49.5t-53 71.5t-18.5 94.5q0 44 16 84.5t49.5 73t87 51.5t127.5 19z" />
    <glyph glyph-name="ngauvowelsigntamil" horiz-adv-x="1131" 
d="M82 0v559h565v-94h-160v-140q25 15 57 26t73 11q60 0 97.5 -21.5t55.5 -57t18 -78.5q0 -34 -9.5 -62t-22.5 -49h211v-94h-605v94h270q12 16 21.5 40t9.5 52q0 46 -22 64t-56 18q-26 0 -51 -10.5t-47 -25.5v-78h-125v311h-154v-465h-126zM922 -283v842h126v-842h-126z" />
    <glyph glyph-name="ngauuvowelsigntamil" horiz-adv-x="1332" 
d="M1158 112q45 0 83.5 -17t62.5 -52t24 -90q0 -71 -36.5 -117t-100.5 -78q-60 -30 -143.5 -47t-184 -24.5t-211.5 -7.5h-81q-69 0 -128 2.5t-108.5 7.5t-89 13.5t-69.5 20.5q-48 20 -72 49t-24 71q0 33 18.5 60.5t59 43.5t106.5 16q43 0 89 -5.5t82 -14.5l-19 -91
q-27 7 -67 13t-71 6q-42 0 -59.5 -8.5t-17.5 -25.5q0 -14 19 -25.5t65 -20.5t127 -13.5t204 -4.5h36q57 0 114.5 2.5t112 8t103 14t87.5 21.5q64 20 101 52t37 77q0 36 -20.5 54t-59.5 18q-27 0 -52 -10t-41 -23v95q21 13 53.5 21.5t70.5 8.5zM82 0v559h565v-94h-160v-140
q25 15 57 26t73 11q60 0 97.5 -21.5t55.5 -57t18 -78.5q0 -34 -9.5 -62t-22.5 -49h211v-94h-605v94h270q12 16 21.5 40t9.5 52q0 46 -22 64t-56 18q-26 0 -51 -10.5t-47 -25.5v-78h-125v311h-154v-465h-126zM922 -142v701h126v-701h-126z" />
    <glyph glyph-name="caiivowelsigntamil" horiz-adv-x="828" 
d="M282 -12q-70 0 -123.5 20t-84 58.5t-30.5 93.5t31 95t98.5 62.5t177.5 22.5h381v-89h-395q-41 0 -74 -4.5t-56 -16.5q-20 -12 -29.5 -28t-9.5 -40q0 -41 34 -60.5t89 -19.5q41 0 70 12.5t45 44.5t16 90v236h-159v-163l-114 -16v273h583v-94h-189v-230q0 -69 -12.5 -108.5
t-36.5 -67.5q-34 -39 -88.5 -55t-123.5 -16zM643 848q101 0 147.5 -37.5t46.5 -97.5q0 -62 -40 -95t-110 -33q-75 0 -112 33t-37 89q0 27 14.5 60.5t43.5 60.5l71 -25q-17 -21 -29 -42t-12 -46q0 -18 7 -30.5t19.5 -18.5t30.5 -6q27 0 40 14.5t13 36.5q0 31 -25 42.5
t-64 11.5q-15 0 -30 -1.5t-34 -5.5q-55 -10 -85.5 -47t-30.5 -89q0 -26 6 -46.5t16 -39.5l-105 -15q-11 23 -16.5 49t-5.5 57q0 41 16 80.5t49.5 71t87 50.5t128.5 19z" />
    <glyph glyph-name="cauvowelsigntamil" horiz-adv-x="922" 
d="M282 -12q-70 0 -123.5 20t-84 58.5t-30.5 93.5t31 95t98.5 62.5t177.5 22.5h547v-89h-561q-41 0 -74 -4.5t-56 -16.5q-20 -12 -29.5 -28t-9.5 -40q0 -41 34 -60.5t89 -19.5q41 0 70 12.5t45 44.5t16 90v236h-159v-163l-114 -16v273h583v-94h-189v-230q0 -69 -12.5 -108.5
t-36.5 -67.5q-34 -39 -88.5 -55t-123.5 -16zM657 0v275l122 -8v-267h-122z" />
    <glyph glyph-name="cauuvowelsigntamil" horiz-adv-x="1304" 
d="M1124 186q54 0 90.5 -22.5t55 -62.5t18.5 -92q0 -75 -31 -130.5t-86.5 -93.5t-127.5 -61.5t-154 -34t-167 -10.5h-49q-160 0 -272.5 35t-184.5 93q-83 67 -119.5 154.5t-36.5 178.5v24q0 80 19.5 152t50.5 134.5t65 115.5l101 -60q-37 -52 -62.5 -109t-39 -114.5
t-13.5 -113.5v-14q0 -84 29 -153t90 -120t156 -78t226 -27h30q70 0 137 8t124.5 25t101.5 44.5t68.5 65.5t24.5 89q0 43 -20.5 65.5t-54.5 22.5q-23 0 -42.5 -8.5t-34.5 -20.5l-6 85q23 15 53.5 24t60.5 9zM535 -12q-69 0 -122.5 20t-84 58.5t-30.5 93.5t31 95t98.5 62.5
t177.5 22.5h548v-89h-562q-41 0 -74 -4.5t-56 -16.5q-20 -12 -29.5 -28t-9.5 -40q0 -41 34 -60.5t89 -19.5q41 0 70 12.5t44.5 44.5t15.5 90v236h-159v-163l-113 -16v273h583v-94h-189v-230q0 -69 -12.5 -108.5t-36.5 -67.5q-35 -39 -89 -55t-124 -16zM911 0v275l119 -8
v-267h-119z" />
    <glyph glyph-name="jaiivowelsigntamil" horiz-adv-x="1085" 
d="M343 571q78 0 128 -18.5t80 -47t47 -59.5l-33 -12q18 45 48 75.5t71 46t92 15.5q84 0 140 -32t84.5 -86t28.5 -122q0 -77 -26.5 -128.5t-72.5 -83.5q-38 -26 -87.5 -40.5t-108.5 -20.5t-127 -6h-181q-53 0 -92 -4t-66 -13.5t-47 -25.5q-22 -17 -32.5 -41.5t-10.5 -57.5
q0 -47 19 -77t50 -45t68 -15q42 0 74 11.5t61.5 35.5t63.5 58q48 50 90 79.5t89 43t110 13.5q47 0 86 -12.5t67.5 -36t44 -56.5t15.5 -74q0 -45 -21 -80.5t-62 -55.5t-99 -20q-53 0 -87.5 13t-55.5 35t-30 48t-9 52q0 41 22 77t53 61l96 -11q-36 -28 -51.5 -56.5
t-15.5 -54.5q0 -33 18.5 -53.5t56.5 -20.5q23 0 39.5 8.5t25.5 24.5t9 39q0 22 -8.5 37.5t-24 25.5t-36.5 14.5t-46 4.5q-21 0 -39 -2.5t-36 -10.5q-19 -7 -36.5 -18t-36 -29t-43.5 -45q-39 -43 -80 -74.5t-90.5 -48t-116.5 -16.5q-93 0 -150 31.5t-83.5 84t-26.5 112.5
q0 57 19.5 97.5t52.5 67.5q35 29 79.5 45t98.5 22.5t115 6.5h159q62 0 113 3.5t91.5 14.5t68.5 33q26 21 40 52.5t14 77.5q0 51 -18 83.5t-48.5 49t-68.5 16.5q-27 0 -48 -8t-36 -25q-18 -21 -26 -51t-8 -89v-94h-125v75q0 46 -9.5 82.5t-30 62.5t-56 39.5t-88.5 13.5
q-14 0 -26 -1t-23 -4l-33 -9q-37 -11 -58 -30.5t-29.5 -42.5t-8.5 -46q0 -37 18 -61t60 -24q37 0 57 19.5t20 52.5q0 30 -15 54t-45 37.5t-76 13.5l99 48q40 -5 73.5 -24t53.5 -51t20 -76q0 -74 -50 -118t-139 -44q-61 0 -102.5 22t-63 61.5t-21.5 89.5q0 70 39 119.5
t105 76t147 26.5zM900 848q101 0 147.5 -37.5t46.5 -97.5q0 -62 -40 -95t-110 -33q-75 0 -112 33t-37 89q0 27 14.5 60.5t43.5 60.5l71 -25q-17 -21 -29 -42t-12 -46q0 -18 7 -30.5t19.5 -18.5t30.5 -6q27 0 40 14.5t13 36.5q0 31 -25 42.5t-64 11.5q-15 0 -30 -1.5
t-34 -5.5q-55 -10 -85.5 -47t-30.5 -89q0 -26 6 -46.5t16 -39.5l-105 -15q-11 23 -16.5 49t-5.5 57q0 41 16 80.5t49.5 71t87 50.5t128.5 19z" />
    <glyph glyph-name="nyaiivowelsigntamil" horiz-adv-x="1302" 
d="M1058 329q63 0 108 -28.5t69 -82t24 -129.5q0 -91 -31.5 -159.5t-87.5 -116.5t-127.5 -77.5t-153.5 -43t-166 -13.5h-44q-132 0 -230.5 25t-167 70t-110.5 104.5t-61.5 128.5t-19.5 141v20q0 73 19 145t50 136.5t66 116.5l102 -60q-38 -55 -64 -113t-39 -115.5
t-13 -112.5v-12q0 -82 26.5 -150.5t83 -119t146.5 -78.5t218 -28h30q96 0 178 18.5t142.5 56t94 96t33.5 139.5q0 46 -11.5 79t-34 51t-58.5 18q-25 0 -46.5 -9t-40.5 -23l1 95q21 13 50.5 22t64.5 9zM538 -12q-63 0 -111.5 27t-76.5 82.5t-28 139.5q0 86 31 149t88 102
q35 25 78 40.5t101.5 23t139.5 7.5h39l3 -94h-85q-54 0 -91 -5.5t-62.5 -16t-45.5 -26.5q-40 -30 -62 -76.5t-22 -113.5q0 -53 12.5 -86t35.5 -48t54 -15q24 0 41 10t26.5 28.5t9.5 45.5q0 42 -23 65.5t-61 23.5q-41 0 -74.5 -23.5t-61.5 -53.5l-19 84q34 35 80 58.5
t104 23.5q78 0 125.5 -44.5t47.5 -124.5q0 -57 -22.5 -98t-65 -63t-105.5 -22zM826 0v465h-44l3 94h320v-94h-154v-465h-125zM1100 848q101 0 147.5 -37.5t46.5 -97.5q0 -62 -40 -95t-110 -33q-75 0 -112 33t-37 89q0 27 14.5 60.5t43.5 60.5l71 -25q-17 -21 -29 -42
t-12 -46q0 -18 7 -30.5t19.5 -18.5t30.5 -6q27 0 40 14.5t13 36.5q0 31 -25 42.5t-64 11.5q-15 0 -30 -1.5t-34 -5.5q-55 -10 -85.5 -47t-30.5 -89q0 -26 6 -46.5t16 -39.5l-105 -15q-11 23 -16.5 49t-5.5 57q0 41 16 80.5t49.5 71t87 50.5t128.5 19z" />
    <glyph glyph-name="nyauvowelsigntamil" horiz-adv-x="1324" 
d="M1241 559v-723h-401l-72 6h-346l-5 88h699v629h125zM785 329q62 0 107 -28t69.5 -80t24.5 -123q0 -58 -13.5 -106.5t-39.5 -88.5l-19 -42q-54 -65 -138 -105t-186 -58.5t-211 -18.5h-40q-67 0 -122.5 9.5t-96.5 29t-63.5 50t-22.5 71.5q0 24 9 41.5t26 28.5q16 11 38 16
t74 5h258v-88h-255q-15 0 -24.5 -3t-9.5 -17q0 -23 46.5 -38.5t142.5 -15.5h42q84 0 156.5 10t132 32t105.5 59l28 43q27 34 42 80t15 104q0 43 -11.5 74t-34 48t-57.5 17t-61 -15t-52 -36l-3 96q24 19 60 34t84 15zM554 0v465h-43l6 94h315v-94h-153v-465h-125zM265 -12
q-63 0 -111.5 27t-76 82.5t-27.5 139.5q0 86 30.5 149t87.5 102q35 25 78.5 40.5t102 23t139.5 7.5h38l-4 -94h-77q-54 0 -91.5 -5.5t-62.5 -16t-46 -26.5q-40 -30 -61.5 -76.5t-21.5 -113.5q0 -53 12.5 -86t35 -48t53.5 -15q24 0 41 10t26.5 28.5t9.5 45.5q0 42 -22.5 65.5
t-60.5 23.5q-41 0 -75 -23.5t-62 -53.5l-19 84q34 35 80.5 58.5t103.5 23.5q78 0 125.5 -44.5t47.5 -124.5q0 -57 -22 -98t-65 -63t-106 -22z" />
    <glyph glyph-name="nyauuvowelsigntamil" horiz-adv-x="1695" 
d="M265 -12q-63 0 -111.5 27t-76 82.5t-27.5 139.5q0 86 30.5 149t87.5 102q35 25 78 40.5t102 23t139 7.5h39l-4 -94h-77q-54 0 -91.5 -5.5t-62.5 -16t-46 -26.5q-40 -30 -61.5 -76.5t-21.5 -113.5q0 -53 12.5 -86t35 -48t53.5 -15q24 0 41 10t26.5 28.5t9.5 45.5
q0 42 -22.5 65.5t-60.5 23.5q-41 0 -75 -23.5t-62 -53.5l-19 84q34 35 80.5 58.5t103.5 23.5q78 0 125.5 -44t47.5 -125q0 -57 -22 -98t-65 -63t-106 -22zM554 0v465h-43l6 94h315v-94h-153v-465h-125zM785 329q62 0 107 -28t69.5 -80t24.5 -123q0 -58 -13.5 -106.5
t-39.5 -88.5l-19 -42q-54 -65 -138 -105t-186 -58.5t-211 -18.5h-40q-67 0 -122.5 9.5t-96.5 29t-63.5 50t-22.5 71.5q0 24 9 41.5t26 28.5q16 11 38 16t74 5h258v-88h-255q-15 0 -24.5 -3t-9.5 -17q0 -23 46.5 -38.5t142.5 -15.5h42q84 0 156.5 10t132 32t105.5 59l28 43
q27 34 42 80t15 104q0 43 -11.5 74t-34 48t-57.5 17t-61 -15t-52 -36l-3 96q24 19 60 34t84 15zM1678 559v-94h-153v-629h-125v629h-159v-629h-407l-71 6h-341l-5 88h699v629h562z" />
    <glyph glyph-name="ttaivowelsigntamil" horiz-adv-x="842" 
d="M82 0v559h126v-465h617v-94h-743zM524 477q50 0 84.5 -15t55.5 -39.5t29.5 -55t8.5 -62.5q0 -46 -10 -95t-24 -97l-113 -397l-114 31l78 268l4 18l22 76q15 52 25 97.5t10 91.5q0 40 -15 62.5t-46 22.5q-32 0 -52.5 -24.5t-20.5 -70.5q0 -43 16 -81.5t42 -72.5t56 -64
l-92 -53q-36 42 -67.5 84t-50 89.5t-18.5 103.5q0 50 21.5 91.5t64.5 66.5t106 25z" />
    <glyph glyph-name="ttaiivowelsigntamil" horiz-adv-x="842" 
d="M82 0v559h126v-465h617v-94h-743zM582 478q66 0 108.5 -18.5t63 -49.5t20.5 -72q0 -62 -41.5 -98t-108.5 -36q-48 0 -81 16.5t-50 45.5t-17 67q0 29 14 63.5t43 62.5l72 -26q-18 -21 -29.5 -41.5t-11.5 -45.5q0 -19 6.5 -31t19 -18t30.5 -6q27 0 40.5 14.5t13.5 36.5
q0 31 -25.5 42.5t-63.5 11.5q-14 0 -26.5 -0.5t-22.5 -2.5q-38 -6 -63.5 -28.5t-38.5 -54t-13 -66.5q0 -59 25.5 -105.5t66.5 -79.5l-86 -50q-33 31 -59.5 65.5t-42 76.5t-15.5 96q0 41 15 81.5t47.5 74.5t84 54.5t125.5 20.5z" />
    </font>
</defs>
</svg>
